<?xml version="1.0" standalone="no"?>
<!DOCTYPE svg PUBLIC "-//W3C//DTD SVG 1.1//EN" "http://www.w3.org/Graphics/SVG/1.1/DTD/svg11.dtd" >
<svg xmlns="http://www.w3.org/2000/svg">
<metadata></metadata>
<defs>
<font id="monarchybold" horiz-adv-x="1005" >
<font-face units-per-em="2048" ascent="1638" descent="-410" />
<missing-glyph horiz-adv-x="512" />
<glyph horiz-adv-x="0" />
<glyph horiz-adv-x="682" />
<glyph unicode=" "  horiz-adv-x="512" />
<glyph unicode="&#x09;" horiz-adv-x="512" />
<glyph unicode="&#xa0;" horiz-adv-x="512" />
<glyph unicode="!" horiz-adv-x="313" d="M82 -4v248h149v-248h-149zM82 393v1553h149v-1553h-149z" />
<glyph unicode="&#x22;" horiz-adv-x="718" d="M82 1952h254l-57 -455h-146zM383 1952h254l-57 -455h-146z" />
<glyph unicode="#" horiz-adv-x="1300" d="M82 2l213 657h-176v150h225l117 360h-205v150h254l207 637h157l-206 -637h186l207 637h158l-207 -637h170v-150h-219l-117 -360h198v-150h-247l-213 -657h-158l213 657h-186l-213 -657h-158zM502 809h186l117 360h-187z" />
<glyph unicode="$" horiz-adv-x="851" d="M82 498v14v43l170 35v-141q0 -66 51 -111q15 -15 43 -31v772q-4 5 -10 11t-13.5 13t-11.5 11q-55 49 -95 105t-58.5 97.5t-29 84t-12 57.5t-1.5 25v16v31q0 100 65 177.5t166 102.5v142h152v-140q102 -23 169 -98t70 -172h2v-18q0 -12 4.5 -20t8.5 -10l4 -1l14 -2v-57 l-170 -35v104v17v10q0 70 -51 115q-24 24 -51 32v-565q58 -66 112 -156q71 -124 97 -227q30 -104 30 -209v-67q0 -102 -67.5 -181t-171.5 -102v-170h-152v172q-99 25 -164.5 101t-66.5 173v19q0 21 -19 31zM252 1473q6 -40 18 -76q29 -73 76 -131v409q-30 -17 -43 -30 q-51 -48 -51 -115v-57zM498 305q30 12 51 33q51 45 51 115v30h-2l2 17v18q0 83 -27 182q-29 102 -75 181v-576z" />
<glyph unicode="%" horiz-adv-x="954" d="M82 0l633 1952h157l-632 -1952h-158zM84 1417v219q0 84 59.5 143.5t143.5 59.5q85 0 143.5 -59t58.5 -144v-219q0 -85 -58.5 -144t-143.5 -59q-84 0 -143.5 59.5t-59.5 143.5zM236 1417q0 -23 14.5 -38t36.5 -15q23 0 38 15t15 38v219q0 23 -15 38.5t-38 15.5 q-22 0 -36.5 -15.5t-14.5 -38.5v-219zM455 317v218q0 85 58.5 143.5t143.5 58.5t144 -58.5t59 -143.5v-218q0 -85 -59 -143.5t-144 -58.5t-143.5 58.5t-58.5 143.5zM604 317q0 -23 15.5 -38t37.5 -15t38 15t16 38v218q0 22 -16 37.5t-38 15.5t-37.5 -15.5t-15.5 -37.5v-218z " />
<glyph unicode="&#x26;" horiz-adv-x="880" d="M82 342v803v31l68 67h36l-94 160l-10 33v178q0 141 100 240.5t240 99.5q141 0 241.5 -99.5t100.5 -240.5v-133v-21q0 -15 4.5 -24t9.5 -11l4 -2l17 -2v-67l-185 -43v131l-2 18v154q0 80 -55 135t-135 55q-78 0 -133 -55q-58 -58 -58 -135v-154l158 -264l-59 -102h-99 v-752q0 -75 58 -133q57 -57 135 -57q76 0 133 57t57 131v12v432v23q0 26 -20 33h-121v149h141h150v-18v-131v-115v-287v-30v-66q0 -140 -100 -240t-240 -100q-141 0 -241.5 100t-100.5 240z" />
<glyph unicode="'" horiz-adv-x="417" d="M82 1952h254l-57 -455h-146z" />
<glyph unicode="(" horiz-adv-x="647" d="M82 899q0 290 82 549q88 288 246 500l6 8h149l-18 -31q-73 -121 -146 -291q-68 -159 -104 -346q-33 -190 -33 -360v-29q3 -299 74 -565q80 -305 209 -504l18 -29h-149l-6 9q-158 209 -246 507q-82 268 -82 582z" />
<glyph unicode=")" horiz-adv-x="647" d="M82 -199l16 29q145 255 211 504q71 266 74 565q0 213 -33 389q-36 187 -104 346q-35 82 -148 291l-16 31h149l7 -8q151 -202 245 -500q82 -269 82 -549q0 -304 -82 -582q-94 -307 -245 -507l-7 -9h-149z" />
<glyph unicode="*" horiz-adv-x="798" d="M82 1528l168 98l-168 96l76 129l166 -96v193h151v-193l166 96l76 -129l-168 -96l168 -98l-76 -129l-166 96v-192h-151v192l-166 -96z" />
<glyph unicode="+" horiz-adv-x="811" d="M82 782v150h248v250h149v-250h250v-150h-250v-247h-149v247h-248z" />
<glyph unicode="," horiz-adv-x="411" d="M82 -2v248h248v-248v-209h-150v209h-98z" />
<glyph unicode="-" horiz-adv-x="645" d="M82 782v150h481v-150h-481z" />
<glyph unicode="." horiz-adv-x="411" d="M82 4v248h248v-248h-248z" />
<glyph unicode="/" horiz-adv-x="956" d="M82 4l635 1952h157l-634 -1952h-158z" />
<glyph unicode="0" horiz-adv-x="845" d="M82 344v1270q0 141 100 240.5t240 99.5q141 0 241.5 -99.5t100.5 -240.5v-1270q0 -141 -100.5 -240.5t-241.5 -99.5q-140 0 -240 99.5t-100 240.5zM231 590l297 1184q-50 30 -106 30q-80 0 -135 -55q-56 -56 -56 -135v-1024zM291 207q53 -53 131 -53q83 0 135 55 q55 55 55 135v1153z" />
<glyph unicode="1" horiz-adv-x="526" d="M82 1466v152h18q17 0 40 35.5t42 101.5q11 39 19.5 84.5t11 68.5t2.5 27v19h21l129 -6v-1784q6 -12 30 -14h49v-150h-307v150h45q23 0 33 20v1339q-52 -43 -115 -43h-18z" />
<glyph unicode="2" horiz-adv-x="845" d="M82 0v129q0 125 33 252q33 132 104 274q81 159 221 314q106 116 150 309q11 50 24 170v164q0 76 -57 133t-135 57q-76 0 -133 -57q-58 -58 -58 -133v-158q0 -13 4.5 -21.5t9 -11t7.5 -2.5l16 -2l-2 -18v-49l-184 -43v170v135q0 140 100 240t240 100q141 0 241.5 -100 t100.5 -240v-142v-18v-6v-21h-2q-5 -93 -25 -178q-22 -104 -61 -186q-50 -112 -125 -193q-119 -131 -197 -278q-61 -116 -92 -240q-29 -104 -29 -200h373q6 12 6 32v117h150v-299h-111h-569z" />
<glyph unicode="3" horiz-adv-x="845" d="M82 338v94l149 -67v-27q0 -79 56 -135t135 -56t135 56q55 55 55 135v749h-96l-59 105l157 262v154q0 78 -57 135q-55 55 -133 55q-80 0 -135 -55q-58 -58 -58 -135v-131h2v-21q0 -15 4.5 -24t9.5 -11l5 -2l16 -4v-65l-186 -43v129v20v152q0 141 100.5 241.5t241.5 100.5 q140 0 240 -100.5t100 -241.5v-176l-10 -33l-95 -160h37l68 -68v-32v-19v-782q0 -141 -100.5 -240.5t-241.5 -99.5q-140 0 -240 99.5t-100 240.5z" />
<glyph unicode="4" horiz-adv-x="768" d="M82 530l297 1422h225v-1270h82v-152h-82v-364q5 -16 33 -16h47v-150h-307v150h45q24 0 33 18v362h-373zM266 682h189v899z" />
<glyph unicode="5" horiz-adv-x="845" d="M82 342v174h149v-174q0 -79 56 -135q57 -57 135 -57t135 57q55 55 55 135v184h2v678h-532v651v97h682v-150h-533v-448h533v-895v-117q0 -141 -100.5 -241.5t-241.5 -100.5q-140 0 -240 100.5t-100 241.5z" />
<glyph unicode="6" horiz-adv-x="845" d="M82 342v47v1104v117q0 141 100 240.5t240 99.5q141 0 241.5 -99.5t100.5 -240.5v-174h-150v174q0 78 -57 135q-55 55 -135 55q-78 0 -133 -55q-58 -58 -58 -135v-187v-120q86 59 191 59q141 0 241.5 -100.5t100.5 -241.5v-678q0 -141 -100.5 -240.5t-241.5 -99.5 q-140 0 -240 99.5t-100 240.5zM231 342q0 -77 58 -135q55 -55 133 -55q80 0 135 55q57 57 57 135v678q0 78 -57 135q-55 55 -135 55q-78 0 -133 -55q-58 -58 -58 -135v-678z" />
<glyph unicode="7" horiz-adv-x="956" d="M82 -2l586 1804h-402q-6 -12 -8 -33v-116h-149v299h20h745l-634 -1954h-158z" />
<glyph unicode="8" horiz-adv-x="858" d="M82 1552v58q0 140 100 240t240 100q141 0 241.5 -100t100.5 -240v-58q0 -75 -32.5 -144t-90.5 -116q64 -47 99.5 -118.5t35.5 -153.5v-678q0 -141 -99.5 -240.5t-240.5 -99.5t-240.5 99.5t-99.5 240.5v678q0 75 32 143.5t89 118.5q-64 47 -99.5 118.5t-35.5 151.5z M231 1552q0 -79 56 -135q55 -55 135 -55t135 55t55 135v58q0 78 -55 133q-57 57 -135 57t-135 -57q-56 -56 -56 -133v-58zM246 342q0 -80 55 -135t135 -55t135 55q56 56 56 135v678q0 79 -56 135q-55 55 -135 55t-135 -55t-55 -135v-678z" />
<glyph unicode="9" horiz-adv-x="845" d="M82 342v174h149v-174q0 -77 58 -135q55 -55 133 -55q80 0 135 55t55 135v186h2v121q-86 -59 -192 -59q-140 0 -240 100.5t-100 241.5v678q0 141 100 240.5t240 99.5q141 0 241.5 -99.5t100.5 -240.5v-47v-1104v-117q0 -141 -100.5 -240.5t-241.5 -99.5q-140 0 -240 99.5 t-100 240.5zM231 932q0 -79 56 -135t135 -56t135 56q55 55 55 135v678q0 80 -55 135t-135 55t-135 -55q-56 -56 -56 -135v-678z" />
<glyph unicode=":" horiz-adv-x="411" d="M82 4v248h248v-248h-248zM82 403v248h248v-248h-248z" />
<glyph unicode=";" horiz-adv-x="413" d="M82 403v248h248v-248h-248zM84 -2v248h248v-248v-209h-152v209h-96z" />
<glyph unicode="&#x3c;" horiz-adv-x="727" d="M82 889l4 8l8 8l443 443q3 2 18 -13h2l80 -82v-6q0 -10 -12 -20l-338 -338l358 -359l-76 -73q0 -1 -1 -2t-1 -2q-19 -19 -26 -19h-9l-426 426l-2 2q-4 4 -8.5 8t-6.5 6t-4 4.5t-2.5 4.5t-0.5 4z" />
<glyph unicode="=" horiz-adv-x="811" d="M82 578v149h647v-149h-647zM82 987v150h647v-150h-647z" />
<glyph unicode="&#x3e;" horiz-adv-x="727" d="M82 1249l76 76q0 2 2 4q17 19 26 19h7l428 -426v-2q4 -3 8 -7t6 -5.5t4.5 -4l3.5 -3.5t1.5 -3t0.5 -4l-4 -8l-10 -8l-441 -443q-4 -4 -20 12l-80 82v7q0 8 10 18l340 340z" />
<glyph unicode="?" horiz-adv-x="843" d="M82 1307v131v18v154q0 141 100 240.5t240 99.5q141 0 240.5 -99.5t99.5 -240.5v-287l-14 -43l-216 -252v-635h-149v666l16 43l213 252v256q0 80 -55 135q-58 55 -135 55q-80 0 -135 -55q-56 -56 -56 -135v-133v-21q0 -26 21 -37l16 -2l-2 -16v-51zM383 0v250h149v-250 h-149z" />
<glyph unicode="@" horiz-adv-x="1697" d="M82 768q0 155 59 297q60 141 166 244q105 105 244 164q140 61 297 61q159 0 299 -61q136 -59 244 -164q103 -103 163 -244q54 -130 60 -264h2l-2 -21q-25 -272 -201 -448l-10 -8q-64 -43 -135 -43q-23 0 -33 2q-55 5 -109 43q-55 42 -63 88l-2 2v14q-95 -74 -223 -74 q-155 0 -267 109q-110 110 -110 266v78q0 156 110 266q112 109 267 109q124 0 221 -72v78l188 -41v-68l-14 -2q-21 -11 -21 -32v-564v-39q9 -26 58 -28q57 9 96 71q89 139 98 293q-3 120 -49 228.5t-131 193.5q-182 182 -436 182q-123 0 -235.5 -47t-200.5 -135 q-88 -86 -134.5 -198.5t-46.5 -235.5q0 -255 181 -436q87 -87 200 -133.5t236 -46.5q191 0 334 96l30 20v-176l-12 -6q-26 -13 -53 -25q-140 -61 -299 -61q-157 0 -297 61q-139 59 -244 164q-106 103 -166 244q-59 142 -59 299zM612 731q0 -94 66 -160q65 -65 160 -65 t157 65q55 55 64 125v148q-9 70 -64 125q-62 65 -157 65t-160 -65q-66 -66 -66 -160v-78z" />
<glyph unicode="A" d="M82 8v121v18v5h4h29q24 0 32 6q6 4 10 13t4.5 16.5t1.5 20t1 15.5q2 28 7 80t7 76q7 84 22.5 252t22.5 252q8 91 24.5 273.5t24.5 273.5q5 57 14.5 167.5t14.5 167.5q2 6 2 21q1 4 -3.5 7t-13 4.5t-17 2t-19.5 0.5h-33v103v45h10h35q64 0 193 1t192 1h10q9 0 11 -6 q0 -20 4 -52q1 -18 4 -51t4 -49q4 -22 8 -63q6 -64 19.5 -199t19.5 -205q8 -77 26.5 -266t28.5 -291q39 -373 47 -457q6 -47 9 -90q0 -33 6 -33v-14v-6q3 -14 26 -14q16 -2 52 -2q2 0 2 -99v-47q0 -4 -6 -4h-7h-108h-187v104v46h11h32q9 0 21.5 5t11.5 13v10q-1 8 -3 25.5 t-3 25.5q-22 239 -45 463q-8 85 -25.5 254t-25.5 254q-8 78 -12 115v4h-43h-119q-4 0 -4 -6v-8q-2 -18 -6 -58q-3 -29 -9.5 -96t-9.5 -104q-5 -54 -23 -249t-26 -300q-4 -50 -14 -160.5t-15 -169.5q-1 -6 3.5 -9.5t13 -5.5t17 -2.5t19.5 -0.5h27v-101v-47q0 -2 -6 -2h-8 h-111h-133h-41h-4q-4 0 -4 6zM426 1470h137q-8 67 -20 207q-2 16 -5.5 48t-5.5 49q-1 11 -15 18.5t-30 7.5q-29 0 -34 -18q-2 -8 -2.5 -26t-1.5 -23q-3 -50 -9 -107q-2 -24 -7 -76t-7 -80z" />
<glyph unicode="B" horiz-adv-x="929" d="M82 1804v121v12q0 13 2 13h41h197q34 0 102 -1t102 -1q92 0 168.5 -43.5t118.5 -122.5q35 -68 35 -142q0 -76 -35 -145.5t-98 -114.5q97 -82 125 -209q8 -41 8 -96v-192v-480q0 -142 -74 -243q-60 -85 -158 -127q-50 -21 -100 -27q-32 -4 -51 -4h-12h-7h-184h-129h-35 q-6 0 -6 4v6v123v17h2h10h21q27 0 39 12q6 6 6 20v43v396v561v465v116q0 13 -2 19q-9 16 -43 16h-10h-29q-4 0 -4 4zM317 1319q0 -1 1 -5t1 -5v-60v-205v-550v-324q0 -18 46 -18h16h102q58 3 107.5 35t77.5 83q30 51 30 123v176v492v45q-5 59 -35 108t-79 78q-51 33 -146 33 h-116q-5 0 -5 -6zM319 1479q0 -4 7 -4h8h88h115q49 0 89.5 27t59.5 71q14 35 14 63q0 68 -47 115t-137 47h-104h-43h-33h-12h-5v-6v-12v-49v-244v-8z" />
<glyph unicode="C" horiz-adv-x="878" d="M82 373v403v551v283q0 94 50.5 176.5t135.5 126.5q66 35 152 35q120 0 213 -72q71 -56 108 -152q19 -59 19 -96v-19.5t4 -28t14 -13.5q6 -4 19 -4v-19v-37v-12q-16 -4 -49 -11t-50 -11q-40 -8 -86 -21v102v27q0 57 -12 94q-20 54 -68 88t-106 35q-58 0 -108.5 -31 t-71.5 -84q-15 -35 -15 -102v-27v-182v-543v-436v-22q0 -76 21 -117q26 -50 78 -78q43 -23 89 -23q10 0 21 1q57 4 102 41.5t62 93.5q8 23 8 71v31v25v14q0 10 4 10q81 26 146 45v-104q0 -76 -12 -125q-25 -93 -96 -160.5t-165 -87.5q-35 -6 -67 -6q-97 0 -180.5 52.5 t-126.5 140.5q-33 70 -33 178z" />
<glyph unicode="D" horiz-adv-x="935" d="M82 1800v4v119q0 27 2 27h39h182h135q70 0 107 -8q114 -22 197.5 -108t103.5 -200q6 -29 6 -86v-43v-194v-549v-367q0 -141 -78 -243q-59 -77 -158 -121q-67 -29 -165 -29h-7h-10h-45h-131h-127h-35q-4 0 -5 1t-1 7v121v19q0 2 2 2h4h27q27 0 37 8q8 8 8 24v41v396v559 v467v118q0 13 -2 17q-8 18 -51 18h-31h-4zM319 156q0 -4 27 -4h19h116h4q93 6 156.5 75t63.5 162v119v508v475v65v33q-6 57 -39 106t-84 77q-47 26 -140 26h-118q-5 0 -5 -2v-8v-109v-452v-561v-426v-84z" />
<glyph unicode="E" horiz-adv-x="931" d="M82 1800v98v48q0 4 10 4h8h185h407h84h62h6q4 0 4 -8v-195v-68q0 -1 1 -5t1 -7q0 -8 -6 -8h-117q-29 0 -29 2v47v64q0 25 -32 28q-13 0 -41 -1t-43 -1h-68h-35h-98h-55h-7v-6v-238v-81q0 -3 43 -3h50h22h10q15 4 15 41v107h102h47v-2v-6v-430q0 -4 -4 -4h-6h-59h-64h-10 q-6 0 -6 6v106q0 14 -7.5 23.5t-19.5 9.5h-61h-52v-4v-39v-180v-545v-385q0 -1 -1 -4.5t-1 -5.5q0 -4 5 -4h88h229h16q43 0 43 26v111q0 2 97 2h49q6 0 6 -8q0 -2 -1 -7t-1 -6v-204v-58v-8h-21h-110h-332h-293v104v46h10h33q35 0 35 38v25v379v559v477v127v23q0 9 -13 14.5 t-24 5.5h-51z" />
<glyph unicode="F" horiz-adv-x="929" d="M82 1800v8v27v68v45q0 2 22 2h185h407h86h58q8 0 8 -6v-7v-196v-66v-10q0 -6 -6 -6h-119h-14q-11 0 -11 2v53v60q0 12 -9.5 19t-22.5 7q-128 0 -191 -2h-100h-51q-5 0 -5 -2v-6v-240v-80h23h72h16q10 0 16 3q13 5 13 32v11v102h106h43v-2v-8v-430q0 -2 -4 -2h-8h-64h-59 h-8q-6 0 -6 10v63v31v14q-3 27 -31 27h-63h-46v-6v-41v-187v-546v-348v-5h5v-14v-6q3 -14 26 -14q16 -2 51 -2q2 0 2 -99v-47q0 -4 -6 -4h-6h-108h-187v104v46h10h33q8 0 19.5 4t11.5 10v8v41v387v557v475v125v21q0 7 -8 12t-15.5 6.5t-13.5 1.5h-27l-7 -1q-7 -1 -11 -1 q-6 0 -6 2z" />
<glyph unicode="G" horiz-adv-x="878" d="M82 373v403v551v283q0 94 50.5 176.5t135.5 126.5q66 35 152 35q120 0 213 -72q71 -56 108 -152q19 -59 19 -96v-19.5t4 -28t14 -13.5q6 -4 19 -4v-19v-37v-12q-16 -4 -49 -11t-50 -11q-40 -8 -86 -21v102v27q0 57 -12 94q-20 54 -68 88t-106 35q-58 0 -108.5 -31 t-71.5 -84q-15 -35 -15 -102v-27v-182v-543v-436v-22q0 -76 21 -117q26 -51 78 -78q43 -23 89 -23q11 0 21 1q57 4 102 41.5t62 93.5q8 23 8 73v50v47v254v205v67v12v7q-7 14 -32 18h-43h-62q-8 0 -8 4v10v123v8q0 4 4 4h37h131h111h6q6 0 6 -12v-35v-139v-500v-127 q0 -100 -39 -174q-44 -83 -127 -135q-80 -47 -174 -47q-97 0 -180.5 52.5t-126.5 140.5q-33 70 -33 178z" />
<glyph unicode="H" d="M82 92v55q0 5 2 5h31q45 0 45 24v35v371v557v483v131v27q0 20 -51 20h-25q-2 0 -2 98v48q0 4 6 4h6h244h41h6q4 0 4 -6v-119v-10q0 -15 -4 -15h-29q-18 0 -28 -2q-21 -5 -21 -33q0 -4 1 -13t1 -13v-248v-14v-7h17h102h248h18v19v115v131q0 4 1 13t1 13q0 28 -22 35 q-10 4 -33 4h-23q-2 0 -2 29v117q0 4 7 4h6h45h135h104h7q4 0 4 -6v-52v-67v-10q0 -15 -4 -15h-27q-49 0 -49 -18v-78v-422v-561v-447v-98q0 -24 33 -24h34h13v-39v-109q0 -2 -66 -2h-235h-7v104v46h11h32q35 0 35 28v51v463v510v115q0 4 -8 4q-3 0 -8.5 -1t-7.5 -1h-113 h-238h-8q-2 0 -2 -6v-47v-459v-514v-121q0 -22 41 -22h8h29q2 0 2 -7v-55q0 -88 -2 -88h-84h-219q-2 0 -2 90z" />
<glyph unicode="I" horiz-adv-x="471" d="M82 2v104v46h10h33q35 0 35 38v25v379v559v477v127v23q0 9 -12 14.5t-21 5.5h-35h-10v111v39h18h248h35q6 0 6 -6v-7v-122v-15h-4h-10h-25q-29 0 -37 -8q-4 -4 -4 -12v-11v-311v-540v-517v-231q0 -18 41 -18q1 0 11 1t16 1q12 0 12 -4v-119v-29h-24h-123h-160z" />
<glyph unicode="J" horiz-adv-x="958" d="M82 393v4q2 18 2 52v4q0 4 2 4q4 0 16 4q37 6 66 14q10 3 100 23v-101v-41q0 -47 13 -82q20 -54 67.5 -87t104.5 -35h4q56 0 103 30q50 31 73 84q16 41 16 99q0 13 -1 36.5t-1 34.5v262v328v455v235v58q0 17 -12 21.5t-35 4.5h-14h-11h-4v15v63v59v9q0 4 4 4h234h68v-107 v-43h-11h-35q-34 0 -34 -28v-416v-473v-308v-221q0 -166 -115 -266q-95 -86 -225 -86q-97 0 -180.5 52.5t-124.5 140.5q-24 49 -29 92q-4 32 -4 47q0 1 -1 16.5t-5 22.5q-4 12 -15 12q-4 2 -14 2q-2 2 -2 6z" />
<glyph unicode="K" horiz-adv-x="1001" d="M82 27v120q0 5 2 5h31q20 0 28 4q17 8 17 16v236v516v540v305q0 22 -21 27q-10 4 -33 4h-22q-2 0 -2 29v117q0 4 6 4h6h45h240h6q4 0 4 -6v-52v-67q0 -1 1 -6t1 -9q0 -10 -6 -10q-2 0 -13 1t-18 1q-45 0 -45 -22v-88v-197q50 48 151.5 144.5t151.5 144.5q14 9 17 14h-8 h-19q-6 0 -6 6v54q0 90 2 90h219h84q2 0 2 -41v-45v-56q0 -8 -2 -8h-29q-6 0 -11 -1t-10.5 -3.5t-9.5 -4.5t-10 -7t-8 -6.5t-8.5 -7.5t-7.5 -7q-57 -54 -171 -161t-171 -162l-3 -3q-4 -3 -7 -6t-6 -6.5t-3 -5.5q1 -4 4.5 -13t4.5 -13q1 -5 19 -63t28 -87q27 -84 80 -252 t80 -252q72 -233 143 -456q5 -13 12.5 -37.5t9.5 -32.5q0 -1 1 -5.5t1.5 -7t2 -5.5t3.5 -4.5t5 -0.5v-20q5 -16 32 -16h48v-107v-41l-15 -2h-114h-177v104v46h11h32q2 0 6.5 0.5t10 1.5t9.5 2.5t3 3.5q0 6 -4 10q-9 35 -14 49q-23 73 -70 219.5t-70 218.5q-65 205 -155 500 q-38 116 -47 148q-1 -1 -6 -4.5t-8 -6.5t-3 -6v-12v-53v-205v-549v-215v-64v-14v-8q5 -16 41 -16h8h29q2 0 2 -2v-5v-120v-13q0 -10 -2 -10h-29h-125h-122h-27q-2 0 -2 25z" />
<glyph unicode="L" horiz-adv-x="905" d="M82 8v121v18q0 5 2 5h4h29q25 0 33 6q10 8 10 24v312v542v516v166v45v13v4q-8 20 -51 20h-27v8v123v11q0 8 2 8h33h127h121h24v-29v-119q0 -4 -10 -4q-6 0 -16 1t-11 1q-43 0 -43 -18v-230v-514v-544v-324v-18h197q14 0 40 1t38 1q3 0 16 -1t21 -1q51 0 51 26v113 q0 2 10 2h14h66h55q6 0 6 -4q0 -2 -1 -6.5t-1 -6.5v-118v-84v-60v-10q0 -2 -18 -2h-141h-478h-24h-17h-32h-27q-2 0 -2 6z" />
<glyph unicode="M" horiz-adv-x="1562" d="M82 1800v4v119q0 27 2 27h39h127h29q8 0 10 -6q1 -5 4 -15.5t4 -15.5q3 -8 11.5 -34.5t13.5 -41.5q19 -60 56.5 -178.5t55.5 -177.5q168 -526 170 -531q30 -94 141 -452q37 -112 43 -133q12 39 35.5 115.5t36.5 115.5q65 214 156 506q57 189 151 493q10 31 32 103t34 110 q6 19 18.5 59.5t18.5 59.5q1 3 3 9.5t3 9.5q0 4 8 4h29h127h39q2 0 2 -27v-119q0 -4 -4 -4h-31q-43 0 -53 -18v-17v-47v-401v-559v-465v-115v-8q0 -8 8 -12q8 -6 33 -6h28q6 0 6 -11q0 -3 -1 -8t-1 -6v-121q0 -4 -4 -4h-6h-41h-244h-12v104v46h10h35q35 0 35 20v14l4 2v2v35 v437v524v149q-13 -45 -41 -135t-41 -135q-138 -440 -164 -528q-16 -53 -52 -172.5t-56 -182.5q-1 -2 -2 -6t-2 -6v-2q0 -5 10 -9.5t16 -4.5q8 -2 25 -2l7 1q7 1 11 1q7 0 7 -2q2 0 2 -9q0 -6 -1 -16l-1 -10v-113q0 -2 -56 -2h-256h-31q-4 0 -4 8v6v123v13h4h17h18 q29 0 39 12q2 2 2 4q0 4 -6 16q-5 15 -13.5 42.5t-16 51t-13.5 44.5q-1 4 -158 495q-88 285 -143 453q-4 13 -12.5 40.5t-12.5 41.5v-295v-551v-318h5v-14v-6q3 -14 26 -14q16 -2 51 -2q2 0 2 -99v-47q0 -4 -6 -4h-6h-108h-136h-41h-6q-4 0 -4 4v121v14q0 11 4 11h27 q25 0 35 6q8 4 8 12v8v45v164v510v545v323q0 13 -2 17q-8 18 -51 18h-31h-4z" />
<glyph unicode="N" horiz-adv-x="1044" d="M82 1800v8v27v68v45q0 2 22 2h132h28h6h13h4q4 -8 4 -19q45 -132 78 -239q26 -83 77 -248t78 -248q25 -82 78 -244.5t78 -244.5q37 -113 53 -168v280v551v389v15v6q-7 18 -41 18h-10h-25v2v8v123q0 1 -1 6t-1 7q0 6 4 6h31h248h25v-29v-119q0 -4 -17 -4h-20h-8 q-35 0 -35 -16v-17v-120v-471v-560v-389q0 -4 -1 -13.5t-1 -14.5q0 -30 12 -37q10 -8 37 -8h24h4q3 0 3 -2v-19v-121v-6q0 -2 -7 -2h-36h-127h-129h-39q-7 0 -7 6v121v18v5h5h24q25 0 35 4q14 6 14 12l-4 12q-5 19 -16 49q-23 72 -69 218t-68 219q-141 447 -160 505 q-9 29 -29 90t-29 91v-295v-551v-318h3h2v-14v-6q3 -14 26 -14q16 -2 51 -2q2 0 2 -99v-47q0 -4 -6 -4h-6h-108h-187v104v46h10h33q8 0 19.5 4t11.5 10v8v41v387v557v475v125v21q0 9 -14 14.5t-23 5.5h-27l-7 -1q-7 -1 -11 -1q-6 0 -6 2z" />
<glyph unicode="O" horiz-adv-x="843" d="M82 373v403v551v283q0 94 50.5 176.5t135.5 126.5q66 35 152 35q120 0 213 -72q61 -49 95 -120.5t34 -149.5v-107v-491v-514v-138q0 -129 -70 -219q-47 -63 -119 -99t-151 -36q-97 0 -180.5 52.5t-126.5 140.5q-33 70 -33 178zM231 348q0 -54 23 -96q25 -46 70 -73 t96 -27q16 0 24 2q57 6 103 45t59 94q6 20 6 61v131v512v496v109q0 46 -18 86q-23 51 -69.5 80.5t-102.5 29.5q-58 0 -106 -32.5t-70 -86.5q-15 -41 -15 -80v-124v-506v-502v-119z" />
<glyph unicode="P" horiz-adv-x="919" d="M82 2v104v46h10h33q35 0 35 38v25v377v557v479v129v23q0 20 -60 20h-12h-6v109v39q0 2 16 2h248q28 0 85 -1t85 -1q92 0 168.5 -43.5t118.5 -122.5q35 -63 35 -144q0 -125 -82 -213q-67 -73 -162 -92q-37 -8 -111 -8h-133q-1 0 -10.5 1t-15.5 1q-15 0 -15 -4v-113v-505 v-472v-51q0 -13 4.5 -19t18.5 -9q8 -2 26 -2h29q2 0 2 -13v-14v-119q0 -4 -16 -4h-21h-106h-164zM309 1479q0 -4 8 -4h72h137q49 0 90 27t60 71q14 35 14 63q0 68 -47 115t-131 47h-125h-27h-28l-7 1q-7 1 -10 1q-6 0 -6 -2v-4v-14v-49v-244v-8z" />
<glyph unicode="Q" horiz-adv-x="937" d="M82 352v357v557v338q0 155 108 254q96 90 232 90q65 0 129 -25q90 -37 147.5 -118t61.5 -177q2 -29 2 -90v-459v-534v-166q0 -115 -33 -180q-18 -41 -47 -74q-6 -9 -6 -10q0 -3 6 -9l61 -61q18 -20 56.5 -58t56.5 -57q-13 -12 -36.5 -36t-35.5 -37l-32 -31q-2 0 -6 4 q-5 4 -5 6q-115 115 -172 170q-3 4 -20 21q-64 -25 -125 -25q-73 0 -140 30t-116 85q-86 96 -86 235zM231 348q0 -54 23 -96q25 -46 70 -73t96 -27q16 0 24 2q57 6 103 45t59 94q6 20 6 61v131v512v496v109q0 46 -18 86q-23 51 -69.5 80.5t-102.5 29.5q-58 0 -106 -32.5 t-70 -86.5q-15 -41 -15 -80v-124v-506v-502v-119z" />
<glyph unicode="R" horiz-adv-x="1001" d="M82 10v6v64v59v13h4h16h9q49 0 49 22v275v530v528v271q0 20 -43 20h-23q-12 0 -12 2v17v63v59v7q0 4 6 4h94h228h71q99 0 158 -21q91 -35 147 -117q55 -81 54 -177q0 -98 -60 -180q-58 -80 -149 -112q-48 -18 -113 -18q38 -138 78 -276q25 -88 74 -265.5t73 -265.5 q11 -40 44.5 -160t52.5 -186q6 -20 47 -20h28q5 0 5 -5v-55q0 -90 -2 -90h-82h-224v104v46h11h32q3 0 8 0.5t11 1.5t9.5 4t2.5 6q0 6 -2 8q-2 8 -6 24.5t-6 24.5q-18 64 -38.5 137.5t-45.5 164t-39 139.5q-24 84 -71 252.5t-70 252.5q-16 53 -39 140q-6 18 -9 18h-51v-6 v-356v-549v-191v-47q0 -24 39 -24h31h10v-48v-102h-211h-92q-4 0 -4 8zM309 1481q0 -6 8 -6h72h139q47 0 88 27t60 71q14 35 14 63q0 68 -47 115t-131 47h-125h-25h-28l-8 1q-8 1 -11 1q-6 0 -6 -2v-4v-14v-49v-244v-6z" />
<glyph unicode="S" horiz-adv-x="913" d="M82 395v47v21q2 1 6 2t6 2q41 7 64 14q21 5 59.5 14t48.5 11v-100v-31q0 -54 10 -90q17 -55 63 -90.5t105 -40.5h11q51 0 97 26q50 28 77 80q18 37 18 90v31v16v21q0 44 -6 90q-26 247 -184 467q-42 55 -80 96q-15 17 -45.5 47.5t-44.5 46.5q-73 82 -121 187 q-49 111 -49 202t10 134q21 90 92 161q99 99 240 99q61 0 119 -21q90 -34 150 -113t69 -176v-26q0 -29 8 -39q4 -4 12 -8q14 0 14 -6v-60q0 -4 -3 -5t-8 -1.5t-7 -1.5q-90 -20 -166 -39v109v24q0 62 -14 98q-23 53 -72 85q-46 30 -101 30h-7q-57 0 -105.5 -34.5t-68.5 -88.5 q-13 -38 -13 -88v-45q0 -27 23 -94q21 -56 51 -105q20 -32 46 -62.5t63 -68.5t53 -55q83 -95 147 -205q128 -226 146 -475q2 -41 2 -119q0 -90 -31 -159q-41 -88 -126 -141.5t-183 -53.5q-97 0 -181.5 53t-125.5 140q-19 39 -29 92q-1 12 -2 35.5t-2 35.5q-3 32 -35 35z" />
<glyph unicode="T" horiz-adv-x="1083" d="M82 1651v32v246v19h51q10 0 30.5 1t29.5 1h442q61 0 180 -1t178 -1q6 0 7 -1.5t1 -7.5v-43v-135v-104q0 -8 -6 -8h-57h-78h-6q-2 0 -2 2v32v78q0 26 -12 33q-4 4 -11 4q-2 0 -7 -1t-7 -1v2h-100h-58h-12q-23 0 -29 -10q-2 -2 -2 -10v-9v-45v-401v-559v-459v-86v-16 q0 -15 2 -15v-14v-6q3 -14 25 -14q18 -2 53 -2q2 0 2 -99v-47q0 -4 -6 -4h-6h-109h-186v104v46h10h33q33 0 33 24v39v383v559v475v127v21q0 8 -12 13t-21 5h-39h-82q-1 0 -11.5 1t-16.5 1q-15 0 -15 -4q-3 0 -10 1t-10 1q-12 -5 -17 -26v-46v-63v-8q0 -6 -8 -6h-123h-10 q-8 0 -8 2z" />
<glyph unicode="U" horiz-adv-x="1001" d="M82 1800v19v123v6h6h39h133h113h12h4v-43v-107q-19 2 -37 2q-43 0 -43 -18v-178v-359v-422v-454v-37q3 -57 38 -104t89 -66q33 -10 62 -10q86 0 145 65q47 56 47 131v447q0 47 -1 142t-1 142v494v188v17q0 8 -11.5 13t-21.5 5q-43 0 -43 2v41v107h68h233q7 0 7 -2 q0 -1 -1 -4t-1 -5v-59v-64v-14q0 -2 -13 -2h-28q-39 0 -39 -22v-74v-443q0 -55 1 -162.5t1 -160.5v-512v-53q0 -51 -4 -78q-15 -96 -79.5 -170.5t-156.5 -102.5q-53 -16 -100 -16q-97 0 -180.5 52.5t-126.5 140.5q-33 67 -33 149v49v506v250v520v84v12q0 19 -6 25 q-10 10 -33 10q-5 0 -15 -1t-14 -1q-10 0 -10 2z" />
<glyph unicode="V" d="M82 1800v15v122v7q0 6 6 6h35h248q18 0 18 -2v-37v-111q0 -2 -45 -2q-33 0 -33 -12q4 -16 4 -29q3 -20 12 -73t13 -82q13 -87 39 -261.5t39 -261.5q12 -78 35 -234.5t34 -234.5q2 -13 7.5 -43.5t7.5 -46.5q9 66 41 273q15 102 42.5 288.5t37.5 253.5q10 68 31.5 206 t31.5 206q0 15 4 35q1 9 -11.5 12.5t-31.5 3.5h-26q-5 0 -5 10v17v67v52q0 6 5 6h6h239h45h7q6 0 6 -4v-117q0 -31 -2 -31h-35h-17q-17 -1 -21.5 -8.5t-4.5 -24.5q0 -2 -2 -2t-4 -2q-2 -14 -6.5 -43t-6.5 -43q-10 -72 -31.5 -214.5t-31.5 -213.5q-15 -93 -42.5 -278.5 t-41.5 -278.5q-10 -70 -32 -212t-32 -212q-6 -44 -12 -84v-4q0 -26 55 -26q1 0 7 1t10 1q6 0 6 -2v-2v-9v-59v-64q0 -1 1 -5t1 -5q0 -6 -4 -6h-82h-252h-25v139v6q0 5 3 5h38q28 0 35 12q4 4 4 16v10q-20 152 -32 228q-41 282 -78 512q-13 89 -39.5 266t-40.5 266 q-8 56 -23.5 159t-19.5 134q-2 4 -2 8q-2 0 -2 2q0 15 -6 21q-10 12 -35 12h-25q-14 0 -14 2z" />
<glyph unicode="W" horiz-adv-x="1568" d="M82 1800v15v122v7q0 6 6 6h35h248q18 0 18 -2v-37v-111q0 -2 -45 -2q-33 0 -33 -12q4 -16 4 -29q3 -20 12 -73t13 -82q13 -87 39 -261.5t39 -261.5q12 -78 35 -234.5t34 -234.5q2 -13 7.5 -43.5t7.5 -46.5q8 58 41 273q63 426 82 544q45 306 59 410q1 5 3 16.5t3 16.5 q1 12 -11 16t-32 4h-22h-11h-4v15v63v59v9q0 4 4 4h230h102h6q4 0 4 -4v-48v-98h-28q-21 0 -29 -2q-18 -6 -18 -16v-2q2 -16 7 -48t7 -49q13 -80 36.5 -238.5t35.5 -238.5l75 -516q4 -29 13.5 -85.5t13.5 -84.5q18 135 39 273q11 74 39 257.5t43 284.5q8 54 29 195.5 t32 218.5q1 6 3 17.5t3 17.5q1 4 -2.5 7t-10 4.5t-13.5 2t-17 0.5h-28q-4 0 -4 4v21v67v54q0 4 1 5t7 1h240h30q27 0 27 -2v-115v-35q-5 0 -17.5 1t-17.5 1q-12 0 -18 -2q-25 -5 -29 -39q-2 -16 -7 -46t-7 -46q-11 -72 -32.5 -217.5t-33.5 -218.5q-13 -93 -41 -278.5 t-41 -278.5q-9 -65 -31 -203t-32 -211q-2 -13 -5.5 -37.5t-5.5 -34.5h2v-14v-6q3 -14 27 -14q16 -2 51 -2q2 0 2 -99v-47q0 -4 -4 -4h-6h-100h-252v104v46h10h33q35 0 35 32q0 7 -6 43q-10 72 -32 216t-32 216q-11 76 -38 256.5t-42 276.5q-5 38 -16.5 108t-16.5 103 q-7 -46 -20.5 -138.5t-20.5 -138.5l-81 -546q-9 -63 -29 -190t-29 -191q0 -1 -1 -8t-1 -11v-4q5 -24 43 -24h31h4v-5v-118v-27h-23h-251h-84q-5 0 -5 4q0 2 1 5.5t1 4.5v64v57v15h3h6h22q25 0 35 4q14 5 14 24v10q-20 152 -32 228q-41 282 -78 512q-13 89 -39.5 266 t-40.5 266q-8 56 -23.5 159t-19.5 134q-2 4 -2 8q-2 0 -2 2q0 15 -6 21q-10 12 -35 12h-25q-14 0 -14 2z" />
<glyph unicode="X" horiz-adv-x="956" d="M82 10v13v122v7h29h10q29 0 31 10q6 19 18 59l18 60q24 85 152 510q9 30 26.5 89.5t26.5 88.5q6 12 6 22v2q-3 16 -10 33q-23 78 -69.5 233.5t-69.5 233.5q-12 37 -33.5 110.5t-32.5 110.5q-5 20 -16 53q0 7 -2 11q-9 20 -45 20h-10h-27l-2 8v58v47q0 39 2 39h225h80v-95 v-51q0 -6 -4 -6h-33q-37 0 -35 -4q5 -15 5 -18q68 -221 137 -459q3 -10 10 -32t10 -32q57 197 121 408q5 17 14.5 49t14.5 49q3 5 8 27l2 6q0 1 -6 4q-16 4 -25 4q-6 0 -18 -1t-17 -1q-6 0 -6 4v21v121q0 6 8 6h41h136h108q14 0 14 -2v-47v-103q-4 0 -16 1t-20 1 q-40 0 -47 -26q-21 -64 -39 -129q-142 -474 -152 -508q-7 -24 -21.5 -71t-21.5 -71v-4q0 -4 4 -12q2 -9 17 -59q24 -82 73 -247t74 -247q9 -31 30.5 -101.5t32.5 -109.5q2 -8 7.5 -24.5t7.5 -24.5q5 -14 43 -14h26q2 0 2 -99v-47q0 -4 -6 -4h-6h-244h-51v104v46h11h34 q13 0 24.5 5t8.5 17q-1 3 -3 9.5t-3 9.5q-4 14 -12.5 41t-12.5 42q-109 364 -133 447q-2 2 -2 8q-20 -67 -60.5 -202t-60.5 -203q-14 -51 -47 -152v-4q0 -18 43 -18h31h4v-5v-118v-27h-27h-122h-125h-31q-2 0 -2 8z" />
<glyph unicode="Y" horiz-adv-x="966" d="M82 1802v21v121q0 6 8 6h41h133h111q14 0 14 -2v-47v-103h-33h-16q-21 0 -21 -6q1 -2 3 -4q31 -56 92 -160.5t69 -118.5q14 23 48.5 84t54.5 93q11 19 31 53.5t24 40.5q0 1 3 6.5t3 7.5q-9 6 -26 6q-5 0 -16 -1t-15 -1q-12 0 -12 2v17v63v59v7q0 4 6 4h235q66 0 66 -2 v-109v-39h-21q-22 0 -26 -2q-7 -1 -13 -5.5t-9 -8.5t-8 -13t-7 -12q-110 -190 -236 -403q-6 -18 -6 -19v-41v-182v-547v-370v-4q0 -5 2 -5q0 -3 -1 -10t-1 -10q6 -14 27 -14q18 -2 53 -2v-25v-74v-47q0 -4 -4 -4h-6h-111h-184v104v46h10h33q9 0 21 5t12 13v10v51v463v514 v125q0 7 -7 17q-6 12 -19 33.5t-19 33.5q-37 63 -110 188t-110 187q-3 8 -26 8q-7 0 -18 -1t-13 -1q-6 0 -6 4z" />
<glyph unicode="Z" horiz-adv-x="960" d="M82 4q10 32 31.5 96t31.5 95q44 130 148 452q119 360 176 537q24 74 73 221.5t74 220.5q9 29 28 86.5t28 85.5h-414h-8q-4 0 -6 -2q-4 -10 -4 -29v-20q0 -98 -2 -98h-113h-25h-10v4v6v27v204v54v4h2h53h508h226q-10 -32 -32 -95.5t-32 -95.5q-33 -98 -147 -452 q-119 -359 -176 -537q-24 -74 -73.5 -221t-74.5 -221q-9 -29 -27.5 -86.5t-27.5 -85.5h397q10 0 10 55v29v59q0 6 9 6h10h123h4q4 0 4 -6v-39v-244v-6q0 -4 -2 -4h-13h-65h-518h-166z" />
<glyph unicode="[" horiz-adv-x="524" d="M82 -199v2155h360v-150h-211v-1855h207v-150h-356z" />
<glyph unicode="\" horiz-adv-x="956" d="M82 1956h158l634 -1952h-157z" />
<glyph unicode="]" horiz-adv-x="524" d="M82 -49h211v1855h-207v150h356v-2155h-360v150z" />
<glyph unicode="^" horiz-adv-x="1071" d="M82 1436l401 516h107l399 -516h-188l-264 340l-265 -340h-190z" />
<glyph unicode="_" horiz-adv-x="1310" d="M82 -61h1147v-152h-1147v152z" />
<glyph unicode="`" horiz-adv-x="681" d="M82 2195l51 142l467 -172l-51 -140z" />
<glyph unicode="a" d="M82 8v121v18v5h4h29q24 0 32 6q6 4 10 13t4.5 16.5t1.5 20t1 15.5q2 28 7 80t7 76q7 84 22.5 252t22.5 252q8 91 24.5 273.5t24.5 273.5q5 57 14.5 167.5t14.5 167.5q2 6 2 21q1 4 -3.5 7t-13 4.5t-17 2t-19.5 0.5h-33v103v45h10h35q64 0 193 1t192 1h10q9 0 11 -6 q0 -20 4 -52q1 -18 4 -51t4 -49q4 -22 8 -63q6 -64 19.5 -199t19.5 -205q8 -77 26.5 -266t28.5 -291q39 -373 47 -457q6 -47 9 -90q0 -33 6 -33v-14v-6q3 -14 26 -14q16 -2 52 -2q2 0 2 -99v-47q0 -4 -6 -4h-7h-108h-187v104v46h11h32q9 0 21.5 5t11.5 13v10q-1 8 -3 25.5 t-3 25.5q-22 239 -45 463q-8 85 -25.5 254t-25.5 254q-8 78 -12 115v4h-43h-119q-4 0 -4 -6v-8q-2 -18 -6 -58q-3 -29 -9.5 -96t-9.5 -104q-5 -54 -23 -249t-26 -300q-4 -50 -14 -160.5t-15 -169.5q-1 -6 3.5 -9.5t13 -5.5t17 -2.5t19.5 -0.5h27v-101v-47q0 -2 -6 -2h-8 h-111h-133h-41h-4q-4 0 -4 6zM426 1470h137q-8 67 -20 207q-2 16 -5.5 48t-5.5 49q-1 11 -15 18.5t-30 7.5q-29 0 -34 -18q-2 -8 -2.5 -26t-1.5 -23q-3 -50 -9 -107q-2 -24 -7 -76t-7 -80z" />
<glyph unicode="b" horiz-adv-x="929" d="M82 1804v121v12q0 13 2 13h41h197q34 0 102 -1t102 -1q92 0 168.5 -43.5t118.5 -122.5q35 -68 35 -142q0 -76 -35 -145.5t-98 -114.5q97 -82 125 -209q8 -41 8 -96v-192v-480q0 -142 -74 -243q-60 -85 -158 -127q-50 -21 -100 -27q-32 -4 -51 -4h-12h-7h-184h-129h-35 q-6 0 -6 4v6v123v17h2h10h21q27 0 39 12q6 6 6 20v43v396v561v465v116q0 13 -2 19q-9 16 -43 16h-10h-29q-4 0 -4 4zM317 1319q0 -1 1 -5t1 -5v-60v-205v-550v-324q0 -18 46 -18h16h102q58 3 107.5 35t77.5 83q30 51 30 123v176v492v45q-5 59 -35 108t-79 78q-51 33 -146 33 h-116q-5 0 -5 -6zM319 1479q0 -4 7 -4h8h88h115q49 0 89.5 27t59.5 71q14 35 14 63q0 68 -47 115t-137 47h-104h-43h-33h-12h-5v-6v-12v-49v-244v-8z" />
<glyph unicode="c" horiz-adv-x="878" d="M82 373v403v551v283q0 94 50.5 176.5t135.5 126.5q66 35 152 35q120 0 213 -72q71 -56 108 -152q19 -59 19 -96v-19.5t4 -28t14 -13.5q6 -4 19 -4v-19v-37v-12q-16 -4 -49 -11t-50 -11q-40 -8 -86 -21v102v27q0 57 -12 94q-20 54 -68 88t-106 35q-58 0 -108.5 -31 t-71.5 -84q-15 -35 -15 -102v-27v-182v-543v-436v-22q0 -76 21 -117q26 -50 78 -78q43 -23 89 -23q10 0 21 1q57 4 102 41.5t62 93.5q8 23 8 71v31v25v14q0 10 4 10q81 26 146 45v-104q0 -76 -12 -125q-25 -93 -96 -160.5t-165 -87.5q-35 -6 -67 -6q-97 0 -180.5 52.5 t-126.5 140.5q-33 70 -33 178z" />
<glyph unicode="d" horiz-adv-x="935" d="M82 1800v4v119q0 27 2 27h39h182h135q70 0 107 -8q114 -22 197.5 -108t103.5 -200q6 -29 6 -86v-43v-194v-549v-367q0 -141 -78 -243q-59 -77 -158 -121q-67 -29 -165 -29h-7h-10h-45h-131h-127h-35q-4 0 -5 1t-1 7v121v19q0 2 2 2h4h27q27 0 37 8q8 8 8 24v41v396v559 v467v118q0 13 -2 17q-8 18 -51 18h-31h-4zM319 156q0 -4 27 -4h19h116h4q93 6 156.5 75t63.5 162v119v508v475v65v33q-6 57 -39 106t-84 77q-47 26 -140 26h-118q-5 0 -5 -2v-8v-109v-452v-561v-426v-84z" />
<glyph unicode="e" horiz-adv-x="931" d="M82 1800v98v48q0 4 10 4h8h185h407h84h62h6q4 0 4 -8v-195v-68q0 -1 1 -5t1 -7q0 -8 -6 -8h-117q-29 0 -29 2v47v64q0 25 -32 28q-13 0 -41 -1t-43 -1h-68h-35h-98h-55h-7v-6v-238v-81q0 -3 43 -3h50h22h10q15 4 15 41v107h102h47v-2v-6v-430q0 -4 -4 -4h-6h-59h-64h-10 q-6 0 -6 6v106q0 14 -7.5 23.5t-19.5 9.5h-61h-52v-4v-39v-180v-545v-385q0 -1 -1 -4.5t-1 -5.5q0 -4 5 -4h88h229h16q43 0 43 26v111q0 2 97 2h49q6 0 6 -8q0 -2 -1 -7t-1 -6v-204v-58v-8h-21h-110h-332h-293v104v46h10h33q35 0 35 38v25v379v559v477v127v23q0 9 -13 14.5 t-24 5.5h-51z" />
<glyph unicode="f" horiz-adv-x="929" d="M82 1800v8v27v68v45q0 2 22 2h185h407h86h58q8 0 8 -6v-7v-196v-66v-10q0 -6 -6 -6h-119h-14q-11 0 -11 2v53v60q0 12 -9.5 19t-22.5 7q-128 0 -191 -2h-100h-51q-5 0 -5 -2v-6v-240v-80h23h72h16q10 0 16 3q13 5 13 32v11v102h106h43v-2v-8v-430q0 -2 -4 -2h-8h-64h-59 h-8q-6 0 -6 10v63v31v14q-3 27 -31 27h-63h-46v-6v-41v-187v-546v-348v-5h5v-14v-6q3 -14 26 -14q16 -2 51 -2q2 0 2 -99v-47q0 -4 -6 -4h-6h-108h-187v104v46h10h33q8 0 19.5 4t11.5 10v8v41v387v557v475v125v21q0 7 -8 12t-15.5 6.5t-13.5 1.5h-27l-7 -1q-7 -1 -11 -1 q-6 0 -6 2z" />
<glyph unicode="g" horiz-adv-x="878" d="M82 373v403v551v283q0 94 50.5 176.5t135.5 126.5q66 35 152 35q120 0 213 -72q71 -56 108 -152q19 -59 19 -96v-19.5t4 -28t14 -13.5q6 -4 19 -4v-19v-37v-12q-16 -4 -49 -11t-50 -11q-40 -8 -86 -21v102v27q0 57 -12 94q-20 54 -68 88t-106 35q-58 0 -108.5 -31 t-71.5 -84q-15 -35 -15 -102v-27v-182v-543v-436v-22q0 -76 21 -117q26 -51 78 -78q43 -23 89 -23q11 0 21 1q57 4 102 41.5t62 93.5q8 23 8 73v50v47v254v205v67v12v7q-7 14 -32 18h-43h-62q-8 0 -8 4v10v123v8q0 4 4 4h37h131h111h6q6 0 6 -12v-35v-139v-500v-127 q0 -100 -39 -174q-44 -83 -127 -135q-80 -47 -174 -47q-97 0 -180.5 52.5t-126.5 140.5q-33 70 -33 178z" />
<glyph unicode="h" d="M82 92v55q0 5 2 5h31q45 0 45 24v35v371v557v483v131v27q0 20 -51 20h-25q-2 0 -2 98v48q0 4 6 4h6h244h41h6q4 0 4 -6v-119v-10q0 -15 -4 -15h-29q-18 0 -28 -2q-21 -5 -21 -33q0 -4 1 -13t1 -13v-248v-14v-7h17h102h248h18v19v115v131q0 4 1 13t1 13q0 28 -22 35 q-10 4 -33 4h-23q-2 0 -2 29v117q0 4 7 4h6h45h135h104h7q4 0 4 -6v-52v-67v-10q0 -15 -4 -15h-27q-49 0 -49 -18v-78v-422v-561v-447v-98q0 -24 33 -24h34h13v-39v-109q0 -2 -66 -2h-235h-7v104v46h11h32q35 0 35 28v51v463v510v115q0 4 -8 4q-3 0 -8.5 -1t-7.5 -1h-113 h-238h-8q-2 0 -2 -6v-47v-459v-514v-121q0 -22 41 -22h8h29q2 0 2 -7v-55q0 -88 -2 -88h-84h-219q-2 0 -2 90z" />
<glyph unicode="i" horiz-adv-x="471" d="M82 2v104v46h10h33q35 0 35 38v25v379v559v477v127v23q0 9 -12 14.5t-21 5.5h-35h-10v111v39h18h248h35q6 0 6 -6v-7v-122v-15h-4h-10h-25q-29 0 -37 -8q-4 -4 -4 -12v-11v-311v-540v-517v-231q0 -18 41 -18q1 0 11 1t16 1q12 0 12 -4v-119v-29h-24h-123h-160z" />
<glyph unicode="j" horiz-adv-x="958" d="M82 393v4q2 18 2 52v4q0 4 2 4q4 0 16 4q37 6 66 14q10 3 100 23v-101v-41q0 -47 13 -82q20 -54 67.5 -87t104.5 -35h4q56 0 103 30q50 31 73 84q16 41 16 99q0 13 -1 36.5t-1 34.5v262v328v455v235v58q0 17 -12 21.5t-35 4.5h-14h-11h-4v15v63v59v9q0 4 4 4h234h68v-107 v-43h-11h-35q-34 0 -34 -28v-416v-473v-308v-221q0 -166 -115 -266q-95 -86 -225 -86q-97 0 -180.5 52.5t-124.5 140.5q-24 49 -29 92q-4 32 -4 47q0 1 -1 16.5t-5 22.5q-4 12 -15 12q-4 2 -14 2q-2 2 -2 6z" />
<glyph unicode="k" horiz-adv-x="1001" d="M82 27v120q0 5 2 5h31q20 0 28 4q17 8 17 16v236v516v540v305q0 22 -21 27q-10 4 -33 4h-22q-2 0 -2 29v117q0 4 6 4h6h45h240h6q4 0 4 -6v-52v-67q0 -1 1 -6t1 -9q0 -10 -6 -10q-2 0 -13 1t-18 1q-45 0 -45 -22v-88v-197q50 48 151.5 144.5t151.5 144.5q14 9 17 14h-8 h-19q-6 0 -6 6v54q0 90 2 90h219h84q2 0 2 -41v-45v-56q0 -8 -2 -8h-29q-6 0 -11 -1t-10.5 -3.5t-9.5 -4.5t-10 -7t-8 -6.5t-8.5 -7.5t-7.5 -7q-57 -54 -171 -161t-171 -162l-3 -3q-4 -3 -7 -6t-6 -6.5t-3 -5.5q1 -4 4.5 -13t4.5 -13q1 -5 19 -63t28 -87q27 -84 80 -252 t80 -252q72 -233 143 -456q5 -13 12.5 -37.5t9.5 -32.5q0 -1 1 -5.5t1.5 -7t2 -5.5t3.5 -4.5t5 -0.5v-20q5 -16 32 -16h48v-107v-41l-15 -2h-114h-177v104v46h11h32q2 0 6.5 0.5t10 1.5t9.5 2.5t3 3.5q0 6 -4 10q-9 35 -14 49q-23 73 -70 219.5t-70 218.5q-65 205 -155 500 q-38 116 -47 148q-1 -1 -6 -4.5t-8 -6.5t-3 -6v-12v-53v-205v-549v-215v-64v-14v-8q5 -16 41 -16h8h29q2 0 2 -2v-5v-120v-13q0 -10 -2 -10h-29h-125h-122h-27q-2 0 -2 25z" />
<glyph unicode="l" horiz-adv-x="905" d="M82 8v121v18q0 5 2 5h4h29q25 0 33 6q10 8 10 24v312v542v516v166v45v13v4q-8 20 -51 20h-27v8v123v11q0 8 2 8h33h127h121h24v-29v-119q0 -4 -10 -4q-6 0 -16 1t-11 1q-43 0 -43 -18v-230v-514v-544v-324v-18h197q14 0 40 1t38 1q3 0 16 -1t21 -1q51 0 51 26v113 q0 2 10 2h14h66h55q6 0 6 -4q0 -2 -1 -6.5t-1 -6.5v-118v-84v-60v-10q0 -2 -18 -2h-141h-478h-24h-17h-32h-27q-2 0 -2 6z" />
<glyph unicode="m" horiz-adv-x="1562" d="M82 1800v4v119q0 27 2 27h39h127h29q8 0 10 -6q1 -5 4 -15.5t4 -15.5q3 -8 11.5 -34.5t13.5 -41.5q19 -60 56.5 -178.5t55.5 -177.5q168 -526 170 -531q30 -94 141 -452q37 -112 43 -133q12 39 35.5 115.5t36.5 115.5q65 214 156 506q57 189 151 493q10 31 32 103t34 110 q6 19 18.5 59.5t18.5 59.5q1 3 3 9.5t3 9.5q0 4 8 4h29h127h39q2 0 2 -27v-119q0 -4 -4 -4h-31q-43 0 -53 -18v-17v-47v-401v-559v-465v-115v-8q0 -8 8 -12q8 -6 33 -6h28q6 0 6 -11q0 -3 -1 -8t-1 -6v-121q0 -4 -4 -4h-6h-41h-244h-12v104v46h10h35q35 0 35 20v14l4 2v2v35 v437v524v149q-13 -45 -41 -135t-41 -135q-138 -440 -164 -528q-16 -53 -52 -172.5t-56 -182.5q-1 -2 -2 -6t-2 -6v-2q0 -5 10 -9.5t16 -4.5q8 -2 25 -2l7 1q7 1 11 1q7 0 7 -2q2 0 2 -9q0 -6 -1 -16l-1 -10v-113q0 -2 -56 -2h-256h-31q-4 0 -4 8v6v123v13h4h17h18 q29 0 39 12q2 2 2 4q0 4 -6 16q-5 15 -13.5 42.5t-16 51t-13.5 44.5q-1 4 -158 495q-88 285 -143 453q-4 13 -12.5 40.5t-12.5 41.5v-295v-551v-318h5v-14v-6q3 -14 26 -14q16 -2 51 -2q2 0 2 -99v-47q0 -4 -6 -4h-6h-108h-136h-41h-6q-4 0 -4 4v121v14q0 11 4 11h27 q25 0 35 6q8 4 8 12v8v45v164v510v545v323q0 13 -2 17q-8 18 -51 18h-31h-4z" />
<glyph unicode="n" horiz-adv-x="1044" d="M82 1800v8v27v68v45q0 2 22 2h132h28h6h13h4q4 -8 4 -19q45 -132 78 -239q26 -83 77 -248t78 -248q25 -82 78 -244.5t78 -244.5q37 -113 53 -168v280v551v389v15v6q-7 18 -41 18h-10h-25v2v8v123q0 1 -1 6t-1 7q0 6 4 6h31h248h25v-29v-119q0 -4 -17 -4h-20h-8 q-35 0 -35 -16v-17v-120v-471v-560v-389q0 -4 -1 -13.5t-1 -14.5q0 -30 12 -37q10 -8 37 -8h24h4q3 0 3 -2v-19v-121v-6q0 -2 -7 -2h-36h-127h-129h-39q-7 0 -7 6v121v18v5h5h24q25 0 35 4q14 6 14 12l-4 12q-5 19 -16 49q-23 72 -69 218t-68 219q-141 447 -160 505 q-9 29 -29 90t-29 91v-295v-551v-318h3h2v-14v-6q3 -14 26 -14q16 -2 51 -2q2 0 2 -99v-47q0 -4 -6 -4h-6h-108h-187v104v46h10h33q8 0 19.5 4t11.5 10v8v41v387v557v475v125v21q0 9 -14 14.5t-23 5.5h-27l-7 -1q-7 -1 -11 -1q-6 0 -6 2z" />
<glyph unicode="o" horiz-adv-x="843" d="M82 373v403v551v283q0 94 50.5 176.5t135.5 126.5q66 35 152 35q120 0 213 -72q61 -49 95 -120.5t34 -149.5v-107v-491v-514v-138q0 -129 -70 -219q-47 -63 -119 -99t-151 -36q-97 0 -180.5 52.5t-126.5 140.5q-33 70 -33 178zM231 348q0 -54 23 -96q25 -46 70 -73 t96 -27q16 0 24 2q57 6 103 45t59 94q6 20 6 61v131v512v496v109q0 46 -18 86q-23 51 -69.5 80.5t-102.5 29.5q-58 0 -106 -32.5t-70 -86.5q-15 -41 -15 -80v-124v-506v-502v-119z" />
<glyph unicode="p" horiz-adv-x="919" d="M82 2v104v46h10h33q35 0 35 38v25v377v557v479v129v23q0 20 -60 20h-12h-6v109v39q0 2 16 2h248q28 0 85 -1t85 -1q92 0 168.5 -43.5t118.5 -122.5q35 -63 35 -144q0 -125 -82 -213q-67 -73 -162 -92q-37 -8 -111 -8h-133q-1 0 -10.5 1t-15.5 1q-15 0 -15 -4v-113v-505 v-472v-51q0 -13 4.5 -19t18.5 -9q8 -2 26 -2h29q2 0 2 -13v-14v-119q0 -4 -16 -4h-21h-106h-164zM309 1479q0 -4 8 -4h72h137q49 0 90 27t60 71q14 35 14 63q0 68 -47 115t-131 47h-125h-27h-28l-7 1q-7 1 -10 1q-6 0 -6 -2v-4v-14v-49v-244v-8z" />
<glyph unicode="q" horiz-adv-x="937" d="M82 352v357v557v338q0 155 108 254q96 90 232 90q65 0 129 -25q90 -37 147.5 -118t61.5 -177q2 -29 2 -90v-459v-534v-166q0 -115 -33 -180q-18 -41 -47 -74q-6 -9 -6 -10q0 -3 6 -9l61 -61q18 -20 56.5 -58t56.5 -57q-13 -12 -36.5 -36t-35.5 -37l-32 -31q-2 0 -6 4 q-5 4 -5 6q-115 115 -172 170q-3 4 -20 21q-64 -25 -125 -25q-73 0 -140 30t-116 85q-86 96 -86 235zM231 348q0 -54 23 -96q25 -46 70 -73t96 -27q16 0 24 2q57 6 103 45t59 94q6 20 6 61v131v512v496v109q0 46 -18 86q-23 51 -69.5 80.5t-102.5 29.5q-58 0 -106 -32.5 t-70 -86.5q-15 -41 -15 -80v-124v-506v-502v-119z" />
<glyph unicode="r" horiz-adv-x="1001" d="M82 10v6v64v59v13h4h16h9q49 0 49 22v275v530v528v271q0 20 -43 20h-23q-12 0 -12 2v17v63v59v7q0 4 6 4h94h228h71q99 0 158 -21q91 -35 147 -117q55 -81 54 -177q0 -98 -60 -180q-58 -80 -149 -112q-48 -18 -113 -18q38 -138 78 -276q25 -88 74 -265.5t73 -265.5 q11 -40 44.5 -160t52.5 -186q6 -20 47 -20h28q5 0 5 -5v-55q0 -90 -2 -90h-82h-224v104v46h11h32q3 0 8 0.5t11 1.5t9.5 4t2.5 6q0 6 -2 8q-2 8 -6 24.5t-6 24.5q-18 64 -38.5 137.5t-45.5 164t-39 139.5q-24 84 -71 252.5t-70 252.5q-16 53 -39 140q-6 18 -9 18h-51v-6 v-356v-549v-191v-47q0 -24 39 -24h31h10v-48v-102h-211h-92q-4 0 -4 8zM309 1481q0 -6 8 -6h72h139q47 0 88 27t60 71q14 35 14 63q0 68 -47 115t-131 47h-125h-25h-28l-8 1q-8 1 -11 1q-6 0 -6 -2v-4v-14v-49v-244v-6z" />
<glyph unicode="s" horiz-adv-x="913" d="M82 395v47v21q2 1 6 2t6 2q41 7 64 14q21 5 59.5 14t48.5 11v-100v-31q0 -54 10 -90q17 -55 63 -90.5t105 -40.5h11q51 0 97 26q50 28 77 80q18 37 18 90v31v16v21q0 44 -6 90q-26 247 -184 467q-42 55 -80 96q-15 17 -45.5 47.5t-44.5 46.5q-73 82 -121 187 q-49 111 -49 202t10 134q21 90 92 161q99 99 240 99q61 0 119 -21q90 -34 150 -113t69 -176v-26q0 -29 8 -39q4 -4 12 -8q14 0 14 -6v-60q0 -4 -3 -5t-8 -1.5t-7 -1.5q-90 -20 -166 -39v109v24q0 62 -14 98q-23 53 -72 85q-46 30 -101 30h-7q-57 0 -105.5 -34.5t-68.5 -88.5 q-13 -38 -13 -88v-45q0 -27 23 -94q21 -56 51 -105q20 -32 46 -62.5t63 -68.5t53 -55q83 -95 147 -205q128 -226 146 -475q2 -41 2 -119q0 -90 -31 -159q-41 -88 -126 -141.5t-183 -53.5q-97 0 -181.5 53t-125.5 140q-19 39 -29 92q-1 12 -2 35.5t-2 35.5q-3 32 -35 35z" />
<glyph unicode="t" horiz-adv-x="1083" d="M82 1651v32v246v19h51q10 0 30.5 1t29.5 1h442q61 0 180 -1t178 -1q6 0 7 -1.5t1 -7.5v-43v-135v-104q0 -8 -6 -8h-57h-78h-6q-2 0 -2 2v32v78q0 26 -12 33q-4 4 -11 4q-2 0 -7 -1t-7 -1v2h-100h-58h-12q-23 0 -29 -10q-2 -2 -2 -10v-9v-45v-401v-559v-459v-86v-16 q0 -15 2 -15v-14v-6q3 -14 25 -14q18 -2 53 -2q2 0 2 -99v-47q0 -4 -6 -4h-6h-109h-186v104v46h10h33q33 0 33 24v39v383v559v475v127v21q0 8 -12 13t-21 5h-39h-82q-1 0 -11.5 1t-16.5 1q-15 0 -15 -4q-3 0 -10 1t-10 1q-12 -5 -17 -26v-46v-63v-8q0 -6 -8 -6h-123h-10 q-8 0 -8 2z" />
<glyph unicode="u" horiz-adv-x="1001" d="M82 1800v19v123v6h6h39h133h113h12h4v-43v-107q-19 2 -37 2q-43 0 -43 -18v-178v-359v-422v-454v-37q3 -57 38 -104t89 -66q33 -10 62 -10q86 0 145 65q47 56 47 131v447q0 47 -1 142t-1 142v494v188v17q0 8 -11.5 13t-21.5 5q-43 0 -43 2v41v107h68h233q7 0 7 -2 q0 -1 -1 -4t-1 -5v-59v-64v-14q0 -2 -13 -2h-28q-39 0 -39 -22v-74v-443q0 -55 1 -162.5t1 -160.5v-512v-53q0 -51 -4 -78q-15 -96 -79.5 -170.5t-156.5 -102.5q-53 -16 -100 -16q-97 0 -180.5 52.5t-126.5 140.5q-33 67 -33 149v49v506v250v520v84v12q0 19 -6 25 q-10 10 -33 10q-5 0 -15 -1t-14 -1q-10 0 -10 2z" />
<glyph unicode="v" d="M82 1800v15v122v7q0 6 6 6h35h248q18 0 18 -2v-37v-111q0 -2 -45 -2q-33 0 -33 -12q4 -16 4 -29q3 -20 12 -73t13 -82q13 -87 39 -261.5t39 -261.5q12 -78 35 -234.5t34 -234.5q2 -13 7.5 -43.5t7.5 -46.5q9 66 41 273q15 102 42.5 288.5t37.5 253.5q10 68 31.5 206 t31.5 206q0 15 4 35q1 9 -11.5 12.5t-31.5 3.5h-26q-5 0 -5 10v17v67v52q0 6 5 6h6h239h45h7q6 0 6 -4v-117q0 -31 -2 -31h-35h-17q-17 -1 -21.5 -8.5t-4.5 -24.5q0 -2 -2 -2t-4 -2q-2 -14 -6.5 -43t-6.5 -43q-10 -72 -31.5 -214.5t-31.5 -213.5q-15 -93 -42.5 -278.5 t-41.5 -278.5q-10 -70 -32 -212t-32 -212q-6 -44 -12 -84v-4q0 -26 55 -26q1 0 7 1t10 1q6 0 6 -2v-2v-9v-59v-64q0 -1 1 -5t1 -5q0 -6 -4 -6h-82h-252h-25v139v6q0 5 3 5h38q28 0 35 12q4 4 4 16v10q-20 152 -32 228q-41 282 -78 512q-13 89 -39.5 266t-40.5 266 q-8 56 -23.5 159t-19.5 134q-2 4 -2 8q-2 0 -2 2q0 15 -6 21q-10 12 -35 12h-25q-14 0 -14 2z" />
<glyph unicode="w" horiz-adv-x="1568" d="M82 1800v15v122v7q0 6 6 6h35h248q18 0 18 -2v-37v-111q0 -2 -45 -2q-33 0 -33 -12q4 -16 4 -29q3 -20 12 -73t13 -82q13 -87 39 -261.5t39 -261.5q12 -78 35 -234.5t34 -234.5q2 -13 7.5 -43.5t7.5 -46.5q8 58 41 273q63 426 82 544q45 306 59 410q1 5 3 16.5t3 16.5 q1 12 -11 16t-32 4h-22h-11h-4v15v63v59v9q0 4 4 4h230h102h6q4 0 4 -4v-48v-98h-28q-21 0 -29 -2q-18 -6 -18 -16v-2q2 -16 7 -48t7 -49q13 -80 36.5 -238.5t35.5 -238.5l75 -516q4 -29 13.5 -85.5t13.5 -84.5q18 135 39 273q11 74 39 257.5t43 284.5q8 54 29 195.5 t32 218.5q1 6 3 17.5t3 17.5q1 4 -2.5 7t-10 4.5t-13.5 2t-17 0.5h-28q-4 0 -4 4v21v67v54q0 4 1 5t7 1h240h30q27 0 27 -2v-115v-35q-5 0 -17.5 1t-17.5 1q-12 0 -18 -2q-25 -5 -29 -39q-2 -16 -7 -46t-7 -46q-11 -72 -32.5 -217.5t-33.5 -218.5q-13 -93 -41 -278.5 t-41 -278.5q-9 -65 -31 -203t-32 -211q-2 -13 -5.5 -37.5t-5.5 -34.5h2v-14v-6q3 -14 27 -14q16 -2 51 -2q2 0 2 -99v-47q0 -4 -4 -4h-6h-100h-252v104v46h10h33q35 0 35 32q0 7 -6 43q-10 72 -32 216t-32 216q-11 76 -38 256.5t-42 276.5q-5 38 -16.5 108t-16.5 103 q-7 -46 -20.5 -138.5t-20.5 -138.5l-81 -546q-9 -63 -29 -190t-29 -191q0 -1 -1 -8t-1 -11v-4q5 -24 43 -24h31h4v-5v-118v-27h-23h-251h-84q-5 0 -5 4q0 2 1 5.5t1 4.5v64v57v15h3h6h22q25 0 35 4q14 5 14 24v10q-20 152 -32 228q-41 282 -78 512q-13 89 -39.5 266 t-40.5 266q-8 56 -23.5 159t-19.5 134q-2 4 -2 8q-2 0 -2 2q0 15 -6 21q-10 12 -35 12h-25q-14 0 -14 2z" />
<glyph unicode="x" horiz-adv-x="956" d="M82 10v13v122v7h29h10q29 0 31 10q6 19 18 59l18 60q24 85 152 510q9 30 26.5 89.5t26.5 88.5q6 12 6 22v2q-3 16 -10 33q-23 78 -69.5 233.5t-69.5 233.5q-12 37 -33.5 110.5t-32.5 110.5q-5 20 -16 53q0 7 -2 11q-9 20 -45 20h-10h-27l-2 8v58v47q0 39 2 39h225h80v-95 v-51q0 -6 -4 -6h-33q-37 0 -35 -4q5 -15 5 -18q68 -221 137 -459q3 -10 10 -32t10 -32q57 197 121 408q5 17 14.5 49t14.5 49q3 5 8 27l2 6q0 1 -6 4q-16 4 -25 4q-6 0 -18 -1t-17 -1q-6 0 -6 4v21v121q0 6 8 6h41h136h108q14 0 14 -2v-47v-103q-4 0 -16 1t-20 1 q-40 0 -47 -26q-21 -64 -39 -129q-142 -474 -152 -508q-7 -24 -21.5 -71t-21.5 -71v-4q0 -4 4 -12q2 -9 17 -59q24 -82 73 -247t74 -247q9 -31 30.5 -101.5t32.5 -109.5q2 -8 7.5 -24.5t7.5 -24.5q5 -14 43 -14h26q2 0 2 -99v-47q0 -4 -6 -4h-6h-244h-51v104v46h11h34 q13 0 24.5 5t8.5 17q-1 3 -3 9.5t-3 9.5q-4 14 -12.5 41t-12.5 42q-109 364 -133 447q-2 2 -2 8q-20 -67 -60.5 -202t-60.5 -203q-14 -51 -47 -152v-4q0 -18 43 -18h31h4v-5v-118v-27h-27h-122h-125h-31q-2 0 -2 8z" />
<glyph unicode="y" horiz-adv-x="966" d="M82 1802v21v121q0 6 8 6h41h133h111q14 0 14 -2v-47v-103h-33h-16q-21 0 -21 -6q1 -2 3 -4q31 -56 92 -160.5t69 -118.5q14 23 48.5 84t54.5 93q11 19 31 53.5t24 40.5q0 1 3 6.5t3 7.5q-9 6 -26 6q-5 0 -16 -1t-15 -1q-12 0 -12 2v17v63v59v7q0 4 6 4h235q66 0 66 -2 v-109v-39h-21q-22 0 -26 -2q-7 -1 -13 -5.5t-9 -8.5t-8 -13t-7 -12q-110 -190 -236 -403q-6 -18 -6 -19v-41v-182v-547v-370v-4q0 -5 2 -5q0 -3 -1 -10t-1 -10q6 -14 27 -14q18 -2 53 -2v-25v-74v-47q0 -4 -4 -4h-6h-111h-184v104v46h10h33q9 0 21 5t12 13v10v51v463v514 v125q0 7 -7 17q-6 12 -19 33.5t-19 33.5q-37 63 -110 188t-110 187q-3 8 -26 8q-7 0 -18 -1t-13 -1q-6 0 -6 4z" />
<glyph unicode="z" horiz-adv-x="960" d="M82 4q10 32 31.5 96t31.5 95q44 130 148 452q119 360 176 537q24 74 73 221.5t74 220.5q9 29 28 86.5t28 85.5h-414h-8q-4 0 -6 -2q-4 -10 -4 -29v-20q0 -98 -2 -98h-113h-25h-10v4v6v27v204v54v4h2h53h508h226q-10 -32 -32 -95.5t-32 -95.5q-33 -98 -147 -452 q-119 -359 -176 -537q-24 -74 -73.5 -221t-74.5 -221q-9 -29 -27.5 -86.5t-27.5 -85.5h397q10 0 10 55v29v59q0 6 9 6h10h123h4q4 0 4 -6v-39v-244v-6q0 -4 -2 -4h-13h-65h-518h-166z" />
<glyph unicode="{" horiz-adv-x="600" d="M82 1036q0 20 8 33l68 135v15v18v383q0 142 100 242q98 98 240 98l20 2v-152h-20q-81 0 -136 -55q-55 -58 -55 -135v-363v-20v-51q0 -20 -8 -33l-55 -115l51 -84q12 -18 12 -39v-24v-748q0 -77 58 -135q55 -55 133 -55h20v-152h-20q-139 0 -240 101q-100 100 -100 241 v707v43l-64 102q-12 18 -12 41z" />
<glyph unicode="|" horiz-adv-x="313" d="M82 -199v2155h149v-2153z" />
<glyph unicode="}" horiz-adv-x="600" d="M82 -47h18q81 0 136 55q55 52 55 135v748h2v24q0 19 10 39l53 84l-57 115q-8 20 -8 33v71v363q0 80 -55 135q-52 55 -136 55h-18v152l18 -2q144 0 242 -98q100 -105 100 -242v-401v-15l68 -135q8 -20 8 -35q0 -21 -12 -39l-64 -102v-43h-2v-707q0 -138 -98 -241 q-101 -101 -242 -101h-18v152z" />
<glyph unicode="~" horiz-adv-x="913" d="M82 879l14 12q0 1 9 9t27 22t38 26q92 62 174 62q34 0 68 -14.5t52.5 -29.5t43.5 -38q53 -47 72 -47q10 0 16 2q26 9 48 31t31 38t9 19l25 10l122 -49l-8 -19q-31 -61 -65 -97q-50 -54 -115 -75q-29 -10 -63 -10q-41 0 -84 19q-34 18 -88 67q-49 43 -64 43q-37 0 -90 -35 q-15 -9 -28 -19.5t-19 -16.5t-6 -7l-15 -12l-14 14z" />
<glyph unicode="&#xa1;" horiz-adv-x="313" d="M82 -4v1552h149v-1552h-149zM82 1698v248h149v-248h-149z" />
<glyph unicode="&#xa2;" horiz-adv-x="845" d="M82 477v328q0 120 76 215q74 86 178 113v165h149v-159q115 -22 193 -109q86 -99 86 -225v-33h-152v33q0 78 -55 133q-57 57 -135 57q-76 0 -133 -57q-58 -58 -58 -133v-328q0 -75 58 -133q57 -57 133 -57q78 0 135 57q55 55 55 133v70h152v-70q0 -126 -86 -225 q-78 -87 -193 -109v-143h-149v150q-105 27 -178 112q-76 95 -76 215z" />
<glyph unicode="&#xa3;" horiz-adv-x="940" d="M82 727v150h88v75h-88v150h88v512q0 141 100 241.5t240 100.5q141 0 241.5 -100.5t100.5 -241.5v-33h-150v33q0 78 -57 135q-52 55 -135 55q-81 0 -133 -55q-58 -58 -58 -135v-512h410v-150h-410v-75h410v-150h-410v-207v-368h539v-150h-688v643v82h-88z" />
<glyph unicode="&#xa4;" horiz-adv-x="1009" d="M82 717l149 149q-47 77 -47 168t47 168l-149 148l106 106l148 -147q79 51 172 51q94 0 170 -49l143 145l107 -106l-144 -144q50 -82 50 -172q0 -92 -52 -172l146 -145l-107 -107l-145 146q-79 -45 -168 -45q-94 0 -170 49l-150 -150zM334 1034q0 -72 51 -123t123 -51 t123 51q51 48 51 123t-51 123q-51 51 -123 51t-123 -51t-51 -123z" />
<glyph unicode="&#xa5;" horiz-adv-x="968" d="M82 1802v152h307v-152h-49l-21 -4v-2l164 -283l166 283v2q-6 4 -20 4h-49v152h307v-152h-41q-17 0 -23 -6l-264 -450v-244h240v-152h-240v-73h240v-150h-240v-539h2v-18q0 -3 2 -6.5t9.5 -7.5t19.5 -4h49v-150h-307v150h45q24 3 31 16v559h-258v150h258v73h-258v152h258 v241l-265 453q-6 6 -22 6h-41z" />
<glyph unicode="&#xa8;" horiz-adv-x="806" d="M82 2077v245h246v-245h-246zM479 2077v245h246v-245h-246z" />
<glyph unicode="&#xa9;" horiz-adv-x="1693" d="M82 766q0 157 59 299q60 138 164 242q106 106 244 163q142 62 299 62q148 0 297 -62q145 -62 244 -163q103 -103 163 -242q60 -145 60 -299q0 -152 -60 -297q-60 -141 -163 -244q-105 -105 -244 -164q-135 -59 -297 -59q-164 0 -299 59q-136 59 -244 164 q-105 105 -164 244q-59 142 -59 297zM231 766q0 -125 50 -240q48 -111 131 -194q88 -88 196 -133q108 -47 240 -47q131 0 239 47q109 47 195 133q81 78 131 194q49 113 49 240t-49 240q-47 112 -131 196q-88 85 -195 131q-113 49 -239 49q-127 0 -240 -49 q-112 -47 -196 -131t-131 -196q-50 -115 -50 -240zM555 672v186q0 119 83.5 203t201.5 84t202 -84t84 -203v-31h-131v31q0 64 -45 109q-44 47 -110 47q-65 0 -109 -47q-45 -45 -45 -109v-186q0 -64 45 -109t109 -45q65 0 110 45t45 109v61h131v-61q0 -118 -83.5 -201.5 t-202.5 -83.5q-118 0 -201.5 83.5t-83.5 201.5z" />
<glyph unicode="&#xab;" horiz-adv-x="841" d="M82 535l383 383v-175l-211 -211l211 -213v-176zM377 535l383 383v-175l-209 -211l209 -213v-176z" />
<glyph unicode="&#xad;" horiz-adv-x="645" d="M82 782v150h481v-150h-481z" />
<glyph unicode="&#xae;" horiz-adv-x="1693" d="M82 766q0 157 59 299q60 138 164 242q106 106 244 163q142 62 299 62q148 0 297 -62q145 -62 244 -163q103 -103 163 -242q60 -145 60 -299q0 -152 -60 -297q-60 -141 -163 -244q-105 -105 -244 -164q-135 -59 -297 -59q-164 0 -299 59q-136 59 -244 164 q-105 105 -164 244q-59 142 -59 297zM231 766q0 -125 50 -240q48 -111 131 -194q88 -88 196 -133q108 -47 240 -47q131 0 239 47q109 47 195 133q81 78 131 194q49 113 49 240t-49 240q-47 112 -131 196q-88 85 -195 131q-113 49 -239 49q-127 0 -240 -49 q-112 -47 -196 -131t-131 -196q-50 -115 -50 -240zM575 356v123h39q11 0 21 10v594q-5 11 -21 11h-39v123h261h79q100 0 171 -70t71 -170q0 -90 -59 -157t-146 -81l199 -252q12 -8 25 -8h41v-123h-242v123h26l-202 258h-43v-250q4 -8 18 -8h43v-123h-242zM756 858h159 q49 0 84 35t35 84t-34.5 83t-84.5 34h-127h-32v-236z" />
<glyph unicode="&#xaf;" horiz-adv-x="782" d="M82 2107v4v146h321h246h51v-31v-98v-17v-6h-18h-82h-268h-223h-23q-4 0 -4 2z" />
<glyph unicode="&#xb0;" horiz-adv-x="565" d="M82 1749q0 83 59 142t142 59t141.5 -59t58.5 -142q0 -85 -58.5 -144t-141.5 -59t-142 59t-59 144zM231 1749q0 -23 15 -38t37 -15t37.5 15t15.5 38q0 22 -15.5 36.5t-37.5 14.5t-37 -14.5t-15 -36.5z" />
<glyph unicode="&#xb4;" horiz-adv-x="681" d="M82 2165l467 172l51 -142l-467 -170z" />
<glyph unicode="&#xb7;" horiz-adv-x="411" d="M82 723v248h248v-248h-248z" />
<glyph unicode="&#xb8;" horiz-adv-x="503" d="M82 -182l84 182h164l-58 -113q82 -12 123 -77q30 -47 27 -103q-3 -45 -35 -88q-37 -50 -92 -68q-25 -10 -64 -10q-31 0 -55 8l-18 7l47 143l18 -6q1 0 4 -1t4 -1q23 0 37 18q4 4 4 10q0 5 -4 9q-6 12 -35 12h-4q-11 0 -23 -2t-18 -4l-6 -2l-18 6z" />
<glyph unicode="&#xbb;" horiz-adv-x="841" d="M82 143v176l209 213l-209 211v175l383 -383zM377 143v176l209 213l-209 211v175l383 -383z" />
<glyph unicode="&#xbf;" horiz-adv-x="843" d="M82 342v287l16 43l213 252v635h152l-2 -666l-15 -43l-215 -252v-256q0 -79 56 -135q55 -55 135 -55t135 55q55 52 55 135v131v21q0 14 -4.5 23t-8.5 11t-7 2l-14 2v17v51l184 43v-129v-20v-152q0 -141 -99.5 -241.5t-240.5 -100.5q-140 0 -240 100.5t-100 241.5z M311 1702v248h150v-248h-150z" />
<glyph unicode="&#xc0;" d="M82 8v121v18v5h4h29q24 0 32 6q6 4 10 13t4.5 16.5t1.5 20t1 15.5q2 28 7 80t7 76q7 84 22.5 252t22.5 252q8 91 24.5 273.5t24.5 273.5q5 57 14.5 167.5t14.5 167.5q2 6 2 21q1 4 -3.5 7t-13 4.5t-17 2t-19.5 0.5h-33v103v45h10h35q64 0 193 1t192 1h10q9 0 11 -6 q0 -20 4 -52q1 -18 4 -51t4 -49q4 -22 8 -63q6 -64 19.5 -199t19.5 -205q8 -77 26.5 -266t28.5 -291q39 -373 47 -457q6 -47 9 -90q0 -33 6 -33v-14v-6q3 -14 26 -14q16 -2 52 -2q2 0 2 -99v-47q0 -4 -6 -4h-7h-108h-187v104v46h11h32q9 0 21.5 5t11.5 13v10q-1 8 -3 25.5 t-3 25.5q-22 239 -45 463q-8 85 -25.5 254t-25.5 254q-8 78 -12 115v4h-43h-119q-4 0 -4 -6v-8q-2 -18 -6 -58q-3 -29 -9.5 -96t-9.5 -104q-5 -54 -23 -249t-26 -300q-4 -50 -14 -160.5t-15 -169.5q-1 -6 3.5 -9.5t13 -5.5t17 -2.5t19.5 -0.5h27v-101v-47q0 -2 -6 -2h-8 h-111h-133h-41h-4q-4 0 -4 6zM205 2195l51 142l467 -172l-51 -140zM426 1470h137q-8 67 -20 207q-2 16 -5.5 48t-5.5 49q-1 11 -15 18.5t-30 7.5q-29 0 -34 -18q-2 -8 -2.5 -26t-1.5 -23q-3 -50 -9 -107q-2 -24 -7 -76t-7 -80z" />
<glyph unicode="&#xc1;" d="M82 8v121v18v5h4h29q24 0 32 6q6 4 10 13t4.5 16.5t1.5 20t1 15.5q2 28 7 80t7 76q7 84 22.5 252t22.5 252q8 91 24.5 273.5t24.5 273.5q5 57 14.5 167.5t14.5 167.5q2 6 2 21q1 4 -3.5 7t-13 4.5t-17 2t-19.5 0.5h-33v103v45h10h35q64 0 193 1t192 1h10q9 0 11 -6 q0 -20 4 -52q1 -18 4 -51t4 -49q4 -22 8 -63q6 -64 19.5 -199t19.5 -205q8 -77 26.5 -266t28.5 -291q39 -373 47 -457q6 -47 9 -90q0 -33 6 -33v-14v-6q3 -14 26 -14q16 -2 52 -2q2 0 2 -99v-47q0 -4 -6 -4h-7h-108h-187v104v46h11h32q9 0 21.5 5t11.5 13v10q-1 8 -3 25.5 t-3 25.5q-22 239 -45 463q-8 85 -25.5 254t-25.5 254q-8 78 -12 115v4h-43h-119q-4 0 -4 -6v-8q-2 -18 -6 -58q-3 -29 -9.5 -96t-9.5 -104q-5 -54 -23 -249t-26 -300q-4 -50 -14 -160.5t-15 -169.5q-1 -6 3.5 -9.5t13 -5.5t17 -2.5t19.5 -0.5h27v-101v-47q0 -2 -6 -2h-8 h-111h-133h-41h-4q-4 0 -4 6zM188 2165l467 172l52 -142l-467 -170zM426 1470h137q-8 67 -20 207q-2 16 -5.5 48t-5.5 49q-1 11 -15 18.5t-30 7.5q-29 0 -34 -18q-2 -8 -2.5 -26t-1.5 -23q-3 -50 -9 -107q-2 -24 -7 -76t-7 -80z" />
<glyph unicode="&#xc2;" d="M82 8v121v18v5h4h29q24 0 32 6q6 4 10 13t4.5 16.5t1.5 20t1 15.5q2 28 7 80t7 76q7 84 22.5 252t22.5 252q8 91 24.5 273.5t24.5 273.5q5 57 14.5 167.5t14.5 167.5q2 6 2 21q1 4 -3.5 7t-13 4.5t-17 2t-19.5 0.5h-33v103v45h10h35q64 0 193 1t192 1h10q9 0 11 -6 q0 -20 4 -52q1 -18 4 -51t4 -49q4 -22 8 -63q6 -64 19.5 -199t19.5 -205q8 -77 26.5 -266t28.5 -291q39 -373 47 -457q6 -47 9 -90q0 -33 6 -33v-14v-6q3 -14 26 -14q16 -2 52 -2q2 0 2 -99v-47q0 -4 -6 -4h-7h-108h-187v104v46h11h32q9 0 21.5 5t11.5 13v10q-1 8 -3 25.5 t-3 25.5q-22 239 -45 463q-8 85 -25.5 254t-25.5 254q-8 78 -12 115v4h-43h-119q-4 0 -4 -6v-8q-2 -18 -6 -58q-3 -29 -9.5 -96t-9.5 -104q-5 -54 -23 -249t-26 -300q-4 -50 -14 -160.5t-15 -169.5q-1 -6 3.5 -9.5t13 -5.5t17 -2.5t19.5 -0.5h27v-101v-47q0 -2 -6 -2h-8 h-111h-133h-41h-4q-4 0 -4 6zM143 2060l293 330h158l293 -330h-197l-174 197l-174 -197h-199zM426 1470h137q-8 67 -20 207q-2 16 -5.5 48t-5.5 49q-1 11 -15 18.5t-30 7.5q-29 0 -34 -18q-2 -8 -2.5 -26t-1.5 -23q-3 -50 -9 -107q-2 -24 -7 -76t-7 -80z" />
<glyph unicode="&#xc3;" d="M82 8v121v18v5h4h29q24 0 32 6q6 4 10 13t4.5 16.5t1.5 20t1 15.5q2 28 7 80t7 76q7 84 22.5 252t22.5 252q8 91 24.5 273.5t24.5 273.5q5 57 14.5 167.5t14.5 167.5q2 6 2 21q1 4 -3.5 7t-13 4.5t-17 2t-19.5 0.5h-33v103v45h10h35q64 0 193 1t192 1h10q9 0 11 -6 q0 -20 4 -52q1 -18 4 -51t4 -49q4 -22 8 -63q6 -64 19.5 -199t19.5 -205q8 -77 26.5 -266t28.5 -291q39 -373 47 -457q6 -47 9 -90q0 -33 6 -33v-14v-6q3 -14 26 -14q16 -2 52 -2q2 0 2 -99v-47q0 -4 -6 -4h-7h-108h-187v104v46h11h32q9 0 21.5 5t11.5 13v10q-1 8 -3 25.5 t-3 25.5q-22 239 -45 463q-8 85 -25.5 254t-25.5 254q-8 78 -12 115v4h-43h-119q-4 0 -4 -6v-8q-2 -18 -6 -58q-3 -29 -9.5 -96t-9.5 -104q-5 -54 -23 -249t-26 -300q-4 -50 -14 -160.5t-15 -169.5q-1 -6 3.5 -9.5t13 -5.5t17 -2.5t19.5 -0.5h27v-101v-47q0 -2 -6 -2h-8 h-111h-133h-41h-4q-4 0 -4 6zM113 2206l14 12q0 1 9 9t27 22t38 26q92 62 174 62q34 0 68 -14.5t52.5 -29.5t43.5 -38q50 -47 71 -47q11 0 17 2q26 9 48 31t31 38t9 19l24 10l123 -49l-8 -18q-26 -51 -46 -77q-57 -73 -134 -98q-29 -10 -64 -10q-37 0 -84 21q-34 18 -88 67 q-49 43 -63 43q-37 0 -90 -35q-15 -9 -28.5 -19.5t-19.5 -16.5l-6 -7l-14 -12l-14 14zM426 1470h137q-8 67 -20 207q-2 16 -5.5 48t-5.5 49q-1 11 -15 18.5t-30 7.5q-29 0 -34 -18q-2 -8 -2.5 -26t-1.5 -23q-3 -50 -9 -107q-2 -24 -7 -76t-7 -80z" />
<glyph unicode="&#xc4;" d="M82 8v121v18v5h4h29q24 0 32 6q6 4 10 13t4.5 16.5t1.5 20t1 15.5q2 28 7 80t7 76q7 84 22.5 252t22.5 252q8 91 24.5 273.5t24.5 273.5q5 57 14.5 167.5t14.5 167.5q2 6 2 21q1 4 -3.5 7t-13 4.5t-17 2t-19.5 0.5h-33v103v45h10h35q64 0 193 1t192 1h10q9 0 11 -6 q0 -20 4 -52q1 -18 4 -51t4 -49q4 -22 8 -63q6 -64 19.5 -199t19.5 -205q8 -77 26.5 -266t28.5 -291q39 -373 47 -457q6 -47 9 -90q0 -33 6 -33v-14v-6q3 -14 26 -14q16 -2 52 -2q2 0 2 -99v-47q0 -4 -6 -4h-7h-108h-187v104v46h11h32q9 0 21.5 5t11.5 13v10q-1 8 -3 25.5 t-3 25.5q-22 239 -45 463q-8 85 -25.5 254t-25.5 254q-8 78 -12 115v4h-43h-119q-4 0 -4 -6v-8q-2 -18 -6 -58q-3 -29 -9.5 -96t-9.5 -104q-5 -54 -23 -249t-26 -300q-4 -50 -14 -160.5t-15 -169.5q-1 -6 3.5 -9.5t13 -5.5t17 -2.5t19.5 -0.5h27v-101v-47q0 -2 -6 -2h-8 h-111h-133h-41h-4q-4 0 -4 6zM147 2077v245h246v-245h-246zM426 1470h137q-8 67 -20 207q-2 16 -5.5 48t-5.5 49q-1 11 -15 18.5t-30 7.5q-29 0 -34 -18q-2 -8 -2.5 -26t-1.5 -23q-3 -50 -9 -107q-2 -24 -7 -76t-7 -80zM545 2077v245h246v-245h-246z" />
<glyph unicode="&#xc5;" d="M82 8v121v18v5h4h29q24 0 32 6q6 4 10 13t4.5 16.5t1.5 20t1 15.5q2 28 7 80t7 76q7 84 22.5 252t22.5 252q8 91 24.5 273.5t24.5 273.5q5 57 14.5 167.5t14.5 167.5q2 6 2 21q1 4 -3.5 7t-13 4.5t-17 2t-19.5 0.5h-33v103v45h10h35q64 0 193 1t192 1h10q9 0 11 -6 q0 -20 4 -52q1 -18 4 -51t4 -49q4 -22 8 -63q6 -64 19.5 -199t19.5 -205q8 -77 26.5 -266t28.5 -291q39 -373 47 -457q6 -47 9 -90q0 -33 6 -33v-14v-6q3 -14 26 -14q16 -2 52 -2q2 0 2 -99v-47q0 -4 -6 -4h-7h-108h-187v104v46h11h32q9 0 21.5 5t11.5 13v10q-1 8 -3 25.5 t-3 25.5q-22 239 -45 463q-8 85 -25.5 254t-25.5 254q-8 78 -12 115v4h-43h-119q-4 0 -4 -6v-8q-2 -18 -6 -58q-3 -29 -9.5 -96t-9.5 -104q-5 -54 -23 -249t-26 -300q-4 -50 -14 -160.5t-15 -169.5q-1 -6 3.5 -9.5t13 -5.5t17 -2.5t19.5 -0.5h27v-101v-47q0 -2 -6 -2h-8 h-111h-133h-41h-4q-4 0 -4 6zM281 2148q0 83 58.5 142t141.5 59t142 -59t59 -142q0 -84 -59 -143t-142 -59t-141.5 58.5t-58.5 143.5zM426 1470h137q-8 67 -20 207q-2 16 -5.5 48t-5.5 49q-1 11 -15 18.5t-30 7.5q-29 0 -34 -18q-2 -8 -2.5 -26t-1.5 -23q-3 -50 -9 -107 q-2 -24 -7 -76t-7 -80zM430 2148q0 -23 14.5 -38t36.5 -15t38 15t16 38q0 22 -16 37t-38 15t-36.5 -15t-14.5 -37z" />
<glyph unicode="&#xc6;" horiz-adv-x="1347" d="M82 4v150h45q23 0 33 20l143 1618q-2 12 -33 12h-2h-51v150h55h226h182h229h92h19h96h19h131v-150v-139h-150v121q-9 18 -33 18h-22h-21h-131h-18h-156v-329h107v2l18 -2q2 0 5.5 1.5t7.5 9.5t4 21v117h149v-444h-149v112q-2 27 -19 33h-123v-1171h326h22q26 0 33 20v121 h150v-141v-150h-19h-131h-115h-178h-315v150h45q26 0 33 20v1151h-172l-105 -1155q5 -13 31 -16h49v-150h-307zM426 1477h160v309q-6 18 -35 18h-12h-54q-11 0 -18.5 -3.5t-9.5 -6.5t-2 -6z" />
<glyph unicode="&#xc7;" horiz-adv-x="878" d="M82 373v403v551v283q0 94 50.5 176.5t135.5 126.5q66 35 152 35q120 0 213 -72q71 -56 108 -152q19 -59 19 -96v-19.5t4 -28t14 -13.5q6 -4 19 -4v-19v-37v-12q-16 -4 -49 -11t-50 -11q-40 -8 -86 -21v102v27q0 57 -12 94q-20 54 -68 88t-106 35q-58 0 -108.5 -31 t-71.5 -84q-15 -35 -15 -102v-27v-182v-543v-436v-22q0 -76 21 -117q26 -51 78 -78.5t110 -21.5q57 4 102 41.5t62 93.5q8 23 8 71v31v25v14q0 10 4 10q81 26 146 45v-104q0 -76 -12 -125q-25 -93 -96 -160.5t-165 -87.5q-35 -6 -67 -6q-97 0 -180.5 52.5t-126.5 140.5 q-33 70 -33 178zM289 -182l84 182h164l-58 -113q82 -12 123 -77q30 -47 27 -103q-3 -45 -35 -88q-37 -50 -92 -68q-25 -10 -64 -10q-31 0 -55 8l-18 7l47 143l18 -6q1 0 4 -1t4 -1q23 0 37 18q4 4 4 10q0 5 -4 9q-6 12 -35 12h-4q-11 0 -23 -2t-18 -4l-6 -2l-18 6z" />
<glyph unicode="&#xc8;" horiz-adv-x="931" d="M82 1800v98v48q0 4 10 4h8h185h407h84h62h6q4 0 4 -8v-195v-68q0 -1 1 -5t1 -7q0 -8 -6 -8h-117q-29 0 -29 2v47v64q0 25 -32 28q-13 0 -41 -1t-43 -1h-68h-35h-98h-55h-7v-6v-238v-81q0 -3 43 -3h50h22h10q15 4 15 41v107h102h47v-2v-6v-430q0 -4 -4 -4h-6h-59h-64h-10 q-6 0 -6 6v106q0 14 -7.5 23.5t-19.5 9.5h-61h-52v-4v-39v-180v-545v-385q0 -1 -1 -4.5t-1 -5.5q0 -4 5 -4h88h229h16q43 0 43 26v111q0 2 97 2h49q6 0 6 -8q0 -2 -1 -7t-1 -6v-204v-58v-8h-21h-110h-332h-293v104v46h10h33q35 0 35 38v25v379v559v477v127v23q0 9 -13 14.5 t-24 5.5h-51zM82 2195l51 142l467 -172l-51 -140z" />
<glyph unicode="&#xc9;" horiz-adv-x="931" d="M82 1800v98v48q0 4 10 4h8h185h407h84h62h6q4 0 4 -8v-195v-68q0 -1 1 -5t1 -7q0 -8 -6 -8h-117q-29 0 -29 2v47v64q0 25 -32 28q-13 0 -41 -1t-43 -1h-68h-35h-98h-55h-7v-6v-238v-81q0 -3 43 -3h50h22h10q15 4 15 41v107h102h47v-2v-6v-430q0 -4 -4 -4h-6h-59h-64h-10 q-6 0 -6 6v106q0 14 -7.5 23.5t-19.5 9.5h-61h-52v-4v-39v-180v-545v-385q0 -1 -1 -4.5t-1 -5.5q0 -4 5 -4h88h229h16q43 0 43 26v111q0 2 97 2h49q6 0 6 -8q0 -2 -1 -7t-1 -6v-204v-58v-8h-21h-110h-332h-293v104v46h10h33q35 0 35 38v25v379v559v477v127v23q0 9 -13 14.5 t-24 5.5h-51zM168 2165l467 172l51 -142l-467 -170z" />
<glyph unicode="&#xca;" horiz-adv-x="931" d="M82 1800v98v48q0 4 10 4h8h185h407h84h62h6q4 0 4 -8v-195v-68q0 -1 1 -5t1 -7q0 -8 -6 -8h-117q-29 0 -29 2v47v64q0 25 -32 28q-13 0 -41 -1t-43 -1h-68h-35h-98h-55h-7v-6v-238v-81q0 -3 43 -3h50h22h10q15 4 15 41v107h102h47v-2v-6v-430q0 -4 -4 -4h-6h-59h-64h-10 q-6 0 -6 6v106q0 14 -7.5 23.5t-19.5 9.5h-61h-52v-4v-39v-180v-545v-385q0 -1 -1 -4.5t-1 -5.5q0 -4 5 -4h88h229h16q43 0 43 26v111q0 2 97 2h49q6 0 6 -8q0 -2 -1 -7t-1 -6v-204v-58v-8h-21h-110h-332h-293v104v46h10h33q35 0 35 38v25v379v559v477v127v23q0 9 -13 14.5 t-24 5.5h-51zM82 2060l293 330h157l293 -330h-196l-174 197l-174 -197h-199z" />
<glyph unicode="&#xcb;" horiz-adv-x="931" d="M82 1800v98v48q0 4 10 4h8h185h407h84h62h6q4 0 4 -8v-195v-68q0 -1 1 -5t1 -7q0 -8 -6 -8h-117q-29 0 -29 2v47v64q0 25 -32 28q-13 0 -41 -1t-43 -1h-68h-35h-98h-55h-7v-6v-238v-81q0 -3 43 -3h50h22h10q15 4 15 41v107h102h47v-2v-6v-430q0 -4 -4 -4h-6h-59h-64h-10 q-6 0 -6 6v106q0 14 -7.5 23.5t-19.5 9.5h-61h-52v-4v-39v-180v-545v-385q0 -1 -1 -4.5t-1 -5.5q0 -4 5 -4h88h229h16q43 0 43 26v111q0 2 97 2h49q6 0 6 -8q0 -2 -1 -7t-1 -6v-204v-58v-8h-21h-110h-332h-293v104v46h10h33q35 0 35 38v25v379v559v477v127v23q0 9 -13 14.5 t-24 5.5h-51zM82 2077v245h246v-245h-246zM479 2077v245h246v-245h-246z" />
<glyph unicode="&#xcc;" horiz-adv-x="471" d="M82 2v104v46h10h33q35 0 35 38v25v379v559v477v127v23q0 9 -12 14.5t-21 5.5h-35h-10v111v39h18h248h35q6 0 6 -6v-7v-122v-15h-4h-10h-25q-29 0 -37 -8q-4 -4 -4 -12v-11v-311v-540v-517v-231q0 -18 41 -18q1 0 11 1t16 1q12 0 12 -4v-119v-29h-24h-123h-160zM82 2195 l51 142l467 -172l-51 -140z" />
<glyph unicode="&#xcd;" horiz-adv-x="471" d="M82 2v104v46h10h33q35 0 35 38v25v379v559v477v127v23q0 9 -12 14.5t-21 5.5h-35h-10v111v39h18h248h35q6 0 6 -6v-7v-122v-15h-4h-10h-25q-29 0 -37 -8q-4 -4 -4 -12v-11v-311v-540v-517v-231q0 -18 41 -18q1 0 11 1t16 1q12 0 12 -4v-119v-29h-24h-123h-160zM82 2165 l467 172l51 -142l-467 -170z" />
<glyph unicode="&#xce;" horiz-adv-x="471" d="M82 2v104v46h10h33q35 0 35 38v25v379v559v477v127v23q0 9 -12 14.5t-21 5.5h-35h-10v111v39h18h248h35q6 0 6 -6v-7v-122v-15h-4h-10h-25q-29 0 -37 -8q-4 -4 -4 -12v-11v-311v-540v-517v-231q0 -18 41 -18q1 0 11 1t16 1q12 0 12 -4v-119v-29h-24h-123h-160zM82 2060 l293 330h157l293 -330h-196l-174 197l-174 -197h-199z" />
<glyph unicode="&#xcf;" horiz-adv-x="471" d="M82 2v104v46h10h33q35 0 35 38v25v379v559v477v127v23q0 9 -12 14.5t-21 5.5h-35h-10v111v39h18h248h35q6 0 6 -6v-7v-122v-15h-4h-10h-25q-29 0 -37 -8q-4 -4 -4 -12v-11v-311v-540v-517v-231q0 -18 41 -18q1 0 11 1t16 1q12 0 12 -4v-119v-29h-24h-123h-160zM82 2077 v245h246v-245h-246zM479 2077v245h246v-245h-246z" />
<glyph unicode="&#xd0;" horiz-adv-x="935" d="M82 1800v4v119q0 27 2 27h39h182h135q70 0 107 -8q114 -22 197.5 -108t103.5 -200q6 -29 6 -86v-43v-194v-549v-367q0 -141 -78 -243q-59 -77 -158 -121q-67 -29 -165 -29h-7h-10h-45h-131h-127h-35q-4 0 -5 1t-1 7v121v19q0 2 2 2h4h27q27 0 37 8q8 8 8 24v41v396v559 v467v118q0 13 -2 17q-8 18 -51 18h-31h-4zM276 782v150h482v-150h-482zM319 156q0 -4 27 -4h19h116h4q93 6 156.5 75t63.5 162v119v508v475v65v33q-6 57 -39 106t-84 77q-47 26 -140 26h-118q-5 0 -5 -2v-8v-109v-452v-561v-426v-84z" />
<glyph unicode="&#xd1;" horiz-adv-x="1044" d="M82 1800v8v27v68v45q0 2 22 2h132h28h6h13h4q4 -8 4 -19q45 -132 78 -239q26 -83 77 -248t78 -248q25 -82 78 -244.5t78 -244.5q37 -113 53 -168v280v551v389v15v6q-7 18 -41 18h-10h-25v2v8v123q0 1 -1 6t-1 7q0 6 4 6h31h248h25v-29v-119q0 -4 -17 -4h-20h-8 q-35 0 -35 -16v-17v-120v-471v-560v-389q0 -4 -1 -13.5t-1 -14.5q0 -30 12 -37q10 -8 37 -8h24h4q3 0 3 -2v-19v-121v-6q0 -2 -7 -2h-36h-127h-129h-39q-7 0 -7 6v121v18v5h5h24q25 0 35 4q14 6 14 12l-4 12q-5 19 -16 49q-23 72 -69 218t-68 219q-141 447 -160 505 q-9 29 -29 90t-29 91v-295v-551v-318h3h2v-14v-6q3 -14 26 -14q16 -2 51 -2q2 0 2 -99v-47q0 -4 -6 -4h-6h-108h-187v104v46h10h33q8 0 19.5 4t11.5 10v8v41v387v557v475v125v21q0 9 -14 14.5t-23 5.5h-27l-7 -1q-7 -1 -11 -1q-6 0 -6 2zM82 2206l14 12q0 1 9 9t27 22t38 26 q92 62 174 62q34 0 68 -14.5t52.5 -29.5t43.5 -38q50 -47 72 -47q10 0 16 2q26 9 48 31t31 38t9 19l25 10l122 -49l-8 -18q-26 -51 -46 -77q-57 -73 -134 -98q-29 -10 -63 -10q-37 0 -84 21q-34 18 -88 67q-49 43 -64 43q-37 0 -90 -35q-15 -9 -28 -19.5t-19 -16.5l-6 -7 l-15 -12l-14 14z" />
<glyph unicode="&#xd2;" horiz-adv-x="843" d="M82 373v403v551v283q0 94 50.5 176.5t135.5 126.5q66 35 152 35q120 0 213 -72q61 -49 95 -120.5t34 -149.5v-107v-491v-514v-138q0 -129 -70 -219q-47 -63 -119 -99t-151 -36q-97 0 -180.5 52.5t-126.5 140.5q-33 70 -33 178zM166 2195l51 142l467 -172l-51 -140z M231 348q0 -54 23 -96q25 -46 70 -73t96 -27q16 0 24 2q57 6 103 45t59 94q6 20 6 61v131v512v496v109q0 46 -18 86q-23 51 -69.5 80.5t-102.5 29.5q-58 0 -106 -32.5t-70 -86.5q-15 -41 -15 -80v-124v-506v-502v-119z" />
<glyph unicode="&#xd3;" horiz-adv-x="843" d="M82 373v403v551v283q0 94 50.5 176.5t135.5 126.5q66 35 152 35q120 0 213 -72q61 -49 95 -120.5t34 -149.5v-107v-491v-514v-138q0 -129 -70 -219q-47 -63 -119 -99t-151 -36q-97 0 -180.5 52.5t-126.5 140.5q-33 70 -33 178zM82 2165l467 172l51 -142l-467 -170z M231 348q0 -54 23 -96q25 -46 70 -73t96 -27q16 0 24 2q57 6 103 45t59 94q6 20 6 61v131v512v496v109q0 46 -18 86q-23 51 -69.5 80.5t-102.5 29.5q-58 0 -106 -32.5t-70 -86.5q-15 -41 -15 -80v-124v-506v-502v-119z" />
<glyph unicode="&#xd4;" horiz-adv-x="843" d="M82 373v403v551v283q0 94 50.5 176.5t135.5 126.5q66 35 152 35q120 0 213 -72q61 -49 95 -120.5t34 -149.5v-107v-491v-514v-138q0 -129 -70 -219q-47 -63 -119 -99t-151 -36q-97 0 -180.5 52.5t-126.5 140.5q-33 70 -33 178zM82 2060l293 330h157l293 -330h-196 l-174 197l-174 -197h-199zM231 348q0 -54 23 -96q25 -46 70 -73t96 -27q16 0 24 2q57 6 103 45t59 94q6 20 6 61v131v512v496v109q0 46 -18 86q-23 51 -69.5 80.5t-102.5 29.5q-58 0 -106 -32.5t-70 -86.5q-15 -41 -15 -80v-124v-506v-502v-119z" />
<glyph unicode="&#xd5;" horiz-adv-x="843" d="M82 373v403v551v283q0 94 50.5 176.5t135.5 126.5q66 35 152 35q120 0 213 -72q61 -49 95 -120.5t34 -149.5v-107v-491v-514v-138q0 -129 -70 -219q-47 -63 -119 -99t-151 -36q-97 0 -180.5 52.5t-126.5 140.5q-33 70 -33 178zM82 2206l14 12q0 1 9 9t27 22t38 26 q92 62 174 62q34 0 68 -14.5t52.5 -29.5t43.5 -38q50 -47 72 -47q10 0 16 2q26 9 48 31t31 38t9 19l25 10l122 -49l-8 -18q-26 -51 -46 -77q-57 -73 -134 -98q-29 -10 -63 -10q-37 0 -84 21q-34 18 -88 67q-49 43 -64 43q-37 0 -90 -35q-15 -9 -28 -19.5t-19 -16.5l-6 -7 l-15 -12l-14 14zM231 348q0 -54 23 -96q25 -46 70 -73t96 -27q16 0 24 2q57 6 103 45t59 94q6 20 6 61v131v512v496v109q0 46 -18 86q-23 51 -69.5 80.5t-102.5 29.5q-58 0 -106 -32.5t-70 -86.5q-15 -41 -15 -80v-124v-506v-502v-119z" />
<glyph unicode="&#xd6;" horiz-adv-x="843" d="M82 373v403v551v283q0 94 50.5 176.5t135.5 126.5q66 35 152 35q120 0 213 -72q61 -49 95 -120.5t34 -149.5v-107v-491v-514v-138q0 -129 -70 -219q-47 -63 -119 -99t-151 -36q-97 0 -180.5 52.5t-126.5 140.5q-33 70 -33 178zM82 2077v245h246v-245h-246zM231 348 q0 -54 23 -96q25 -46 70 -73t96 -27q16 0 24 2q57 6 103 45t59 94q6 20 6 61v131v512v496v109q0 46 -18 86q-23 51 -69.5 80.5t-102.5 29.5q-58 0 -106 -32.5t-70 -86.5q-15 -41 -15 -80v-124v-506v-502v-119zM479 2077v245h246v-245h-246z" />
<glyph unicode="&#xd7;" horiz-adv-x="727" d="M82 682l176 176l-176 174l106 107l174 -176l177 176l106 -107l-176 -174l176 -176l-106 -107l-177 177l-174 -177z" />
<glyph unicode="&#xd8;" horiz-adv-x="843" d="M82 4l635 1952h157l-634 -1952h-158zM82 373v403v551v283q0 94 50.5 176.5t135.5 126.5q66 35 152 35q120 0 213 -72q61 -49 95 -120.5t34 -149.5v-107v-491v-514v-138q0 -129 -70 -219q-47 -63 -119 -99t-151 -36q-97 0 -180.5 52.5t-126.5 140.5q-33 70 -33 178z M231 348q0 -54 23 -96q25 -46 70 -73t96 -27q16 0 24 2q57 6 103 45t59 94q6 20 6 61v131v512v496v109q0 46 -18 86q-23 51 -69.5 80.5t-102.5 29.5q-58 0 -106 -32.5t-70 -86.5q-15 -41 -15 -80v-124v-506v-502v-119z" />
<glyph unicode="&#xd9;" horiz-adv-x="1001" d="M82 1800v19v123v6h6h39h133h113h12h4v-43v-107q-19 2 -37 2q-43 0 -43 -18v-178v-359v-422v-454v-37q3 -57 38 -104t89 -66q33 -10 62 -10q86 0 145 65q47 56 47 131v447q0 47 -1 142t-1 142v494v188v17q0 8 -11.5 13t-21.5 5q-43 0 -43 2v41v107h68h233q7 0 7 -2 q0 -1 -1 -4t-1 -5v-59v-64v-14q0 -2 -13 -2h-28q-39 0 -39 -22v-74v-443q0 -55 1 -162.5t1 -160.5v-512v-53q0 -51 -4 -78q-15 -96 -79.5 -170.5t-156.5 -102.5q-53 -16 -100 -16q-97 0 -180.5 52.5t-126.5 140.5q-33 67 -33 149v49v506v250v520v84v12q0 19 -6 25 q-10 10 -33 10q-5 0 -15 -1t-14 -1q-10 0 -10 2zM182 2195l51 142l467 -172l-51 -140z" />
<glyph unicode="&#xda;" horiz-adv-x="1001" d="M82 1800v19v123v6h6h39h133h113h12h4v-43v-107q-19 2 -37 2q-43 0 -43 -18v-178v-359v-422v-454v-37q3 -57 38 -104t89 -66q33 -10 62 -10q86 0 145 65q47 56 47 131v447q0 47 -1 142t-1 142v494v188v17q0 8 -11.5 13t-21.5 5q-43 0 -43 2v41v107h68h233q7 0 7 -2 q0 -1 -1 -4t-1 -5v-59v-64v-14q0 -2 -13 -2h-28q-39 0 -39 -22v-74v-443q0 -55 1 -162.5t1 -160.5v-512v-53q0 -51 -4 -78q-15 -96 -79.5 -170.5t-156.5 -102.5q-53 -16 -100 -16q-97 0 -180.5 52.5t-126.5 140.5q-33 67 -33 149v49v506v250v520v84v12q0 19 -6 25 q-10 10 -33 10q-5 0 -15 -1t-14 -1q-10 0 -10 2zM307 2165l467 172l51 -142l-467 -170z" />
<glyph unicode="&#xdb;" horiz-adv-x="1001" d="M82 1800v19v123v6h6h39h133h113h12h4v-43v-107q-19 2 -37 2q-43 0 -43 -18v-178v-359v-422v-454v-37q3 -57 38 -104t89 -66q33 -10 62 -10q86 0 145 65q47 56 47 131v447q0 47 -1 142t-1 142v494v188v17q0 8 -11.5 13t-21.5 5q-43 0 -43 2v41v107h68h233q7 0 7 -2 q0 -1 -1 -4t-1 -5v-59v-64v-14q0 -2 -13 -2h-28q-39 0 -39 -22v-74v-443q0 -55 1 -162.5t1 -160.5v-512v-53q0 -51 -4 -78q-15 -96 -79.5 -170.5t-156.5 -102.5q-53 -16 -100 -16q-97 0 -180.5 52.5t-126.5 140.5q-33 67 -33 149v49v506v250v520v84v12q0 19 -6 25 q-10 10 -33 10q-5 0 -15 -1t-14 -1q-10 0 -10 2zM162 2060l293 330h157l293 -330h-196l-174 197l-175 -197h-198z" />
<glyph unicode="&#xdc;" horiz-adv-x="1001" d="M82 1800v19v123v6h6h39h133h113h12h4v-43v-107q-19 2 -37 2q-43 0 -43 -18v-178v-359v-422v-454v-37q3 -57 38 -104t89 -66q33 -10 62 -10q86 0 145 65q47 56 47 131v447q0 47 -1 142t-1 142v494v188v17q0 8 -11.5 13t-21.5 5q-43 0 -43 2v41v107h68h233q7 0 7 -2 q0 -1 -1 -4t-1 -5v-59v-64v-14q0 -2 -13 -2h-28q-39 0 -39 -22v-74v-443q0 -55 1 -162.5t1 -160.5v-512v-53q0 -51 -4 -78q-15 -96 -79.5 -170.5t-156.5 -102.5q-53 -16 -100 -16q-97 0 -180.5 52.5t-126.5 140.5q-33 67 -33 149v49v506v250v520v84v12q0 19 -6 25 q-10 10 -33 10q-5 0 -15 -1t-14 -1q-10 0 -10 2zM170 2077v245h246v-245h-246zM567 2077v245h246v-245h-246z" />
<glyph unicode="&#xdd;" horiz-adv-x="966" d="M82 1802v21v121q0 6 8 6h41h133h111q14 0 14 -2v-47v-103h-33h-16q-21 0 -21 -6q1 -2 3 -4q31 -56 92 -160.5t69 -118.5q14 23 48.5 84t54.5 93q11 19 31 53.5t24 40.5q0 1 3 6.5t3 7.5q-9 6 -26 6q-5 0 -16 -1t-15 -1q-12 0 -12 2v17v63v59v7q0 4 6 4h235q66 0 66 -2 v-109v-39h-21q-22 0 -26 -2q-7 -1 -13 -5.5t-9 -8.5t-8 -13t-7 -12q-110 -190 -236 -403q-6 -18 -6 -19v-41v-182v-547v-370v-4q0 -5 2 -5q0 -3 -1 -10t-1 -10q6 -14 27 -14q18 -2 53 -2v-25v-74v-47q0 -4 -4 -4h-6h-111h-184v104v46h10h33q9 0 21 5t12 13v10v51v463v514 v125q0 7 -7 17q-6 12 -19 33.5t-19 33.5q-37 63 -110 188t-110 187q-3 8 -26 8q-7 0 -18 -1t-13 -1q-6 0 -6 4zM82 2165l467 172l51 -142l-467 -170z" />
<glyph unicode="&#xdf;" horiz-adv-x="845" d="M82 -49v1661q0 141 100 241.5t240 100.5q141 0 241.5 -100.5t100.5 -241.5v-176l-10 -33l-95 -160h37l68 -67v-33v-19v-616v-264q0 -98 -70 -167t-168 -69q-97 0 -166 69t-69 167v207l149 67v-274q0 -35 25.5 -60.5t60.5 -25.5q36 0 61 25t25 61v227v621h-96l-59 104 l155 262v154q0 80 -55 135q-57 57 -135 57q-76 0 -133 -57q-58 -58 -58 -135v-1641v-20q0 -15 5.5 -24t10.5 -11l5 -2l14 -2v-68l-184 -43v131v19z" />
<glyph unicode="&#xe0;" d="M82 8v121v18v5h4h29q24 0 32 6q6 4 10 13t4.5 16.5t1.5 20t1 15.5q2 28 7 80t7 76q7 84 22.5 252t22.5 252q8 91 24.5 273.5t24.5 273.5q5 57 14.5 167.5t14.5 167.5q2 6 2 21q1 4 -3.5 7t-13 4.5t-17 2t-19.5 0.5h-33v103v45h10h35q64 0 193 1t192 1h10q9 0 11 -6 q0 -20 4 -52q1 -18 4 -51t4 -49q4 -22 8 -63q6 -64 19.5 -199t19.5 -205q8 -77 26.5 -266t28.5 -291q39 -373 47 -457q6 -47 9 -90q0 -33 6 -33v-14v-6q3 -14 26 -14q16 -2 52 -2q2 0 2 -99v-47q0 -4 -6 -4h-7h-108h-187v104v46h11h32q9 0 21.5 5t11.5 13v10q-1 8 -3 25.5 t-3 25.5q-22 239 -45 463q-8 85 -25.5 254t-25.5 254q-8 78 -12 115v4h-43h-119q-4 0 -4 -6v-8q-2 -18 -6 -58q-3 -29 -9.5 -96t-9.5 -104q-5 -54 -23 -249t-26 -300q-4 -50 -14 -160.5t-15 -169.5q-1 -6 3.5 -9.5t13 -5.5t17 -2.5t19.5 -0.5h27v-101v-47q0 -2 -6 -2h-8 h-111h-133h-41h-4q-4 0 -4 6zM209 2195l51 142l467 -172l-51 -140zM426 1470h137q-8 67 -20 207q-2 16 -5.5 48t-5.5 49q-1 11 -15 18.5t-30 7.5q-29 0 -34 -18q-2 -8 -2.5 -26t-1.5 -23q-3 -50 -9 -107q-2 -24 -7 -76t-7 -80z" />
<glyph unicode="&#xe1;" d="M82 8v121v18v5h4h29q24 0 32 6q6 4 10 13t4.5 16.5t1.5 20t1 15.5q2 28 7 80t7 76q7 84 22.5 252t22.5 252q8 91 24.5 273.5t24.5 273.5q5 57 14.5 167.5t14.5 167.5q2 6 2 21q1 4 -3.5 7t-13 4.5t-17 2t-19.5 0.5h-33v103v45h10h35q64 0 193 1t192 1h10q9 0 11 -6 q0 -20 4 -52q1 -18 4 -51t4 -49q4 -22 8 -63q6 -64 19.5 -199t19.5 -205q8 -77 26.5 -266t28.5 -291q39 -373 47 -457q6 -47 9 -90q0 -33 6 -33v-14v-6q3 -14 26 -14q16 -2 52 -2q2 0 2 -99v-47q0 -4 -6 -4h-7h-108h-187v104v46h11h32q9 0 21.5 5t11.5 13v10q-1 8 -3 25.5 t-3 25.5q-22 239 -45 463q-8 85 -25.5 254t-25.5 254q-8 78 -12 115v4h-43h-119q-4 0 -4 -6v-8q-2 -18 -6 -58q-3 -29 -9.5 -96t-9.5 -104q-5 -54 -23 -249t-26 -300q-4 -50 -14 -160.5t-15 -169.5q-1 -6 3.5 -9.5t13 -5.5t17 -2.5t19.5 -0.5h27v-101v-47q0 -2 -6 -2h-8 h-111h-133h-41h-4q-4 0 -4 6zM186 2165l467 172l52 -142l-467 -170zM426 1470h137q-8 67 -20 207q-2 16 -5.5 48t-5.5 49q-1 11 -15 18.5t-30 7.5q-29 0 -34 -18q-2 -8 -2.5 -26t-1.5 -23q-3 -50 -9 -107q-2 -24 -7 -76t-7 -80z" />
<glyph unicode="&#xe2;" d="M82 8v121v18v5h4h29q24 0 32 6q6 4 10 13t4.5 16.5t1.5 20t1 15.5q2 28 7 80t7 76q7 84 22.5 252t22.5 252q8 91 24.5 273.5t24.5 273.5q5 57 14.5 167.5t14.5 167.5q2 6 2 21q1 4 -3.5 7t-13 4.5t-17 2t-19.5 0.5h-33v103v45h10h35q64 0 193 1t192 1h10q9 0 11 -6 q0 -20 4 -52q1 -18 4 -51t4 -49q4 -22 8 -63q6 -64 19.5 -199t19.5 -205q8 -77 26.5 -266t28.5 -291q39 -373 47 -457q6 -47 9 -90q0 -33 6 -33v-14v-6q3 -14 26 -14q16 -2 52 -2q2 0 2 -99v-47q0 -4 -6 -4h-7h-108h-187v104v46h11h32q9 0 21.5 5t11.5 13v10q-1 8 -3 25.5 t-3 25.5q-22 239 -45 463q-8 85 -25.5 254t-25.5 254q-8 78 -12 115v4h-43h-119q-4 0 -4 -6v-8q-2 -18 -6 -58q-3 -29 -9.5 -96t-9.5 -104q-5 -54 -23 -249t-26 -300q-4 -50 -14 -160.5t-15 -169.5q-1 -6 3.5 -9.5t13 -5.5t17 -2.5t19.5 -0.5h27v-101v-47q0 -2 -6 -2h-8 h-111h-133h-41h-4q-4 0 -4 6zM82 2060l293 330h157l293 -330h-196l-174 197l-174 -197h-199zM426 1470h137q-8 67 -20 207q-2 16 -5.5 48t-5.5 49q-1 11 -15 18.5t-30 7.5q-29 0 -34 -18q-2 -8 -2.5 -26t-1.5 -23q-3 -50 -9 -107q-2 -24 -7 -76t-7 -80z" />
<glyph unicode="&#xe3;" d="M82 8v121v18v5h4h29q24 0 32 6q6 4 10 13t4.5 16.5t1.5 20t1 15.5q2 28 7 80t7 76q7 84 22.5 252t22.5 252q8 91 24.5 273.5t24.5 273.5q5 57 14.5 167.5t14.5 167.5q2 6 2 21q1 4 -3.5 7t-13 4.5t-17 2t-19.5 0.5h-33v103v45h10h35q64 0 193 1t192 1h10q9 0 11 -6 q0 -20 4 -52q1 -18 4 -51t4 -49q4 -22 8 -63q6 -64 19.5 -199t19.5 -205q8 -77 26.5 -266t28.5 -291q39 -373 47 -457q6 -47 9 -90q0 -33 6 -33v-14v-6q3 -14 26 -14q16 -2 52 -2q2 0 2 -99v-47q0 -4 -6 -4h-7h-108h-187v104v46h11h32q9 0 21.5 5t11.5 13v10q-1 8 -3 25.5 t-3 25.5q-22 239 -45 463q-8 85 -25.5 254t-25.5 254q-8 78 -12 115v4h-43h-119q-4 0 -4 -6v-8q-2 -18 -6 -58q-3 -29 -9.5 -96t-9.5 -104q-5 -54 -23 -249t-26 -300q-4 -50 -14 -160.5t-15 -169.5q-1 -6 3.5 -9.5t13 -5.5t17 -2.5t19.5 -0.5h27v-101v-47q0 -2 -6 -2h-8 h-111h-133h-41h-4q-4 0 -4 6zM82 2206l14 12q0 1 9 9t27 22t38 26q92 62 174 62q34 0 68 -14.5t52.5 -29.5t43.5 -38q50 -47 72 -47q10 0 16 2q26 9 48 31t31 38t9 19l25 10l122 -49l-8 -18q-26 -51 -46 -77q-57 -73 -134 -98q-29 -10 -63 -10q-37 0 -84 21q-34 18 -88 67 q-49 43 -64 43q-37 0 -90 -35q-15 -9 -28 -19.5t-19 -16.5l-6 -7l-15 -12l-14 14zM426 1470h137q-8 67 -20 207q-2 16 -5.5 48t-5.5 49q-1 11 -15 18.5t-30 7.5q-29 0 -34 -18q-2 -8 -2.5 -26t-1.5 -23q-3 -50 -9 -107q-2 -24 -7 -76t-7 -80z" />
<glyph unicode="&#xe4;" d="M82 8v121v18v5h4h29q24 0 32 6q6 4 10 13t4.5 16.5t1.5 20t1 15.5q2 28 7 80t7 76q7 84 22.5 252t22.5 252q8 91 24.5 273.5t24.5 273.5q5 57 14.5 167.5t14.5 167.5q2 6 2 21q1 4 -3.5 7t-13 4.5t-17 2t-19.5 0.5h-33v103v45h10h35q64 0 193 1t192 1h10q9 0 11 -6 q0 -20 4 -52q1 -18 4 -51t4 -49q4 -22 8 -63q6 -64 19.5 -199t19.5 -205q8 -77 26.5 -266t28.5 -291q39 -373 47 -457q6 -47 9 -90q0 -33 6 -33v-14v-6q3 -14 26 -14q16 -2 52 -2q2 0 2 -99v-47q0 -4 -6 -4h-7h-108h-187v104v46h11h32q9 0 21.5 5t11.5 13v10q-1 8 -3 25.5 t-3 25.5q-22 239 -45 463q-8 85 -25.5 254t-25.5 254q-8 78 -12 115v4h-43h-119q-4 0 -4 -6v-8q-2 -18 -6 -58q-3 -29 -9.5 -96t-9.5 -104q-5 -54 -23 -249t-26 -300q-4 -50 -14 -160.5t-15 -169.5q-1 -6 3.5 -9.5t13 -5.5t17 -2.5t19.5 -0.5h27v-101v-47q0 -2 -6 -2h-8 h-111h-133h-41h-4q-4 0 -4 6zM82 2077v245h246v-245h-246zM426 1470h137q-8 67 -20 207q-2 16 -5.5 48t-5.5 49q-1 11 -15 18.5t-30 7.5q-29 0 -34 -18q-2 -8 -2.5 -26t-1.5 -23q-3 -50 -9 -107q-2 -24 -7 -76t-7 -80zM479 2077v245h246v-245h-246z" />
<glyph unicode="&#xe5;" d="M82 8v121v18v5h4h29q24 0 32 6q6 4 10 13t4.5 16.5t1.5 20t1 15.5q2 28 7 80t7 76q7 84 22.5 252t22.5 252q8 91 24.5 273.5t24.5 273.5q5 57 14.5 167.5t14.5 167.5q2 6 2 21q1 4 -3.5 7t-13 4.5t-17 2t-19.5 0.5h-33v103v45h10h35q64 0 193 1t192 1h10q9 0 11 -6 q0 -20 4 -52q1 -18 4 -51t4 -49q4 -22 8 -63q6 -64 19.5 -199t19.5 -205q8 -77 26.5 -266t28.5 -291q39 -373 47 -457q6 -47 9 -90q0 -33 6 -33v-14v-6q3 -14 26 -14q16 -2 52 -2q2 0 2 -99v-47q0 -4 -6 -4h-7h-108h-187v104v46h11h32q9 0 21.5 5t11.5 13v10q-1 8 -3 25.5 t-3 25.5q-22 239 -45 463q-8 85 -25.5 254t-25.5 254q-8 78 -12 115v4h-43h-119q-4 0 -4 -6v-8q-2 -18 -6 -58q-3 -29 -9.5 -96t-9.5 -104q-5 -54 -23 -249t-26 -300q-4 -50 -14 -160.5t-15 -169.5q-1 -6 3.5 -9.5t13 -5.5t17 -2.5t19.5 -0.5h27v-101v-47q0 -2 -6 -2h-8 h-111h-133h-41h-4q-4 0 -4 6zM283 2148q0 83 58.5 142t141.5 59t142 -59t59 -142q0 -84 -59 -143t-142 -59t-141.5 58.5t-58.5 143.5zM426 1470h137q-8 67 -20 207q-2 16 -5.5 48t-5.5 49q-1 11 -15 18.5t-30 7.5q-29 0 -34 -18q-2 -8 -2.5 -26t-1.5 -23q-3 -50 -9 -107 q-2 -24 -7 -76t-7 -80zM432 2148q0 -23 14.5 -38t36.5 -15t38 15t16 38q0 22 -16 37t-38 15t-36.5 -15t-14.5 -37z" />
<glyph unicode="&#xe6;" horiz-adv-x="1347" d="M82 4v150h45q23 0 33 20l143 1618q-2 12 -33 12h-2h-51v150h55h226h182h229h92h19h96h19h131v-150v-139h-150v121q-9 18 -33 18h-22h-21h-131h-18h-156v-329h107v2l18 -2q2 0 5.5 1.5t7.5 9.5t4 21v117h149v-444h-149v112q-2 27 -19 33h-123v-1171h326h22q26 0 33 20v121 h150v-141v-150h-19h-131h-115h-178h-315v150h45q26 0 33 20v1151h-172l-105 -1155q5 -13 31 -16h49v-150h-307zM426 1477h160v309q-6 18 -35 18h-12h-54q-11 0 -18.5 -3.5t-9.5 -6.5t-2 -6z" />
<glyph unicode="&#xe7;" horiz-adv-x="878" d="M82 373v403v551v283q0 94 50.5 176.5t135.5 126.5q66 35 152 35q120 0 213 -72q71 -56 108 -152q19 -59 19 -96v-19.5t4 -28t14 -13.5q6 -4 19 -4v-19v-37v-12q-16 -4 -49 -11t-50 -11q-40 -8 -86 -21v102v27q0 57 -12 94q-20 54 -68 88t-106 35q-58 0 -108.5 -31 t-71.5 -84q-15 -35 -15 -102v-27v-182v-543v-436v-22q0 -76 21 -117q26 -51 78 -78.5t110 -21.5q57 4 102 41.5t62 93.5q8 23 8 71v31v25v14q0 10 4 10q81 26 146 45v-104q0 -76 -12 -125q-25 -93 -96 -160.5t-165 -87.5q-35 -6 -67 -6q-97 0 -180.5 52.5t-126.5 140.5 q-33 70 -33 178zM272 -182l84 182h164l-57 -113q82 -12 123 -77q29 -45 26 -103q-3 -46 -34 -88q-37 -50 -93 -68q-25 -10 -63 -10q-31 0 -55 8l-19 7l47 143l19 -6q1 0 4 -1t4 -1q24 0 37 18q4 4 4 10q0 5 -4 9q-6 12 -35 12h-4q-11 0 -23 -2t-18 -4l-6 -2l-19 6z" />
<glyph unicode="&#xe8;" horiz-adv-x="931" d="M82 1800v98v48q0 4 10 4h8h185h407h84h62h6q4 0 4 -8v-195v-68q0 -1 1 -5t1 -7q0 -8 -6 -8h-117q-29 0 -29 2v47v64q0 25 -32 28q-13 0 -41 -1t-43 -1h-68h-35h-98h-55h-7v-6v-238v-81q0 -3 43 -3h50h22h10q15 4 15 41v107h102h47v-2v-6v-430q0 -4 -4 -4h-6h-59h-64h-10 q-6 0 -6 6v106q0 14 -7.5 23.5t-19.5 9.5h-61h-52v-4v-39v-180v-545v-385q0 -1 -1 -4.5t-1 -5.5q0 -4 5 -4h88h229h16q43 0 43 26v111q0 2 97 2h49q6 0 6 -8q0 -2 -1 -7t-1 -6v-204v-58v-8h-21h-110h-332h-293v104v46h10h33q35 0 35 38v25v379v559v477v127v23q0 9 -13 14.5 t-24 5.5h-51zM82 2195l51 142l467 -172l-51 -140z" />
<glyph unicode="&#xe9;" horiz-adv-x="931" d="M82 1800v98v48q0 4 10 4h8h185h407h84h62h6q4 0 4 -8v-195v-68q0 -1 1 -5t1 -7q0 -8 -6 -8h-117q-29 0 -29 2v47v64q0 25 -32 28q-13 0 -41 -1t-43 -1h-68h-35h-98h-55h-7v-6v-238v-81q0 -3 43 -3h50h22h10q15 4 15 41v107h102h47v-2v-6v-430q0 -4 -4 -4h-6h-59h-64h-10 q-6 0 -6 6v106q0 14 -7.5 23.5t-19.5 9.5h-61h-52v-4v-39v-180v-545v-385q0 -1 -1 -4.5t-1 -5.5q0 -4 5 -4h88h229h16q43 0 43 26v111q0 2 97 2h49q6 0 6 -8q0 -2 -1 -7t-1 -6v-204v-58v-8h-21h-110h-332h-293v104v46h10h33q35 0 35 38v25v379v559v477v127v23q0 9 -13 14.5 t-24 5.5h-51zM219 2165l467 172l51 -142l-467 -170z" />
<glyph unicode="&#xea;" horiz-adv-x="931" d="M82 1800v98v48q0 4 10 4h8h185h407h84h62h6q4 0 4 -8v-195v-68q0 -1 1 -5t1 -7q0 -8 -6 -8h-117q-29 0 -29 2v47v64q0 25 -32 28q-13 0 -41 -1t-43 -1h-68h-35h-98h-55h-7v-6v-238v-81q0 -3 43 -3h50h22h10q15 4 15 41v107h102h47v-2v-6v-430q0 -4 -4 -4h-6h-59h-64h-10 q-6 0 -6 6v106q0 14 -7.5 23.5t-19.5 9.5h-61h-52v-4v-39v-180v-545v-385q0 -1 -1 -4.5t-1 -5.5q0 -4 5 -4h88h229h16q43 0 43 26v111q0 2 97 2h49q6 0 6 -8q0 -2 -1 -7t-1 -6v-204v-58v-8h-21h-110h-332h-293v104v46h10h33q35 0 35 38v25v379v559v477v127v23q0 9 -13 14.5 t-24 5.5h-51zM82 2060l293 330h157l293 -330h-196l-174 197l-174 -197h-199z" />
<glyph unicode="&#xeb;" horiz-adv-x="931" d="M82 1800v98v48q0 4 10 4h8h185h407h84h62h6q4 0 4 -8v-195v-68q0 -1 1 -5t1 -7q0 -8 -6 -8h-117q-29 0 -29 2v47v64q0 25 -32 28q-13 0 -41 -1t-43 -1h-68h-35h-98h-55h-7v-6v-238v-81q0 -3 43 -3h50h22h10q15 4 15 41v107h102h47v-2v-6v-430q0 -4 -4 -4h-6h-59h-64h-10 q-6 0 -6 6v106q0 14 -7.5 23.5t-19.5 9.5h-61h-52v-4v-39v-180v-545v-385q0 -1 -1 -4.5t-1 -5.5q0 -4 5 -4h88h229h16q43 0 43 26v111q0 2 97 2h49q6 0 6 -8q0 -2 -1 -7t-1 -6v-204v-58v-8h-21h-110h-332h-293v104v46h10h33q35 0 35 38v25v379v559v477v127v23q0 9 -13 14.5 t-24 5.5h-51zM137 2077v245h246v-245h-246zM535 2077v245h245v-245h-245z" />
<glyph unicode="&#xec;" horiz-adv-x="471" d="M82 2v104v46h10h33q35 0 35 38v25v379v559v477v127v23q0 9 -12 14.5t-21 5.5h-35h-10v111v39h18h248h35q6 0 6 -6v-7v-122v-15h-4h-10h-25q-29 0 -37 -8q-4 -4 -4 -12v-11v-311v-540v-517v-231q0 -18 41 -18q1 0 11 1t16 1q12 0 12 -4v-119v-29h-24h-123h-160zM82 2195 l51 142l467 -172l-51 -140z" />
<glyph unicode="&#xed;" horiz-adv-x="471" d="M82 2v104v46h10h33q35 0 35 38v25v379v559v477v127v23q0 9 -12 14.5t-21 5.5h-35h-10v111v39h18h248h35q6 0 6 -6v-7v-122v-15h-4h-10h-25q-29 0 -37 -8q-4 -4 -4 -12v-11v-311v-540v-517v-231q0 -18 41 -18q1 0 11 1t16 1q12 0 12 -4v-119v-29h-24h-123h-160zM82 2165 l467 172l51 -142l-467 -170z" />
<glyph unicode="&#xee;" horiz-adv-x="471" d="M82 2v104v46h10h33q35 0 35 38v25v379v559v477v127v23q0 9 -12 14.5t-21 5.5h-35h-10v111v39h18h248h35q6 0 6 -6v-7v-122v-15h-4h-10h-25q-29 0 -37 -8q-4 -4 -4 -12v-11v-311v-540v-517v-231q0 -18 41 -18q1 0 11 1t16 1q12 0 12 -4v-119v-29h-24h-123h-160zM82 2060 l293 330h157l293 -330h-196l-174 197l-174 -197h-199z" />
<glyph unicode="&#xef;" horiz-adv-x="471" d="M82 2v104v46h10h33q35 0 35 38v25v379v559v477v127v23q0 9 -12 14.5t-21 5.5h-35h-10v111v39h18h248h35q6 0 6 -6v-7v-122v-15h-4h-10h-25q-29 0 -37 -8q-4 -4 -4 -12v-11v-311v-540v-517v-231q0 -18 41 -18q1 0 11 1t16 1q12 0 12 -4v-119v-29h-24h-123h-160zM82 2077 v245h246v-245h-246zM479 2077v245h246v-245h-246z" />
<glyph unicode="&#xf1;" horiz-adv-x="1044" d="M82 1800v8v27v68v45q0 2 22 2h132h28h6h13h4q4 -8 4 -19q45 -132 78 -239q26 -83 77 -248t78 -248q25 -82 78 -244.5t78 -244.5q37 -113 53 -168v280v551v389v15v6q-7 18 -41 18h-10h-25v2v8v123q0 1 -1 6t-1 7q0 6 4 6h31h248h25v-29v-119q0 -4 -17 -4h-20h-8 q-35 0 -35 -16v-17v-120v-471v-560v-389q0 -4 -1 -13.5t-1 -14.5q0 -30 12 -37q10 -8 37 -8h24h4q3 0 3 -2v-19v-121v-6q0 -2 -7 -2h-36h-127h-129h-39q-7 0 -7 6v121v18v5h5h24q25 0 35 4q14 6 14 12l-4 12q-5 19 -16 49q-23 72 -69 218t-68 219q-141 447 -160 505 q-9 29 -29 90t-29 91v-295v-551v-318h3h2v-14v-6q3 -14 26 -14q16 -2 51 -2q2 0 2 -99v-47q0 -4 -6 -4h-6h-108h-187v104v46h10h33q8 0 19.5 4t11.5 10v8v41v387v557v475v125v21q0 9 -14 14.5t-23 5.5h-27l-7 -1q-7 -1 -11 -1q-6 0 -6 2zM82 2206l14 12q0 1 9 9t27 22t38 26 q92 62 174 62q34 0 68 -14.5t52.5 -29.5t43.5 -38q50 -47 72 -47q10 0 16 2q26 9 48 31t31 38t9 19l25 10l122 -49l-8 -18q-26 -51 -46 -77q-57 -73 -134 -98q-29 -10 -63 -10q-37 0 -84 21q-34 18 -88 67q-49 43 -64 43q-37 0 -90 -35q-15 -9 -28 -19.5t-19 -16.5l-6 -7 l-15 -12l-14 14z" />
<glyph unicode="&#xf2;" horiz-adv-x="843" d="M82 373v403v551v283q0 94 50.5 176.5t135.5 126.5q66 35 152 35q120 0 213 -72q61 -49 95 -120.5t34 -149.5v-107v-491v-514v-138q0 -129 -70 -219q-47 -63 -119 -99t-151 -36q-97 0 -180.5 52.5t-126.5 140.5q-33 70 -33 178zM82 2195l51 142l467 -172l-51 -140z M231 348q0 -54 23 -96q25 -46 70 -73t96 -27q16 0 24 2q57 6 103 45t59 94q6 20 6 61v131v512v496v109q0 46 -18 86q-23 51 -69.5 80.5t-102.5 29.5q-58 0 -106 -32.5t-70 -86.5q-15 -41 -15 -80v-124v-506v-502v-119z" />
<glyph unicode="&#xf3;" horiz-adv-x="843" d="M82 373v403v551v283q0 94 50.5 176.5t135.5 126.5q66 35 152 35q120 0 213 -72q61 -49 95 -120.5t34 -149.5v-107v-491v-514v-138q0 -129 -70 -219q-47 -63 -119 -99t-151 -36q-97 0 -180.5 52.5t-126.5 140.5q-33 70 -33 178zM82 2165l467 172l51 -142l-467 -170z M231 348q0 -54 23 -96q25 -46 70 -73t96 -27q16 0 24 2q57 6 103 45t59 94q6 20 6 61v131v512v496v109q0 46 -18 86q-23 51 -69.5 80.5t-102.5 29.5q-58 0 -106 -32.5t-70 -86.5q-15 -41 -15 -80v-124v-506v-502v-119z" />
<glyph unicode="&#xf4;" horiz-adv-x="843" d="M82 373v403v551v283q0 94 50.5 176.5t135.5 126.5q66 35 152 35q120 0 213 -72q61 -49 95 -120.5t34 -149.5v-107v-491v-514v-138q0 -129 -70 -219q-47 -63 -119 -99t-151 -36q-97 0 -180.5 52.5t-126.5 140.5q-33 70 -33 178zM82 2060l293 330h157l293 -330h-196 l-174 197l-174 -197h-199zM231 348q0 -54 23 -96q25 -46 70 -73t96 -27q16 0 24 2q57 6 103 45t59 94q6 20 6 61v131v512v496v109q0 46 -18 86q-23 51 -69.5 80.5t-102.5 29.5q-58 0 -106 -32.5t-70 -86.5q-15 -41 -15 -80v-124v-506v-502v-119z" />
<glyph unicode="&#xf5;" horiz-adv-x="843" d="M82 373v403v551v283q0 94 50.5 176.5t135.5 126.5q66 35 152 35q120 0 213 -72q61 -49 95 -120.5t34 -149.5v-107v-491v-514v-138q0 -129 -70 -219q-47 -63 -119 -99t-151 -36q-97 0 -180.5 52.5t-126.5 140.5q-33 70 -33 178zM82 2206l14 12q0 1 9 9t27 22t38 26 q92 62 174 62q34 0 68 -14.5t52.5 -29.5t43.5 -38q50 -47 72 -47q10 0 16 2q26 9 48 31t31 38t9 19l25 10l122 -49l-8 -18q-26 -51 -46 -77q-57 -73 -134 -98q-29 -10 -63 -10q-37 0 -84 21q-34 18 -88 67q-49 43 -64 43q-37 0 -90 -35q-15 -9 -28 -19.5t-19 -16.5l-6 -7 l-15 -12l-14 14zM231 348q0 -54 23 -96q25 -46 70 -73t96 -27q16 0 24 2q57 6 103 45t59 94q6 20 6 61v131v512v496v109q0 46 -18 86q-23 51 -69.5 80.5t-102.5 29.5q-58 0 -106 -32.5t-70 -86.5q-15 -41 -15 -80v-124v-506v-502v-119z" />
<glyph unicode="&#xf6;" horiz-adv-x="843" d="M82 373v403v551v283q0 94 50.5 176.5t135.5 126.5q66 35 152 35q120 0 213 -72q61 -49 95 -120.5t34 -149.5v-107v-491v-514v-138q0 -129 -70 -219q-47 -63 -119 -99t-151 -36q-97 0 -180.5 52.5t-126.5 140.5q-33 70 -33 178zM82 2077v245h246v-245h-246zM231 348 q0 -54 23 -96q25 -46 70 -73t96 -27q16 0 24 2q57 6 103 45t59 94q6 20 6 61v131v512v496v109q0 46 -18 86q-23 51 -69.5 80.5t-102.5 29.5q-58 0 -106 -32.5t-70 -86.5q-15 -41 -15 -80v-124v-506v-502v-119zM479 2077v245h246v-245h-246z" />
<glyph unicode="&#xf7;" horiz-adv-x="811" d="M82 782v150h647v-150h-647zM330 530v150h149v-150h-149zM330 1032v150h149v-150h-149z" />
<glyph unicode="&#xf8;" horiz-adv-x="843" d="M82 4l635 1952h157l-634 -1952h-158zM82 373v403v551v283q0 94 50.5 176.5t135.5 126.5q66 35 152 35q120 0 213 -72q61 -49 95 -120.5t34 -149.5v-107v-491v-514v-138q0 -129 -70 -219q-47 -63 -119 -99t-151 -36q-97 0 -180.5 52.5t-126.5 140.5q-33 70 -33 178z M231 348q0 -54 23 -96q25 -46 70 -73t96 -27q16 0 24 2q57 6 103 45t59 94q6 20 6 61v131v512v496v109q0 46 -18 86q-23 51 -69.5 80.5t-102.5 29.5q-58 0 -106 -32.5t-70 -86.5q-15 -41 -15 -80v-124v-506v-502v-119z" />
<glyph unicode="&#xf9;" horiz-adv-x="1001" d="M82 1800v19v123v6h6h39h133h113h12h4v-43v-107q-19 2 -37 2q-43 0 -43 -18v-178v-359v-422v-454v-37q3 -57 38 -104t89 -66q33 -10 62 -10q86 0 145 65q47 56 47 131v447q0 47 -1 142t-1 142v494v188v17q0 8 -11.5 13t-21.5 5q-43 0 -43 2v41v107h68h233q7 0 7 -2 q0 -1 -1 -4t-1 -5v-59v-64v-14q0 -2 -13 -2h-28q-39 0 -39 -22v-74v-443q0 -55 1 -162.5t1 -160.5v-512v-53q0 -51 -4 -78q-15 -96 -79.5 -170.5t-156.5 -102.5q-53 -16 -100 -16q-97 0 -180.5 52.5t-126.5 140.5q-33 67 -33 149v49v506v250v520v84v12q0 19 -6 25 q-10 10 -33 10q-5 0 -15 -1t-14 -1q-10 0 -10 2zM182 2195l51 142l467 -172l-51 -140z" />
<glyph unicode="&#xfa;" horiz-adv-x="1001" d="M82 1800v19v123v6h6h39h133h113h12h4v-43v-107q-19 2 -37 2q-43 0 -43 -18v-178v-359v-422v-454v-37q3 -57 38 -104t89 -66q33 -10 62 -10q86 0 145 65q47 56 47 131v447q0 47 -1 142t-1 142v494v188v17q0 8 -11.5 13t-21.5 5q-43 0 -43 2v41v107h68h233q7 0 7 -2 q0 -1 -1 -4t-1 -5v-59v-64v-14q0 -2 -13 -2h-28q-39 0 -39 -22v-74v-443q0 -55 1 -162.5t1 -160.5v-512v-53q0 -51 -4 -78q-15 -96 -79.5 -170.5t-156.5 -102.5q-53 -16 -100 -16q-97 0 -180.5 52.5t-126.5 140.5q-33 67 -33 149v49v506v250v520v84v12q0 19 -6 25 q-10 10 -33 10q-5 0 -15 -1t-14 -1q-10 0 -10 2zM309 2165l467 172l51 -142l-467 -170z" />
<glyph unicode="&#xfb;" horiz-adv-x="1001" d="M82 1800v19v123v6h6h39h133h113h12h4v-43v-107q-19 2 -37 2q-43 0 -43 -18v-178v-359v-422v-454v-37q3 -57 38 -104t89 -66q33 -10 62 -10q86 0 145 65q47 56 47 131v447q0 47 -1 142t-1 142v494v188v17q0 8 -11.5 13t-21.5 5q-43 0 -43 2v41v107h68h233q7 0 7 -2 q0 -1 -1 -4t-1 -5v-59v-64v-14q0 -2 -13 -2h-28q-39 0 -39 -22v-74v-443q0 -55 1 -162.5t1 -160.5v-512v-53q0 -51 -4 -78q-15 -96 -79.5 -170.5t-156.5 -102.5q-53 -16 -100 -16q-97 0 -180.5 52.5t-126.5 140.5q-33 67 -33 149v49v506v250v520v84v12q0 19 -6 25 q-10 10 -33 10q-5 0 -15 -1t-14 -1q-10 0 -10 2zM154 2060l292 330h158l293 -330h-197l-174 197l-174 -197h-198z" />
<glyph unicode="&#xfc;" horiz-adv-x="1001" d="M82 1800v19v123v6h6h39h133h113h12h4v-43v-107q-19 2 -37 2q-43 0 -43 -18v-178v-359v-422v-454v-37q3 -57 38 -104t89 -66q33 -10 62 -10q86 0 145 65q47 56 47 131v447q0 47 -1 142t-1 142v494v188v17q0 8 -11.5 13t-21.5 5q-43 0 -43 2v41v107h68h233q7 0 7 -2 q0 -1 -1 -4t-1 -5v-59v-64v-14q0 -2 -13 -2h-28q-39 0 -39 -22v-74v-443q0 -55 1 -162.5t1 -160.5v-512v-53q0 -51 -4 -78q-15 -96 -79.5 -170.5t-156.5 -102.5q-53 -16 -100 -16q-97 0 -180.5 52.5t-126.5 140.5q-33 67 -33 149v49v506v250v520v84v12q0 19 -6 25 q-10 10 -33 10q-5 0 -15 -1t-14 -1q-10 0 -10 2zM145 2077v245h246v-245h-246zM543 2077v245h245v-245h-245z" />
<glyph unicode="&#xfd;" horiz-adv-x="966" d="M82 1802v21v121q0 6 8 6h41h133h111q14 0 14 -2v-47v-103h-33h-16q-21 0 -21 -6q1 -2 3 -4q31 -56 92 -160.5t69 -118.5q14 23 48.5 84t54.5 93q11 19 31 53.5t24 40.5q0 1 3 6.5t3 7.5q-9 6 -26 6q-5 0 -16 -1t-15 -1q-12 0 -12 2v17v63v59v7q0 4 6 4h235q66 0 66 -2 v-109v-39h-21q-22 0 -26 -2q-7 -1 -13 -5.5t-9 -8.5t-8 -13t-7 -12q-110 -190 -236 -403q-6 -18 -6 -19v-41v-182v-547v-370v-4q0 -5 2 -5q0 -3 -1 -10t-1 -10q6 -14 27 -14q18 -2 53 -2v-25v-74v-47q0 -4 -4 -4h-6h-111h-184v104v46h10h33q9 0 21 5t12 13v10v51v463v514 v125q0 7 -7 17q-6 12 -19 33.5t-19 33.5q-37 63 -110 188t-110 187q-3 8 -26 8q-7 0 -18 -1t-13 -1q-6 0 -6 4zM317 2165l467 172l52 -142l-467 -170z" />
<glyph unicode="&#xff;" horiz-adv-x="966" d="M82 1802v21v121q0 6 8 6h41h133h111q14 0 14 -2v-47v-103h-33h-16q-21 0 -21 -6q1 -2 3 -4q31 -56 92 -160.5t69 -118.5q14 23 48.5 84t54.5 93q11 19 31 53.5t24 40.5q0 1 3 6.5t3 7.5q-9 6 -26 6q-5 0 -16 -1t-15 -1q-12 0 -12 2v17v63v59v7q0 4 6 4h235q66 0 66 -2 v-109v-39h-21q-22 0 -26 -2q-7 -1 -13 -5.5t-9 -8.5t-8 -13t-7 -12q-110 -190 -236 -403q-6 -18 -6 -19v-41v-182v-547v-370v-4q0 -5 2 -5q0 -3 -1 -10t-1 -10q6 -14 27 -14q18 -2 53 -2v-25v-74v-47q0 -4 -4 -4h-6h-111h-184v104v46h10h33q9 0 21 5t12 13v10v51v463v514 v125q0 7 -7 17q-6 12 -19 33.5t-19 33.5q-37 63 -110 188t-110 187q-3 8 -26 8q-7 0 -18 -1t-13 -1q-6 0 -6 4zM160 2077v245h246v-245h-246zM557 2077v245h246v-245h-246z" />
<glyph unicode="&#x152;" horiz-adv-x="1376" d="M82 348v1233q0 103 27 168q40 91 127 149q89 58 186 58q47 0 106 -17v13h17h2h217h174h92h19h96h18h131v-150v-141h-149v121q-6 18 -33 20h-22l-21 -2h-131h-18h-156v-327h104h19q18 0 18 30v117h150v-442h-150v112q-2 22 -18 33h-123v-1169h326h22q25 2 33 18v121h149 v-139v-150h-20h-129h-115h-178h-88h-186h-5q-2 -2 -12 -2q-6 0 -10 2h-14v10q-2 4 -2 13q-61 -21 -113 -21q-92 0 -176 49q-75 46 -119.5 125t-44.5 168zM231 348q0 -50 25 -93.5t68 -68.5q45 -28 98 -28q51 0 92 24q45 25 71.5 69.5t26.5 96.5v1262q0 79 -55 137 q-54 57 -135 57q-78 0 -134.5 -57.5t-56.5 -136.5v-1262z" />
<glyph unicode="&#x153;" horiz-adv-x="1376" d="M82 348v1233q0 103 27 168q40 91 127 149q89 58 186 58q47 0 106 -17v13h17h2h217h174h92h19h96h18h131v-150v-141h-149v121q-6 18 -33 20h-22l-21 -2h-131h-18h-156v-327h104h19q18 0 18 30v117h150v-442h-150v112q-2 22 -18 33h-123v-1169h326h22q25 2 33 18v121h149 v-139v-150h-20h-129h-115h-178h-88h-186h-5q-2 -2 -12 -2q-6 0 -10 2h-14v10q-2 4 -2 13q-61 -21 -113 -21q-92 0 -176 49q-75 46 -119.5 125t-44.5 168zM231 348q0 -50 25 -93.5t68 -68.5q45 -28 98 -28q51 0 92 24q45 25 71.5 69.5t26.5 96.5v1262q0 79 -55 137 q-54 57 -135 57q-78 0 -134.5 -57.5t-56.5 -136.5v-1262z" />
<glyph unicode="&#x178;" horiz-adv-x="966" d="M82 1802v21v121q0 6 8 6h41h133h111q14 0 14 -2v-47v-103h-33h-16q-21 0 -21 -6q1 -2 3 -4q31 -56 92 -160.5t69 -118.5q14 23 48.5 84t54.5 93q11 19 31 53.5t24 40.5q0 1 3 6.5t3 7.5q-9 6 -26 6q-5 0 -16 -1t-15 -1q-12 0 -12 2v17v63v59v7q0 4 6 4h235q66 0 66 -2 v-109v-39h-21q-22 0 -26 -2q-7 -1 -13 -5.5t-9 -8.5t-8 -13t-7 -12q-110 -190 -236 -403q-6 -18 -6 -19v-41v-182v-547v-370v-4q0 -5 2 -5q0 -3 -1 -10t-1 -10q6 -14 27 -14q18 -2 53 -2v-25v-74v-47q0 -4 -4 -4h-6h-111h-184v104v46h10h33q9 0 21 5t12 13v10v51v463v514 v125q0 7 -7 17q-6 12 -19 33.5t-19 33.5q-37 63 -110 188t-110 187q-3 8 -26 8q-7 0 -18 -1t-13 -1q-6 0 -6 4zM82 2077v245h246v-245h-246zM479 2077v245h246v-245h-246z" />
<glyph unicode="&#x2c6;" horiz-adv-x="907" d="M82 2060l293 330h157l293 -330h-196l-174 197l-174 -197h-199z" />
<glyph unicode="&#x2dc;" horiz-adv-x="913" d="M82 2206l14 12q0 1 9 9t27 22t38 26q92 62 174 62q34 0 68 -14.5t52.5 -29.5t43.5 -38q50 -47 72 -47q10 0 16 2q26 9 48 31t31 38t9 19l25 10l122 -49l-8 -18q-26 -51 -46 -77q-57 -73 -134 -98q-29 -10 -63 -10q-37 0 -84 21q-34 18 -88 67q-49 43 -64 43 q-37 0 -90 -35q-15 -9 -28 -19.5t-19 -16.5l-6 -7l-15 -12l-14 14z" />
<glyph unicode="&#x2000;" horiz-adv-x="1195" />
<glyph unicode="&#x2001;" horiz-adv-x="2390" />
<glyph unicode="&#x2002;" horiz-adv-x="1195" />
<glyph unicode="&#x2003;" horiz-adv-x="2390" />
<glyph unicode="&#x2004;" horiz-adv-x="796" />
<glyph unicode="&#x2005;" horiz-adv-x="597" />
<glyph unicode="&#x2006;" horiz-adv-x="398" />
<glyph unicode="&#x2007;" horiz-adv-x="398" />
<glyph unicode="&#x2008;" horiz-adv-x="298" />
<glyph unicode="&#x2009;" horiz-adv-x="478" />
<glyph unicode="&#x200a;" horiz-adv-x="132" />
<glyph unicode="&#x2010;" horiz-adv-x="645" d="M82 782v150h481v-150h-481z" />
<glyph unicode="&#x2011;" horiz-adv-x="645" d="M82 782v150h481v-150h-481z" />
<glyph unicode="&#x2012;" horiz-adv-x="645" d="M82 782v150h481v-150h-481z" />
<glyph unicode="&#x2013;" horiz-adv-x="811" d="M82 782v150h647v-150h-647z" />
<glyph unicode="&#x2014;" horiz-adv-x="1159" d="M82 782v150h995v-150h-995z" />
<glyph unicode="&#x2018;" horiz-adv-x="411" d="M82 1495v248v209h149v-209h99v-248h-248z" />
<glyph unicode="&#x2019;" horiz-adv-x="411" d="M82 1704v248h248v-248v-209h-150v209h-98z" />
<glyph unicode="&#x201a;" horiz-adv-x="411" d="M82 -2v248h248v-248v-209h-150v209h-98z" />
<glyph unicode="&#x201c;" horiz-adv-x="788" d="M164 1495v248v209h149v-209h99v-248h-248zM459 1495v248v209h149v-209h99v-248h-248z" />
<glyph unicode="&#x201d;" horiz-adv-x="788" d="M164 1704v248h248v-248v-209h-150v209h-98zM459 1704v248h248v-248v-209h-150v209h-98z" />
<glyph unicode="&#x201e;" horiz-adv-x="411" d="M82 -2v248h248v-248v-209h-150v209h-98zM82 -2v248h248v-248v-209h-150v209h-98z" />
<glyph unicode="&#x2022;" horiz-adv-x="563" d="M82 1034q0 83 59 141t142 58q82 0 140 -58t58 -141t-58 -141.5t-140 -58.5q-83 0 -142 58.5t-59 141.5z" />
<glyph unicode="&#x2026;" horiz-adv-x="493" d="M164 4v248h248v-248h-248zM164 4v248h248v-248h-248zM164 4v248h248v-248h-248z" />
<glyph unicode="&#x202f;" horiz-adv-x="478" />
<glyph unicode="&#x2039;" horiz-adv-x="546" d="M82 535l383 383v-175l-211 -211l211 -213v-176z" />
<glyph unicode="&#x203a;" horiz-adv-x="546" d="M82 143v176l209 213l-209 211v175l383 -383z" />
<glyph unicode="&#x205f;" horiz-adv-x="597" />
<glyph unicode="&#x20ac;" horiz-adv-x="933" d="M82 727v150h88v75h-88v150h88v512q0 141 100 241.5t240 100.5q141 0 241.5 -100.5t100.5 -241.5v-33h-150v33q0 78 -57 135q-52 55 -135 55q-81 0 -133 -55q-58 -58 -58 -135v-512h410v-150h-410v-75h410v-150h-410v-383q0 -77 58 -135q52 -55 133 -55q83 0 135 55 q57 57 57 135v70h150v-70q0 -141 -100.5 -240.5t-241.5 -99.5q-140 0 -240 99.5t-100 240.5v383h-88z" />
<glyph unicode="&#x25fc;" horiz-adv-x="1945" d="M0 0v1946h1946v-1946h-1946z" />
</font>
</defs>
</svg>
