<?xml version="1.0" standalone="no"?>
<!DOCTYPE svg PUBLIC "-//W3C//DTD SVG 1.1//EN" "http://www.w3.org/Graphics/SVG/1.1/DTD/svg11.dtd" >
<svg xmlns="http://www.w3.org/2000/svg">
<metadata></metadata>
<defs>
<font id="monarchylight_italic" horiz-adv-x="794" >
<font-face units-per-em="2048" ascent="1638" descent="-410" />
<missing-glyph horiz-adv-x="512" />
<glyph horiz-adv-x="0" />
<glyph horiz-adv-x="682" />
<glyph unicode=" "  horiz-adv-x="512" />
<glyph unicode="&#x09;" horiz-adv-x="512" />
<glyph unicode="&#xa0;" horiz-adv-x="512" />
<glyph unicode="!" horiz-adv-x="239" d="M-125 0q6 28 18.5 87t18.5 87q0 4 16 4h11h47q1 0 -2.5 -17t-7 -36t-3.5 -21q-17 -74 -22 -102q0 -4 -10 -4q-4 0 -11 1l-8 1h-47zM-37 414q6 31 19.5 92.5t19.5 91.5q15 71 46 215t46 215q40 197 103 488q13 61 38 180.5t39 179.5q2 12 7.5 37t7.5 37v2h4h8h31h33v-4 q-8 -39 -25 -116t-25 -116q-17 -75 -48.5 -225t-47.5 -225q-45 -218 -102 -482q-52 -248 -70 -325q-1 -7 -4 -21.5t-4 -21.5q0 -2 -2 -2h-8h-66z" />
<glyph unicode="&#x22;" horiz-adv-x="585" d="M82 1556q7 61 20.5 183.5t20.5 183.5q0 19 2 29h172q-82 -246 -125 -367q0 -4 -3.5 -16.5t-6.5 -12.5h-80zM332 1556q22 196 39 367q1 3 1.5 13t2.5 16h172q-82 -246 -125 -367q0 -4 -3.5 -16.5t-6.5 -12.5h-80z" />
<glyph unicode="#" horiz-adv-x="1236" d="M-125 0q123 233 162 303q37 67 103.5 192.5t95.5 178.5q2 2 6 10h-185h-8q-4 1 -4 2q2 9 5 26.5t5 26.5q0 9 2 15q0 6 4 6h33h117h51h14h7q4 4 4 10q1 2 6.5 11.5t7.5 15.5q24 43 51 90q105 201 176 330h-186h-37q-6 0 -6 6q2 2 2 6q2 9 6 27.5t6 27.5q2 8 11 8h208 q2 0 9 -1t12 -1q16 0 16 4q3 6 10.5 19.5t10.5 19.5q165 310 223 416q15 29 46.5 87.5t47.5 86.5q3 5 8.5 16.5t8.5 16.5h6h22h49h3q-61 -118 -166 -309q-27 -52 -58.5 -110.5t-70.5 -130t-60 -110.5v-4h178h93h4.5t3 1t2 1.5t2 3.5l2.5 5q37 71 199 372q22 39 59 109t51 96 q5 10 16.5 31t16.5 31l6 12q2 2 6 2h6h68q-61 -118 -166 -309q-30 -58 -188 -351v-4h182h6q4 0 2 -6q-2 -9 -6 -27.5t-6 -27.5v-10q0 -4 -6 -4h-39h-117h-43h-14q-15 -26 -40.5 -74t-35.5 -66q-28 -53 -85.5 -158.5t-86.5 -158.5h186h35q4 0 4 -6q-1 -2 -3 -6.5t-3 -6.5 q-2 -16 -10 -53q-2 -4 -6 -4h-7h-210q-2 0 -7 1t-8 1q-9 0 -12 -6q-18 -32 -23 -43q-38 -70 -113.5 -210t-113.5 -210q-17 -30 -47.5 -89.5t-46.5 -88.5q-10 -15 -21 -37q0 -2 -4 -2h-8h-57h-11q123 233 162 303q37 67 103.5 192.5t95.5 178.5q2 2 6 10h-180h-90 q-9 0 -10.5 -1t-4.5 -9q-22 -41 -62 -116t-73 -136.5t-63 -116.5q-97 -180 -162 -305h-10h-27h-43zM360 760h181h90h6h4q2 3 4 8t4 8q108 196 213 393q4 8 12.5 24t12.5 24h-178h-93q-7 0 -10 -3q-4 -8 -8 -14q-36 -66 -211 -393q-9 -19 -27 -47z" />
<glyph unicode="$" horiz-adv-x="872" d="M-2 580q0 6 2 8q94 20 121 26l-23 -106q-15 -73 0 -125q26 -79 101 -111l24 -10l156 735q3 13 -19 31l-2 4q-2 2 -5 6t-5 6t-5 6.5t-5 6.5q-29 41 -33 47q-31 45 -57 98q-46 104 -37 197q0 1 6 43q2 7 5 22.5t5 22.5v4q22 95 98 174t175 111q1 0 3 1t3 1l41 10l35 162v4 h80v-6l-27 -125l-6 -29l8 -2h8q36 -6 43 -8q86 -26 133 -94q49 -71 43 -166q0 -9 -4 -29q-9 -46 -6 -61q5 -19 23 -33q1 0 2 -1t2 -1q0 -1 -1 -4t-1 -4l-123 -27l22 109q20 90 -21.5 156t-125.5 83l-19 4l-143 -672q-1 -5 0.5 -10t5 -11t4.5 -7l4 -2q6 -8 17.5 -24.5 t17.5 -24.5q34 -49 62 -97q48 -90 73 -174q21 -81 6 -147v-4q-18 -91 -47 -146q-51 -92 -135 -149q-49 -33 -88 -47q-22 -8 -49 -15q-7 0 -23 -4q-8 0 -12 -2h-4l-16 -2l-37 -178h-80q5 32 14 70l25 112q-3 2 -19 6h-4q-85 25 -133 101q-47 72 -41 170q4 16 6 26q8 38 4 58 q-3 23 -18 35q-1 0 -2 1t-2 1zM293 1417q-7 -37 2 -90q19 -82 84 -178l24 -37l127 598l-28 -10q-73 -26 -127.5 -87.5t-69.5 -133.5zM301 256l23 4q90 17 159 82.5t88 151.5q10 50 2 114q-18 136 -106 277l-25 39z" />
<glyph unicode="%" horiz-adv-x="892" d="M-113 -2q13 25 39 72.5t35 64.5q14 27 182 344q211 391 244 453q102 184 250 463q34 63 100.5 186t100.5 186q15 27 96 181q3 6 6 6h76q-24 -47 -74 -137q-56 -105 -186 -347q-160 -300 -242 -452q-47 -89 -135.5 -252.5t-114.5 -210.5q-33 -62 -99 -185.5t-99 -185.5 q-74 -137 -97 -182q-2 -4 -6 -4h-76zM182 1446q8 39 22.5 108.5t20.5 96.5q13 65 51 108q31 35 73 55.5t83 20.5q41 2 75.5 -17t51.5 -53q23 -51 8 -110q-7 -35 -21.5 -103.5t-21.5 -103.5q-14 -65 -49 -105q-66 -76 -153 -79h-7q-43 0 -76.5 19.5t-48.5 53.5q-21 44 -8 109 zM258 1382q18 -43 72 -43q38 0 69 25q37 28 52 92q7 34 21.5 101.5t21.5 101.5q8 41 -13 70.5t-61 29.5t-74 -28t-43 -68q-3 -21 -16 -78q-4 -20 -12.5 -59t-12.5 -58q-1 -3 -2 -8.5t-2 -7.5q-8 -50 0 -70zM326 299q7 34 21.5 102.5t21.5 102.5q13 65 53 110q32 33 75 52.5 t85 19.5q42 -2 75 -22.5t48 -55.5q19 -44 6 -106q-7 -34 -21.5 -102.5t-21.5 -102.5q-17 -65 -56 -107q-69 -75 -155 -75q-87 0 -127 75q-18 42 -4 109zM403 229q16 -39 68 -39q39 0 78 31q34 29 45 90q7 34 21.5 100.5t21.5 100.5q8 40 -13.5 69t-62.5 29q-40 0 -74.5 -29 t-42.5 -67q-3 -13 -8 -39.5t-8 -40.5q-4 -19 -12.5 -58t-12.5 -59q-15 -57 0 -88z" />
<glyph unicode="&#x26;" horiz-adv-x="831" d="M-53 340q11 49 40.5 188.5t45.5 214.5q14 68 40.5 192t35.5 167q1 5 3 14t3 14q5 28 8 35q0 9 20 19q30 25 33 28h6h15h73q-6 16 -59 158q-3 8 -8 21t-8.5 24t-6.5 21q-8 13 0 39q0 3 1 8t1 8q1 6 10.5 49t14.5 66q16 68 31 102q35 81 106 143.5t156 87.5q50 15 96 15 q126 0 199 -88q47 -53 57 -140q2 -34 -10 -108q-20 -87 -23 -105q-2 -7 -5 -20t-5 -20v-29q3 -14 14 -29q1 -1 3.5 -2.5l5 -3t2.5 -2.5q-2 -6 -4 -6q-22 -5 -33 -8q-8 -2 -37.5 -9t-46.5 -10q15 63 33 152q4 18 11 53t11 53q19 88 -14 150q-26 47 -72 71.5t-102 24.5 q-90 0 -166 -55q-94 -68 -121 -172q-1 -4 -3 -13.5t-3 -13.5q-2 -9 -6 -28.5t-6 -28.5q-3 -18 -10.5 -50.5t-10.5 -46.5q0 -2 1 -5t1 -5q4 -8 12 -28q54 -143 74 -193q2 -4 5 -14.5t5 -14.5q5 -5 5 -6q-1 -1 -3 -2.5t-4 -3.5q-5 -6 -18 -22.5t-21 -24.5q-6 -13 -10 -13 q-2 -1 -6 -1h-104h-4q-3 0 -5 -2q0 -9 -2 -13q-14 -64 -40 -191t-39 -190q-15 -67 -43.5 -199.5t-42.5 -199.5q-1 -6 -4 -15.5t-3 -11.5q-19 -98 31 -163q60 -76 158 -76q105 0 190 76q81 69 103 165q2 20 10 50q7 36 22.5 107.5t22.5 107.5q5 26 16.5 77t16.5 76q1 5 4 19 t4 22q8 36 6 53q-8 34 -37 43h-10h-25h-53q-6 0 -6 2q4 12 4 21q6 24 12 51q0 2 9 2h10h184h17q1 0 1 -2t-1 -4q-2 -9 -5.5 -27.5t-5.5 -27.5q-3 -13 -8.5 -36.5t-7.5 -33.5q-4 -20 -13.5 -64.5t-13.5 -68.5q-13 -62 -40 -185t-40 -184q-28 -129 -140 -222t-241 -93 q-85 0 -150 43t-91 117q-25 76 -2 180z" />
<glyph unicode="'" horiz-adv-x="335" d="M82 1556q7 61 20.5 183.5t20.5 183.5q0 19 2 29h172q-82 -246 -125 -367q0 -4 -3.5 -16.5t-6.5 -12.5h-80z" />
<glyph unicode="(" horiz-adv-x="557" d="M45 623q13 138 41 266q74 348 250 649q100 170 196 289q9 11 28.5 35t29.5 36q5 6 15.5 17.5t15.5 17.5q1 1 5.5 7t8.5 11t6 5h64q-177 -225 -285 -428q-109 -200 -180 -455q-29 -99 -41 -166q-85 -395 -39 -757q25 -199 86 -361h-66q-177 369 -135 834z" />
<glyph unicode=")" horiz-adv-x="557" d="M-147 -211q306 394 452 866q37 109 68 258q79 366 35 672q-23 167 -97 371h45h19q1 0 3 -3t4 -6.5t3 -4.5q1 -4 4.5 -13t5.5 -14q41 -93 72 -199q55 -201 55 -426q0 -206 -45 -405q-57 -266 -174 -516q-89 -190 -225 -379q-56 -79 -139 -176q-1 -1 -6 -8t-9.5 -12 t-7.5 -5h-22h-41z" />
<glyph unicode="*" horiz-adv-x="714" d="M57 1538q38 20 113 59t113 58q-29 20 -88 57t-89 57q7 11 25 33q3 4 9.5 11.5t9.5 11.5l8 10h2q4 0 12 -8q5 -3 15.5 -10.5t15.5 -10.5q78 -50 131 -86q6 30 19.5 93t19.5 94q1 5 4 18t4 21q2 6 6 6h8h56q6 0 7 -1t-1 -7q-37 -171 -47 -224q3 2 165 84q10 5 30 15.5 t30 15.5q22 -60 22 -66q-37 -20 -111.5 -57.5t-111.5 -56.5q29 -20 87 -59t87 -58q-2 -3 -11 -14.5t-15 -18.5q-6 -9 -17 -20q0 -4 -8 -12q-2 0 -12 10q-30 18 -33 20q-22 15 -65.5 43.5t-65.5 42.5q-6 -29 -17.5 -85.5t-17.5 -84.5q-5 -18 -14 -61h-76q8 39 24.5 115.5 t24.5 115.5q-28 -15 -83.5 -43.5t-82.5 -42.5q-9 -5 -59 -30q-21 59 -23 65z" />
<glyph unicode="+" horiz-adv-x="757" d="M76 821q0 4 2 6q2 22 10 56q2 6 6 6h6h37h207h4q2 0 2 4q4 22 8 31q4 19 11.5 56.5l11.5 57.5q4 16 11 49t11 50q0 5 3 8q0 4 2 4h51h10q12 0 12 -4q-1 -4 -6 -29q-4 -18 -12 -56t-12 -56q-4 -16 -11.5 -50t-11.5 -51l-2 -14h23h213h22q-6 -33 -8 -35l-8 -41h-19h-215 h-24v-2q-2 -4 -2 -10q-3 -14 -10.5 -46t-10.5 -50q-5 -23 -14.5 -66t-10.5 -49q-4 -22 -8 -33q0 -4 -4 -4q-2 0 -6 1t-6 1h-59q5 24 18 86t20 96q1 6 17 76h-12h-39h-203q-8 0 -4 8z" />
<glyph unicode="," horiz-adv-x="344" d="M88 0q12 50 21 96q2 9 6 28t6 28q0 12 2 18q0 6 2 6q2 2 8 2q3 0 10 -1l7 -1h55h94q4 0 4 -4q0 -1 -2 -4t-2 -4q-2 -9 -5 -26t-5 -25q-4 -18 -11.5 -53t-11.5 -52q-29 -132 -35 -166q-2 -7 -5 -21.5t-5 -21.5q0 -1 -1 -5.5t-1 -6.5l-2 -6h-2h-8h-27h-39q7 31 20.5 93 t20.5 93q1 5 3 15.5t3 15.5h-4h-18h-57h-13q-8 0 -8 2z" />
<glyph unicode="-" horiz-adv-x="585" d="M74 813l16 76h49h230h100h33h8h2v-4q-2 -2 -2 -8q-4 -22 -8 -31l-6 -33h-50h-372z" />
<glyph unicode="." horiz-adv-x="342" d="M63 4q6 30 18.5 88t18.5 88q0 2 6 2h9h49h106h4q5 0 5 -6q-2 -7 -5.5 -21.5t-5.5 -19.5q-3 -19 -11 -56.5t-11 -55.5l-4 -19h-33h-115h-31z" />
<glyph unicode="/" horiz-adv-x="878" d="M-127 0q2 5 76 137q36 68 103 193.5t81 152.5q15 29 244 453q104 196 250 463q33 62 99 185t99 185q29 54 97 183q3 6 8 6h76q-2 -5 -76 -137q-38 -73 -187 -346q-41 -76 -120.5 -226.5t-120.5 -226.5q-104 -196 -250 -463q-33 -61 -99.5 -185t-99.5 -186 q-13 -24 -96 -182q-3 -6 -8 -6h-76z" />
<glyph unicode="0" horiz-adv-x="792" d="M-55 332q21 92 63 297q14 66 49 229.5t54 251.5q15 69 44 207.5t44 206.5q3 14 10 48.5t10 53.5q22 106 96 189q62 69 147.5 105.5t168.5 29.5q82 -7 141 -56.5t78 -124.5q16 -67 -10 -186q-3 -14 -9.5 -41.5t-9.5 -42.5q-16 -72 -45.5 -214.5t-44.5 -213.5 q-14 -62 -100 -475q-10 -45 -30 -136t-30 -136q-22 -104 -94 -185q-57 -64 -134 -100.5t-155 -36.5q-83 0 -148 43.5t-91 116.5q-24 71 -4 170zM14 295q14 29 41 87t41 87q78 162 193 412q37 79 111.5 236.5t111.5 236.5q29 61 85.5 182.5t84.5 183.5q38 79 41 86q2 2 4 7 t2 6q1 1 -1.5 3.5t-5.5 5t-3 3.5q-13 10 -37 24q-41 21 -96 21q-97 0 -182 -71t-107 -169q-5 -27 -12 -65q-5 -26 -35.5 -167.5t-46.5 -217.5q-66 -304 -103 -481q-3 -14 -61 -287q-20 -102 -25 -123zM39 162q57 -73 139 -84q4 0 12.5 -1t12.5 -1q93 0 168 57 q100 70 127 197q10 48 30.5 144t30.5 144q33 160 103 480q76 363 88 418q3 15 10.5 51t11.5 55q1 4 2 10.5t2 9.5q6 30 2 107v6q-14 -27 -39.5 -83.5t-38.5 -84.5q-31 -66 -92 -200.5t-92 -200.5q-38 -80 -111.5 -238.5t-111.5 -238.5q-31 -65 -91 -197t-91 -197 q-52 -115 -72 -153z" />
<glyph unicode="1" horiz-adv-x="458" d="M-68 -2q1 7 4.5 21.5t4.5 21.5q1 4 3 12.5t3 12.5v6q2 2 8 2q49 0 78 32q3 6 4 7q2 12 7 35t7 36q12 60 38 179t38 178q17 81 52 243.5t52 243.5q33 161 91 428q5 24 18 86t20 96q-27 -28 -37.5 -38.5t-34 -30.5t-45 -29.5t-44.5 -13.5q2 7 5 21.5t5 21.5q0 1 2 10.5 t4 15.5v4q0 5 8 7q53 25 111 125q51 94 88 206q0 5 2 7q0 6 6 6q8 -2 25 -2q31 0 47 -2q-4 -16 -8 -39q-25 -107 -25 -117q-14 -64 -41.5 -194t-42.5 -195q-57 -278 -102 -488q-15 -68 -31.5 -144t-36.5 -168.5t-31 -143.5q-6 -30 -28 -132.5t-33 -158.5q-1 -4 -6 -29 q0 -2 -1 -7t-1 -7q0 -22 14 -33q8 -10 29 -14q6 -2 18 -2h10q-2 -2 -2 -4q0 -7 -2 -9l-6 -30l-2 -10q-2 -10 -2 -15l-2 -8h-238z" />
<glyph unicode="2" horiz-adv-x="792" d="M-123 -2q2 12 7 35.5t7 36.5q17 81 37 139q71 216 230 428q64 86 157 186q16 16 93 88q69 65 86 84q125 133 208 353q34 90 58 215q2 9 12 59q0 1 3 12t3 17q15 102 -51 168q-53 53 -139 53q-58 0 -114.5 -25.5t-100.5 -72.5q-61 -67 -76 -148q-19 -83 -23 -108 q-2 -7 -5 -21.5t-5 -21.5q-7 -32 4 -54q3 -9 13 -16q2 0 3.5 -1.5t0.5 -2.5v-8q-20 -4 -59.5 -12.5t-59.5 -12.5q19 85 33 158q4 14 14 63q23 113 63 170q51 77 130 127.5t163 59.5q12 2 35 2q75 0 135 -34.5t92 -96.5q35 -69 23 -156q0 -1 -6 -43q-2 -7 -5 -22t-5 -23 q-28 -135 -52 -201q-84 -247 -231 -411q-31 -35 -94 -93t-82 -77q-83 -86 -160 -185q-157 -211 -225 -426q0 -1 -5 -17t-11 -38t-9 -35v-16h41h393q37 0 56 73q2 6 5 20.5t5 20.5q0 4 2 13.5t2 13.5q2 2 2 10l2 4h2h10h31h33q-3 -13 -8 -38.5t-8 -38.5q-4 -20 -12.5 -59 t-12.5 -58q-4 -22 -8 -33q0 -4 -6 -4h-9h-131h-426h-55z" />
<glyph unicode="3" horiz-adv-x="792" d="M-66 240q0 37 15 106q18 -9 33 -18l12 -6t12 -5q1 -1 6 -3t6 -3q-2 -2 -2 -6q-1 -2 -1.5 -5.5t-1 -5.5t-1.5 -3v-25q0 -19 4 -47q8 -43 37 -80q55 -67 152 -67q111 0 198 84q75 68 93 155q0 14 6 29q6 34 35 166q17 78 49.5 234.5t48.5 234.5q5 23 15.5 70t15.5 71 q2 4 2 12q2 2 -2 2h-4h-105q-4 0 -6 2.5t-3.5 8t-2.5 8.5q-3 7 -8.5 22.5t-8.5 22.5v4q0 4 4 8q13 13 25 29q27 33 79.5 97.5t78.5 97.5q2 2 9 9.5t10.5 13.5t4.5 11q1 6 9.5 43.5t13.5 57.5q2 10 6 30.5t6 30.5q1 5 3 14.5t3 14.5q6 49 -9.5 93t-49.5 73q-52 49 -131 49 q-59 0 -118.5 -28t-104.5 -79q-54 -60 -70 -139q-19 -85 -23 -106q-9 -46 -14 -62v-2l2 -6v2q0 -14 4 -20q3 -13 13 -23q7 -7 6 -12v-2q-2 -2 -17 -2q-32 -8 -41 -11q-10 -2 -30.5 -6t-30.5 -6q5 24 16.5 75t16.5 75q2 10 6 31.5t6 31.5q27 117 68 178q52 77 130 127.5 t162 57.5q86 9 156 -27t104 -107q34 -67 25 -153q-1 -5 -3 -14.5t-3 -14.5q-10 -50 -12 -59q-4 -17 -11.5 -53t-11.5 -54q-3 -23 -20 -43q-30 -36 -87 -106.5t-87 -106.5h90q4 0 7.5 -4t7.5 -9.5t5 -6.5q3 -3 5.5 -6.5t5 -8t3.5 -6.5q6 -6 5 -8q-8 -45 -21 -98 q-16 -71 -45.5 -212t-44.5 -212q-12 -54 -34 -161.5t-34 -162.5q-28 -129 -141 -222t-242 -93q-71 0 -130 32t-91 87q-30 55 -33 125z" />
<glyph unicode="4" horiz-adv-x="704" d="M-8 551q17 37 48 111.5t34 80.5q30 73 90.5 218t91.5 217q13 31 86.5 202t110.5 262q18 41 58 138.5t62 148.5q2 3 4.5 9.5t4.5 9.5q0 2 26 2h33h98q4 0 4 -6q-2 -2 -2 -7q-11 -52 -31.5 -148.5t-27.5 -131.5q-50 -237 -102 -477q-14 -71 -43.5 -211.5t-44.5 -210.5 q-5 -22 -13.5 -61t-11.5 -52q-1 -3 -2 -9t-2 -9h80q4 0 4 -13q-1 -2 -3.5 -8t-2.5 -8q-1 -7 -11 -47h-84q-2 -15 -6 -33q-19 -94 -22 -102q-8 -39 -24.5 -116t-24.5 -116q-2 -9 -6.5 -27.5t-6.5 -27.5q-5 -28 17.5 -41.5t52.5 -13.5v-4v-7l-6 -24q-1 -5 -3 -14.5t-3 -14.5 q0 -1 -1 -4t-1 -4v-4h-4h-13h-45h-176q1 7 4 21.5t4 21.5q1 4 3 12.5t3 12.5v6q2 2 9 2q37 0 63 26q18 13 21 29l15 72t15 73q8 38 24.5 114t24.5 114q2 8 5.5 24.5t5.5 24.5h-39h-340zM100 627h176h97h10q4 0 4 4q11 52 32.5 147t29.5 133q42 208 102 484q13 60 38 180.5 t38 181.5q4 13 8 35q0 4 2 6q-35 4 -37 4q-3 0 -6 -6.5t-4 -7.5q-3 -10 -17 -43q-27 -63 -78.5 -187t-78.5 -186q-56 -135 -201 -471q-74 -180 -113 -270q-2 -2 -2 -4z" />
<glyph unicode="5" horiz-adv-x="792" d="M-57 313q12 62 18 95q2 7 5 21.5t5 21.5q0 6 9 6q4 0 8.5 -1t5.5 -1h51q4 0 0 -11q0 -2 -1 -6.5t-1 -5.5q-22 -101 -23 -108q-19 -83 9 -144q23 -50 70.5 -77t107.5 -27q80 0 153 47q96 65 127 166q2 6 13 49q2 7 5 23.5t5 23.5q23 115 57 268q17 78 50 233.5t49 233.5 q12 51 26 127q2 4 -2 4h-6h-66h-434h-41q-1 1 -0.5 6t1.5 12l1 7q7 30 20.5 93t20.5 93q74 347 82 383q1 13 11 56q8 31 10 47h2h6h149h435h34q1 0 -2 -17t-6.5 -36t-3.5 -21h-119h-417h-9q-8 0 -10 -4q-8 -35 -10 -53q-40 -185 -47 -222q-8 -36 -23.5 -107.5t-23.5 -107.5 q-1 -6 -5 -24l-6 -27q0 -2 9 -2h10h422h112q-3 -17 -10 -47.5t-10 -42.5q-46 -228 -96 -453q-25 -125 -66 -309q-4 -22 -16 -76.5t-17 -83.5q-17 -79 -68 -148.5t-124 -113.5q-96 -55 -191 -55q-83 0 -148 44t-91 116q-25 72 -6 155z" />
<glyph unicode="6" horiz-adv-x="792" d="M-57 315q15 72 18 88q26 128 51 238q17 80 51 239.5t50 239.5q13 55 36 166.5t35 167.5q4 18 11.5 53t11.5 52q15 76 18 88q22 86 84 157t147.5 109.5t168.5 32.5q81 -4 141 -52.5t82 -124.5q16 -71 2 -139q-2 -13 -23 -104q-3 -18 -6 -33q0 -2 -39 -2q-37 0 -37 2 q1 3 3.5 14.5t3.5 18.5q17 73 22 104q20 91 -20 154q-53 86 -166 86q-96 0 -178 -64q-91 -72 -113 -174q-3 -15 -9 -43t-9 -43q-5 -24 -15.5 -72.5t-15.5 -72.5q-29 -138 -35 -172q77 58 129 78q62 26 129 26q34 0 64 -6q77 -15 128 -71.5t62 -135.5q6 -49 -14 -151 q-7 -33 -21.5 -98.5t-21.5 -98.5q-16 -70 -45 -212.5t-45 -213.5q-1 -3 -3.5 -14.5t-3.5 -18.5q-20 -82 -69 -145q-54 -74 -136 -119.5t-165 -48.5h-11q-85 0 -149.5 43.5t-89.5 116.5q-25 75 -8 155zM18 319q-17 -82 16.5 -147t106.5 -88q24 -8 62 -8q85 0 163 52.5 t113 135.5q15 30 21 64q1 3 4.5 27t7.5 36q43 212 96 455q4 23 16 76.5t17 81.5q10 57 10 63q0 99 -76 156q-49 37 -116 37q-98 0 -184.5 -71.5t-106.5 -168.5q-19 -81 -23 -107q-17 -77 -49.5 -230t-48.5 -230q-5 -22 -14.5 -66.5t-14.5 -67.5z" />
<glyph unicode="7" horiz-adv-x="876" d="M-125 -2q13 24 37.5 71t36.5 70q32 59 95 177t95 176q75 140 248 458q33 62 244 453q31 57 91.5 172t90.5 172q45 77 68 127h-371h-86h-12q-19 0 -25 -6q-33 -18 -45 -82q-1 -4 -2 -11.5t-2 -11.5q-2 -8 -5 -23t-5 -22h-37h-39q1 4 3 11.5t3 11.5q2 15 23 110 q12 62 20 93q0 6 4 6q2 0 5.5 -1t4.5 -1h398h288q-12 -23 -36 -68t-37 -68q-30 -58 -92 -172.5t-93 -171.5q-106 -201 -243 -452q-41 -77 -123 -230.5t-123 -230.5q-141 -260 -201 -371q-5 -10 -41 -78t-57 -104q0 -4 -4 -4h-76z" />
<glyph unicode="8" horiz-adv-x="806" d="M-43 313q1 5 3 15.5t3 15.5q15 70 44 210.5t44 209.5q7 34 21.5 100.5t21.5 100.5q25 109 49 155q34 60 93 113q33 28 86 59q-67 52 -93 99q-36 71 -20 172q2 9 5 27.5t5 27.5q3 12 17 55q24 82 94 152q57 57 129 89t143 32q17 0 49 -4q79 -12 134 -65.5t69 -131.5 q8 -55 -4 -119q-3 -10 -8 -41q-12 -45 -19 -63q-32 -82 -92 -142q-34 -34 -106 -80q67 -49 90 -96q41 -77 22 -172q-1 -6 -3 -17.5t-3 -17.5q-13 -55 -16 -71q-49 -228 -99 -459q-10 -57 -28 -143q-28 -136 -137 -228q-113 -96 -246 -96q-85 0 -150 43.5t-90 116.5 q-26 75 -8 153zM33 319q-17 -82 17 -147t108 -88q24 -8 59 -8q85 0 163.5 52.5t113.5 135.5q14 27 20 64q2 10 6 31.5t6 31.5q28 136 97 455q4 21 15 75t17 83q11 42 11 63q0 99 -76 156q-49 37 -117 37q-98 0 -184.5 -71.5t-106.5 -168.5q-15 -64 -22 -107 q-16 -77 -49 -230t-50 -230q-5 -23 -14 -67t-14 -67zM283 1501q9 -97 94 -143q48 -23 94 -23q73 0 144 41.5t112 110.5q27 43 41 112q1 4 3 12.5t3 12.5q19 95 -20 160q-52 86 -166 86q-99 0 -184 -70.5t-107 -169.5q-1 -5 -3 -14t-3 -14q-12 -69 -8 -101z" />
<glyph unicode="9" horiz-adv-x="792" d="M-59 313q8 33 20 95q2 8 5 23t5 22q0 4 6 4q3 0 9 -1t8 -1h51q4 0 0 -11q0 -2 -1 -5.5t-1 -4.5q-21 -96 -23 -110q-19 -81 9 -142q23 -50 71 -78t107 -28q77 0 153 49q95 61 127 166q4 10 13 47q2 7 5 23.5t5 23.5q37 179 72 334q-4 -3 -20.5 -15l-22 -16t-20 -13.5 t-23 -14t-21 -11t-24.5 -10.5q-64 -27 -136 -27q-27 0 -57 6q-78 17 -129.5 73.5t-60.5 135.5q-6 53 16 152q5 26 41 197q16 75 46 217.5t44 208.5l6 30q20 83 70 148q54 74 136 120.5t165 47.5q85 3 151.5 -38.5t94.5 -113.5q30 -71 14 -160q-7 -34 -21 -90 q-6 -31 -23 -110.5t-26 -124.5q-50 -237 -102 -477q-28 -138 -72 -340q-3 -17 -10 -50t-10 -49q-3 -17 -10 -46.5t-9 -37.5q-18 -84 -80 -159q-59 -71 -139 -111.5t-162 -40.5q-83 0 -147.5 43.5t-89.5 116.5q-26 68 -10 153zM150 932q-18 -81 15 -147t105 -87 q38 -10 64 -10q82 0 159.5 53t114.5 136q15 35 21 69q8 40 12 58q56 259 96 454q6 26 17.5 80t17.5 80q8 40 8 61q0 105 -75 156q-49 37 -119 37q-97 0 -182 -71t-107 -169q-2 -14 -23 -104q-43 -214 -96 -461q-20 -90 -28 -135z" />
<glyph unicode=":" horiz-adv-x="342" d="M18 4q6 29 18.5 87.5t18.5 88.5q2 2 8 2h9h49h106h4q4 0 2 -6q-1 -5 -4 -19t-4 -22q-4 -18 -12 -56t-12 -56l-4 -19h-33h-115h-31zM106 422q22 94 39 176q0 2 7 2h8h49h106h4q5 0 3 -6q-3 -19 -9 -41q-8 -39 -24 -113l-4 -18h-33h-115h-31z" />
<glyph unicode=";" horiz-adv-x="344" d="M43 0q7 29 20 96q2 9 6.5 28t6.5 28q0 12 2 18q0 6 4 6q0 2 6 2q4 0 11 -1l7 -1h56h96v-4q0 -1 -1 -4t-1 -4q-2 -14 -10 -51q-4 -18 -11.5 -53t-11.5 -52q-6 -28 -18.5 -83.5t-18.5 -82.5q-2 -7 -5 -21.5t-5 -21.5q0 -8 -2 -12l-2 -6h-2h-8h-27h-37q7 31 20.5 93t20.5 93 q1 5 3 15.5t3 15.5h-6h-18h-58h-12q-8 0 -8 2zM131 422q6 29 18.5 87.5t18.5 88.5q2 2 8 2h8h49h107h4q4 0 2 -6q-4 -15 -8 -41q-5 -22 -13.5 -61t-11.5 -52l-4 -18h-33h-114h-31z" />
<glyph unicode="&#x3c;" horiz-adv-x="628" d="M82 881l500 411l41 -53l-435 -358l283 -359l-61 -49l-4 -4l-322 410z" />
<glyph unicode="=" horiz-adv-x="757" d="M29 600l16 74h37h199h358l-16 -74h-33h-197h-364zM119 1028l16 76h37h199h358l-16 -76h-33h-197h-364z" />
<glyph unicode="&#x3e;" horiz-adv-x="628" d="M6 522l434 359l-282 358l65 53l324 -411l-4 -2l-496 -410q-1 1 -1 2.5t-1 1.5z" />
<glyph unicode="?" d="M166 1372q5 25 16.5 75t16.5 75q2 10 6 31.5t6 31.5q28 121 68 180q52 76 130.5 126t163.5 59q86 8 156.5 -28t104.5 -105q35 -66 22 -156q0 -2 -12 -70q-8 -37 -23.5 -110.5t-23.5 -110.5q-4 -16 -4 -24q-1 -6 -9.5 -17.5t-9.5 -13.5q-3 -7 -10 -10l-27 -27 q-30 -28 -92 -87t-92 -87q-40 -36 -61 -57q-5 -3 -5 -9q0 -1 -1 -4.5t-1 -5.5q-6 -28 -18 -83t-18 -83q-42 -206 -93 -428q-1 -4 -3 -13t-3 -13h-74q12 57 36 167.5t36 167.5q43 204 47 226q3 11 8.5 33l8.5 34q3 19 12 35q7 11 35 39q58 54 84 80q162 151 168 156q0 1 3 4 t3 4q1 4 3 11t3 11q6 35 22 105q7 45 25 114q1 8 4.5 23.5t5.5 28.5t2 24q6 88 -50.5 146.5t-143.5 58.5q-27 0 -51 -6q-50 -11 -97.5 -40.5t-79.5 -70.5q-50 -59 -63 -135q-3 -10 -23 -100q-2 -8 -5 -23.5t-5 -23.5q0 -3 -1 -8t-1 -7v-6q0 -24 8 -37q2 -2 6.5 -6t6.5 -6 q4 -2 2 -8q0 -3 -13 -5.5t-18 -2.5q-69 -15 -88 -19zM190 -2q36 169 37 176q0 2 11 2h14h49q1 0 -2 -17t-6.5 -36t-3.5 -21q-4 -18 -11.5 -51.5t-11.5 -50.5q0 -4 -10 -4q-4 0 -11 1l-7 1h-48z" />
<glyph unicode="@" horiz-adv-x="1681" d="M82 449q-36 143 0 311q11 54 41 137q89 224 276 385q192 162 418 215q100 23 184 23q139 0 263 -50q189 -80 283.5 -261t62.5 -402q-15 -95 -65.5 -192t-125.5 -179q-35 -40 -78 -78q-39 -36 -86 -53q-35 -14 -77 -14q-67 0 -113 37q-32 28 -37 59q0 21 4 31q2 18 10 49 q0 5 5 20v7l2 4q-71 -56 -121 -82q-98 -51 -199 -45q-83 3 -148 45.5t-96 113.5q-31 73 -22 156q7 44 22 109q15 77 62 149t117 125q119 86 249 86q25 0 37 -2q87 -10 146 -57q9 -6 18 -15t15 -15.5t16 -18.5t14 -17q10 52 27 121q31 -7 84 -21q4 0 20 -4q1 -1 3 -1 q2 -1 1 -5q0 -3 -4 -6t-9.5 -6t-6.5 -4q-18 -16 -25 -39q-6 -9 -6 -21q-4 -12 -6 -20q-3 -15 -8 -42t-8 -42q-16 -69 -46 -209.5t-45 -210.5q-1 -6 -3 -16.5t-3 -16.5q-2 -7 -6 -21.5t-6 -21.5q-7 -37 6 -59q19 -31 70 -31q26 0 59 13q24 10 46.5 26t43.5 38.5t35 40 t33 44.5q85 118 129 279q-6 3 4 41q2 16 2 51q0 49 -6 96q-13 103 -53 176q-85 169 -262 240q-107 43 -232 43q-138 0 -278.5 -53.5t-259.5 -153.5q-113 -96 -188 -220.5t-103 -258.5q-31 -135 -4 -260q38 -188 185 -303.5t349 -116.5q186 -3 365 90q-2 -12 -7 -32t-6 -25 q-4 -20 -4 -27q-1 -2 -9 -5.5t-9 -4.5q-7 -3 -19.5 -8.5t-19.5 -8.5q-146 -55 -299 -55q-223 0 -387 123t-211 326zM547 731q-18 -87 12 -158q24 -60 79.5 -93.5t125.5 -33.5q55 0 119 25q99 40 166 137q31 45 36 76q4 21 9 33q2 16 9.5 44t8.5 34q11 64 4 104 q-11 80 -72 130t-147 50q-101 0 -194 -67.5t-128 -167.5q-12 -36 -18 -68q-2 -7 -5 -22.5t-5 -22.5z" />
<glyph unicode="A" horiz-adv-x="960" d="M-125 4q2 8 12 53q0 3 1 8.5t1 8.5q4 4 27 4q57 14 64 37q0 6 4 18q3 8 6 18t6.5 22.5t5.5 19.5q18 59 50.5 169l45.5 154q81 260 144 473q28 89 141 469q16 52 48 157t48 157q7 27 15 49q6 21 -8.5 35.5t-36.5 17.5q-10 2 -31 2q-2 0 -2 4t2 6q2 9 5 28t5 28q1 1 1.5 3 t1 3.5t1.5 1.5h23h32h82h162h53h25h10h2q2 0 2 -4q0 -2 -2 -4q0 -3 -1 -11t-1 -12q-1 -10 -4 -29.5t-4 -29.5l-6 -60q-25 -225 -29 -270q-30 -252 -51 -453q-8 -68 -26.5 -231t-28.5 -252q-6 -62 -41 -369q-1 -17 -11 -94v-18q-1 -4 1 -8t6.5 -9t5.5 -6q10 -10 33 -14h24 l-16 -76h-66h-174q1 7 4 21.5t4 21.5q1 4 3 12.5t3 12.5q2 8 11 8q37 0 63 26q19 19 21 27q1 11 3 33.5t3 34.5q7 64 22.5 191t22.5 190q7 65 25 228.5t28 252.5q5 50 16.5 151.5t16.5 151.5l4 14h-68h-135h-43q-14 -41 -36 -115.5t-31 -103.5q-137 -454 -140 -465 q-50 -159 -131 -432q-7 -21 -19.5 -62.5t-15.5 -52.5q-4 -12 -6 -16q-3 -17 11 -31q14 -22 55 -22q8 0 6 -6q-3 -15 -6 -27q-1 -5 -3 -14.5t-3 -14.5q0 -6 -2 -10v-4h-6h-15h-47h-119h-41h-6q-6 0 -6 4zM459 1452h231q21 204 41 356q-3 6 0 15q-1 25 -22 39t-50 14 q-67 0 -90 -51q-2 -7 -6 -21.5t-6 -21.5q-5 -15 -14.5 -45.5t-14.5 -46.5q-14 -46 -38 -130t-31 -108z" />
<glyph unicode="B" horiz-adv-x="882" d="M-115 0v4q0 1 1 4t1 4q1 5 3.5 15.5t3.5 15.5q1 4 3 12.5t3 12.5v6q2 2 8 2q48 0 78 33q4 4 8 22q2 8 3.5 20.5t2.5 14.5q10 48 30.5 144.5t30.5 144.5q16 77 49.5 231.5t49.5 231.5q18 80 51.5 239.5t50.5 239.5q70 328 74 346q2 13 7 37t7 37q6 20 -12 38 q-19 21 -64 21q7 37 9 39l6 35h43h71h179h86h41q39 0 59 -4q79 -12 130 -69.5t56 -139.5v-10q0 -22 -6 -62q-15 -72 -67 -139q-35 -46 -88 -84q-27 -19 -72 -39q67 -60 90 -111q24 -56 24 -119q0 -37 -8 -77q-4 -16 -11 -49t-11 -50q-56 -262 -96 -460q-29 -128 -35 -160 q-29 -137 -121 -234q-60 -63 -143 -102q-84 -41 -154 -41h-354h-13h-4zM57 76q30 0 88 -1t86 -1q94 0 172 41q100 53 154 149q28 46 43 123q1 5 3 14.5t3 14.5q16 73 47 220.5t47 221.5q9 45 41 191q14 69 14 117q0 29 -5 51q-10 44 -40 80.5t-71 56.5q-51 26 -121 26h-108 h-54h-16h-6v-4q-1 -2 -2 -6.5t-2 -5.5q-1 -6 -4 -21t-4 -24q-14 -61 -33 -156q-39 -173 -101 -467q-15 -71 -46 -216t-46 -216q-6 -34 -20 -97.5t-19 -90.5zM350 1460q0 -4 2 -4h29h100h137q87 0 161 62.5t93 150.5q4 22 4 42q0 58 -36 103q-48 60 -133 60h-160h-98 q-2 0 -4 1t-3 1q-4 0 -4 -4q-1 -4 -2 -11.5t-2 -11.5q-14 -64 -42 -194z" />
<glyph unicode="C" horiz-adv-x="829" d="M-55 330q10 49 31.5 148.5t31.5 148.5q14 66 49 229.5t54 251.5q67 322 88 414q3 18 10 51.5t10 50.5q22 109 96 188q63 71 148 108q71 31 142 31q13 0 26 -1q81 -6 140.5 -56.5t78.5 -126.5q8 -30 8 -65q0 -25 -4 -51q-1 -4 -2 -11.5t-2 -11.5q-5 -26 -4 -33 q2 -8 10 -24l4 -4q5 -4 8 -7q2 -2 2 -3l-2 -5q0 -2 -1.5 -3t-2.5 -1.5t-3.5 -1t-4.5 -0.5q-7 -1 -20.5 -4t-20.5 -4q-10 -2 -31.5 -7t-31.5 -7q2 10 7 33.5t7 37.5q12 54 12 95q0 34 -8 59q-18 59 -69 92t-117 33q-69 0 -129 -35q-63 -35 -104.5 -91.5t-53.5 -121.5 q-12 -46 -21 -96q-81 -377 -88 -408q-53 -258 -102 -481q-22 -110 -66 -307q0 -5 -4 -21q-5 -26 -5 -49q0 -58 28 -102q53 -86 168 -86q96 0 174 63q65 50 96 119q14 33 25 88q1 6 3 17.5t3 17.5q1 3 2 4.5t2.5 2t4.5 0.5t5 1q13 4 38 12t30 9q-2 -11 -9 -41t-10 -47 q-17 -81 -61 -142q-53 -77 -132 -125.5t-165 -54.5h-25q-83 0 -147 43t-92 117q-13 38 -13 85q0 39 9 85z" />
<glyph unicode="D" horiz-adv-x="888" d="M-115 0q9 37 9 41q1 4 3 12.5t3 12.5v6q2 4 8 4q45 0 72 30q12 14 20 46q0 2 1 7t1 7q35 171 64 295q17 78 49 232.5t49 232.5q18 80 51 239.5t51 239.5q37 182 72 340q2 13 7 36t7 36q1 6 -4 26q-12 28 -47 31h-14q-13 0 -13 2q2 12 2 14q4 18 13 54q0 6 2 6h16h62h28 h187h61q102 0 168 -39q79 -46 113 -133q21 -53 21 -111q0 -37 -9 -76q-38 -178 -47 -223q-79 -372 -100 -467q-13 -62 -43.5 -205.5t-47.5 -220.5q-5 -31 -22 -104q-22 -115 -96 -203q-60 -73 -148 -120.5t-172 -47.5h-362h-15zM59 84q-2 -3 -2 -5q0 -3 4 -3h99h51h27h13 q84 0 157 37q97 51 155 149q29 50 47 131q13 59 37.5 174t36.5 174q18 81 51.5 243t50.5 243q12 56 35.5 167.5t36.5 168.5q11 47 11 87q0 36 -9 68q-20 73 -82 114.5t-145 41.5h-191q-4 0 -4 -6q-5 -25 -6 -29q-10 -47 -30.5 -142.5t-30.5 -142.5q-17 -76 -49 -227 t-48 -227q-17 -81 -51.5 -244t-52.5 -244q-68 -323 -82 -387q-18 -89 -22 -112q-7 -17 -7 -29z" />
<glyph unicode="E" horiz-adv-x="882" d="M-113 0q1 7 4.5 21.5t4.5 21.5q1 4 3 12.5t3 12.5v6q2 2 8 2q42 0 72 33q12 12 12 22q11 48 14 59q11 55 34 163t34 163q21 95 100 473q8 37 100 471q9 43 32 149.5t36 162.5q2 18 10 49q3 23 -22 43q-17 10 -37 10q-21 0 -19 2q1 10 11 49v17q4 8 6 8h344h313h54h4v-2 q-4 -16 -4 -23q-3 -12 -8.5 -35.5t-8.5 -36.5q-4 -19 -11 -55t-11 -55q-2 -4 -2 -10q-4 -4 -9 -4h-53h-14v2q2 4 2 10q2 9 6 27.5t6 27.5q7 20 4 35q-6 30 -43 41q-24 4 -35 4q-7 0 -24.5 -1t-24.5 -1h-92h-162h-84q0 -4 -2 -8q-5 -28 -6 -29q-13 -65 -39.5 -192.5 t-40.5 -192.5q-1 -1 0.5 -1.5t6 -0.5h7.5h9h31h112h12q9 0 13 2q35 16 49 59q1 5 3 15.5t3 15.5q2 10 6 31t6 31q0 2 13 2h18h45q-8 -43 -8 -45q-8 -38 -24.5 -114t-24.5 -114q-3 -15 -9.5 -44.5t-9.5 -45.5q-1 -3 -2 -9t-2 -9h-6h-22h-48q7 33 9 37q1 4 2 11t2 11 q4 19 4 34q0 31 -17 46q-12 12 -41 12h-14h-110h-29l-2 -4q-5 -25 -6 -29q-13 -62 -37 -174.5t-33 -158.5q-21 -95 -59 -274.5t-45 -213.5q-15 -71 -42.5 -201.5t-37.5 -177.5q-10 -39 -15 -67h142h192h68q27 0 54.5 16.5t33.5 42.5q0 12 14 66l4 20h49l7 1q7 1 10 1 q8 0 8 -4q-6 -28 -18.5 -84.5t-18.5 -85.5q-2 -7 -5 -23.5t-5 -23.5q0 -2 -14 -2h-17h-74h-149h-363h-90z" />
<glyph unicode="F" horiz-adv-x="882" d="M-109 0q1 7 4.5 21.5t4.5 21.5q1 4 3 12.5t3 12.5v6q2 2 8 2q40 0 68 28q1 2 5.5 6.5t4.5 6.5q10 50 12 59q11 55 34.5 163.5t35.5 162.5q13 62 47.5 224t52.5 251q10 49 45.5 214.5t54.5 256.5q9 42 32 150.5t36 166.5q2 9 6 28t6 28q1 7 -10 30q-19 25 -63 25h-5 q-2 0 -2 4q1 5 3.5 14.5t3.5 14.5q1 4 3 13t3 13l2 15h4h6h25h57h49h203h305h53h17v-2q0 -1 -1 -4.5t-1 -4.5q-1 -7 -17 -73q-6 -37 -22 -111l-6 -26h-46h-16q-14 0 -14 2q2 8 6 24.5t6 24.5q1 5 2 13.5t2 12.5q1 2 2 6.5t2 6.5q0 30 -22 45q-17 12 -52 12q-8 0 -26.5 -1 t-26.5 -1h-76h-159h-99h-4q-2 0 -2 -4q-4 -16 -4 -23q-40 -179 -84 -391q0 -6 2 -6h37h117h33q9 0 22.5 14.5t20.5 26.5q10 17 18 59q2 18 10 49v5v2h21h51q2 0 2 -2v-7q-1 -5 -4 -15t-4 -15q-5 -27 -47 -226q-7 -37 -21 -94q0 -8 -4 -20q0 -4 -6 -4q-2 0 -6.5 1t-5.5 1h-54 h-2v2q1 4 3.5 12t3.5 12q4 16 4 27q5 24 5 43q0 24 -9 37q-12 16 -31 16q-4 0 -13 1t-14 1h-108l-8 1q-8 1 -13 1q-15 0 -18 -6q-1 -4 -6 -29q-31 -151 -72 -335q-50 -243 -102 -486q-13 -60 -39 -180.5t-39 -181.5q-1 -6 -3 -18.5t-3 -18.5q-2 -4 -2 -8v-2h8q4 0 4 -11 q17 -26 59 -26h4q4 0 2 -6q-4 -16 -4 -25q-7 -25 -10 -45h-16h-222z" />
<glyph unicode="G" horiz-adv-x="829" d="M-55 330q10 49 31.5 148.5t31.5 148.5q14 66 49 229.5t54 251.5q67 322 88 414q3 18 10 51.5t10 50.5q22 109 96 188q63 71 148 108q71 31 142 31q13 0 26 -1q81 -6 140.5 -56.5t78.5 -126.5q8 -30 8 -65q0 -24 -4 -51q-1 -4 -2 -11.5t-2 -11.5q-5 -26 -4 -33 q2 -8 10 -24l4 -4q5 -4 8 -7q2 -2 2 -3l-2 -5q0 -2 -1.5 -3t-2.5 -1.5t-3.5 -1t-4.5 -0.5q-7 -1 -20.5 -4t-20.5 -4q-10 -2 -31.5 -7t-31.5 -7q2 10 7 33.5t7 37.5q12 54 12 95q0 34 -8 59q-18 59 -69 92t-117 33q-69 0 -129 -35q-63 -35 -104.5 -91.5t-53.5 -121.5 q-12 -46 -21 -96q-9 -42 -40 -185.5t-48 -222.5q-53 -258 -102 -481q-22 -110 -66 -307q0 -5 -4 -21q-5 -26 -5 -49q0 -58 28 -102q53 -86 168 -86q96 0 174 63q91 69 113 174q2 7 5 21.5t5 21.5q2 12 35 162q3 15 88 422q5 25 6 29t3 11t3 11q0 4 1 12t1 11q-3 33 -33 43 q-14 6 -47 6h-55q-4 0 -4 2q1 4 3 12.5t3 12.5q2 7 5 23.5t5 23.5v2h187h34q6 0 6 -4q-2 -3 -2 -5q-4 -18 -11 -53.5t-11 -54.5q-12 -51 -33.5 -153.5t-32.5 -153.5q-13 -56 -35.5 -169t-35.5 -169q-10 -39 -11 -49q-2 -8 -6 -24.5t-6 -24.5q-28 -80 -84 -142 q-57 -64 -134 -100.5t-155 -36.5q-83 0 -147 43t-92 117q-13 38 -13 85q0 39 9 85z" />
<glyph unicode="H" horiz-adv-x="962" d="M-125 0q2 7 5 23.5t5 23.5q1 4 2 12t2 11q2 6 7 6h6q42 0 73 39q9 11 13 35q4 12 4 20q8 31 26 119q14 68 43 203t43 202l105 492q15 70 44 210t44 210q34 151 41 190q5 20 6 23q0 28 -22 43q-12 12 -37 12h-2h-7q-2 0 -2 4q2 9 5.5 26.5t5.5 26.5q0 1 1 4t1 4q4 11 6 11 h33h116h84q4 0 4 -6q-1 -2 -2.5 -5.5t-2.5 -6t-1 -3.5q-7 -29 -10 -51q-2 -4 -8 -4h-4q-24 0 -43 -8q-30 -17 -39 -43q-1 -3 -2 -8.5t-2 -8.5q-2 -12 -6 -32l-48 -222q-3 -14 -9 -44t-9 -44l-2 -6q0 -6 10 -6h410h57q3 0 8 10v17q42 192 47 221q3 15 9.5 43t9.5 43q1 3 2 8 t2 8q4 30 0 39q-14 33 -57 33q-2 1 -4 1t-2.5 1t0.5 4q1 4 3 12.5t3 12.5q1 9 4 24t4 21h18h209h6q6 0 6 -2q-7 -28 -10 -52q-4 -12 -4 -20q-2 -2 -18 -2q-48 -4 -68 -33q-10 -12 -14 -37q-2 -12 -6 -32q-19 -81 -23 -107q-13 -60 -41 -190t-43 -199q-13 -60 -48.5 -229.5 t-55.5 -260.5q-15 -72 -45.5 -216.5t-46.5 -217.5q-7 -36 -23 -108.5t-23 -108.5q-3 -14 3 -26q8 -26 45 -33h18h6q-4 -12 -4 -17q-2 -9 -6 -27.5t-6 -27.5q0 -4 -4 -4h-6h-101h-129q1 7 4 21.5t4 21.5q1 4 3.5 12.5t3.5 12.5v6q2 2 8 2q41 0 71 33q13 13 13 22q3 14 9 39 t9 39q37 178 84 395q13 63 47.5 227t52.5 254q10 47 31 141.5t31 141.5v6q2 2 0 2h-57h-228h-184q-1 0 -3 1t-3 1q-3 0 -6 -6q-6 -24 -7 -29q-12 -57 -35 -171t-36 -171q-88 -405 -105 -487q-12 -57 -36 -173t-37 -173q-1 -4 -2.5 -12.5t-2.5 -12.5q-7 -26 0 -41 q14 -26 58 -26h6q4 0 2 -2q0 -7 -4 -23q-2 -8 -5 -24.5t-5 -24.5q0 -2 -6 -2h-7h-211h-16z" />
<glyph unicode="I" horiz-adv-x="405" d="M-125 0q1 7 4 21.5t4 21.5q1 4 3 12.5t3 12.5q2 8 11 8q41 0 71 33q13 19 13 22q3 10 7 29.5t7 29.5q60 285 70 328q19 92 54.5 259.5t45.5 217.5q79 372 100 467q32 159 64 299q4 16 8 56q6 26 -14 43q-15 11 -33 14q-21 0 -19 2q2 14 11 51q0 1 1 5.5t1 6.5l4 11h201 h32q6 0 6 -6q-1 -1 -6 -11q-2 -16 -10 -53q-2 -6 -6 -6h-4q-22 0 -37 -6q-35 -14 -47 -43q-2 -3 -8 -29q0 -2 -1 -7t-1 -7q-3 -15 -10.5 -46.5t-10.5 -47.5q-13 -62 -40 -186t-40 -187q-45 -210 -102 -488q-6 -27 -94 -444q-9 -40 -27 -121t-27 -121q-6 -32 14.5 -48.5 t53.5 -16.5q4 0 2 -2v-6q-1 -4 -3 -13.5t-3 -13.5l-8 -41h-68h-172z" />
<glyph unicode="J" horiz-adv-x="911" d="M-41 393v6l16 4q12 2 103 23q-1 -6 -9 -36t-10 -46q-12 -46 -12 -83q0 -34 10 -60q18 -59 69.5 -92t117.5 -33q71 0 131 35q98 54 141 155q11 26 19 64q21 95 34 168q29 130 95 436q34 159 41 199q14 62 100 469q30 137 35 165q5 25 6 29q1 2 2 7t2 7v15q-3 31 -31 45 q-12 4 -35 4v4q0 6 2 8q2 9 5.5 28t5.5 28q2 2 2 6q0 2 6 2h39h192q0 -4 -2 -8q-4 -16 -4 -25q-1 -4 -3 -13.5t-3 -13.5q0 -1 -1 -5.5t-1 -6.5l-2 -4h-27q-29 -10 -37 -16q-24 -17 -30 -41q-2 -17 -17 -82q-47 -215 -90 -426q-15 -66 -43 -198.5t-43 -199.5q-6 -30 -47 -227 q-16 -72 -45.5 -209t-34.5 -162q-26 -128 -139 -220.5t-242 -92.5q-84 0 -147.5 43t-91.5 117q-14 41 -14 85q0 34 8 70q2 13 2 24q0 31 -15 46q-1 1 -3.5 2.5t-4 3t-0.5 2.5z" />
<glyph unicode="K" horiz-adv-x="958" d="M-125 0q8 37 8 41q1 4 3 12.5t3 12.5v6q2 4 9 4q44 0 71 30q13 15 21 46q0 2 1 7t1 7q10 50 31.5 149.5t31.5 149.5q62 295 101 467q86 412 100 475q12 55 35.5 164.5t34.5 165.5q2 10 6 29.5t6 29.5q4 12 2 16q6 25 -12 46q-9 8 -31 16l-23 2q1 10 11 49q0 8 2 14l4 11 h28h115h90q6 0 6 -4q0 -1 -2 -5t-2 -6q-2 -9 -6 -27.5t-6 -27.5q-2 -6 -8 -6q-25 0 -37 -6q-34 -10 -49 -41q-1 -4 -3 -12.5t-3 -12.5l-6 -24q-12 -60 -46 -213q-19 -90 -28 -142q260 205 311 246q91 71 158 125q33 23 35 43q5 9 0 16q-6 18 -29 21q4 4 4 14q2 9 6 28t6 28 q0 6 2 6h7h38h119h74q-6 -33 -6 -35q-1 -5 -3 -14.5t-3 -14.5q-2 -2 -2 -6q0 -6 -7 -6q-18 -3 -38.5 -13.5t-32.5 -19t-36.5 -28.5t-31.5 -25q-33 -26 -98 -78.5t-98 -77.5q-126 -98 -187 -147q-7 -5 -21.5 -16.5t-21.5 -16.5q-2 -2 -2 -4q0 -4 -2 -6q6 -45 15.5 -129 t13.5 -119q38 -400 43 -446q38 -339 47 -433q11 -128 20 -202q0 -15 19 -25q15 -12 37 -12h10q4 -1 4 -2q-2 -14 -10 -51q0 -1 -1 -6t-1 -7q-3 -10 -4 -10h-201h-37q1 7 4 21.5t4 21.5q1 4 3 12.5t3 12.5v6q2 2 9 2q43 0 65 22q14 14 14 23l3 2q-1 12 -4.5 33t-4.5 30 q-6 59 -17 178t-17 179q-8 72 -25 227.5t-25 237.5q-9 107 -34 338q-6 44 -7 47q-49 -42 -79 -64q-12 -12 -13 -18q-4 -18 -11 -53t-11 -52q-41 -188 -90 -428q-17 -77 -50 -230.5t-49 -230.5q-20 -98 -30 -145q-5 -15 -5 -18q-7 -29 -2 -45q11 -26 48 -33h16h6 q-4 -12 -4 -17q-2 -9 -6 -27.5t-6 -27.5q0 -4 -4 -4h-7h-208h-21z" />
<glyph unicode="L" horiz-adv-x="856" d="M-125 0q1 7 4 22.5t4 22.5q1 4 3 12.5t3 12.5q2 6 11 6q39 0 67 28q15 22 15 23q1 3 2 8t2 8q9 43 26.5 129t26.5 129q58 268 96 451q18 81 54 242.5t53 242.5l75 363q3 14 9.5 42.5t9.5 43.5q0 2 1 6.5t1 5.5q7 32 -2 45q-16 31 -55 31h-6t-2 1.5t1 4.5q1 6 4 15.5 t3 11.5q4 20 6 28q0 1 1 7.5t1 7.5h6h14h47h119h43q1 0 4 1t4 1q2 -2 2 -4l-12 -54q0 -6 -4 -18q0 -2 -20 -2q-42 -4 -64 -35q-7 -8 -16 -41q-1 -7 -4.5 -22.5t-4.5 -22.5q-11 -50 -32 -151.5t-33 -151.5q-17 -78 -49 -232.5t-49 -232.5q-17 -80 -51 -239.5t-52 -239.5 q-70 -328 -74 -346q-13 -61 -16 -84h340h31q37 0 61 12q36 21 39 43q2 6 5 20.5t5 20.5q1 9 4.5 25t4.5 22q2 2 16 2h18h27h10h4v-8q-6 -18 -6 -20q-8 -36 -22 -107t-15 -76q0 -6 -4 -10h-4h-10h-53h-64h-383h-96h-80z" />
<glyph unicode="M" horiz-adv-x="1542" d="M-111 2q2 8 5.5 24.5t5.5 24.5q4 16 4 23q2 2 10 2h8q41 7 64 35q6 6 6 8q4 12 4 20q4 18 11 51.5t11 51.5q10 47 37.5 177.5t42.5 201.5q17 82 52 244.5t53 244.5q15 74 47 222.5t47 221.5q9 42 26.5 126t26.5 126q1 2 2 7.5t2 7.5q3 18 -16 37q-17 13 -33 16 q-3 0 -10 1t-10 1h-9h-4q2 10 4 12q1 5 3.5 14.5t3.5 14.5q0 4 3.5 18.5t4.5 14.5h98h29h10h4q0 -3 1 -8.5t1 -8.5q3 -43 8 -69q0 -20 4 -52q5 -49 15.5 -148t15.5 -148q8 -87 26 -245.5t23 -201.5q23 -221 45 -457q6 -55 17.5 -164.5t17.5 -164.5q8 -55 10 -80 q54 101 82 157q33 64 99.5 191t99.5 190q45 89 128.5 250t113.5 219q27 52 102 197t117 223q102 195 121 232q7 14 22.5 43.5t22.5 44.5q0 2 18 2q11 0 31 -1l20 -1h58h16v-2q0 -2 -2 -4q-2 -22 -10 -56q-2 -2 -2 -10l-2 -2h-2h-9q-3 0 -10 -1t-10 -1q-22 -3 -45 -19 t-27 -36q-2 -10 -6 -31t-6 -31q-12 -55 -35.5 -164t-34.5 -163q-19 -90 -53.5 -254t-46.5 -222q-8 -37 -100 -471q-11 -52 -33.5 -157.5t-34.5 -157.5q-2 -8 -5 -25.5t-5 -25.5q-1 -5 5 -14t11 -13q13 -10 35 -14h10q4 -1 4 -2q-2 -9 -5 -27t-5 -27q0 -8 -2 -14q0 -6 -4 -6 h-238q1 7 4.5 21.5t4.5 21.5q1 4 3 12.5t3 12.5q1 6 2.5 7t7.5 1q44 0 68 24q7 7 10 13h2h4h2l2 2q7 40 14 67q14 62 39.5 186.5t38.5 186.5q18 81 53 243.5t52 243.5q14 63 40.5 186.5t39.5 186.5q9 45 47 223v4q-80 -158 -88 -172q-34 -67 -209 -405q-36 -72 -118 -229 t-124 -240q-30 -60 -92.5 -181t-93.5 -182q-39 -75 -45 -88q-7 -7 -7 -12q0 -27 18.5 -42t45.5 -15q5 0 5 -0.5t-1 -3.5v-4q-1 -4 -3 -13.5t-3 -13.5l-8 -41h-62h-211h-6q-2 0 -2 4q2 9 6 27.5t6 27.5q0 2 5 17h20q49 8 68 41q1 3 3 8t3 8q2 13 -2 41q-18 150 -33 303 q-6 68 -47 455q-7 73 -22.5 218t-22.5 218q-16 134 -27 250q0 2 -1 6t-1 6q-7 -35 -22.5 -104.5t-22.5 -104.5q-6 -27 -35 -165.5t-45 -211.5q-49 -227 -102 -487q-14 -63 -40.5 -187t-39.5 -186q-2 -12 -7 -35t-7 -34l-3 -2h7q3 0 4 -1t2 -3.5t2 -4.5q11 -28 57 -28h6 q4 0 2 -4q-4 -16 -4 -25q-7 -26 -11 -47h-179h-33q-27 0 -27 2z" />
<glyph unicode="N" horiz-adv-x="1003" d="M-109 0q1 7 4.5 21.5t4.5 21.5q1 4 3 12.5t3 12.5v6q2 2 8 2q40 0 68 28q1 1 5 6.5t5 8.5q2 9 12 59q59 273 70 324q16 79 49.5 237.5t50.5 237.5q16 79 50 235.5t50 235.5q9 42 32 150.5t36 166.5q2 9 6 28t6 28q1 7 -10 30q-19 25 -65 25h-5q-2 0 0 6q0 1 3 11t4 16 q1 4 3 13t3 13q0 1 1 8.5t1 8.5h10h25h57q5 0 14.5 -1t14.5 -1h22q2 -9 2 -11q2 -27 10 -90q4 -40 12.5 -119.5t12.5 -119.5q7 -71 22.5 -213.5t22.5 -214.5q31 -266 49 -463q17 -166 39 -352q4 -37 8 -103q16 81 45 207q10 47 37.5 177.5t42.5 201.5q53 246 105 489 q13 64 40 189.5t40 189.5q3 12 8 38t8 38q0 2 1 6.5t1 7.5q8 23 -2 37q-17 31 -57 31h-5q-2 0 0 6q0 1 3 11t4 16q1 4 3 13t3 13q0 9 2 11v4h6h12h109h100q2 0 5 1t5 1q2 -2 2 -4q-1 -6 -3.5 -17.5t-4.5 -20.5t-4 -16q0 -6 -4 -18q0 -2 -20 -2q-42 -4 -64 -35 q-8 -10 -12 -29q-1 -3 -2 -8t-2 -8l-7.5 -30t-7.5 -35q-12 -56 -35 -169t-36 -169q-14 -67 -48.5 -228.5t-52.5 -249.5q-13 -57 -100 -464q-39 -193 -63 -297q-1 -5 -3.5 -15.5t-3.5 -15.5q-2 -14 11 -27q16 -13 39 -16l24 -2q-2 -8 -6 -24.5t-6 -24.5q0 -9 -2 -15l-4 -12 h-25h-219h-31q-4 0 -4 4q2 4 2 10q2 9 6 28t6 28q2 6 9 6q12 0 32 4q43 13 58 53v4q-1 4 -2 11.5t-2 11.5q-2 18 -5.5 54t-5.5 54q-36 334 -41 385q-8 78 -25.5 233.5t-25.5 233.5q-7 64 -20.5 189.5t-20.5 189.5q-2 20 -5 60.5t-5 60.5q-44 -193 -47 -207 q-61 -293 -82 -385q-53 -260 -102 -487q-14 -60 -39.5 -182t-38.5 -183q-5 -24 -15 -63q-2 -9 29 -29q28 -8 43 -8h6q4 0 2 -4q-2 -8 -5 -27t-5 -27q-1 -1 -1 -5.5t-1 -6.5q0 -6 -4 -6h-236z" />
<glyph unicode="O" d="M-55 330q11 53 32.5 152.5t30.5 144.5q14 66 49 229.5t54 251.5q67 322 88 414q3 19 10 53.5t10 48.5q22 109 96 188q63 71 148 108q71 31 142 31q13 0 26 -1q81 -7 140.5 -57.5t78.5 -125.5q7 -27 7 -62q0 -49 -13 -114q-3 -16 -11.5 -47.5t-11.5 -46.5 q-16 -74 -46 -217.5t-44 -210.5q-18 -79 -51 -237.5t-51 -237.5q-9 -45 -29 -136t-29 -136q-22 -104 -94 -185q-57 -64 -134 -100.5t-155 -36.5q-83 0 -148 43.5t-91 116.5q-13 39 -13 86q0 39 9 84zM12 283q-1 -10 -1 -19q1 -76 51 -128q56 -60 145 -60q17 0 45 4 q88 17 156.5 83.5t85.5 151.5q12 52 16 74q21 92 82 385q52 243 102 486q56 260 74 339q1 6 3 17.5t3 17.5q1 5 3 16.5t3 16.5q1 10 1 20q1 76 -49 129q-56 60 -146 60q-96 0 -181.5 -71.5t-105.5 -168.5q-5 -18 -14 -61q-35 -159 -78 -371q-87 -405 -105 -487 q-6 -30 -32.5 -158t-42.5 -197q-4 -22 -9 -38q-1 -7 -3 -20.5t-3 -20.5z" />
<glyph unicode="P" horiz-adv-x="872" d="M-125 0q1 7 4 21.5t4 21.5q1 4 3 12.5t3 12.5q2 8 11 8q39 0 69 33q6 4 11 4l2 6q1 3 2 7.5t2 6.5q3 22 10 51q35 160 65 314q30 137 101 471q16 72 49.5 231t52.5 244q10 45 68 321q2 9 6 28t6 28q2 10 -10 28q-8 13 -27 21q-12 4 -22 4q-1 2 -4 2h-7q2 10 2 12 q1 5 7 29q0 4 3.5 18.5t4.5 14.5h327h95q82 0 143 -43q53 -39 74 -105q12 -39 12 -80q0 -30 -6 -61q-5 -29 -10 -41q-31 -83 -102.5 -147t-157.5 -84q-37 -9 -97 -9h-106h-111h-14q-14 0 -14 -2q-15 -69 -17 -80q-38 -169 -84 -395q-62 -285 -102 -481q-10 -47 -31 -142.5 t-31 -142.5q-6 -24 11 -41q15 -20 59 -20v-4v-6q-1 -4 -3 -13.5t-3 -13.5l-8 -39h-23h-108h-109zM340 1456h180h84q69 0 133 37q49 30 81.5 76t43.5 96q4 22 4 43q0 43 -18 80q-32 71 -117 84q-20 4 -57 4h-41h-172h-31q-1 -2 -2 -6t-2 -6q-3 -14 -8 -40.5t-8 -39.5 q-12 -55 -35.5 -164.5t-34.5 -163.5z" />
<glyph unicode="Q" horiz-adv-x="874" d="M-41 315q8 39 24.5 116t24.5 116q18 85 52.5 242t48.5 223q3 13 94 446q4 20 13.5 66t14.5 71q18 74 27 99q34 83 102.5 147t153.5 92q52 17 107 17q123 0 194 -80q39 -45 53 -108q7 -31 7 -63t-7 -65q-3 -14 -8 -40.5t-8 -39.5q-13 -60 -41 -190t-43 -199 q-16 -74 -49.5 -237t-52.5 -250q-13 -55 -36.5 -165.5t-35.5 -166.5q-3 -15 -6 -33q-15 -72 -66 -143q-30 -41 -94 -94q25 -32 75.5 -95.5t76.5 -95.5q-6 -6 -36 -30q-28 -23 -30 -23l-18 24q-14 16 -19 23q-19 25 -58.5 74.5t-58.5 73.5q0 2 -4 6q-84 -33 -149 -33 q-25 0 -37 2q-80 9 -139 61q-49 44 -68 111q-11 37 -11 77q0 31 7 64zM31 283q-1 -10 -1 -20q0 -76 50 -128q55 -59 143 -59q19 0 47 4q88 17 156.5 83.5t85.5 151.5q3 13 8 37.5t8 36.5q61 293 82 385q18 81 52 243l51 243q10 44 34.5 160t38.5 179q1 6 3.5 17.5t3.5 17.5 q1 5 3 16.5t3 16.5q1 10 1 19q0 77 -50 130q-56 60 -146 60q-96 0 -181.5 -71.5t-107.5 -168.5q-2 -10 -6 -30.5t-6 -30.5q-35 -159 -78 -371q-6 -25 -104 -487q-5 -23 -33 -154t-43 -201q-1 -6 -4 -19t-4 -19q-1 -7 -3 -20.5t-3 -20.5z" />
<glyph unicode="R" horiz-adv-x="956" d="M-125 0q2 7 5 22t5 23q0 9 4 25q2 6 5 6h6q50 0 77 35l7 14q0 3 1 7.5t1 6.5q1 4 3 13.5t3 13.5q16 78 24 115q13 61 41 193t43 202q18 82 53 245.5t52 245.5q18 82 50 234t42 198q6 33 22 106t23 112q6 25 -16 43q-10 10 -37 14q-1 1 -7 1q-8 1 -8 3q2 14 11 51q0 1 1 4 t1 4q4 13 6 13h29h110h150h106q69 0 115 -15q73 -26 111 -93q30 -52 30 -115q0 -18 -2 -37q-11 -85 -68.5 -161t-142.5 -116q-71 -33 -135 -33h-66q2 -34 6 -100t7 -100q19 -286 28 -443q2 -35 14 -193t17 -243q4 -47 8 -141q1 -5 1.5 -18.5t1.5 -24t5 -17.5q13 -24 60 -24 q6 0 4 -6q-1 -4 -3 -13.5t-3 -13.5q-1 -5 -3 -14.5t-3 -14.5q0 -6 -2 -10v-4h-6h-13h-209h-12q1 7 4 21.5t4 21.5q1 4 3 12.5t3 12.5q2 8 11 8q25 0 51 12.5t31 34.5v12q-5 62 -5 74q-4 65 -13 189.5t-13 183.5q-5 83 -15.5 239.5t-15.5 229.5q-8 99 -20 307q0 3 -1 10.5 t-1 11.5q0 2 -15 2q-10 0 -27 -1t-18 -1h-65q-1 -4 -2 -11t-2 -11q-11 -53 -34.5 -161t-35.5 -161q-46 -226 -102 -485q-40 -185 -78 -369q-1 -4 -5.5 -17.5t-5.5 -19.5q-3 -18 0 -30q5 -35 56 -39h14q-4 -16 -4 -21q-2 -9 -6 -26.5t-6 -26.5q0 -2 -4 -2h-9h-208h-19z M342 1456h180h82q69 0 133 37q49 31 82.5 77t44.5 97q4 23 4 44q0 43 -18 77q-37 72 -119 84q-20 4 -57 4h-41h-172h-29q-1 -2 -2 -6t-2 -6q-3 -14 -8 -40.5t-8 -39.5q-11 -55 -35 -164.5t-35 -163.5z" />
<glyph unicode="S" horiz-adv-x="868" d="M-39 408q0 2 2 2l117 24q-2 -8 -9.5 -36t-9.5 -44q-12 -58 -12 -97q0 -23 4 -40q17 -65 70 -103t123 -38q55 0 116 28q97 48 148 148q15 31 25 76q2 8 5 25.5t5 25.5q22 107 22 213q0 56 -6 113q-27 213 -141 382q-13 18 -38.5 51t-44.5 60.5t-34 54.5q-40 76 -55 156 q-8 52 -8 119q2 29 14 82q19 84 47 133q45 80 123 133q103 74 217 74q57 0 109 -21q72 -29 111 -95q35 -59 35 -132q0 -9 -1 -19q0 -6 -1 -14t-2.5 -18t-2.5 -15q-4 -12 -4 -18q0 -1 -1 -4t-1 -4h2v-8q0 -7 4 -15q4 -16 10 -20q1 -1 5.5 -7t4.5 -8q0 -4 -4 -4l-117 -24 q3 12 10.5 40t10.5 44q9 44 9 80q0 32 -7 57q-18 60 -69.5 94.5t-118.5 34.5q-68 0 -127 -33q-89 -48 -138 -139q-15 -34 -24 -72q0 -4 -4 -20q-4 -19 -6 -19q-5 -36 -5 -71q0 -126 64 -242q18 -31 58.5 -83.5t56.5 -76.5q54 -85 88 -178q59 -160 58 -336q0 -43 -3 -88 q-3 -60 -14 -110q-1 -4 -3 -12.5t-3 -12.5q-12 -54 -13 -59t-3 -15.5t-3 -15.5q-34 -121 -143.5 -206t-231.5 -85q-84 0 -149.5 43.5t-91.5 116.5q-14 41 -14 85q0 34 8 70q0 9 4 25v25q-3 16 -17 30q-6 6 -6 13z" />
<glyph unicode="T" horiz-adv-x="1042" d="M197 0q1 7 4 21.5t4 21.5q1 4 3 12.5t3 12.5v6q2 2 8 2q40 0 68 28q11 10 14 21q2 9 6 27.5t6 27.5q11 54 34 161.5t34 162.5q13 62 47.5 224t52.5 251q44 196 101 469q11 48 32 150.5t33 154.5q1 9 4 24t4 21q7 33 0 47q-17 31 -53 31h-74h-141q-18 -7 -30.5 -23.5 t-17 -30t-9.5 -36.5q0 -6 -2 -10q-9 -36 -11 -54l-4 -4h-24h-47q-1 1 -0.5 4t1.5 7.5t1 5.5q4 21 22 106q3 17 10.5 49t10.5 49q0 1 1 3.5t1 3.5q0 4 4 4h51h102h443h278q-9 -45 -41 -191q-5 -30 -6 -35q-2 -6 -8 -6h-8h-55q-7 0 -7 2q5 15 5 21q11 38 12 47q10 38 2 61 q-11 27 -23 27h-34h-117q-47 0 -72 -2q-44 0 -67 -33q-10 -12 -13 -29q0 -2 -4 -14q0 -8 -2 -12q-3 -15 -9 -43.5t-9 -42.5q-12 -60 -37.5 -180t-38.5 -181q-18 -81 -53 -242.5t-52 -242.5q-43 -212 -96 -455q-7 -32 -26 -123.5t-29 -142.5q-4 -12 -4 -18q-1 -3 1 -8t5 -7 q16 -24 59 -24h6q5 0 3 -4q-1 -4 -2.5 -12.5t-2.5 -12.5q-2 -7 -5 -23.5t-5 -23.5h-61h-176z" />
<glyph unicode="U" horiz-adv-x="956" d="M23 313q3 15 6 27q15 67 43.5 203.5t42.5 204.5q12 57 36 170.5t37 171.5q9 42 28 136t30 144q9 44 39 187.5t47 220.5q4 12 8 32q6 27 -12 45q-10 14 -29 17l-25 4q0 6 8 40t9 34h78h114h37h6q2 0 2 -6q-1 -6 -3.5 -17.5t-4.5 -20.5t-4 -16q-2 -6 -2 -14q-25 -2 -27 -2 q-40 -8 -59 -35q-7 -8 -16 -41v-8q-1 -3 -2.5 -8.5t-2.5 -9.5t-1 -5q-13 -65 -17 -81q-25 -110 -51 -238q-8 -41 -25.5 -123t-25.5 -123q-5 -23 -35.5 -163.5t-46.5 -215.5q-15 -72 -46 -218t-46 -218q-15 -70 -17 -88q-3 -19 -2 -36q0 -77 54 -131q56 -55 138 -56 q15 0 31 2q91 12 166 80t95 157q6 37 22 111q17 77 49.5 231.5t48.5 231.5q40 185 47 221q55 259 89 410q7 35 21.5 104.5t21.5 104.5q2 9 6 27.5t6 27.5q1 4 2 10.5t2 9.5q4 15 2 21q-7 34 -35 43q-12 4 -33 4q-1 0 -1 3t1 6.5t2 4.5q2 9 5.5 28t5.5 28q2 6 4 6h6h207h24 q-6 -33 -8 -35l-8 -41q-43 0 -70 -19q-22 -15 -30 -61q-1 -3 -6 -21.5t-7 -29.5q-17 -80 -48 -230t-44 -211q-8 -34 -21.5 -98.5t-19.5 -89.5q-50 -244 -96 -457q-11 -50 -35 -161.5t-37 -171.5q-22 -112 -102 -195q-59 -60 -132.5 -93.5t-146.5 -33.5q-84 0 -147.5 43 t-91.5 117q-14 42 -14 89q0 31 6 64z" />
<glyph unicode="V" horiz-adv-x="960" d="M123 0q2 12 7 36.5t7 37.5l4 2h6q20 0 35 6q10 2 35 14q1 1 10 9t11 8q2 59 10 163q3 59 7 125.5t9 147t8 125.5q5 94 16.5 268.5t14.5 216.5q14 202 27 432q8 156 14 236q2 2 2 6t-2 4q-1 17 -20 27t-39 10h-2h-7q-2 0 -2 4q1 4 2.5 11.5t2.5 11.5q2 8 5 24.5t5 24.5h4 h10h105h104h12h4q-2 -8 -5 -24.5t-5 -24.5q-1 -3 -2 -11t-2 -12l-4 -4q-2 0 -4 1t-4 1q-42 -3 -70 -31q-10 -13 -12 -22q-8 -154 -14 -238q-12 -225 -27 -442q-12 -237 -27 -477q-4 -58 -11 -171t-11 -171q0 -47 -4 -70q6 3 6 12q1 2 12 35q45 122 47 127q85 233 150 416 q30 81 89.5 242.5t88.5 242.5q23 63 69 190t68 191q21 56 39 100q0 5 4 17q1 3 -2.5 12t-3.5 10q-18 27 -57 27q-5 0 -5 4v4q1 5 3.5 14.5t3.5 14.5l8 37h72h118h41h4q4 0 4 -6l-12 -54q-2 -6 -2 -14l-29 -2q-15 -2 -36 -16q-3 -2 -13.5 -11.5t-13.5 -9.5v-2 q-16 -41 -23 -63q-28 -74 -118 -326q-17 -49 -170 -467q-115 -319 -168 -471q-19 -54 -59.5 -162.5t-59.5 -163.5q-4 -10 -13 -32t-12 -33v-4q-1 -3 1.5 -6t8.5 -8l5 -5q20 -13 43 -16l20 -2q-4 -16 -4 -21q-2 -9 -6 -26.5t-6 -26.5q0 -2 -2 -2h-6h-31h-103h-153z" />
<glyph unicode="W" horiz-adv-x="1550" d="M123 2q0 1 1 4t1 4q2 9 6 28t6 28v8l2 2q21 0 33 2q34 11 41 16q12 8 16 12l7 7q8 110 10 163q4 66 13 199t13 199q5 94 16.5 268.5t14.5 216.5q14 202 27 432q8 156 14 236q2 2 2 6t-2 4q-3 17 -22.5 27t-40.5 12h-7q-2 0 0 2q0 5 5 25q8 31 10 47h4h12h107h102h10h4 q-8 -36 -10 -52q-4 -12 -4 -20q-4 -4 -6 -4q-1 0 -4 1t-4 1q-45 -4 -70 -31q-8 -13 -10 -24q-2 -38 -7 -117.5t-7 -120.5q-4 -71 -13.5 -219t-13.5 -225q-5 -83 -14.5 -242.5t-14.5 -234.5q-12 -222 -20 -338q2 -17 -2 -50v-16q10 27 31.5 86.5t33.5 89.5q48 131 150 416 q29 81 87.5 242.5t88.5 242.5q23 63 70.5 191.5t70.5 191.5q2 7 15.5 44.5t19.5 56.5q4 6 8 18q3 11 -18 25q-18 12 -41 12l-21 2q3 7 11 41l8 35h71h203q6 0 6 -4q-4 -8 -4 -13q-2 -9 -6 -26.5t-6 -26.5q-2 -6 -4 -6h-4q-23 0 -47 -12q-20 -8 -35 -23q-4 -4 -4 -6 q0 -10 -2 -16q2 -17 -2 -50q-3 -52 -9.5 -157.5t-9.5 -157.5q-20 -320 -28 -473q-15 -225 -27 -453q-3 -43 -8 -129t-8 -129q-3 -6 -3 -12q15 35 39.5 100t28.5 76q25 70 75.5 209t76.5 209q20 55 56 152.5t65.5 178t54.5 152.5q23 64 69.5 191t69.5 190q22 62 37 96 q0 8 6 17q0 14 -12 26q-18 21 -62 21q2 8 4 18l13 56h73h119h39h6q1 0 1 -1.5t-1 -4.5q-2 -22 -10 -56l-4 -12h-2h-6q-28 -6 -29 -6q-14 -4 -31 -14.5t-22 -22.5q-3 -13 -13 -37t-12 -31q-55 -150 -119 -331q-28 -79 -84.5 -235.5t-85.5 -235.5q-29 -78 -85 -233.5 t-85 -233.5q-19 -53 -57.5 -160t-58.5 -160q-11 -27 -21 -61l-2 -2q0 -3 4 -7q21 -30 70 -30h6q4 0 2 -4q-4 -16 -4 -25q-7 -26 -10 -47h-297q1 7 4 21.5t4 21.5q1 4 3 12.5t3 12.5q1 6 2.5 7t7.5 1q49 0 82 33l6 6q0 9 5 67q2 66 10 185.5t10 158.5q5 80 14.5 239t14.5 239 q4 74 14 221.5t14 220.5q6 117 15 231l-2 6q-22 -58 -64 -176q-24 -70 -75 -208.5t-76 -208.5l-177 -486q-73 -207 -137 -379q-6 -16 -17.5 -48t-17.5 -48q-1 -2 -6 -16q0 -5 8 -13q14 -14 39 -20q16 -4 25 -4h8q-2 -2 -2 -4t-1 -6t-1 -5q-2 -9 -6 -27.5t-6 -27.5 q0 -6 -2 -6h-4h-86h-199z" />
<glyph unicode="X" horiz-adv-x="909" d="M-123 0l-1 2q0 2 1 5q1 7 2.5 15t1.5 9q2 7 5 22.5t5 22.5h3q5 0 16 1l10 1q25 8 37 18q11 8 18 27q29 58 88 171.5t87 170.5q31 60 105 206t116 226q40 78 49 94q0 9 -2 13q0 17 -4 49q-6 70 -17.5 208t-17.5 207q-5 61 -15 175.5t-14 166.5q-4 28 -16 43q-17 17 -31 19 q-12 4 -18 4h-6h-5q2 10 2 12q1 5 7 29q0 4 3.5 18.5t4.5 14.5h24h111h96q6 0 6 -2q0 -4 -2 -6q-2 -9 -5 -28t-5 -28l-2 -10q-15 0 -39 -4q-14 -4 -29 -14.5t-18 -24.5q0 -2 -1 -4.5t-1 -3.5q0 -4 1 -14t1 -15q6 -67 18.5 -200t18.5 -199q4 -44 11 -135t11 -138 q26 50 77 150.5t77 150.5q130 253 197 383q1 4 5 12.5t5 12.5q2 7 -4 20q-14 23 -62 23q0 4 2 10q6 27 7 29q0 7 4 27l2 8h22h111h96h6q2 0 2 -6q-2 -9 -6 -28t-6 -28q0 -1 -1 -4.5t-1 -5.5v-2h-2h-8q-9 0 -21 -4q-42 -9 -65 -47q-10 -13 -13 -23q-31 -61 -93.5 -182.5 t-92.5 -183.5q-34 -67 -102.5 -200.5t-102.5 -199.5q-18 -36 -20 -39v-4q0 -1 -1 -3t-1 -3q8 -74 12 -113q5 -63 17.5 -211.5t19.5 -228.5q16 -217 26 -319q0 -25 37 -37q17 -2 25 -2h2q-1 -3 -2 -8.5t-2 -8.5q-10 -45 -12 -53q0 -6 -5 -6h-6h-41h-118h-68q1 7 4 21.5 t4 21.5q1 4 3 12.5t3 12.5v6q2 2 9 2q47 0 73 33q9 9 13 24v14q-1 19 -4.5 56.5t-4.5 56.5q-6 73 -19.5 222.5t-19.5 222.5q-8 108 -14 155q-87 -175 -151 -297q-99 -197 -201 -393q-2 -4 -6 -12.5t-6 -12.5l-5 -10q-4 -19 5.5 -33.5t25.5 -21.5q12 -4 35 -4q4 0 1 -2v-6 q-2 -9 -5.5 -28t-5.5 -28q0 -2 -1 -4.5t-1 -3.5q0 -4 -6 -4h-95h-112h-25z" />
<glyph unicode="Y" horiz-adv-x="921" d="M137 0q1 7 4 21.5t4 21.5q1 4 3.5 12.5t3.5 12.5q2 8 10 8q37 0 65 28q15 15 17 21q2 13 7 37t7 37q15 68 43 199t41 192q19 86 52.5 247t49.5 234q8 38 29.5 136t32.5 151q3 12 -14 51q-12 31 -35 92.5t-35 91.5q-12 33 -35.5 98.5t-34.5 98.5q-4 9 -11 27.5t-11 27.5 q-9 31 -54 31q-1 0 0.5 11.5t4.5 25.5l8 37h73h119h39h6q2 0 2 -6q-2 -9 -6 -28t-6 -28q0 -1 -1 -4.5t-1 -5.5v-2q-4 -2 -31 -2q-24 -3 -43 -16q-8 -6 -16 -31q0 -7 8 -19q11 -29 53 -149q37 -102 78 -207q41 54 254 322q27 32 31 38q7 14 8 17q4 28 -18 39q-20 8 -35 8 q-1 0 -5 -1t-5 -1v4q8 35 10 53q1 2 2 6.5t2 6.5q0 6 4 6h86h115h30q4 0 4 -5q0 -3 -2 -8q0 -1 -1 -4t-1 -4q-7 -29 -10 -51q-2 -4 -12 -4h-8q-24 -4 -39 -16q-11 -9 -23 -29q-228 -286 -297 -373q-9 -12 -27.5 -34t-27.5 -33q0 -1 -7 -9t-7 -12q-10 -38 -15 -70 q-17 -74 -82 -385q-17 -81 -51.5 -241.5t-52.5 -241.5q-34 -170 -64 -303q0 -1 -1 -4t-1 -4v-10q13 -29 64 -33h8q4 0 2 -2q0 -9 -4 -21q-2 -8 -5 -25t-5 -26q0 -2 -6 -2h-9h-102h-123z" />
<glyph unicode="Z" horiz-adv-x="890" d="M-117 2q37 70 78 141q33 63 189 353q228 418 249 456q41 76 122 227.5t122 227.5q30 58 91.5 171.5t92.5 170.5q11 21 34.5 63t35.5 62h-367h-143q-16 0 -27 -16q-20 -20 -28 -60q-2 -9 -5 -26.5t-5 -26.5q-5 -15 -7 -23q0 -4 -4 -4h-53h-16q-2 0 -2 2t2 4q6 35 22 105 q2 10 6 31.5t6 31.5q4 18 13 54q0 4 4 4h360h359h4q-70 -131 -76 -142q-32 -60 -95 -177t-95 -177q-48 -86 -133 -244.5t-115 -212.5q-82 -152 -246 -452q-30 -58 -91.5 -172.5t-92.5 -171.5q-58 -103 -68 -125h369h88h14q15 0 21 4q33 16 45 76q1 4 2 10.5t2 9.5 q2 9 6 26.5t6 26.5q0 4 10 4q3 0 10 -1t9 -1h47q-4 -14 -4 -16q-4 -18 -11.5 -53.5t-11.5 -52.5q-3 -17 -10 -50t-10 -49q0 -1 -1 -3t-1 -3q0 -2 -2 -2h-11h-389h-299z" />
<glyph unicode="[" horiz-adv-x="458" d="M-147 -211q6 37 28 139q12 58 37 175.5t37 175.5q25 111 100 466q35 166 105 494q16 71 45 211.5t45 210.5q9 43 27.5 129t27.5 129q1 6 3 18.5t3 18.5h170h103h22v-6l-6 -23q-1 -9 -4 -24t-4 -21h-19h-110h-88q-2 0 -2 -2q-2 -2 -2 -6q-2 -12 -7.5 -35.5t-7.5 -34.5 q-12 -57 -34.5 -163t-32.5 -152q-46 -213 -96 -457q-42 -189 -107 -493q-15 -70 -44 -210.5t-44 -209.5q-22 -106 -51 -236q0 -2 -1 -7.5t-1 -8.5q-1 -1 2 -1.5t10 -0.5h16h185q0 -15 -13 -58l-2 -18h-67h-211h-12z" />
<glyph unicode="\" horiz-adv-x="878" d="M291 1958h76q2 0 2 -6q7 -54 20 -183q7 -62 21.5 -185.5t21.5 -184.5q25 -240 51 -463q13 -125 52 -453q6 -54 19 -169.5t19 -176.5q2 -22 7.5 -67.5t7.5 -69.5h-76q-1 0 -4 6q-3 28 -10.5 89t-10.5 93q-7 61 -20.5 185.5t-20.5 185.5q-9 86 -53 463q-21 201 -51 453 q-31 294 -37 346q-2 21 -7 66.5t-7 70.5z" />
<glyph unicode="]" horiz-adv-x="458" d="M-147 -211l14 76h80h114h15q10 0 12 2q2 7 37 176q13 64 40.5 193.5t41.5 193.5q56 259 102 485q18 79 51.5 238t51.5 238q13 59 38 178.5t37 179.5q14 60 21 100q1 4 3 13.5t3 13.5q0 2 2 4q0 2 -4 2h-199q-2 0 -5 -1t-5 -1q-2 2 -2 4q10 45 12 53v13q0 6 4 6h27h223h29 h10q0 -8 -2 -12q-17 -85 -45 -211q-43 -211 -84 -394q-46 -226 -102 -485q-18 -81 -52 -241.5t-51 -241.5q-71 -336 -82 -383q-9 -46 -41 -191v-6v-2h-71h-211h-12z" />
<glyph unicode="^" horiz-adv-x="946" d="M33 1495q138 138 276 279q128 127 152 153q25 25 26 25h45l8 1q8 1 13 1q6 0 6 -2q28 -48 82 -145.5t82 -145.5q15 -28 45.5 -83.5t46.5 -82.5h-94q-29 48 -166 293q-8 14 -24.5 44t-24.5 44q-192 -196 -291 -295q-55 -55 -82 -84q-4 -4 -12 -4q-5 0 -12 1t-9 1h-67z" />
<glyph unicode="_" horiz-adv-x="1280" d="M74 -225l16 75h21h129h456h420h88l2 -2q0 -1 -1 -3t-1 -3q-2 -9 -6 -27.5t-6 -27.5v-6q-2 -6 -12 -6h-314h-483h-301h-8z" />
<glyph unicode="`" horiz-adv-x="600" d="M90 2206q7 12 20.5 35t20.5 36q30 -12 145.5 -58.5t178.5 -70.5q15 -7 55 -20q1 -1 -8 -17t-19.5 -34.5t-11.5 -20.5q-218 86 -324 127q-7 3 -18.5 8t-21 8.5t-17.5 6.5z" />
<glyph unicode="a" horiz-adv-x="960" d="M-125 4q2 8 12 53q0 3 1 8.5t1 8.5q4 4 27 4q57 14 64 37q0 6 4 18q3 8 6 18t6.5 22.5t5.5 19.5q18 59 50.5 169l45.5 154q81 260 144 473q28 89 141 469q16 52 48 157t48 157q7 27 15 49q6 21 -8.5 35.5t-36.5 17.5q-10 2 -31 2q-2 0 -2 4t2 6q2 9 5 28t5 28q1 1 1.5 3 t1 3.5t1.5 1.5h23h32h82h162h53h25h10h2q2 0 2 -4q0 -2 -2 -4q0 -3 -1 -11t-1 -12q-1 -10 -4 -29.5t-4 -29.5l-6 -60q-25 -225 -29 -270q-30 -252 -51 -453q-8 -68 -26.5 -231t-28.5 -252q-6 -62 -41 -369q-1 -17 -11 -94v-18q-1 -4 1 -8t6.5 -9t5.5 -6q10 -10 33 -14h24 l-16 -76h-66h-174q1 7 4 21.5t4 21.5q1 4 3 12.5t3 12.5q2 8 11 8q37 0 63 26q19 19 21 27q1 11 3 33.5t3 34.5q7 64 22.5 191t22.5 190q7 65 25 228.5t28 252.5q5 50 16.5 151.5t16.5 151.5l4 14h-68h-135h-43q-14 -41 -36 -115.5t-31 -103.5q-137 -454 -140 -465 q-50 -159 -131 -432q-7 -21 -19.5 -62.5t-15.5 -52.5q-4 -12 -6 -16q-3 -17 11 -31q14 -22 55 -22q8 0 6 -6q-3 -15 -6 -27q-1 -5 -3 -14.5t-3 -14.5q0 -6 -2 -10v-4h-6h-15h-47h-119h-41h-6q-6 0 -6 4zM459 1452h231q21 204 41 356q-3 6 0 15q-1 25 -22 39t-50 14 q-67 0 -90 -51q-2 -7 -6 -21.5t-6 -21.5q-5 -15 -14.5 -45.5t-14.5 -46.5q-14 -46 -38 -130t-31 -108z" />
<glyph unicode="b" horiz-adv-x="882" d="M-115 0v4q0 1 1 4t1 4q1 5 3.5 15.5t3.5 15.5q1 4 3 12.5t3 12.5v6q2 2 8 2q48 0 78 33q4 4 8 22q2 8 3.5 20.5t2.5 14.5q10 48 30.5 144.5t30.5 144.5q16 77 49.5 231.5t49.5 231.5q18 80 51.5 239.5t50.5 239.5q70 328 74 346q2 13 7 37t7 37q6 20 -12 38 q-19 21 -64 21q7 37 9 39l6 35h43h71h179h86h41q39 0 59 -4q79 -12 130 -69.5t56 -139.5v-10q0 -22 -6 -62q-15 -72 -67 -139q-35 -46 -88 -84q-27 -19 -72 -39q67 -60 90 -111q24 -56 24 -119q0 -37 -8 -77q-4 -16 -11 -49t-11 -50q-56 -262 -96 -460q-29 -128 -35 -160 q-29 -137 -121 -234q-60 -63 -143 -102q-84 -41 -154 -41h-354h-13h-4zM57 76q30 0 88 -1t86 -1q94 0 172 41q100 53 154 149q28 46 43 123q1 5 3 14.5t3 14.5q16 73 47 220.5t47 221.5q9 45 41 191q14 69 14 117q0 29 -5 51q-10 44 -40 80.5t-71 56.5q-51 26 -121 26h-108 h-54h-16h-6v-4q-1 -2 -2 -6.5t-2 -5.5q-1 -6 -4 -21t-4 -24q-14 -61 -33 -156q-39 -173 -101 -467q-15 -71 -46 -216t-46 -216q-6 -34 -20 -97.5t-19 -90.5zM350 1460q0 -4 2 -4h29h100h137q87 0 161 62.5t93 150.5q4 22 4 42q0 58 -36 103q-48 60 -133 60h-160h-98 q-2 0 -4 1t-3 1q-4 0 -4 -4q-1 -4 -2 -11.5t-2 -11.5q-14 -64 -42 -194z" />
<glyph unicode="c" horiz-adv-x="829" d="M-55 330q10 49 31.5 148.5t31.5 148.5q14 66 49 229.5t54 251.5q67 322 88 414q3 18 10 51.5t10 50.5q22 109 96 188q63 71 148 108q71 31 142 31q13 0 26 -1q81 -6 140.5 -56.5t78.5 -126.5q8 -30 8 -65q0 -25 -4 -51q-1 -4 -2 -11.5t-2 -11.5q-5 -26 -4 -33 q2 -8 10 -24l4 -4q5 -4 8 -7q2 -2 2 -3l-2 -5q0 -2 -1.5 -3t-2.5 -1.5t-3.5 -1t-4.5 -0.5q-7 -1 -20.5 -4t-20.5 -4q-10 -2 -31.5 -7t-31.5 -7q2 10 7 33.5t7 37.5q12 54 12 95q0 34 -8 59q-18 59 -69 92t-117 33q-69 0 -129 -35q-63 -35 -104.5 -91.5t-53.5 -121.5 q-12 -46 -21 -96q-81 -377 -88 -408q-53 -258 -102 -481q-22 -110 -66 -307q0 -5 -4 -21q-5 -26 -5 -49q0 -58 28 -102q53 -86 168 -86q96 0 174 63q65 50 96 119q14 33 25 88q1 6 3 17.5t3 17.5q1 3 2 4.5t2.5 2t4.5 0.5t5 1q13 4 38 12t30 9q-2 -11 -9 -41t-10 -47 q-17 -81 -61 -142q-53 -77 -132 -125.5t-165 -54.5h-25q-83 0 -147 43t-92 117q-13 38 -13 85q0 39 9 85z" />
<glyph unicode="d" horiz-adv-x="888" d="M-115 0q9 37 9 41q1 4 3 12.5t3 12.5v6q2 4 8 4q45 0 72 30q12 14 20 46q0 2 1 7t1 7q35 171 64 295q17 78 49 232.5t49 232.5q18 80 51 239.5t51 239.5q37 182 72 340q2 13 7 36t7 36q1 6 -4 26q-12 28 -47 31h-14q-13 0 -13 2q2 12 2 14q4 18 13 54q0 6 2 6h16h62h28 h187h61q102 0 168 -39q79 -46 113 -133q21 -53 21 -111q0 -37 -9 -76q-38 -178 -47 -223q-79 -372 -100 -467q-13 -62 -43.5 -205.5t-47.5 -220.5q-5 -31 -22 -104q-22 -115 -96 -203q-60 -73 -148 -120.5t-172 -47.5h-362h-15zM59 84q-2 -3 -2 -5q0 -3 4 -3h99h51h27h13 q84 0 157 37q97 51 155 149q29 50 47 131q13 59 37.5 174t36.5 174q18 81 51.5 243t50.5 243q12 56 35.5 167.5t36.5 168.5q11 47 11 87q0 36 -9 68q-20 73 -82 114.5t-145 41.5h-191q-4 0 -4 -6q-5 -25 -6 -29q-10 -47 -30.5 -142.5t-30.5 -142.5q-17 -76 -49 -227 t-48 -227q-17 -81 -51.5 -244t-52.5 -244q-68 -323 -82 -387q-18 -89 -22 -112q-7 -17 -7 -29z" />
<glyph unicode="e" horiz-adv-x="882" d="M-113 0q1 7 4.5 21.5t4.5 21.5q1 4 3 12.5t3 12.5v6q2 2 8 2q42 0 72 33q12 12 12 22q11 48 14 59q11 55 34 163t34 163q21 95 100 473q8 37 100 471q9 43 32 149.5t36 162.5q2 18 10 49q3 23 -22 43q-17 10 -37 10q-21 0 -19 2q1 10 11 49v17q4 8 6 8h344h313h54h4v-2 q-4 -16 -4 -23q-3 -12 -8.5 -35.5t-8.5 -36.5q-4 -19 -11 -55t-11 -55q-2 -4 -2 -10q-4 -4 -9 -4h-53h-14v2q2 4 2 10q2 9 6 27.5t6 27.5q7 20 4 35q-6 30 -43 41q-24 4 -35 4q-7 0 -24.5 -1t-24.5 -1h-92h-162h-84q0 -4 -2 -8q-5 -28 -6 -29q-13 -65 -39.5 -192.5 t-40.5 -192.5q-1 -1 0.5 -1.5t6 -0.5h7.5h9h31h112h12q9 0 13 2q35 16 49 59q1 5 3 15.5t3 15.5q2 10 6 31t6 31q0 2 13 2h18h45q-8 -43 -8 -45q-8 -38 -24.5 -114t-24.5 -114q-3 -15 -9.5 -44.5t-9.5 -45.5q-1 -3 -2 -9t-2 -9h-6h-22h-48q7 33 9 37q1 4 2 11t2 11 q4 19 4 34q0 31 -17 46q-12 12 -41 12h-14h-110h-29l-2 -4q-5 -25 -6 -29q-13 -62 -37 -174.5t-33 -158.5q-21 -95 -59 -274.5t-45 -213.5q-15 -71 -42.5 -201.5t-37.5 -177.5q-10 -39 -15 -67h142h192h68q27 0 54.5 16.5t33.5 42.5q0 12 14 66l4 20h49l7 1q7 1 10 1 q8 0 8 -4q-6 -28 -18.5 -84.5t-18.5 -85.5q-2 -7 -5 -23.5t-5 -23.5q0 -2 -14 -2h-17h-74h-149h-363h-90z" />
<glyph unicode="f" horiz-adv-x="882" d="M-109 0q1 7 4.5 21.5t4.5 21.5q1 4 3 12.5t3 12.5v6q2 2 8 2q40 0 68 28q1 2 5.5 6.5t4.5 6.5q10 50 12 59q11 55 34.5 163.5t35.5 162.5q13 62 47.5 224t52.5 251q10 49 45.5 214.5t54.5 256.5q9 42 32 150.5t36 166.5q2 9 6 28t6 28q1 7 -10 30q-19 25 -63 25h-5 q-2 0 -2 4q1 5 3.5 14.5t3.5 14.5q1 4 3 13t3 13l2 15h4h6h25h57h49h203h305h53h17v-2q0 -1 -1 -4.5t-1 -4.5q-1 -7 -17 -73q-6 -37 -22 -111l-6 -26h-46h-16q-14 0 -14 2q2 8 6 24.5t6 24.5q1 5 2 13.5t2 12.5q1 2 2 6.5t2 6.5q0 30 -22 45q-17 12 -52 12q-8 0 -26.5 -1 t-26.5 -1h-76h-159h-99h-4q-2 0 -2 -4q-4 -16 -4 -23q-40 -179 -84 -391q0 -6 2 -6h37h117h33q9 0 22.5 14.5t20.5 26.5q10 17 18 59q2 18 10 49v5v2h21h51q2 0 2 -2v-7q-1 -5 -4 -15t-4 -15q-5 -27 -47 -226q-7 -37 -21 -94q0 -8 -4 -20q0 -4 -6 -4q-2 0 -6.5 1t-5.5 1h-54 h-2v2q1 4 3.5 12t3.5 12q4 16 4 27q5 24 5 43q0 24 -9 37q-12 16 -31 16q-4 0 -13 1t-14 1h-108l-8 1q-8 1 -13 1q-15 0 -18 -6q-1 -4 -6 -29q-31 -151 -72 -335q-50 -243 -102 -486q-13 -60 -39 -180.5t-39 -181.5q-1 -6 -3 -18.5t-3 -18.5q-2 -4 -2 -8v-2h8q4 0 4 -11 q17 -26 59 -26h4q4 0 2 -6q-4 -16 -4 -25q-7 -25 -10 -45h-16h-222z" />
<glyph unicode="g" horiz-adv-x="829" d="M-55 330q10 49 31.5 148.5t31.5 148.5q14 66 49 229.5t54 251.5q67 322 88 414q3 18 10 51.5t10 50.5q22 109 96 188q63 71 148 108q71 31 142 31q13 0 26 -1q81 -6 140.5 -56.5t78.5 -126.5q8 -30 8 -65q0 -24 -4 -51q-1 -4 -2 -11.5t-2 -11.5q-5 -26 -4 -33 q2 -8 10 -24l4 -4q5 -4 8 -7q2 -2 2 -3l-2 -5q0 -2 -1.5 -3t-2.5 -1.5t-3.5 -1t-4.5 -0.5q-7 -1 -20.5 -4t-20.5 -4q-10 -2 -31.5 -7t-31.5 -7q2 10 7 33.5t7 37.5q12 54 12 95q0 34 -8 59q-18 59 -69 92t-117 33q-69 0 -129 -35q-63 -35 -104.5 -91.5t-53.5 -121.5 q-12 -46 -21 -96q-9 -42 -40 -185.5t-48 -222.5q-53 -258 -102 -481q-22 -110 -66 -307q0 -5 -4 -21q-5 -26 -5 -49q0 -58 28 -102q53 -86 168 -86q96 0 174 63q91 69 113 174q2 7 5 21.5t5 21.5q2 12 35 162q3 15 88 422q5 25 6 29t3 11t3 11q0 4 1 12t1 11q-3 33 -33 43 q-14 6 -47 6h-55q-4 0 -4 2q1 4 3 12.5t3 12.5q2 7 5 23.5t5 23.5v2h187h34q6 0 6 -4q-2 -3 -2 -5q-4 -18 -11 -53.5t-11 -54.5q-12 -51 -33.5 -153.5t-32.5 -153.5q-13 -56 -35.5 -169t-35.5 -169q-10 -39 -11 -49q-2 -8 -6 -24.5t-6 -24.5q-28 -80 -84 -142 q-57 -64 -134 -100.5t-155 -36.5q-83 0 -147 43t-92 117q-13 38 -13 85q0 39 9 85z" />
<glyph unicode="h" horiz-adv-x="962" d="M-125 0q2 7 5 23.5t5 23.5q1 4 2 12t2 11q2 6 7 6h6q42 0 73 39q9 11 13 35q4 12 4 20q8 31 26 119q14 68 43 203t43 202l105 492q15 70 44 210t44 210q34 151 41 190q5 20 6 23q0 28 -22 43q-12 12 -37 12h-2h-7q-2 0 -2 4q2 9 5.5 26.5t5.5 26.5q0 1 1 4t1 4q4 11 6 11 h33h116h84q4 0 4 -6q-1 -2 -2.5 -5.5t-2.5 -6t-1 -3.5q-7 -29 -10 -51q-2 -4 -8 -4h-4q-24 0 -43 -8q-30 -17 -39 -43q-1 -3 -2 -8.5t-2 -8.5q-2 -12 -6 -32l-48 -222q-3 -14 -9 -44t-9 -44l-2 -6q0 -6 10 -6h410h57q3 0 8 10v17q42 192 47 221q3 15 9.5 43t9.5 43q1 3 2 8 t2 8q4 30 0 39q-14 33 -57 33q-2 1 -4 1t-2.5 1t0.5 4q1 4 3 12.5t3 12.5q1 9 4 24t4 21h18h209h6q6 0 6 -2q-7 -28 -10 -52q-4 -12 -4 -20q-2 -2 -18 -2q-48 -4 -68 -33q-10 -12 -14 -37q-2 -12 -6 -32q-19 -81 -23 -107q-13 -60 -41 -190t-43 -199q-13 -60 -48.5 -229.5 t-55.5 -260.5q-15 -72 -45.5 -216.5t-46.5 -217.5q-7 -36 -23 -108.5t-23 -108.5q-3 -14 3 -26q8 -26 45 -33h18h6q-4 -12 -4 -17q-2 -9 -6 -27.5t-6 -27.5q0 -4 -4 -4h-6h-101h-129q1 7 4 21.5t4 21.5q1 4 3.5 12.5t3.5 12.5v6q2 2 8 2q41 0 71 33q13 13 13 22q3 14 9 39 t9 39q37 178 84 395q13 63 47.5 227t52.5 254q10 47 31 141.5t31 141.5v6q2 2 0 2h-57h-228h-184q-1 0 -3 1t-3 1q-3 0 -6 -6q-6 -24 -7 -29q-12 -57 -35 -171t-36 -171q-88 -405 -105 -487q-12 -57 -36 -173t-37 -173q-1 -4 -2.5 -12.5t-2.5 -12.5q-7 -26 0 -41 q14 -26 58 -26h6q4 0 2 -2q0 -7 -4 -23q-2 -8 -5 -24.5t-5 -24.5q0 -2 -6 -2h-7h-211h-16z" />
<glyph unicode="i" horiz-adv-x="405" d="M-125 0q1 7 4 21.5t4 21.5q1 4 3 12.5t3 12.5q2 8 11 8q41 0 71 33q13 19 13 22q3 10 7 29.5t7 29.5q60 285 70 328q19 92 54.5 259.5t45.5 217.5q79 372 100 467q32 159 64 299q4 16 8 56q6 26 -14 43q-15 11 -33 14q-21 0 -19 2q2 14 11 51q0 1 1 5.5t1 6.5l4 11h201 h32q6 0 6 -6q-1 -1 -6 -11q-2 -16 -10 -53q-2 -6 -6 -6h-4q-22 0 -37 -6q-35 -14 -47 -43q-2 -3 -8 -29q0 -2 -1 -7t-1 -7q-3 -15 -10.5 -46.5t-10.5 -47.5q-13 -62 -40 -186t-40 -187q-45 -210 -102 -488q-6 -27 -94 -444q-9 -40 -27 -121t-27 -121q-6 -32 14.5 -48.5 t53.5 -16.5q4 0 2 -2v-6q-1 -4 -3 -13.5t-3 -13.5l-8 -41h-68h-172z" />
<glyph unicode="j" horiz-adv-x="911" d="M-41 393v6l16 4q12 2 103 23q-1 -6 -9 -36t-10 -46q-12 -46 -12 -83q0 -34 10 -60q18 -59 69.5 -92t117.5 -33q71 0 131 35q98 54 141 155q11 26 19 64q21 95 34 168q29 130 95 436q34 159 41 199q14 62 100 469q30 137 35 165q5 25 6 29q1 2 2 7t2 7v15q-3 31 -31 45 q-12 4 -35 4v4q0 6 2 8q2 9 5.5 28t5.5 28q2 2 2 6q0 2 6 2h39h192q0 -4 -2 -8q-4 -16 -4 -25q-1 -4 -3 -13.5t-3 -13.5q0 -1 -1 -5.5t-1 -6.5l-2 -4h-27q-29 -10 -37 -16q-24 -17 -30 -41q-2 -17 -17 -82q-47 -215 -90 -426q-15 -66 -43 -198.5t-43 -199.5q-6 -30 -47 -227 q-16 -72 -45.5 -209t-34.5 -162q-26 -128 -139 -220.5t-242 -92.5q-84 0 -147.5 43t-91.5 117q-14 41 -14 85q0 34 8 70q2 13 2 24q0 31 -15 46q-1 1 -3.5 2.5t-4 3t-0.5 2.5z" />
<glyph unicode="k" horiz-adv-x="958" d="M-125 0q8 37 8 41q1 4 3 12.5t3 12.5v6q2 4 9 4q44 0 71 30q13 15 21 46q0 2 1 7t1 7q10 50 31.5 149.5t31.5 149.5q62 295 101 467q86 412 100 475q12 55 35.5 164.5t34.5 165.5q2 10 6 29.5t6 29.5q4 12 2 16q6 25 -12 46q-9 8 -31 16l-23 2q1 10 11 49q0 8 2 14l4 11 h28h115h90q6 0 6 -4q0 -1 -2 -5t-2 -6q-2 -9 -6 -27.5t-6 -27.5q-2 -6 -8 -6q-25 0 -37 -6q-34 -10 -49 -41q-1 -4 -3 -12.5t-3 -12.5l-6 -24q-12 -60 -46 -213q-19 -90 -28 -142q260 205 311 246q91 71 158 125q33 23 35 43q5 9 0 16q-6 18 -29 21q4 4 4 14q2 9 6 28t6 28 q0 6 2 6h7h38h119h74q-6 -33 -6 -35q-1 -5 -3 -14.5t-3 -14.5q-2 -2 -2 -6q0 -6 -7 -6q-18 -3 -38.5 -13.5t-32.5 -19t-36.5 -28.5t-31.5 -25q-33 -26 -98 -78.5t-98 -77.5q-126 -98 -187 -147q-7 -5 -21.5 -16.5t-21.5 -16.5q-2 -2 -2 -4q0 -4 -2 -6q6 -45 15.5 -129 t13.5 -119q38 -400 43 -446q38 -339 47 -433q11 -128 20 -202q0 -15 19 -25q15 -12 37 -12h10q4 -1 4 -2q-2 -14 -10 -51q0 -1 -1 -6t-1 -7q-3 -10 -4 -10h-201h-37q1 7 4 21.5t4 21.5q1 4 3 12.5t3 12.5v6q2 2 9 2q43 0 65 22q14 14 14 23l3 2q-1 12 -4.5 33t-4.5 30 q-6 59 -17 178t-17 179q-8 72 -25 227.5t-25 237.5q-9 107 -34 338q-6 44 -7 47q-49 -42 -79 -64q-12 -12 -13 -18q-4 -18 -11 -53t-11 -52q-41 -188 -90 -428q-17 -77 -50 -230.5t-49 -230.5q-20 -98 -30 -145q-5 -15 -5 -18q-7 -29 -2 -45q11 -26 48 -33h16h6 q-4 -12 -4 -17q-2 -9 -6 -27.5t-6 -27.5q0 -4 -4 -4h-7h-208h-21z" />
<glyph unicode="l" horiz-adv-x="856" d="M-125 0q1 7 4 22.5t4 22.5q1 4 3 12.5t3 12.5q2 6 11 6q39 0 67 28q15 22 15 23q1 3 2 8t2 8q9 43 26.5 129t26.5 129q58 268 96 451q18 81 54 242.5t53 242.5l75 363q3 14 9.5 42.5t9.5 43.5q0 2 1 6.5t1 5.5q7 32 -2 45q-16 31 -55 31h-6t-2 1.5t1 4.5q1 6 4 15.5 t3 11.5q4 20 6 28q0 1 1 7.5t1 7.5h6h14h47h119h43q1 0 4 1t4 1q2 -2 2 -4l-12 -54q0 -6 -4 -18q0 -2 -20 -2q-42 -4 -64 -35q-7 -8 -16 -41q-1 -7 -4.5 -22.5t-4.5 -22.5q-11 -50 -32 -151.5t-33 -151.5q-17 -78 -49 -232.5t-49 -232.5q-17 -80 -51 -239.5t-52 -239.5 q-70 -328 -74 -346q-13 -61 -16 -84h340h31q37 0 61 12q36 21 39 43q2 6 5 20.5t5 20.5q1 9 4.5 25t4.5 22q2 2 16 2h18h27h10h4v-8q-6 -18 -6 -20q-8 -36 -22 -107t-15 -76q0 -6 -4 -10h-4h-10h-53h-64h-383h-96h-80z" />
<glyph unicode="m" horiz-adv-x="1542" d="M-111 2q2 8 5.5 24.5t5.5 24.5q4 16 4 23q2 2 10 2h8q41 7 64 35q6 6 6 8q4 12 4 20q4 18 11 51.5t11 51.5q10 47 37.5 177.5t42.5 201.5q17 82 52 244.5t53 244.5q15 74 47 222.5t47 221.5q9 42 26.5 126t26.5 126q1 2 2 7.5t2 7.5q3 18 -16 37q-17 13 -33 16 q-3 0 -10 1t-10 1h-9h-4q2 10 4 12q1 5 3.5 14.5t3.5 14.5q0 4 3.5 18.5t4.5 14.5h98h29h10h4q0 -3 1 -8.5t1 -8.5q3 -43 8 -69q0 -20 4 -52q5 -49 15.5 -148t15.5 -148q8 -87 26 -245.5t23 -201.5q23 -221 45 -457q6 -55 17.5 -164.5t17.5 -164.5q8 -55 10 -80 q54 101 82 157q33 64 99.5 191t99.5 190q45 89 128.5 250t113.5 219q27 52 102 197t117 223q102 195 121 232q7 14 22.5 43.5t22.5 44.5q0 2 18 2q11 0 31 -1l20 -1h58h16v-2q0 -2 -2 -4q-2 -22 -10 -56q-2 -2 -2 -10l-2 -2h-2h-9q-3 0 -10 -1t-10 -1q-22 -3 -45 -19 t-27 -36q-2 -10 -6 -31t-6 -31q-12 -55 -35.5 -164t-34.5 -163q-19 -90 -53.5 -254t-46.5 -222q-8 -37 -100 -471q-11 -52 -33.5 -157.5t-34.5 -157.5q-2 -8 -5 -25.5t-5 -25.5q-1 -5 5 -14t11 -13q13 -10 35 -14h10q4 -1 4 -2q-2 -9 -5 -27t-5 -27q0 -8 -2 -14q0 -6 -4 -6 h-238q1 7 4.5 21.5t4.5 21.5q1 4 3 12.5t3 12.5q1 6 2.5 7t7.5 1q44 0 68 24q7 7 10 13h2h4h2l2 2q7 40 14 67q14 62 39.5 186.5t38.5 186.5q18 81 53 243.5t52 243.5q14 63 40.5 186.5t39.5 186.5q9 45 47 223v4q-80 -158 -88 -172q-34 -67 -209 -405q-36 -72 -118 -229 t-124 -240q-30 -60 -92.5 -181t-93.5 -182q-39 -75 -45 -88q-7 -7 -7 -12q0 -27 18.5 -42t45.5 -15q5 0 5 -0.5t-1 -3.5v-4q-1 -4 -3 -13.5t-3 -13.5l-8 -41h-62h-211h-6q-2 0 -2 4q2 9 6 27.5t6 27.5q0 2 5 17h20q49 8 68 41q1 3 3 8t3 8q2 13 -2 41q-18 150 -33 303 q-6 68 -47 455q-7 73 -22.5 218t-22.5 218q-16 134 -27 250q0 2 -1 6t-1 6q-7 -35 -22.5 -104.5t-22.5 -104.5q-6 -27 -35 -165.5t-45 -211.5q-49 -227 -102 -487q-14 -63 -40.5 -187t-39.5 -186q-2 -12 -7 -35t-7 -34l-3 -2h7q3 0 4 -1t2 -3.5t2 -4.5q11 -28 57 -28h6 q4 0 2 -4q-4 -16 -4 -25q-7 -26 -11 -47h-179h-33q-27 0 -27 2z" />
<glyph unicode="n" horiz-adv-x="1003" d="M-109 0q1 7 4.5 21.5t4.5 21.5q1 4 3 12.5t3 12.5v6q2 2 8 2q40 0 68 28q1 1 5 6.5t5 8.5q2 9 12 59q59 273 70 324q16 79 49.5 237.5t50.5 237.5q16 79 50 235.5t50 235.5q9 42 32 150.5t36 166.5q2 9 6 28t6 28q1 7 -10 30q-19 25 -65 25h-5q-2 0 0 6q0 1 3 11t4 16 q1 4 3 13t3 13q0 1 1 8.5t1 8.5h10h25h57q5 0 14.5 -1t14.5 -1h22q2 -9 2 -11q2 -27 10 -90q4 -40 12.5 -119.5t12.5 -119.5q7 -71 22.5 -213.5t22.5 -214.5q31 -266 49 -463q17 -166 39 -352q4 -37 8 -103q16 81 45 207q10 47 37.5 177.5t42.5 201.5q53 246 105 489 q13 64 40 189.5t40 189.5q3 12 8 38t8 38q0 2 1 6.5t1 7.5q8 23 -2 37q-17 31 -57 31h-5q-2 0 0 6q0 1 3 11t4 16q1 4 3 13t3 13q0 9 2 11v4h6h12h109h100q2 0 5 1t5 1q2 -2 2 -4q-1 -6 -3.5 -17.5t-4.5 -20.5t-4 -16q0 -6 -4 -18q0 -2 -20 -2q-42 -4 -64 -35 q-8 -10 -12 -29q-1 -3 -2 -8t-2 -8l-7.5 -30t-7.5 -35q-12 -56 -35 -169t-36 -169q-14 -67 -48.5 -228.5t-52.5 -249.5q-13 -57 -100 -464q-39 -193 -63 -297q-1 -5 -3.5 -15.5t-3.5 -15.5q-2 -14 11 -27q16 -13 39 -16l24 -2q-2 -8 -6 -24.5t-6 -24.5q0 -9 -2 -15l-4 -12 h-25h-219h-31q-4 0 -4 4q2 4 2 10q2 9 6 28t6 28q2 6 9 6q12 0 32 4q43 13 58 53v4q-1 4 -2 11.5t-2 11.5q-2 18 -5.5 54t-5.5 54q-36 334 -41 385q-8 78 -25.5 233.5t-25.5 233.5q-7 64 -20.5 189.5t-20.5 189.5q-2 20 -5 60.5t-5 60.5q-44 -193 -47 -207 q-61 -293 -82 -385q-53 -260 -102 -487q-14 -60 -39.5 -182t-38.5 -183q-5 -24 -15 -63q-2 -9 29 -29q28 -8 43 -8h6q4 0 2 -4q-2 -8 -5 -27t-5 -27q-1 -1 -1 -5.5t-1 -6.5q0 -6 -4 -6h-236z" />
<glyph unicode="o" d="M-55 330q11 53 32.5 152.5t30.5 144.5q14 66 49 229.5t54 251.5q67 322 88 414q3 19 10 53.5t10 48.5q22 109 96 188q63 71 148 108q71 31 142 31q13 0 26 -1q81 -7 140.5 -57.5t78.5 -125.5q7 -27 7 -62q0 -49 -13 -114q-3 -16 -11.5 -47.5t-11.5 -46.5 q-16 -74 -46 -217.5t-44 -210.5q-18 -79 -51 -237.5t-51 -237.5q-9 -45 -29 -136t-29 -136q-22 -104 -94 -185q-57 -64 -134 -100.5t-155 -36.5q-83 0 -148 43.5t-91 116.5q-13 39 -13 86q0 39 9 84zM12 283q-1 -10 -1 -19q1 -76 51 -128q56 -60 145 -60q17 0 45 4 q88 17 156.5 83.5t85.5 151.5q12 52 16 74q21 92 82 385q52 243 102 486q56 260 74 339q1 6 3 17.5t3 17.5q1 5 3 16.5t3 16.5q1 10 1 20q1 76 -49 129q-56 60 -146 60q-96 0 -181.5 -71.5t-105.5 -168.5q-5 -18 -14 -61q-35 -159 -78 -371q-87 -405 -105 -487 q-6 -30 -32.5 -158t-42.5 -197q-4 -22 -9 -38q-1 -7 -3 -20.5t-3 -20.5z" />
<glyph unicode="p" horiz-adv-x="872" d="M-125 0q1 7 4 21.5t4 21.5q1 4 3 12.5t3 12.5q2 8 11 8q39 0 69 33q6 4 11 4l2 6q1 3 2 7.5t2 6.5q3 22 10 51q35 160 65 314q30 137 101 471q16 72 49.5 231t52.5 244q10 45 68 321q2 9 6 28t6 28q2 10 -10 28q-8 13 -27 21q-12 4 -22 4q-1 2 -4 2h-7q2 10 2 12 q1 5 7 29q0 4 3.5 18.5t4.5 14.5h327h95q82 0 143 -43q53 -38 74 -105q12 -38 12 -80q0 -30 -6 -61q-5 -29 -10 -41q-31 -83 -102.5 -147t-157.5 -84q-37 -9 -97 -9h-106h-111h-14q-14 0 -14 -2q-15 -69 -17 -80q-38 -169 -84 -395q-62 -285 -102 -481q-10 -47 -31 -142.5 t-31 -142.5q-6 -24 11 -41q15 -20 59 -20v-4v-6q-1 -4 -3 -13.5t-3 -13.5l-8 -39h-23h-108h-109zM340 1456h180h84q69 0 133 37q49 30 81.5 76t43.5 96q4 22 4 43q0 43 -18 80q-32 71 -117 84q-20 4 -57 4h-41h-172h-31q-1 -2 -2 -6t-2 -6q-3 -14 -8 -40.5t-8 -39.5 q-12 -55 -35.5 -164.5t-34.5 -163.5z" />
<glyph unicode="q" horiz-adv-x="874" d="M-41 315q8 39 24.5 116t24.5 116q18 85 52.5 242t48.5 223q3 13 94 446q4 20 13.5 66t14.5 71q18 74 27 99q34 83 102.5 147t153.5 92q52 17 107 17q123 0 194 -80q39 -45 53 -108q7 -31 7 -63t-7 -65q-3 -14 -8 -40.5t-8 -39.5q-13 -60 -41 -190t-43 -199 q-16 -74 -49.5 -237t-52.5 -250q-13 -55 -36.5 -165.5t-35.5 -166.5q-3 -15 -6 -33q-15 -72 -66 -143q-30 -41 -94 -94q25 -32 75.5 -95.5t76.5 -95.5q-6 -6 -36 -30q-28 -23 -30 -23l-18 24q-14 16 -19 23q-19 25 -58.5 74.5t-58.5 73.5q0 2 -4 6q-84 -33 -149 -33 q-25 0 -37 2q-80 9 -139 61q-49 44 -68 111q-11 37 -11 77q0 31 7 64zM31 283q-1 -10 -1 -20q0 -76 50 -128q55 -59 143 -59q19 0 47 4q88 17 156.5 83.5t85.5 151.5q3 13 8 37.5t8 36.5q61 293 82 385q18 81 52 243l51 243q10 44 34.5 160t38.5 179q1 6 3.5 17.5t3.5 17.5 q1 5 3 16.5t3 16.5q1 10 1 19q0 77 -50 130q-56 60 -146 60q-96 0 -181.5 -71.5t-107.5 -168.5q-2 -10 -6 -30.5t-6 -30.5q-35 -159 -78 -371q-6 -25 -104 -487q-5 -23 -33 -154t-43 -201q-1 -6 -4 -19t-4 -19q-1 -7 -3 -20.5t-3 -20.5z" />
<glyph unicode="r" horiz-adv-x="956" d="M-125 0q2 7 5 22t5 23q0 9 4 25q2 6 5 6h6q50 0 77 35l7 14q0 3 1 7.5t1 6.5q1 4 3 13.5t3 13.5q16 78 24 115q13 61 41 193t43 202q18 82 53 245.5t52 245.5q18 82 50 234t42 198q6 33 22 106t23 112q6 25 -16 43q-10 10 -37 14q-1 1 -7 1q-8 1 -8 3q2 14 11 51q0 1 1 4 t1 4q4 13 6 13h29h110h150h106q69 0 115 -15q73 -26 111 -93q30 -52 30 -115q0 -18 -2 -37q-11 -85 -68.5 -161t-142.5 -116q-71 -33 -135 -33h-66q2 -34 6 -100t7 -100q19 -286 28 -443q2 -35 14 -193t17 -243q4 -47 8 -141q1 -5 1.5 -18.5t1.5 -24t5 -17.5q13 -24 60 -24 q6 0 4 -6q-1 -4 -3 -13.5t-3 -13.5q-1 -5 -3 -14.5t-3 -14.5q0 -6 -2 -10v-4h-6h-13h-209h-12q1 7 4 21.5t4 21.5q1 4 3 12.5t3 12.5q2 8 11 8q25 0 51 12.5t31 34.5v12q-5 62 -5 74q-4 65 -13 189.5t-13 183.5q-5 83 -15.5 239.5t-15.5 229.5q-8 99 -20 307q0 3 -1 10.5 t-1 11.5q0 2 -15 2q-10 0 -27 -1t-18 -1h-65q-1 -4 -2 -11t-2 -11q-11 -53 -34.5 -161t-35.5 -161q-46 -226 -102 -485q-40 -185 -78 -369q-1 -4 -5.5 -17.5t-5.5 -19.5q-3 -18 0 -30q5 -35 56 -39h14q-4 -16 -4 -21q-2 -9 -6 -26.5t-6 -26.5q0 -2 -4 -2h-9h-208h-19z M342 1456h180h82q69 0 133 37q49 31 82.5 77t44.5 97q4 23 4 44q0 43 -18 77q-37 72 -119 84q-20 4 -57 4h-41h-172h-29q-1 -2 -2 -6t-2 -6q-3 -14 -8 -40.5t-8 -39.5q-11 -55 -35 -164.5t-35 -163.5z" />
<glyph unicode="s" horiz-adv-x="868" d="M-39 408q0 2 2 2l117 24q-2 -8 -9.5 -36t-9.5 -44q-12 -58 -12 -97q0 -23 4 -40q17 -65 70 -103t123 -38q55 0 116 28q97 48 148 148q15 31 25 76q2 8 5 25.5t5 25.5q22 107 22 213q0 56 -6 113q-27 213 -141 382q-13 18 -38.5 51t-44.5 60.5t-34 54.5q-40 76 -55 156 q-8 52 -8 119q2 29 14 82q19 84 47 133q45 80 123 133q103 74 217 74q57 0 109 -21q72 -29 111 -95q35 -59 35 -132q0 -9 -1 -19q0 -6 -1 -14t-2.5 -18t-2.5 -15q-4 -12 -4 -18q0 -1 -1 -4t-1 -4h2v-8q0 -7 4 -15q4 -16 10 -20q1 -1 5.5 -7t4.5 -8q0 -4 -4 -4l-117 -24 q3 12 10.5 40t10.5 44q9 44 9 80q0 32 -7 57q-18 60 -69.5 94.5t-118.5 34.5q-68 0 -127 -33q-89 -48 -138 -139q-15 -34 -24 -72q0 -4 -4 -20q-4 -19 -6 -19q-5 -36 -5 -71q0 -126 64 -242q18 -31 58.5 -83.5t56.5 -76.5q54 -85 88 -178q59 -160 58 -336q0 -43 -3 -88 q-3 -60 -14 -110q-1 -4 -3 -12.5t-3 -12.5q-12 -54 -13 -59t-3 -15.5t-3 -15.5q-34 -121 -143.5 -206t-231.5 -85q-84 0 -149.5 43.5t-91.5 116.5q-14 41 -14 85q0 34 8 70q0 9 4 25v25q-3 16 -17 30q-6 6 -6 13z" />
<glyph unicode="t" horiz-adv-x="1042" d="M197 0q1 7 4 21.5t4 21.5q1 4 3 12.5t3 12.5v6q2 2 8 2q40 0 68 28q11 10 14 21q2 9 6 27.5t6 27.5q11 54 34 161.5t34 162.5q13 62 47.5 224t52.5 251q44 196 101 469q11 48 32 150.5t33 154.5q1 9 4 24t4 21q7 33 0 47q-17 31 -53 31h-74h-141q-18 -7 -30.5 -23.5 t-17 -30t-9.5 -36.5q0 -6 -2 -10q-9 -36 -11 -54l-4 -4h-24h-47q-1 1 -0.5 4t1.5 7.5t1 5.5q4 21 22 106q3 17 10.5 49t10.5 49q0 1 1 3.5t1 3.5q0 4 4 4h51h102h443h278q-9 -45 -41 -191q-5 -30 -6 -35q-2 -6 -8 -6h-8h-55q-7 0 -7 2q5 15 5 21q11 38 12 47q10 38 2 61 q-11 27 -23 27h-34h-117q-47 0 -72 -2q-44 0 -67 -33q-10 -12 -13 -29q0 -2 -4 -14q0 -8 -2 -12q-3 -15 -9 -43.5t-9 -42.5q-12 -60 -37.5 -180t-38.5 -181q-18 -81 -53 -242.5t-52 -242.5q-43 -212 -96 -455q-7 -32 -26 -123.5t-29 -142.5q-4 -12 -4 -18q-1 -3 1 -8t5 -7 q16 -24 59 -24h6q5 0 3 -4q-1 -4 -2.5 -12.5t-2.5 -12.5q-2 -7 -5 -23.5t-5 -23.5h-61h-176z" />
<glyph unicode="u" horiz-adv-x="956" d="M23 313q3 15 6 27q15 67 43.5 203.5t42.5 204.5q12 57 36 170.5t37 171.5q9 42 28 136t30 144q9 44 39 187.5t47 220.5q4 12 8 32q6 27 -12 45q-10 14 -29 17l-25 4q0 6 8 40t9 34h78h114h37h6q2 0 2 -6q-1 -6 -3.5 -17.5t-4.5 -20.5t-4 -16q-2 -6 -2 -14q-25 -2 -27 -2 q-40 -8 -59 -35q-7 -8 -16 -41v-8q-1 -3 -2.5 -8.5t-2.5 -9.5t-1 -5q-13 -65 -17 -81q-25 -110 -51 -238q-8 -41 -25.5 -123t-25.5 -123q-5 -23 -35.5 -163.5t-46.5 -215.5q-15 -72 -46 -218t-46 -218q-15 -70 -17 -88q-3 -19 -2 -36q0 -77 54 -131q56 -55 138 -56 q15 0 31 2q91 12 166 80t95 157q6 37 22 111q17 77 49.5 231.5t48.5 231.5q40 185 47 221q55 259 89 410q7 35 21.5 104.5t21.5 104.5q2 9 6 27.5t6 27.5q1 4 2 10.5t2 9.5q4 15 2 21q-7 34 -35 43q-12 4 -33 4q-1 0 -1 3t1 6.5t2 4.5q2 9 5.5 28t5.5 28q2 6 4 6h6h207h24 q-6 -33 -8 -35l-8 -41q-43 0 -70 -19q-22 -15 -30 -61q-1 -3 -6 -21.5t-7 -29.5q-17 -80 -48 -230t-44 -211q-8 -34 -21.5 -98.5t-19.5 -89.5q-50 -244 -96 -457q-11 -50 -35 -161.5t-37 -171.5q-22 -112 -102 -195q-59 -60 -132.5 -93.5t-146.5 -33.5q-84 0 -147.5 43 t-91.5 117q-14 42 -14 89q0 31 6 64z" />
<glyph unicode="v" horiz-adv-x="960" d="M123 0q2 12 7 36.5t7 37.5l4 2h6q20 0 35 6q10 2 35 14q1 1 10 9t11 8q2 59 10 163q3 59 7 125.5t9 147t8 125.5q5 94 16.5 268.5t14.5 216.5q14 202 27 432q8 156 14 236q2 2 2 6t-2 4q-1 17 -20 27t-39 10h-2h-7q-2 0 -2 4q1 4 2.5 11.5t2.5 11.5q2 8 5 24.5t5 24.5h4 h10h105h104h12h4q-2 -8 -5 -24.5t-5 -24.5q-1 -3 -2 -11t-2 -12l-4 -4q-2 0 -4 1t-4 1q-42 -3 -70 -31q-10 -13 -12 -22q-8 -154 -14 -238q-12 -225 -27 -442q-12 -237 -27 -477q-4 -58 -11 -171t-11 -171q0 -47 -4 -70q6 3 6 12q1 2 12 35q45 122 47 127q85 233 150 416 q30 81 89.5 242.5t88.5 242.5q23 63 69 190t68 191q21 56 39 100q0 5 4 17q1 3 -2.5 12t-3.5 10q-18 27 -57 27q-5 0 -5 4v4q1 5 3.5 14.5t3.5 14.5l8 37h72h118h41h4q4 0 4 -6l-12 -54q-2 -6 -2 -14l-29 -2q-15 -2 -36 -16q-3 -2 -13.5 -11.5t-13.5 -9.5v-2 q-16 -41 -23 -63q-28 -74 -118 -326q-17 -49 -170 -467q-115 -319 -168 -471q-19 -54 -59.5 -162.5t-59.5 -163.5q-4 -10 -13 -32t-12 -33v-4q-1 -3 1.5 -6t8.5 -8l5 -5q20 -13 43 -16l20 -2q-4 -16 -4 -21q-2 -9 -6 -26.5t-6 -26.5q0 -2 -2 -2h-6h-31h-103h-153z" />
<glyph unicode="w" horiz-adv-x="1550" d="M123 2q0 1 1 4t1 4q2 9 6 28t6 28v8l2 2q21 0 33 2q34 11 41 16q12 8 16 12l7 7q8 110 10 163q4 66 13 199t13 199q5 94 16.5 268.5t14.5 216.5q14 202 27 432q8 156 14 236q2 2 2 6t-2 4q-3 17 -22.5 27t-40.5 12h-7q-2 0 0 2q0 5 5 25q8 31 10 47h4h12h107h102h10h4 q-8 -36 -10 -52q-4 -12 -4 -20q-4 -4 -6 -4q-1 0 -4 1t-4 1q-45 -4 -70 -31q-8 -13 -10 -24q-2 -38 -7 -117.5t-7 -120.5q-4 -71 -13.5 -219t-13.5 -225q-5 -83 -14.5 -242.5t-14.5 -234.5q-12 -222 -20 -338q2 -17 -2 -50v-16q10 27 31.5 86.5t33.5 89.5q48 131 150 416 q29 81 87.5 242.5t88.5 242.5q23 63 70.5 191.5t70.5 191.5q2 7 15.5 44.5t19.5 56.5q4 6 8 18q3 11 -18 25q-18 12 -41 12l-21 2q3 7 11 41l8 35h71h203q6 0 6 -4q-4 -8 -4 -13q-2 -9 -6 -26.5t-6 -26.5q-2 -6 -4 -6h-4q-23 0 -47 -12q-20 -8 -35 -23q-4 -4 -4 -6 q0 -10 -2 -16q2 -17 -2 -50q-3 -52 -9.5 -157.5t-9.5 -157.5q-20 -320 -28 -473q-15 -225 -27 -453q-3 -43 -8 -129t-8 -129q-3 -6 -3 -12q15 35 39.5 100t28.5 76q25 70 75.5 209t76.5 209q20 55 56 152.5t65.5 178t54.5 152.5q23 64 69.5 191t69.5 190q22 62 37 96 q0 8 6 17q0 14 -12 26q-18 21 -62 21q2 8 4 18l13 56h73h119h39h6q1 0 1 -1.5t-1 -4.5q-2 -22 -10 -56l-4 -12h-2h-6q-28 -6 -29 -6q-14 -4 -31 -14.5t-22 -22.5q-3 -13 -13 -37t-12 -31q-55 -150 -119 -331q-28 -79 -84.5 -235.5t-85.5 -235.5q-29 -78 -85 -233.5 t-85 -233.5q-19 -53 -57.5 -160t-58.5 -160q-11 -27 -21 -61l-2 -2q0 -3 4 -7q21 -30 70 -30h6q4 0 2 -4q-4 -16 -4 -25q-7 -26 -10 -47h-297q1 7 4 21.5t4 21.5q1 4 3 12.5t3 12.5q1 6 2.5 7t7.5 1q49 0 82 33l6 6q0 9 5 67q2 66 10 185.5t10 158.5q5 80 14.5 239t14.5 239 q4 74 14 221.5t14 220.5q6 117 15 231l-2 6q-22 -58 -64 -176q-24 -70 -75 -208.5t-76 -208.5l-177 -486q-73 -207 -137 -379q-6 -16 -17.5 -48t-17.5 -48q-1 -2 -6 -16q0 -5 8 -13q14 -14 39 -20q16 -4 25 -4h8q-2 -2 -2 -4t-1 -6t-1 -5q-2 -9 -6 -27.5t-6 -27.5 q0 -6 -2 -6h-4h-86h-199z" />
<glyph unicode="x" horiz-adv-x="909" d="M-123 0l-1 2q0 2 1 5q1 7 2.5 15t1.5 9q2 7 5 22.5t5 22.5h3q5 0 16 1l10 1q25 8 37 18q11 8 18 27q29 58 88 171.5t87 170.5q31 60 105 206t116 226q40 78 49 94q0 9 -2 13q0 17 -4 49q-6 70 -17.5 208t-17.5 207q-5 61 -15 175.5t-14 166.5q-4 28 -16 43q-17 17 -31 19 q-12 4 -18 4h-6h-5q2 10 2 12q1 5 7 29q0 4 3.5 18.5t4.5 14.5h24h111h96q6 0 6 -2q0 -4 -2 -6q-2 -9 -5 -28t-5 -28l-2 -10q-15 0 -39 -4q-14 -4 -29 -14.5t-18 -24.5q0 -2 -1 -4.5t-1 -3.5q0 -4 1 -14t1 -15q6 -67 18.5 -200t18.5 -199q4 -44 11 -135t11 -138 q26 50 77 150.5t77 150.5q130 253 197 383q1 4 5 12.5t5 12.5q2 7 -4 20q-14 23 -62 23q0 4 2 10q6 27 7 29q0 7 4 27l2 8h22h111h96h6q2 0 2 -6q-2 -9 -6 -28t-6 -28q0 -1 -1 -4.5t-1 -5.5v-2h-2h-8q-9 0 -21 -4q-42 -9 -65 -47q-10 -13 -13 -23q-31 -61 -93.5 -182.5 t-92.5 -183.5q-34 -67 -102.5 -200.5t-102.5 -199.5q-18 -36 -20 -39v-4q0 -1 -1 -3t-1 -3q8 -74 12 -113q5 -63 17.5 -211.5t19.5 -228.5q16 -217 26 -319q0 -25 37 -37q17 -2 25 -2h2q-1 -3 -2 -8.5t-2 -8.5q-10 -45 -12 -53q0 -6 -5 -6h-6h-41h-118h-68q1 7 4 21.5 t4 21.5q1 4 3 12.5t3 12.5v6q2 2 9 2q47 0 73 33q9 9 13 24v14q-1 19 -4.5 56.5t-4.5 56.5q-6 73 -19.5 222.5t-19.5 222.5q-8 108 -14 155q-87 -175 -151 -297q-99 -197 -201 -393q-2 -4 -6 -12.5t-6 -12.5l-5 -10q-4 -19 5.5 -33.5t25.5 -21.5q12 -4 35 -4q4 0 1 -2v-6 q-2 -9 -5.5 -28t-5.5 -28q0 -2 -1 -4.5t-1 -3.5q0 -4 -6 -4h-95h-112h-25z" />
<glyph unicode="y" horiz-adv-x="921" d="M137 0q1 7 4 21.5t4 21.5q1 4 3.5 12.5t3.5 12.5q2 8 10 8q37 0 65 28q15 15 17 21q2 13 7 37t7 37q15 68 43 199t41 192q19 86 52.5 247t49.5 234q8 38 29.5 136t32.5 151q3 12 -14 51q-12 31 -35 92.5t-35 91.5q-12 33 -35.5 98.5t-34.5 98.5q-4 9 -11 27.5t-11 27.5 q-9 31 -54 31q-1 0 0.5 11.5t4.5 25.5l8 37h73h119h39h6q2 0 2 -6q-2 -9 -6 -28t-6 -28q0 -1 -1 -4.5t-1 -5.5v-2q-4 -2 -31 -2q-24 -3 -43 -16q-8 -6 -16 -31q0 -7 8 -19q11 -29 53 -149q37 -102 78 -207q41 54 254 322q27 32 31 38q7 14 8 17q4 28 -18 39q-20 8 -35 8 q-1 0 -5 -1t-5 -1v4q8 35 10 53q1 2 2 6.5t2 6.5q0 6 4 6h86h115h30q4 0 4 -5q0 -3 -2 -8q0 -1 -1 -4t-1 -4q-7 -29 -10 -51q-2 -4 -12 -4h-8q-24 -4 -39 -16q-11 -9 -23 -29q-228 -286 -297 -373q-9 -12 -27.5 -34t-27.5 -33q0 -1 -7 -9t-7 -12q-10 -38 -15 -70 q-17 -74 -82 -385q-17 -81 -51.5 -241.5t-52.5 -241.5q-34 -170 -64 -303q0 -1 -1 -4t-1 -4v-10q13 -29 64 -33h8q4 0 2 -2q0 -9 -4 -21q-2 -8 -5 -25t-5 -26q0 -2 -6 -2h-9h-102h-123z" />
<glyph unicode="z" horiz-adv-x="890" d="M-117 2q37 70 78 141q33 63 189 353q228 418 249 456q41 76 122 227.5t122 227.5q30 58 91.5 171.5t92.5 170.5q11 21 34.5 63t35.5 62h-367h-143q-16 0 -27 -16q-20 -20 -28 -60q-2 -9 -5 -26.5t-5 -26.5q-5 -15 -7 -23q0 -4 -4 -4h-53h-16q-2 0 -2 2t2 4q6 35 22 105 q2 10 6 31.5t6 31.5q4 18 13 54q0 4 4 4h360h359h4q-70 -131 -76 -142q-32 -60 -95 -177t-95 -177q-48 -86 -133 -244.5t-115 -212.5q-82 -152 -246 -452q-30 -58 -91.5 -172.5t-92.5 -171.5q-58 -103 -68 -125h369h88h14q15 0 21 4q33 16 45 76q1 4 2 10.5t2 9.5 q2 9 6 26.5t6 26.5q0 4 10 4q3 0 10 -1t9 -1h47q-4 -14 -4 -16q-4 -18 -11.5 -53.5t-11.5 -52.5q-3 -17 -10 -50t-10 -49q0 -1 -1 -3t-1 -3q0 -2 -2 -2h-11h-389h-299z" />
<glyph unicode="{" horiz-adv-x="536" d="M-10 31q0 49 12 102q4 22 8 35q16 73 46.5 220.5t45.5 221.5q7 34 22.5 101.5t22.5 101.5q1 9 5.5 28.5t5.5 28.5q1 2 2 6.5t2 6.5q0 1 1 5.5t1 6.5q0 4 2 6q-5 9 -35 78q-1 4 -5 14t-5.5 15t-3.5 15t0 15q5 16 8 19q26 33 63 90q2 3 14.5 19.5t18.5 25.5q9 14 10 16 q12 57 38 181.5t40 189.5q4 26 15 66q12 65 55 131q53 77 132.5 127t166.5 57h8q-2 -7 -5 -20.5t-5 -20.5q-4 -20 -4 -27q-2 -2 -2 -6q0 -2 -17 -2q-107 -16 -186 -104q-51 -57 -68 -138q-4 -14 -14 -63q-14 -65 -40 -189.5t-38 -181.5q-11 -32 -14 -37q-10 -12 -31 -41 q-10 -16 -31.5 -45.5t-31.5 -44.5q0 -1 -1 -2t-1 -2q-1 -1 6 -14q7 -12 20 -47q3 -7 8.5 -20.5t8.5 -20.5q7 -13 0 -37q-10 -49 -31 -147.5t-31 -147.5q-13 -58 -94 -442q-1 -4 -3 -12.5t-3 -12.5q-16 -86 -6 -129q11 -44 41.5 -78t74.5 -49q14 -6 45 -10q7 -2 7 -6 q0 -1 -1 -3t-1 -3q-10 -43 -11 -56q-1 -2 -2 -5t-2 -5q-99 8 -164.5 75t-68.5 165z" />
<glyph unicode="|" horiz-adv-x="239" d="M-147 -203l458 2153h21q29 0 39 -2h8h8l-459 -2151q-6 -2 -32 -2q-31 0 -43 2z" />
<glyph unicode="}" horiz-adv-x="536" d="M-150 -209q1 3 8 32t9 44q93 7 171.5 76.5t98.5 162.5q4 19 12.5 56.5t12.5 56.5q17 77 49 231.5t49 231.5q6 29 16.5 80t14.5 69q5 15 8 33q2 16 10 47q2 14 25 37q11 13 35.5 42.5t38.5 45.5v2q0 8 -5 13l-3 15t-4 18.5t-5 15.5q-15 47 -22 76q-2 7 2 26q4 16 4 25 q4 16 6 22q60 287 82 383q6 30 6 66q3 79 -53 135q-24 24 -62 39q-18 7 -35 10h-6.5t-7 0.5t-7 2t-1.5 3.5q3 11 8 35.5t8 36.5q83 -4 144.5 -52.5t81.5 -125.5q18 -63 2 -137q-7 -36 -15 -62q-50 -246 -77 -369q-3 -10 0 -20q2 -7 6 -21.5t6 -21.5q14 -55 26 -94 q3 -10 0 -23q0 -6 -8 -18q-25 -30 -28 -33q-12 -14 -34.5 -41.5t-33.5 -40.5q-8 -12 -8 -29q-2 -9 -6.5 -27.5t-6.5 -27.5q-7 -34 -21.5 -101.5t-21.5 -101.5q-8 -39 -42 -198t-52 -246q-2 -9 -6 -28.5t-6 -28.5q-10 -41 -23 -74q-43 -100 -135 -169.5t-194 -76.5 q-4 -2 -11 -2z" />
<glyph unicode="~" horiz-adv-x="833" d="M84 870q107 81 201 97q24 4 34 4q29 0 58 -13q28 -14 63 -55q3 -3 13.5 -15.5t16 -18t15.5 -13.5t19 -12q13 -8 35 -8q24 0 51 12q43 18 78 53q14 15 22 27q2 2 3 3.5t1.5 2t1.5 0.5q2 0 6 -2q9 -4 29 -12.5t29 -12.5q-43 -62 -108.5 -105.5t-129.5 -43.5 q-41 0 -71.5 20.5t-63.5 57.5q-3 3 -11.5 13.5t-13.5 16t-13.5 12.5t-16.5 11q-15 6 -31 6q-19 0 -37 -6q-38 -10 -86 -39q-24 -14 -41 -25q-8 -8 -12 -8q-2 0 -4 2q-6 8 -18.5 25.5t-18.5 25.5z" />
<glyph unicode="&#xa1;" horiz-adv-x="239" d="M-125 0v4q3 16 21.5 101t27.5 131q18 81 49.5 231.5t46.5 218.5q29 143 103 479q11 55 33 163.5t34 162.5q2 7 5.5 21.5t5.5 21.5q0 4 4 4h6h65q-6 -30 -19 -91.5t-19 -92.5q-16 -71 -47 -215t-46 -215q-57 -278 -102 -488q-14 -61 -39 -180.5t-39 -179.5 q-2 -12 -7 -36.5t-7 -37.5v-2h-4h-8h-31h-33zM254 1774q-1 0 2 17t6.5 35.5t3.5 20.5q4 18 11.5 52t11.5 51q0 4 10 4q3 0 10 -1t8 -1h48q-36 -169 -37 -176q0 -2 -11 -2h-16h-47z" />
<glyph unicode="&#xa2;" d="M43 442q4 26 16 86q3 20 17 84q18 80 39 185q22 95 92 175.5t164 117.5q4 2 47 14q2 1 14.5 3t13.5 3q2 2 5 8q0 17 2 19q4 20 12 57.5t12 56.5l4 25h45h17q14 0 14 -2q-4 -22 -8 -35q-19 -86 -23 -113q-2 -4 -2 -10q-1 -1 0.5 -2t4.5 -1.5t4.5 -0.5h3.5q39 -5 84 -25 q75 -35 110.5 -112.5t16.5 -167.5h-43h-25h-6q-1 1 -0.5 3.5t1.5 6t1 4.5q12 105 -60 168q-52 49 -135 49q-59 0 -117.5 -27.5t-103.5 -78.5q-55 -65 -70 -137q-2 -12 -7 -36.5t-7 -37.5q-9 -44 -26.5 -123.5t-22.5 -101.5q-10 -62 -10 -72q-9 -103 65 -162q49 -41 127 -41 q62 0 124.5 30.5t107.5 84.5q45 56 63 153q3 3 19 3h18h41q-22 -99 -57 -156q-60 -94 -162 -148q-39 -20 -82 -32q-24 -6 -45 -9q-17 0 -19 -2q0 -1 -1 -3.5t-1 -4.5q-4 -12 -4 -16q-2 -18 -10 -49l-14 -70h-76q3 15 9 44.5t9 43.5q2 8 5.5 24.5t5.5 24.5q2 4 2 8 q0 1 -9.5 4t-11.5 3q-95 25 -145 105t-33 183z" />
<glyph unicode="&#xa3;" horiz-adv-x="892" d="M-35 -2q11 46 76 352q9 46 30.5 147.5t32.5 155.5q5 20 13.5 57.5t9.5 43.5q0 4 -8 4q-2 0 -8 -1t-7 -1h-57h-12l2 12q2 9 6 27.5t6 27.5q0 8 4 8h17h57h12q4 0 4 5q2 7 5.5 21.5t5.5 21.5q5 31 22 104q0 6 -4 6h-10h-58h-18l-2 2l2 4q2 9 6 28t6 28q0 2 1 7t1 7h11h57 h25q2 4 2 12q6 29 18 86t18 86q14 64 82 387q18 75 62.5 140.5t109.5 109.5q106 70 215 70q60 0 115 -25q77 -37 112.5 -114.5t18.5 -169.5h-41h-26h-7v16q13 104 -55 168q-53 47 -133 47q-62 0 -122 -27t-103 -77q-51 -57 -68 -136q-8 -31 -10 -49q-8 -36 -23.5 -107.5 t-23.5 -107.5q-8 -38 -23.5 -113.5t-23.5 -113.5q-10 -37 -15 -68q-2 -4 -2 -10q-4 -4 4 -4h396h20q6 0 6 -4q0 -1 -2 -4t-2 -4q-2 -9 -6 -28t-6 -28l-2 -6q0 -2 -4 -2h-178h-215h-25q-4 0 -4 -4q-4 -17 -11.5 -51.5t-11.5 -52.5q-1 -7 -4 -21.5t-4 -21.5l-2 -4q0 -3 4 -3 h62h235h94h25q5 0 5 -0.5t-1 -5.5q-8 -35 -10 -55q-1 -1 -1 -4.5t-1 -5.5q0 -4 -4 -4h-62h-233h-68q-61 0 -61 -2q-9 -46 -31 -145t-33 -152q-71 -336 -82 -383h346h191h20q4 0 4 -6l-12 -54q0 -1 -1 -4.5t-1 -5.5q0 -6 -4 -6h-367h-268z" />
<glyph unicode="&#xa4;" horiz-adv-x="931" d="M12 705q17 14 73 59.5t85 71.5q4 3 12.5 9t12.5 9q1 1 -9.5 25t-9.5 26q-19 63 -4 129q5 24 27 78q14 33 49 78q1 2 10 12t10 12v3q-5 6 -10.5 14t-12 17t-9.5 14q-6 7 -36.5 45t-47.5 57q3 2 19.5 16t31 26t14.5 11q9 -11 25 -31.5t20 -25.5q10 -14 31 -39.5t31 -38.5 q2 -1 4 -4.5t3.5 -6t2.5 -1.5q60 33 84 43q58 22 114 22q49 0 95 -16q36 -13 69 -43q2 -2 4 -2h5q6 6 10 8q26 23 164 135q0 1 9.5 -11t19.5 -25.5t12 -16.5q-17 -14 -73 -59.5t-85 -71.5q-2 0 -10.5 -6.5t-8.5 -7.5q22 -37 27 -68q10 -59 -2 -115q-6 -33 -33 -92 q-19 -36 -51 -72q-16 -16 -18 -20v-2q5 -7 16 -22.5t16 -22.5q14 -16 41 -50t41 -50q-9 -7 -30.5 -26t-34.5 -28l-23 27l-4 8q-77 99 -88 113q-98 -59 -190 -62q-92 0 -168 60q0 4 -4 4q-2 0 -2 -2q-9 -5 -11 -8q-5 -4 -19 -15t-22 -18q-15 -13 -48 -40t-50 -42 q-6 -4 -15.5 -12t-11.5 -9l-4 -4q-2 0 -4 2zM242 989q3 -78 55.5 -126t128.5 -48q43 0 92 19q66 28 113 83.5t61 118.5q4 16 4 47q0 75 -51 124.5t-129 49.5q-91 0 -170 -66.5t-98 -156.5q-6 -42 -6 -45z" />
<glyph unicode="&#xa5;" horiz-adv-x="923" d="M111 756v12l4 14q2 7 5 23.5t5 23.5l14 2h215h33h4q2 0 4 7q3 17 10.5 51.5t10.5 52.5q2 7 5 21.5t5 21.5q0 4 -2 4h-4h-88h-133h-41q1 3 2.5 9.5t3.5 16t4 15.5q4 35 8 35h74h192q33 150 35 160q4 19 11.5 55t11.5 55q7 21 8 25v10q-24 62 -45 123q-114 303 -133 354 q-11 31 -54 31q-1 1 -0.5 6t2.5 14t5 19l6 37h192h39q6 0 7 -1t1 -7q-2 -9 -6 -28t-6 -28q0 -1 -1 -4t-1 -4v-4q-2 -2 -31 -2q-22 -4 -34 -16q-13 -6 -21 -23q-3 -13 4 -27q12 -32 19 -53q106 -288 112 -303q185 235 256 322q5 6 15.5 19.5t15.5 19.5q1 1 2.5 4l3 6t2.5 6 q2 12 -4 23.5t-16 15.5q-13 8 -33 8h-6q-6 0 -6 4q7 30 10 53q2 2 2 9q5 10 6 10h86h117h30q5 0 5 -6q-1 -3 -2.5 -6t-3 -5.5t-1.5 -3.5q-2 -9 -5 -26.5t-5 -26.5q-1 -2 -4 -2.5t-7.5 -0.5t-6.5 -1q-23 -3 -39 -16q-5 -4 -25 -29q-285 -358 -297 -373q-4 -4 -24 -28.5 t-29 -38.5q-16 -16 -16 -23q-34 -152 -41 -190q-13 -56 -21 -97q-1 -3 -2 -8t-2 -8h17h213h20q-8 -39 -8 -41l-8 -35h-23h-213h-14q-1 -5 -3 -16.5t-3 -16.5q-4 -19 -12.5 -55.5t-12.5 -54.5v-8q-3 -7 0 -7h27h112h99h6q4 0 2 -6q-2 -18 -10 -53v-10q-3 -6 -9 -6h-32h-115 h-92h-4q-2 0 -2 -2q-1 -2 -2 -7.5t-2 -7.5q-6 -33 -35 -166q-15 -72 -45.5 -215t-46.5 -215q-1 -5 -3.5 -15t-3.5 -15q7 0 9 -2q1 -2 2 -6.5t2 -6.5q11 -15 28 -18q12 -6 31 -6q6 0 6 -2q-2 -2 -4 -6q-2 -22 -10 -56q-2 -4 -2 -8q0 -2 -6 -2h-92h-142q4 26 8 41q1 6 4 15.5 t3 11.5q0 6 2 6h6q39 0 67 28q15 15 17 23q4 22 13 65t13 64q11 54 44.5 207.5t50.5 238.5q4 16 12 52v2v2h-27h-215h-24z" />
<glyph unicode="&#xa8;" horiz-adv-x="759" d="M63 2089q35 169 37 176q0 2 6 2h9h49h106h4q5 0 5 -6q-2 -7 -5.5 -20.5t-5.5 -20.5q-18 -86 -22 -113l-4 -18h-33h-115h-31zM481 2089q35 169 37 176q0 2 6 2h6h52h106h4q4 0 4 -6q-2 -7 -5 -20.5t-5 -20.5q-18 -86 -22 -113q-1 -1 -2.5 -5.5t-2.5 -8.5t-2 -4h-30h-115 h-31z" />
<glyph unicode="&#xa9;" horiz-adv-x="1679" d="M82 434q-36 143 0 311q12 56 41 138q88 221 276 383q192 162 414 215q99 22 188 22q140 0 259 -49q191 -80 285.5 -261t60.5 -402q-6 -22 -9 -50q-45 -205 -188 -383q-148 -183 -365 -286q-182 -84 -366 -84q-221 0 -385 122.5t-211 323.5zM152 496q17 -97 67.5 -181 t126.5 -143q142 -109 346 -109q31 0 58 3q228 15 432 167q201 150 295 367q30 70 45 141q32 165 -4 301q-47 175 -192.5 280t-340.5 105q-230 0 -442 -139q-209 -138 -316 -346q-49 -99 -69 -197q-27 -129 -6 -249zM549 569q-3 28 10 101q4 19 12.5 57.5t12.5 58.5q2 8 5 23 t5 22q2 16 10 43q37 88 107 146q90 72 196 72q71 0 123 -37q49 -34 70.5 -90t9.5 -121h-45h-6q-4 0 -2 4v6q3 27 0 51q-7 46 -39 80.5t-76 44.5q-24 6 -47 6q-82 0 -154.5 -60.5t-91.5 -144.5q-7 -32 -20.5 -94t-20.5 -94q-17 -91 31 -147q49 -58 131 -58q11 0 43 4 q51 10 97 43.5t75 81.5q20 39 29 82q0 15 4 15h24h25q6 0 6 -5q0 -4 -2 -6q-4 -27 -22 -71q-41 -86 -113 -138q-85 -61 -180 -61q-86 0 -143.5 52t-63.5 134z" />
<glyph unicode="&#xab;" horiz-adv-x="796" d="M82 532l410 338l-25 -122l-264 -216l170 -223l-25 -123zM377 532l409 338l-24 -122l-264 -216l170 -223l-25 -123z" />
<glyph unicode="&#xad;" horiz-adv-x="585" d="M74 813l16 76h49h230h100h33h8h2v-4q-2 -2 -2 -8q-4 -22 -8 -31l-6 -33h-50h-372z" />
<glyph unicode="&#xae;" horiz-adv-x="1679" d="M82 434q-36 143 0 311q12 56 41 138q88 221 276 383q192 162 414 215q99 22 188 22q140 0 259 -49q191 -80 285.5 -261t60.5 -402q-6 -22 -9 -50q-45 -205 -188 -383q-148 -183 -365 -286q-182 -84 -366 -84q-221 0 -385 122.5t-211 323.5zM152 496q17 -97 67.5 -181 t126.5 -143q142 -109 346 -109q31 0 58 3q228 15 432 167q201 150 295 367q30 70 45 141q32 165 -4 301q-47 175 -192.5 280t-340.5 105q-230 0 -442 -139q-209 -138 -316 -346q-49 -99 -69 -197q-27 -129 -6 -249zM513.5 353.5q-1.5 1.5 0.5 4.5v7q1 4 3 13t3 13q1 5 2.5 6 t6.5 1t8 1q24 7 36 19q8 8 13 8q4 0 4 6q4 12 4 19q8 33 10 47q6 27 94 444q28 128 29 131q3 13 -8 29q-5 8 -29 18q-3 1 -6.5 1h-4t-2 1.5t0.5 5.5q0 2 4.5 20.5t5.5 18.5h27h182h72q98 0 141 -34q38 -29 52 -76t3 -101q-13 -55 -45 -98q-58 -74 -137 -98q-39 -12 -115 -12 q101 -175 168 -293q7 -14 21 -35q7 -11 20 -14q14 -7 31 -7h2q-2 -8 -5 -23.5t-5 -23.5h-19h-55h-94h-2q2 7 5 23.5t5 23.5q0 -2 2 -2q21 0 59 19q-33 56 -95.5 164t-74.5 129q-12 24 -22 39h-6h-19h-59h-16h-4q-1 -4 -2.5 -12.5t-2.5 -12.5q-4 -17 -11 -50.5t-11 -51.5 q-6 -30 -18.5 -89.5t-18.5 -89.5q-4 -16 8.5 -27.5t28.5 -15.5h8q8 0 8 -4q-4 -16 -6 -26q0 -1 -2 -8.5t-2 -8.5h-2h-6h-45h-109h-6t-2.5 1.5zM715 795h186q66 0 105 20q41 22 71.5 58t40.5 77q11 43 0 81t-41 63q-32 26 -114 26h-177l-4 -4v-4q-4 -22 -8 -35 q-4 -23 -22 -112q-35 -158 -37 -170z" />
<glyph unicode="&#xaf;" horiz-adv-x="745" d="M74 2089l16 76h582q-1 -7 -15 -64q0 -6 -2 -8v-4h-581z" />
<glyph unicode="&#xb0;" horiz-adv-x="505" d="M82 1786q5 24 27 61q30 50 81 78.5t103 28.5q65 0 102 -43q45 -51 29 -127q-6 -30 -25 -62q-29 -49 -80 -78.5t-104 -29.5q-69 0 -108 51.5t-25 120.5zM158 1784q-8 -38 13.5 -66t59.5 -28q40 0 75 28t42 66q9 40 -13.5 68t-62.5 28q-38 0 -71.5 -28t-42.5 -68z" />
<glyph unicode="&#xb4;" horiz-adv-x="602" d="M74 2128q168 55 377 127q7 2 30 9.5t35 12.5l12 -71q-11 -3 -49 -17q-12 -4 -97.5 -31.5t-131.5 -43.5q-30 -10 -85.5 -30t-78.5 -28q-9 39 -12 72z" />
<glyph unicode="&#xb7;" horiz-adv-x="342" d="M63 756l35 168q2 2 2 6v2h2h7h170l-37 -176h-179z" />
<glyph unicode="&#xb8;" horiz-adv-x="430" d="M94 -141q0 2 7.5 11.5t7.5 10.5q13 18 38 56t39 57l4 6h23h55q-14 -19 -41 -57t-41 -56q65 -5 84 -12q58 -22 68 -84q3 -24 -2 -43q-12 -59 -70 -102t-119 -43q-18 0 -24 2q18 36 20 39q2 4 6.5 12t6.5 12q1 1 1 2q4 6 9 7q2 1 4 1q22 1 44 14t36 32q10 13 10 24 q9 31 -16 49q-21 15 -49 15q-9 0 -26.5 -3t-21.5 -4q-4 -2 -8 -2q-2 0 -4 4q-3 3 -8 10.5t-8 10.5q-4 5 -12.5 15.5t-12.5 15.5z" />
<glyph unicode="&#xbb;" horiz-adv-x="796" d="M10 186l25 123l264 223l-170 216l25 122l266 -338zM305 186l25 123l264 223l-170 216l25 122l266 -338z" />
<glyph unicode="&#xbf;" d="M-61 287q3 30 12 69q8 37 23.5 111t23.5 111q4 16 4 24q2 6 9.5 17t8.5 14q1 2 5.5 5.5t5.5 4.5q5 4 13 12.5t13 12.5q28 27 187 176q9 9 28.5 27.5t28.5 27.5q3 2 8 12v9q6 28 18.5 83t18.5 82q15 71 44.5 213.5t45.5 214.5q1 4 3 13.5t3 13.5h76q-38 -170 -72 -336 q-44 -211 -47 -225q-7 -25 -14 -68q-5 -19 -14 -34q-4 -7 -9 -13t-15 -15.5t-13 -12.5q-14 -13 -43 -39.5t-43 -40.5q-55 -53 -164 -154q-6 -6 -6 -8q-1 -4 -3 -11.5t-3 -11.5q-2 -14 -23 -104q-6 -37 -22 -115q-6 -17 -9 -37q-6 -21 -6 -39q-6 -88 51 -146t144 -58 q27 0 51 6q106 22 178 110q48 59 64 136q11 61 20 100q2 16 10 47q0 2 1 7t1 7v4q-4 31 -10 39q-1 1 -4.5 5.5t-5.5 5.5q-5 3 -2 6v4q0 1 7 2.5t14.5 3t9.5 2.5q34 7 88 18q-5 -25 -16.5 -75t-16.5 -74q-2 -10 -6 -32t-6 -32q-28 -121 -68 -180q-52 -76 -131.5 -126.5 t-163.5 -57.5q-87 -8 -157.5 28t-102.5 105q-34 70 -22 156zM494 1772q-1 0 5.5 33.5t8.5 39.5q3 18 10 52t10 51q0 2 13 2h16h47q-36 -169 -37 -176q0 -2 -10 -2h-14h-49z" />
<glyph unicode="&#xc0;" horiz-adv-x="960" d="M-160 4q11 44 13 53q0 3 1 8.5t1 8.5q4 4 26 4q57 14 64 37q0 6 4 18q3 8 6 18t6.5 22.5t5.5 19.5q18 59 50.5 169l45.5 154q81 260 144 473q28 89 141 469q16 52 47.5 157t48.5 157q7 27 15 49q6 21 -8.5 35.5t-36.5 17.5q-10 2 -31 2q-2 0 -2 4t2 6q2 22 10 56 q1 1 1.5 3t1 3.5t1.5 1.5h23h33h82h161h54h24h10h2q2 0 2 -4q0 -2 -2 -4q0 -3 -1 -11t-1 -12q-1 -10 -4 -29.5t-4 -29.5l-6 -60q-25 -225 -29 -270q-30 -252 -51 -453q-8 -68 -26.5 -231t-28.5 -252q-6 -62 -41 -369q-2 -33 -10 -94v-18q-1 -4 12 -23q10 -10 33 -14h24 l-16 -76h-66h-174q1 7 4.5 21.5t4.5 21.5q1 4 3 12.5t3 12.5q2 8 10 8q37 0 63 26q19 19 21 27q1 12 3 34.5t3 33.5q7 63 22.5 190t22.5 191q7 65 25 228.5t28 252.5q5 50 16.5 151.5t16.5 151.5l4 14h-67h-136h-43q-14 -41 -36 -115.5t-31 -103.5q-104 -344 -139 -465 q-67 -214 -132 -432q-7 -20 -18 -59.5t-16 -55.5q-4 -12 -6 -16q-3 -17 10 -31q14 -22 55 -22q8 0 6 -6q-3 -15 -6 -27q-1 -5 -3 -14.5t-3 -14.5q0 -6 -2 -10v-4h-6h-15h-47h-118h-41h-7q-6 0 -6 4zM424 1452h231q21 204 41 356q-3 6 0 15q-1 25 -21.5 39t-49.5 14 q-67 0 -90 -51q-2 -7 -6.5 -21.5t-6.5 -21.5q-5 -15 -14 -45.5t-14 -46.5q-11 -35 -23 -75.5t-25.5 -88t-21.5 -74.5zM432 2206q7 14 22 39t19 32q30 -12 145.5 -58.5t178.5 -70.5q24 -11 55 -20q0 -2 -18.5 -34t-22.5 -38q-174 70 -324 127q-42 19 -55 23z" />
<glyph unicode="&#xc1;" horiz-adv-x="960" d="M-160 4q11 44 13 53q0 3 1 8.5t1 8.5q4 4 26 4q57 14 64 37q0 6 4 18q3 8 6 18t6.5 22.5t5.5 19.5q18 59 50.5 169l45.5 154q81 260 144 473q28 89 141 469q16 52 47.5 157t48.5 157q7 27 15 49q6 21 -8.5 35.5t-36.5 17.5q-10 2 -31 2q-2 0 -2 4t2 6q2 22 10 56 q1 1 1.5 3t1 3.5t1.5 1.5h23h33h82h161h54h24h10h2q2 0 2 -4q0 -2 -2 -4q0 -3 -1 -11t-1 -12q-1 -10 -4 -29.5t-4 -29.5l-6 -60q-25 -225 -29 -270q-30 -252 -51 -453q-8 -68 -26.5 -231t-28.5 -252q-6 -62 -41 -369q-2 -33 -10 -94v-18q-1 -4 12 -23q10 -10 33 -14h24 l-16 -76h-66h-174q1 7 4.5 21.5t4.5 21.5q1 4 3 12.5t3 12.5q2 8 10 8q37 0 63 26q19 19 21 27q1 12 3 34.5t3 33.5q7 63 22.5 190t22.5 191q7 65 25 228.5t28 252.5q5 50 16.5 151.5t16.5 151.5l4 14h-67h-136h-43q-14 -41 -36 -115.5t-31 -103.5q-104 -344 -139 -465 q-67 -214 -132 -432q-7 -20 -18 -59.5t-16 -55.5q-4 -12 -6 -16q-3 -17 10 -31q14 -22 55 -22q8 0 6 -6q-3 -15 -6 -27q-1 -5 -3 -14.5t-3 -14.5q0 -6 -2 -10v-4h-6h-15h-47h-118h-41h-7q-6 0 -6 4zM399 2128q61 20 377 127l33 11l33 11l12 -71q-9 -2 -49 -17 q-18 -6 -101 -32.5t-129 -42.5q-28 -9 -83 -29t-82 -29q-10 66 -11 72zM424 1452h231q21 204 41 356q-3 6 0 15q-1 25 -21.5 39t-49.5 14q-67 0 -90 -51q-2 -7 -6.5 -21.5t-6.5 -21.5q-5 -15 -14 -45.5t-14 -46.5q-11 -35 -23 -75.5t-25.5 -88t-21.5 -74.5z" />
<glyph unicode="&#xc2;" horiz-adv-x="960" d="M-168 4q2 8 12 53q0 3 1 8.5t1 8.5q0 4 27 4q54 13 61 37q5 15 5 18l20 60q18 59 50.5 169l45.5 154q81 260 144 473q7 23 59.5 199t81.5 270q16 52 46.5 157t47.5 157q3 8 8.5 24.5t8.5 24.5q6 21 -8.5 35.5t-36.5 17.5q-12 2 -33 2q-4 0 0 4v6q2 9 6 28t6 28q0 8 4 8 h23h32h82h162h53h25h10h2q4 0 0 -4v-4q-2 -6 -2 -23q-1 -10 -4 -29.5t-4 -29.5q-3 -15 -8 -60q-4 -45 -29 -270q-8 -76 -25.5 -226.5t-25.5 -226.5q-6 -60 -53 -483q-35 -307 -41 -369q-10 -77 -11 -94q0 -12 -2 -18q-1 -4 2 -8t7.5 -8.5t5.5 -6.5q10 -10 30 -14h25l-14 -76 h-66h-174q1 7 4 21.5t4 21.5q1 4 3 12.5t3 12.5q0 6 1.5 7t7.5 1q36 0 65 26q19 19 21 27q0 10 1 21.5t2.5 25t2.5 21.5q21 191 45 381q8 84 25.5 244t25.5 237q28 235 35 303l2 14h-68h-135h-43q-39 -126 -65 -219q-21 -69 -45 -147.5t-52.5 -171.5t-44.5 -146 q-64 -214 -129 -432q-7 -21 -19.5 -62.5t-15.5 -52.5q-1 -2 -3.5 -8t-2.5 -8q-4 -20 11 -31q14 -22 53 -22q8 0 8 -6q-3 -15 -6 -27q-1 -5 -3 -14.5t-3 -14.5q0 -1 -1 -4.5t-1 -5.5v-4h-6h-15h-47h-119h-41h-6q-6 0 -6 4zM358 2091q48 44 144.5 132t144.5 132q2 4 6 4h43h84 q30 -44 89.5 -132t88.5 -132q1 0 5 -4h-93q-8 0 -12 4q-2 5 -16 23q-56 86 -111 168q-3 4 -11 15t-11 17q-12 -11 -64 -57.5t-78 -71.5q-34 -30 -86 -78q-16 -12 -20 -18q-2 -2 -10 -2h-11h-82zM414 1452h231q7 60 20.5 178t20.5 178q0 9 2 15q-3 25 -24 39t-50 14 q-65 0 -88 -51q-3 -7 -7 -21.5t-7 -21.5q-11 -42 -27 -92q-15 -47 -71 -238z" />
<glyph unicode="&#xc3;" horiz-adv-x="960" d="M-156 4q1 8 11 53q1 3 2 8.5t2 8.5q0 4 24 4q57 13 64 37q1 3 2 9t2 9q3 8 6 18t6.5 22.5t5.5 19.5q44 141 99 323q24 79 71.5 236.5t71.5 236.5q7 23 59.5 199t81.5 270q87 293 94 314q8 22 15 49q7 21 -7.5 35t-35.5 18q-12 2 -33 2q-2 0 -2 4q2 2 2 6q2 9 6 28t6 28 q0 8 4 8h23h33h82h161h54h24h10h3v-4v-4q-5 -15 -5 -23q-1 -10 -4 -29.5t-4 -29.5l-6 -60q-4 -45 -29 -270q-8 -76 -25.5 -226.5t-25.5 -226.5q-6 -60 -53 -483q-35 -307 -41 -369q-8 -61 -10 -94q-1 -3 -1 -9t-1 -9q-2 -7 14 -23q11 -11 31 -14h24l-16 -76h-66h-174 q2 7 5.5 21.5t5.5 21.5q1 4 2 12.5t2 12.5q1 6 2.5 7t7.5 1q36 0 65 26q19 19 21 27q0 33 6 68q7 63 21.5 190t21.5 191q49 441 53 481q6 50 17.5 151.5t17.5 151.5l2 14h-67h-136h-43q-14 -41 -36 -115.5t-31 -103.5q-19 -62 -66 -220.5t-73 -244.5q-96 -318 -131 -432 q-3 -10 -35 -115q0 -3 -2 -8.5t-2 -7.5q-4 -20 10 -31q14 -22 53 -22q8 0 8 -6q-2 -6 -4 -16t-2 -11q-1 -5 -3 -14.5t-3 -14.5q0 -1 -1 -4.5t-1 -5.5l-2 -4h-6h-15h-47h-118h-41h-7q-6 0 -4 4zM381 2150q95 68 172 88q37 11 61 11q15 0 35 -4q37 -12 72 -50q12 -12 18 -20 q24 -28 49 -47q15 -12 39 -12q21 0 52 14q57 23 102 82l18 -6q12 -4 15 -4l33 -17q-38 -53 -97 -96q-70 -49 -139 -49q-30 0 -56.5 13.5t-42 28.5t-40.5 44l-6 4q-1 1 -5 5.5t-5.5 6t-5 5.5t-6 6t-6.5 5.5t-7 5t-7.5 3.5t-8.5 3t-9 2t-10 1q-4 0 -8 -2q-42 -4 -105 -37 q-36 -19 -59 -39l-2 2q0 1 -1 2t-1 2zM426 1452h231q5 52 41 356v15q-1 25 -21.5 39t-49.5 14q-30 0 -54 -13t-34 -38q-8 -19 -15 -43q-4 -16 -13 -46.5t-13 -45.5q-32 -103 -72 -238z" />
<glyph unicode="&#xc4;" horiz-adv-x="960" d="M-158 4q1 8 11 53q1 3 2 8.5t2 8.5q0 4 24 4q57 13 64 37q4 12 4 18q3 8 6 18t6.5 22.5t5.5 19.5q44 141 99 323q23 79 71.5 236.5t71.5 236.5q7 23 59.5 199t81.5 270q87 293 94 314q8 22 15 49q7 21 -7.5 35t-35.5 18q-12 2 -33 2q-2 0 -2 4q2 2 2 6q2 9 6 28t6 28 q0 8 4 8h23h33h82h161h54h24h10h2v-4v-4q-4 -13 -2 -23q-8 -41 -10 -59l-6 -60q-4 -45 -29 -270q-8 -76 -25.5 -226.5t-25.5 -226.5q-6 -60 -53 -483q-35 -307 -41 -369q-8 -61 -10 -94q-1 -3 -1 -9t-1 -9q-2 -7 14 -23q11 -11 31 -14h24l-16 -76h-66h-174q2 7 5.5 21.5 t5.5 21.5q4 16 4 25q2 8 10 8q36 0 65 26q19 19 21 27q0 33 6 68q7 63 21.5 190t21.5 191q49 441 53 481q6 50 17.5 151.5t17.5 151.5l2 14h-67h-136h-43q-9 -29 -31.5 -104t-35.5 -115q-19 -62 -66 -220.5t-73 -244.5q-65 -214 -132 -432q-10 -37 -34 -115q0 -3 -2 -8.5 t-2 -7.5q-4 -20 10 -31q14 -22 53 -22q8 0 8 -6q-3 -15 -6 -27q-1 -5 -3 -14.5t-3 -14.5q0 -1 -1 -4.5t-1 -5.5l-2 -4h-6h-15h-47h-118h-41h-7q-6 0 -4 4zM350 2089q36 169 37 176q2 2 8 2h8h50h106h4q4 0 2 -6q-1 -7 -4 -20.5t-4 -20.5q-5 -22 -13.5 -61t-11.5 -52l-4 -18 h-32h-115h-31zM424 1452h231q5 52 41 356q-2 4 2 15q-3 25 -23.5 39t-49.5 14q-30 0 -54 -13t-34 -38q-8 -19 -15 -43q-4 -16 -13 -46.5t-13 -45.5q-32 -103 -72 -238zM768 2089q36 169 37 176q2 2 8 2h6h51h107h4q4 0 2 -6q-1 -7 -4 -20.5t-4 -20.5q-5 -22 -13.5 -61 t-11.5 -52q0 -2 -2.5 -10t-3.5 -8h-31h-114h-31z" />
<glyph unicode="&#xc5;" horiz-adv-x="960" d="M-162 4q2 8 12 53q0 3 1.5 8.5t1.5 8.5q4 4 26 4q57 14 64 37q0 6 4 18q2 8 5 18t7 22.5t6 19.5q18 59 50.5 169l45.5 154q81 260 144 473q28 89 141 469q17 52 48.5 157t47.5 157q7 27 15 49q6 21 -8.5 35.5t-36.5 17.5q-12 2 -33 2v4q0 4 2 6q2 22 10 56q0 8 4 8h23h33 h81h162h54h24h10h2q2 0 2 -4q-2 -2 -2 -4q0 -3 -1 -11t-1 -12q-1 -10 -4 -29.5t-4 -29.5l-6 -60q-25 -225 -29 -270q-30 -252 -51 -453q-8 -68 -26.5 -231t-28.5 -252q-6 -62 -20.5 -185t-20.5 -184q-2 -33 -10 -94q0 -12 -2 -18q0 -4 2.5 -8t6.5 -8.5t5 -6.5q10 -10 33 -14 h24l-16 -76h-66h-174q1 7 4 21.5t4 21.5q1 4 3.5 12.5t3.5 12.5q1 6 2.5 7t7.5 1q37 0 63 26q19 19 21 27q0 10 1 21.5t2.5 25t2.5 21.5q7 63 22.5 190t22.5 191q7 65 25 228.5t28 252.5q5 50 16.5 151.5t16.5 151.5l4 14h-67h-136h-43q-35 -103 -67 -219 q-104 -344 -139 -465q-67 -214 -132 -432q-7 -20 -18 -59.5t-16 -55.5q-2 -6 -7 -16q-3 -17 11 -31q14 -22 55 -22q8 0 6 -6q-3 -15 -6 -27q-1 -5 -3 -14.5t-3 -14.5q0 -6 -2 -10v-4h-6h-15h-47h-119h-41h-6q-6 0 -6 4zM420 1452h231q7 60 20.5 178t20.5 178q0 9 2 15 q-1 25 -22.5 39t-50.5 14q-66 0 -89 -51q-2 -7 -6 -21.5t-6 -21.5q-5 -15 -14 -45.5t-14 -46.5q-11 -36 -35 -116t-37 -122zM489 2130q6 29 25 61q30 50 81 78.5t103 28.5q68 0 105 -43q41 -50 28 -127q-11 -37 -26 -62q-29 -49 -79 -78.5t-103 -29.5q-70 0 -109.5 52 t-24.5 120zM565 2128q-9 -38 13.5 -66t60.5 -28q39 0 73.5 27.5t43.5 66.5q8 40 -14 68t-62 28q-39 0 -73.5 -28.5t-41.5 -67.5z" />
<glyph unicode="&#xc6;" horiz-adv-x="1320" d="M-125 0l16 80h5q26 0 45 8q35 15 45 49l503 1671l3 2q0 7 2 11v20q-8 33 -68 33h-2h-6l-2 -2l12 61q2 2 2 4v13h1h1h1h1h1h1h1h1h1h1h1h1h1h1h1h1h1h1h1h1h1h1h1h1h1h1h1h1h1h1h1h1h1h1h1h1h1h1h1h1h1h1h1h1h1h1h1h1h1h1h1h1h1h1h1h1h1h1h1h1h1h2h1h1h1h1h1h2h1h1h1h1h1 h2h1h1h1h2h1h1h1h2h1h1h1h2h1h1h2h1h1h2h1h1h2h1h1h2h1h1h2h1h2h1h1h2h1h2h1h1h2h1h2h1h2h1h2h1h2h1h2h1h2h1h2h1h2h1h2h1h2h1h2h2h1h2h1h2h1h2h2h1h2h1h2h2h1h2h2h1h2h2h1h2h2h1h2h2h1h2h2h2h1h2h2h1h2h2h2h1h2h2h2h2h1h2h2h2h2h1h2h2h2h2h2h1h2h2h2h2h2h2h2h1h2h2h2h2h2h2 h2h2h2h2h2h2h2h2h2h9l713 2q-1 -3 -3.5 -16.5t-4.5 -22.5l-2 -8l-9 -43q-4 -4 -4 -11l-26 -122h-74h-4l16 79q4 19 0 31q-14 35 -73 35h-17h-12h-330h-2h-24q-3 -9 -5 -23l-86 -399h21h2h10h17h116q28 0 49.5 23.5t28.5 62.5l17 72h75l-82 -387h-77q0 6 4 22v4q1 2 2 7.5 t2 7.5q4 16 4 24q16 68 -27 84q-4 4 -18 4h-8h-7h-120h-23q-4 -18 -6 -22l-264 -1250l-6 -26h30h4h322h14h17q7 0 17 1t13 1q57 14 68 53q0 8 2 12q4 16 4 25q1 3 2 8t2 8l8 37h29h45h4l-24 -117q-2 -6 -2 -12v-8l-15 -68q-2 -2 -2 -6q0 -2 -1 -6t-1 -6h-710q13 72 14 78v2 h10q24 0 48 13t32 36q0 1 1 3t1 3q0 2 1 6.5t1 5.5v7l254 1196l8 26h-33h-6h-24h-115h-41h-35l-6 -18l-369 -1221q0 -4 -2 -6q-3 -16 7 -29q16 -22 57 -22h8l-12 -62l-2 -2q0 -3 -1 -8.5t-1 -7.5h-242zM459 1452h215h2h29q2 11 6 25l71 333q6 30 -13 47t-60 17h-19h-20 q-36 0 -60 -12q-33 -15 -43 -60q0 -1 -2 -3t-2 -3z" />
<glyph unicode="&#xc7;" horiz-adv-x="829" d="M-12 330q10 49 30.5 148.5t30.5 148.5q84 387 103 481q7 32 88 414q4 18 11 51t11 51q22 107 94 188q65 71 150 108t168 30q81 -6 140.5 -56.5t78.5 -126.5q13 -59 4 -116q-1 -4 -3 -11.5t-3 -11.5q-4 -22 -2 -33q4 -16 8 -24q1 -1 5 -4.5t7.5 -6.5t3.5 -4l-1.5 -4.5 t-2 -2.5t-2.5 -1.5t-3.5 -1t-4.5 -0.5q-8 -1 -22 -4t-19 -4q-10 -2 -31.5 -7t-31.5 -7q8 46 14 71q19 101 4 154q-18 59 -69 92t-117 33q-68 0 -131 -35q-62 -35 -103 -91t-55 -122q-9 -46 -21 -96q-17 -77 -47 -220.5t-39 -187.5q-49 -223 -102 -481q-11 -51 -33 -153.5 t-33 -153.5q-1 -3 -2 -10t-2 -11q-18 -84 21 -151q53 -86 168 -86q95 0 176 63q68 55 94 119q14 33 25 88q4 13 8 35q1 3 2 4.5t2.5 2t4.5 0.5t5 1q5 1 30 9t38 12q-2 -11 -9 -41t-10 -47q-16 -76 -61 -142q-53 -77 -133 -125.5t-166 -54.5h-25q-83 0 -147 43t-90 117 q-27 75 -4 170zM94 -141q0 2 7.5 11.5t7.5 10.5q13 18 38 56t39 57l2 6h23h55q-31 -45 -80 -113q64 -5 82 -12q57 -20 70 -84q3 -24 -2 -43q-12 -59 -70 -102t-119 -43q-18 0 -26 2q2 3 20 39q9 12 15 24q1 1 1 2q4 6 9 7q2 1 4 1q22 1 44 14t36 32q6 8 10 24q6 32 -18 49 q-21 15 -47 15q-7 0 -15.5 -1t-18 -3t-14.5 -3q-4 -2 -8 -2q-2 0 -6 4q-1 2 -3.5 6.5t-5 8t-5.5 6.5q-4 5 -12.5 15.5t-12.5 15.5z" />
<glyph unicode="&#xc8;" horiz-adv-x="882" d="M-147 0q1 7 4 21.5t4 21.5q1 4 3 12.5t3 12.5v6q2 2 8 2q42 0 72 33q12 12 12 22q11 48 14 59q11 55 34 163t34 163q21 95 100 473q30 137 101 471q10 47 32.5 152t34.5 160q2 18 10 49q3 23 -22 43q-17 10 -37 10t-18 2q2 18 10 49v17q4 8 6 8h344h313h54h4v-2 q-4 -16 -4 -23q-3 -12 -8.5 -35.5t-8.5 -36.5q-4 -19 -11 -55t-11 -55q-2 -4 -2 -10q-4 -4 -8 -4h-54h-14v2q2 4 2 10q2 9 6 27.5t6 27.5q7 20 4 35q-6 30 -43 41q-24 4 -34 4q-7 0 -25 -1t-25 -1h-92h-162h-83q-1 -4 -3 -8q-5 -28 -6 -29q-14 -65 -40 -192.5t-40 -192.5 q-1 -1 0.5 -1.5t6 -0.5h7.5h9h31h112h13q8 0 12 2q35 16 49 59q1 5 3 15.5t3 15.5q2 10 6 31t6 31q0 2 13 2h18h45q-8 -43 -8 -45q-8 -38 -24.5 -114t-24.5 -114q-3 -15 -9.5 -44.5t-9.5 -45.5q-1 -3 -2 -9t-2 -9h-6h-22h-47q6 33 8 37q1 4 2 11t2 11q12 59 -12 80 q-12 12 -41 12h-15h-110h-29l-2 -4q-5 -25 -6 -29q-13 -62 -37 -174.5t-33 -158.5q-21 -95 -59 -274.5t-45 -213.5q-15 -71 -42.5 -201.5t-37.5 -177.5q-7 -27 -14 -67h141h192h68q27 0 54.5 16.5t33.5 42.5q0 12 14 66l4 20h50l6 1q6 1 10 1q8 0 8 -4q-6 -28 -18.5 -84.5 t-18.5 -85.5q-2 -7 -5 -23.5t-5 -23.5q0 -2 -14 -2h-17h-73h-150h-362h-90zM391 2206q7 14 22 39t19 32q30 -12 145.5 -58.5t178.5 -70.5q24 -11 55 -20q0 -2 -18.5 -34t-22.5 -38q-174 70 -324 127q-42 19 -55 23z" />
<glyph unicode="&#xc9;" horiz-adv-x="882" d="M-147 0q1 7 4 21.5t4 21.5q1 4 3 12.5t3 12.5v6q2 2 8 2q42 0 72 33q12 12 12 22q11 48 14 59q11 55 34 163t34 163q21 95 100 473q30 137 101 471q10 47 32.5 152t34.5 160q2 18 10 49q3 23 -22 43q-17 10 -37 10t-18 2q2 18 10 49v17q4 8 6 8h344h313h54h4v-2 q-4 -16 -4 -23q-3 -12 -8.5 -35.5t-8.5 -36.5q-4 -19 -11 -55t-11 -55q-2 -4 -2 -10q-4 -4 -8 -4h-54h-14v2q2 4 2 10q2 9 6 27.5t6 27.5q7 20 4 35q-6 30 -43 41q-24 4 -34 4q-7 0 -25 -1t-25 -1h-92h-162h-83q-1 -4 -3 -8q-5 -28 -6 -29q-14 -65 -40 -192.5t-40 -192.5 q-1 -1 0.5 -1.5t6 -0.5h7.5h9h31h112h13q8 0 12 2q35 16 49 59q1 5 3 15.5t3 15.5q2 10 6 31t6 31q0 2 13 2h18h45q-8 -43 -8 -45q-8 -38 -24.5 -114t-24.5 -114q-3 -15 -9.5 -44.5t-9.5 -45.5q-1 -3 -2 -9t-2 -9h-6h-22h-47q6 33 8 37q1 4 2 11t2 11q12 59 -12 80 q-12 12 -41 12h-15h-110h-29l-2 -4q-5 -25 -6 -29q-13 -62 -37 -174.5t-33 -158.5q-21 -95 -59 -274.5t-45 -213.5q-15 -71 -42.5 -201.5t-37.5 -177.5q-7 -27 -14 -67h141h192h68q27 0 54.5 16.5t33.5 42.5q0 12 14 66l4 20h50l6 1q6 1 10 1q8 0 8 -4q-6 -28 -18.5 -84.5 t-18.5 -85.5q-2 -7 -5 -23.5t-5 -23.5q0 -2 -14 -2h-17h-73h-150h-362h-90zM379 2128q61 20 377 127q12 4 32.5 11t32.5 11l13 -71q-11 -3 -50 -17q-12 -4 -97.5 -31.5t-131.5 -43.5q-27 -9 -82.5 -29t-83.5 -29q-8 53 -10 72z" />
<glyph unicode="&#xca;" horiz-adv-x="882" d="M-156 0q1 7 4.5 21.5t4.5 21.5q1 4 3 12.5t3 12.5v6q0 2 6 2q44 0 74 33q9 9 12 22q2 9 12 59q15 66 70 326q16 79 50 236.5t50 236.5q8 37 100 471q43 192 66 312q2 8 6 24.5t6 24.5q3 23 -22 43q-17 10 -37 10q-21 0 -21 2q10 39 11 49q1 2 1 8t1 9q0 8 6 8h344h313h54 h4v-2q-1 -4 -3.5 -11.5t-3.5 -11.5q-2 -13 -7 -36.5t-7 -35.5q-4 -18 -12 -54.5t-12 -55.5q0 -6 -2 -10q0 -4 -7 -4h-53h-14v2q2 4 2 10q2 9 6 27.5t6 27.5q5 29 4 35q-6 30 -43 41q-24 4 -37 4q-7 0 -23.5 -1t-23.5 -1h-92h-162h-84q0 -4 -2 -8q-1 -5 -2.5 -12t-2.5 -11.5 t-1 -5.5q-61 -293 -82 -385q0 -2 25 -2h30h113h12q9 0 11 2q39 16 49 59q4 9 8 31q2 10 6 31t6 31q0 2 13 2h18h45q-8 -43 -8 -45q-8 -38 -24.5 -114t-24.5 -114q-3 -15 -9.5 -44.5t-9.5 -45.5q-4 -12 -4 -18h-6h-22h-48q7 33 9 37q0 6 4 22q12 58 -13 80q-14 12 -43 12h-14 h-111h-28v-4q-5 -25 -6 -29q-11 -50 -35 -161.5t-37 -171.5q-45 -221 -102 -488q-79 -368 -82 -379q-5 -29 -15 -67h142h192h68q28 0 56 16.5t34 42.5q0 3 2 14t5 27t5 25l6 20h49q1 0 7 1t10 1q6 -1 6 -4q-6 -29 -17.5 -85.5t-17.5 -84.5q-8 -31 -10 -47q0 -2 -14 -2h-17 h-74h-149h-363h-90zM358 2091q48 44 144.5 132t144.5 132q2 4 6 4h43h84q30 -44 89.5 -132t88.5 -132q1 0 5 -4h-93q-8 0 -12 4q-2 5 -16 23q-56 86 -111 168q-3 4 -11 15t-11 17q-12 -11 -64 -57.5t-78 -71.5q-34 -30 -86 -78q-16 -12 -20 -18q-2 -2 -10 -2h-11h-82z" />
<glyph unicode="&#xcb;" horiz-adv-x="882" d="M-147 0q2 7 5 21.5t5 21.5q4 16 4 25q2 2 2 6q0 2 6 2q44 0 74 33q10 16 12 22q2 9 12 59q11 55 34.5 163.5t35.5 162.5q16 79 50 236.5t50 236.5q18 86 52.5 245t48.5 226q34 152 65 312q8 31 10 49q3 11 -4 23.5t-16 19.5q-20 10 -37 10q-20 0 -20 2q2 8 5 24.5t5 24.5 q1 2 1 8t1 9q0 8 6 8h344h314h53h4l-2 -2q0 -7 -4 -23q-2 -13 -7.5 -36.5t-7.5 -35.5q-4 -18 -12 -54.5t-12 -55.5q0 -6 -2 -10q0 -4 -6 -4h-54h-14v2q0 2 1 5.5t1 4.5q2 9 6 27.5t6 27.5q4 23 2 35q-1 14 -13 25t-28 16q-24 4 -36 4q-7 0 -24 -1t-24 -1h-92h-161h-84 q-2 -4 -2 -8q-1 -5 -2.5 -12t-3 -11.5t-1.5 -5.5q-14 -64 -41.5 -192.5t-40.5 -192.5q0 -2 25 -2h31h112h13q8 0 10 2q39 17 49 59q2 6 4 18t2 13q8 26 15 62q0 2 12 2h18h45q-8 -43 -10 -45q-8 -38 -23.5 -114t-23.5 -114q-7 -35 -21 -90q0 -6 -4 -18h-6h-22h-47q8 33 8 37 q1 4 3 11t3 11q12 59 -12 80q-14 12 -43 12h-15h-110h-29v-4q-5 -25 -6 -29q-11 -50 -35 -161.5t-37 -171.5q-19 -86 -52.5 -249.5t-49.5 -238.5q-5 -23 -35.5 -163.5t-46.5 -215.5q-7 -40 -14 -67h141h192h68q28 0 56 16.5t32 42.5q5 16 14 66l4 20h50l7 1q7 1 11 1 q6 0 6 -4q-6 -28 -18.5 -84.5t-18.5 -85.5q-1 -9 -4 -25t-4 -22q-2 -2 -16 -2h-17h-73h-150h-362h-90zM285 2089q35 169 37 176q2 2 8 2h8h49h107h4q4 0 2 -6q-1 -7 -4 -20.5t-4 -20.5q-5 -22 -13.5 -61t-11.5 -52l-4 -18h-33h-115h-30zM702 2089q36 169 37 176q2 2 9 2h6 h51h106h4q5 0 3 -6q-1 -7 -4.5 -20.5t-4.5 -20.5q-8 -39 -24 -113q0 -2 -2.5 -10t-3.5 -8h-31h-115h-31z" />
<glyph unicode="&#xcc;" horiz-adv-x="405" d="M-160 0q1 7 4 21.5t4 21.5q1 4 3.5 12.5t3.5 12.5q1 6 2.5 7t7.5 1q42 0 72 33q12 18 12 22q3 10 7 29.5t7 29.5q60 285 70 328q19 92 54.5 259.5t45.5 217.5q79 372 100 467q32 159 64 299q4 16 8 56q6 26 -14 43q-15 11 -33 14q-18 0 -18 2q3 22 10 51q0 1 1 5.5t1 6.5 l4 11h201h32q7 0 7 -6q-3 -3 -7 -11q-2 -16 -10 -53q-2 -6 -6 -6h-4q-22 0 -37 -6q-35 -14 -47 -43q-1 -3 -8 -29q0 -2 -1 -7t-1 -7q-3 -15 -10.5 -46.5t-10.5 -47.5q-13 -62 -39.5 -186t-40.5 -187q-45 -210 -102 -488q-6 -27 -94 -444q-9 -40 -26.5 -121t-26.5 -121 q-6 -32 14 -48.5t53 -16.5q4 0 2 -2v-6q-1 -4 -3 -13.5t-3 -13.5l-8 -41h-68h-172zM391 2206q7 14 22 39t19 32q30 -12 145.5 -58.5t178.5 -70.5q24 -11 55 -20q0 -2 -18.5 -34t-22.5 -38q-174 70 -324 127q-42 19 -55 23z" />
<glyph unicode="&#xcd;" horiz-adv-x="405" d="M-160 0q1 7 4 21.5t4 21.5q1 4 3.5 12.5t3.5 12.5q1 6 2.5 7t7.5 1q42 0 72 33q12 18 12 22q3 10 7 29.5t7 29.5q60 285 70 328q19 92 54.5 259.5t45.5 217.5q79 372 100 467q32 159 64 299q4 16 8 56q6 26 -14 43q-15 11 -33 14q-18 0 -18 2q3 22 10 51q0 1 1 5.5t1 6.5 l4 11h201h32q7 0 7 -6q-3 -3 -7 -11q-2 -16 -10 -53q-2 -6 -6 -6h-4q-22 0 -37 -6q-35 -14 -47 -43q-1 -3 -8 -29q0 -2 -1 -7t-1 -7q-3 -15 -10.5 -46.5t-10.5 -47.5q-13 -62 -39.5 -186t-40.5 -187q-45 -210 -102 -488q-6 -27 -94 -444q-9 -40 -26.5 -121t-26.5 -121 q-6 -32 14 -48.5t53 -16.5q4 0 2 -2v-6q-1 -4 -3 -13.5t-3 -13.5l-8 -41h-68h-172zM375 2128q61 20 377 127q11 4 32 11l33 11l12 -71q-9 -2 -49 -17q-12 -4 -97.5 -31.5t-131.5 -43.5q-27 -9 -82.5 -29t-83.5 -29q-8 53 -10 72z" />
<glyph unicode="&#xce;" horiz-adv-x="405" d="M-168 0q1 7 4 21.5t4 21.5q1 4 3 12.5t3 12.5q0 6 1.5 7t7.5 1q43 0 73 33q1 3 6.5 10.5t6.5 11.5q2 10 6 29.5t6 29.5q10 43 70 328q53 240 102 477q16 78 49 233.5t49 233.5q32 140 64 299q8 34 10 56q6 26 -14 43q-20 12 -33 14q-21 0 -21 2q2 8 6.5 25.5t6.5 25.5 q0 8 2 12q0 11 4 11h201h32q7 0 4 -6q0 -3 -4 -11q-2 -9 -5 -26.5t-5 -26.5q-2 -6 -6 -6h-4q-21 0 -39 -6q-34 -15 -45 -43q-1 -3 -8 -29q0 -6 -4 -14q-3 -15 -9.5 -46.5t-9.5 -47.5q-14 -62 -40.5 -186t-39.5 -187q-17 -81 -52 -244t-52 -244q-88 -417 -94 -444 q-20 -98 -52 -242q-6 -32 13.5 -48.5t52.5 -16.5q4 0 4 -2v-6q-1 -4 -3 -13.5t-3 -13.5l-8 -41h-68h-172zM358 2091q48 44 144.5 132t144.5 132q2 4 6 4h43h84q30 -44 89.5 -132t88.5 -132q1 0 5 -4h-93q-8 0 -12 4q-2 5 -16 23q-56 86 -111 168q-3 4 -11 15t-11 17 q-12 -11 -64 -57.5t-78 -71.5q-34 -30 -86 -78q-16 -12 -20 -18q-2 -2 -10 -2h-11h-82z" />
<glyph unicode="&#xcf;" horiz-adv-x="405" d="M-160 0q2 7 5 21.5t5 21.5q5 20 5 25q1 6 2.5 7t7.5 1q41 0 74 33q1 3 6 10.5t6 11.5q2 10 6 29.5t6 29.5q12 55 35 164.5t35 163.5q16 73 49.5 233t52.5 244q16 78 49 233.5t49 233.5q32 140 64 299q8 34 10 56q6 25 -16 43q-15 11 -31 14q-20 0 -20 2q7 29 10 51 q1 1 2 5.5t2 6.5q0 11 4 11h201h33q4 0 4 -6q0 -1 -2 -5t-2 -6q-2 -9 -6.5 -26.5t-6.5 -26.5q0 -6 -4 -6h-4q-21 0 -39 -6q-33 -13 -45 -43q-1 -3 -8 -29q-1 -2 -2 -7t-2 -7q-10 -50 -21 -94q-32 -160 -78 -373q-18 -81 -52.5 -244t-51.5 -244q-16 -74 -47.5 -222 t-46.5 -222q-8 -40 -25.5 -121t-25.5 -121q-7 -32 12.5 -48.5t52.5 -16.5q4 0 4 -2q0 -4 -2 -6q0 -4 -2 -13.5t-2 -13.5l-10 -41h-68h-172zM285 2089q35 169 37 176q2 2 8 2h8h49h107h4q4 0 2 -6q-1 -7 -4 -20.5t-4 -20.5q-5 -22 -13.5 -61t-11.5 -52l-4 -18h-33h-115h-30z M702 2089q36 169 37 176q2 2 9 2h6h51h106h4q5 0 3 -6q-1 -7 -4.5 -20.5t-4.5 -20.5q-8 -39 -24 -113q0 -2 -2.5 -10t-3.5 -8h-31h-115h-31z" />
<glyph unicode="&#xd0;" horiz-adv-x="888" d="M-115 0q9 37 9 41q1 4 3 12.5t3 12.5v6q2 4 8 4q45 0 72 30q12 14 20 46q0 2 1 7t1 7q35 171 64 295q17 78 49 232.5t49 232.5q18 80 51 239.5t51 239.5q37 182 72 340q2 13 7 36t7 36q1 6 -4 26q-12 28 -47 31h-14q-13 0 -13 2q2 12 2 14q4 18 13 54q0 6 2 6h16h62h28 h187h61q102 0 168 -39q78 -46 112.5 -133t12.5 -187q-38 -178 -47 -223q-79 -372 -100 -467q-13 -62 -43.5 -205.5t-47.5 -220.5q-5 -31 -22 -104q-22 -115 -96 -203q-60 -73 -148 -120.5t-172 -47.5h-362h-15zM59 84q-4 -8 2 -8h99h51h27q91 -3 170 37q97 51 155 149 q29 50 47 131q13 59 37.5 174t36.5 174q18 81 51.5 243t50.5 243q12 56 35.5 167.5t36.5 168.5q20 89 2 155q-20 73 -82 114.5t-145 41.5h-191q-4 0 -4 -6q-5 -25 -6 -29q-10 -47 -30.5 -142.5t-30.5 -142.5q-17 -76 -49 -227t-48 -227q-17 -81 -51.5 -244t-52.5 -244 q-68 -323 -82 -387q-18 -89 -22 -112q-7 -17 -7 -29zM242 813l16 76h49h230h100h33h8h2v-4q-2 -2 -2 -8q-1 -5 -3 -15.5t-3 -15.5l-8 -33h-50h-372z" />
<glyph unicode="&#xd1;" horiz-adv-x="1003" d="M-141 0q2 7 5 21.5t5 21.5q1 4 2 12.5t2 12.5q2 2 2 6q0 2 6 2q40 0 68 28q11 10 12 15q2 9 12 59q13 62 37.5 178t30.5 146q17 79 51 237.5t51 237.5q55 263 101 471q10 48 32.5 154.5t34.5 162.5q1 13 11 56q2 12 -11 30q-19 25 -63 25h-4q-2 0 0 6q0 7 4 27q1 4 3 13 t3 13q0 1 2 8.5t2 8.5h10h25h57q5 0 14.5 -1t14.5 -1h22q2 -9 2 -11q1 -14 4.5 -44t4.5 -46q3 -27 8 -75.5t9 -88t7 -75.5q6 -63 47 -428q8 -77 24.5 -231.5t24.5 -231.5q6 -64 19 -182t18 -170q2 -17 5.5 -51t5.5 -52q7 35 21.5 103.5t21.5 103.5q16 75 46.5 215.5 t35.5 163.5q53 246 102 489q61 288 82 379q4 28 16 76q0 8 2 14q4 25 -2 37q-17 31 -57 31h-4q-2 0 0 6q0 7 4 27q1 4 3 13t3 13q0 1 1 5.5t1 5.5l2 4h6h13h108h100q2 0 5.5 1t5.5 1q2 -2 0 -4q-2 -18 -11 -54q-1 -3 -2 -9t-2 -9q0 -2 -20 -2q-41 -4 -66 -35q-8 -10 -12 -29 q0 -3 -1 -8t-1 -8q-6 -21 -14 -65q-40 -181 -72 -338q-19 -84 -52.5 -244t-49.5 -234q-33 -156 -99 -464q-21 -92 -63 -297q-1 -5 -3 -15.5t-3 -15.5q-2 -15 10 -27q16 -13 37 -16l24 -2q-2 -8 -5 -24.5t-5 -24.5q0 -1 -1 -6t-1 -9q-4 -12 -6 -12h-25h-219h-31q-2 0 -2 4 q0 2 1 5.5t1 4.5q2 9 6.5 28t6.5 28q0 6 6 6q11 0 35 4q40 13 55 53q0 2 2 4q-4 8 -4 23q-2 19 -6 54t-6 54q-7 64 -20.5 192.5t-20.5 192.5q-8 78 -24.5 233.5t-24.5 233.5q-7 64 -20.5 189.5t-20.5 189.5q-2 16 -6.5 57t-6.5 64q-24 -105 -45 -207q-13 -64 -41 -192.5 t-41 -192.5q-17 -81 -52 -243.5t-52 -243.5q-13 -60 -38 -182.5t-38 -182.5q-7 -24 -14 -63q-1 -7 9 -16t19 -13q28 -8 41 -8h7q4 0 4 -4q-9 -36 -13 -54v-12q0 -6 -6 -6h-235zM381 2150q95 68 172 88q37 11 61 11q15 0 35 -4q37 -12 72 -50q12 -12 18 -20q24 -28 49 -47 q15 -12 39 -12q21 0 52 14q57 23 102 82l18 -6q12 -4 15 -4l33 -17q-38 -53 -97 -96q-70 -49 -139 -49q-30 0 -56.5 13.5t-42 28.5t-40.5 44l-6 4q-1 1 -5 5.5t-5.5 6t-5 5.5t-6 6t-6.5 5.5t-7 5t-7.5 3.5t-8.5 3t-9 2t-10 1q-4 0 -8 -2q-42 -4 -105 -37q-36 -19 -59 -39 l-2 2q0 1 -1 2t-1 2z" />
<glyph unicode="&#xd2;" d="M-90 330q11 53 32.5 152.5t30.5 144.5q14 66 49 229.5t54 251.5q17 80 48 225.5t40 188.5q3 19 10 53.5t10 48.5q22 107 97 188q63 71 147.5 108t167.5 30q81 -7 140.5 -57.5t78.5 -125.5q16 -63 -6 -176q-3 -16 -11.5 -47.5t-11.5 -46.5q-52 -251 -90 -428 q-18 -79 -51 -237.5t-51 -237.5q-31 -155 -57 -272q-22 -103 -95 -185q-57 -64 -133.5 -100.5t-154.5 -36.5q-83 0 -148.5 43.5t-91.5 116.5q-24 71 -4 170zM-23 283q-7 -88 49.5 -147.5t145.5 -59.5q17 0 45 4q88 17 156.5 83.5t87.5 151.5q2 13 7 37t7 37q21 92 82 385 l105 486q38 188 71 339q1 6 3 17.5t3 17.5q2 6 4 19t2 14q7 89 -48 149t-144 60q-97 0 -183 -71.5t-106 -168.5q-2 -10 -7 -30.5t-7 -30.5q-43 -211 -78 -371q-6 -25 -104 -487q-74 -344 -76 -355q-5 -28 -8 -38q-1 -7 -3.5 -20.5t-3.5 -20.5zM393 2206q7 14 22 39t19 32 q30 -12 145.5 -58.5t178.5 -70.5q24 -11 55 -20q0 -2 -18.5 -34t-22.5 -38q-187 76 -323 127q-39 17 -56 23z" />
<glyph unicode="&#xd3;" d="M-90 330q11 53 32.5 152.5t30.5 144.5q14 66 49 229.5t54 251.5q17 80 48 225.5t40 188.5q3 19 10 53.5t10 48.5q22 107 97 188q63 71 147.5 108t167.5 30q81 -7 140.5 -57.5t78.5 -125.5q16 -63 -6 -176q-3 -16 -11.5 -47.5t-11.5 -46.5q-52 -251 -90 -428 q-18 -79 -51 -237.5t-51 -237.5q-31 -155 -57 -272q-22 -103 -95 -185q-57 -64 -133.5 -100.5t-154.5 -36.5q-83 0 -148.5 43.5t-91.5 116.5q-24 71 -4 170zM-23 283q-7 -88 49.5 -147.5t145.5 -59.5q17 0 45 4q88 17 156.5 83.5t87.5 151.5q2 13 7 37t7 37q21 92 82 385 l105 486q38 188 71 339q1 6 3 17.5t3 17.5q2 6 4 19t2 14q7 89 -48 149t-144 60q-97 0 -183 -71.5t-106 -168.5q-2 -10 -7 -30.5t-7 -30.5q-43 -211 -78 -371q-6 -25 -104 -487q-74 -344 -76 -355q-5 -28 -8 -38q-1 -7 -3.5 -20.5t-3.5 -20.5zM375 2128q61 20 377 127 q11 4 32 11l33 11l12 -71q-9 -2 -49 -17q-12 -4 -97.5 -31.5t-131.5 -43.5q-27 -9 -82.5 -29t-83.5 -29q-8 53 -10 72z" />
<glyph unicode="&#xd4;" d="M-98 330q39 193 63 297q30 147 103 481q9 45 39 190t47 224q17 74 22 102q22 109 96 188q63 71 148 108t168 30q81 -7 140.5 -57.5t78.5 -125.5q16 -63 -6 -176q-3 -16 -11.5 -47.5t-11.5 -46.5q-41 -188 -90 -428q-17 -79 -51 -237.5t-51 -237.5q-9 -45 -29 -136 t-29 -136q-22 -104 -94 -185q-57 -64 -134 -100.5t-155 -36.5q-83 0 -148 43.5t-91 116.5q-24 71 -4 170zM-31 283q-7 -89 49 -148t144 -59q19 0 47 4q88 17 156.5 83.5t85.5 151.5q3 13 8 37.5t8 36.5q13 64 40.5 192.5t41.5 192.5q18 81 51.5 243t50.5 243q57 260 74 339 q1 6 3 17.5t3 17.5q1 5 3 16.5t3 16.5q7 89 -48.5 149t-145.5 60q-96 0 -181.5 -71.5t-107.5 -168.5q-2 -10 -6 -30.5t-6 -30.5q-35 -159 -78 -371q-88 -405 -105 -487q-6 -30 -32.5 -158t-42.5 -197q-1 -6 -4.5 -19t-4.5 -19q-1 -7 -3 -20.5t-3 -20.5zM358 2091 q48 44 144.5 132t144.5 132q2 4 6 4h43h84q30 -44 89.5 -132t88.5 -132q1 0 5 -4h-93q-8 0 -12 4q-2 5 -16 23q-56 86 -111 168q-3 4 -11 15t-11 17q-12 -11 -64 -57.5t-78 -71.5q-34 -30 -86 -78q-16 -12 -20 -18q-2 -2 -10 -2h-11h-82z" />
<glyph unicode="&#xd5;" d="M-86 330q11 57 33 161t28 136q84 387 103 481q7 32 88 414q3 15 10.5 49.5t11.5 52.5q22 106 95 188q63 71 148.5 108t168.5 30q81 -7 140.5 -57.5t78.5 -125.5q16 -72 -8 -176q-3 -16 -10 -47.5t-10 -46.5q-15 -70 -93 -428q-16 -79 -49.5 -237.5t-50.5 -237.5 q-9 -45 -28.5 -136t-28.5 -136q-21 -98 -95 -185q-57 -64 -134.5 -100.5t-155.5 -36.5q-83 0 -147.5 43t-90.5 117q-26 77 -4 170zM-18 283q-9 -88 47 -147.5t145 -59.5q15 0 47 4q87 17 155 83.5t87 151.5q3 13 8 37.5t8 36.5q61 293 82 385q33 162 103 486q31 144 71 339 q4 13 8 35q5 25 5 33q7 89 -48.5 149t-144.5 60q-96 0 -181.5 -71.5t-107.5 -168.5q-2 -10 -6 -30.5t-6 -30.5q-13 -61 -39.5 -185t-40.5 -186q-19 -87 -52.5 -250t-49.5 -237q-5 -23 -33 -154t-43 -201q-1 -6 -4 -19t-4 -19q-6 -21 -6 -41zM381 2150q95 68 172 88 q37 11 61 11q15 0 35 -4q37 -12 72 -50q12 -12 18 -20q24 -28 49 -47q15 -12 39 -12q21 0 52 14q57 23 102 82l18 -6q12 -4 15 -4l33 -17q-38 -53 -97 -96q-70 -49 -139 -49q-30 0 -56.5 13.5t-42 28.5t-40.5 44l-6 4q-1 1 -5 5.5t-5.5 6t-5 5.5t-6 6t-6.5 5.5t-7 5 t-7.5 3.5t-8.5 3t-9 2t-10 1q-4 0 -8 -2q-42 -4 -105 -37q-36 -19 -59 -39l-2 2q0 1 -1 2t-1 2z" />
<glyph unicode="&#xd6;" d="M-88 330q11 57 33 161t28 136q84 387 103 481q7 32 88 414q17 74 22 102q22 106 95 188q65 71 149.5 108t167.5 30q81 -7 140.5 -57.5t78.5 -125.5q15 -69 -6 -176q-19 -75 -23 -94q-17 -79 -48.5 -225.5t-43.5 -202.5q-17 -79 -50.5 -237.5t-49.5 -237.5 q-9 -45 -28.5 -136t-28.5 -136q-21 -98 -95 -185q-57 -64 -134.5 -100.5t-155.5 -36.5q-83 0 -147.5 43t-90.5 117q-26 77 -4 170zM-20 283q-9 -88 47 -147.5t145 -59.5q15 0 47 4q87 17 155 83.5t87 151.5q3 13 8 37.5t8 36.5q61 293 82 385q33 162 103 486q31 144 71 339 q4 13 8 35q4 20 4 33q7 89 -48 149t-144 60q-96 0 -181.5 -71.5t-107.5 -168.5q-2 -10 -6 -30.5t-6 -30.5q-14 -61 -40 -185t-40 -186q-41 -199 -102 -487q-5 -23 -33 -154t-43 -201q-1 -6 -4 -19t-4 -19q-6 -21 -6 -41zM285 2089q35 169 37 176q2 2 8 2h8h49h107h4 q4 0 2 -6q-1 -7 -4 -20.5t-4 -20.5q-5 -22 -13.5 -61t-11.5 -52l-4 -18h-33h-115h-30zM702 2089q36 169 37 176q2 2 9 2h6h51h106h4q5 0 3 -6q-1 -7 -4.5 -20.5t-4.5 -20.5q-8 -39 -24 -113q0 -2 -2.5 -10t-3.5 -8h-31h-115h-31z" />
<glyph unicode="&#xd7;" horiz-adv-x="636" d="M43 668q22 20 61 51q75 61 160 133q-92 117 -98 125q-7 9 -21.5 27.5t-21.5 27.5v2q0 2 4 5.5t9 7.5l5 4q7 6 21.5 18t21.5 18h2q16 -21 50.5 -64t50.5 -65q7 -9 21.5 -26.5t21.5 -26.5q0 -1 10 7.5t20.5 17.5t12.5 10q89 74 180 147l41 -53q-21 -15 -62 -51 q-8 -6 -68 -56t-93 -75q18 -21 52.5 -65t51.5 -66q6 -8 19.5 -25.5t19.5 -25.5q1 -1 -13.5 -14t-29.5 -26t-20 -16q-23 31 -72 92.5t-72 92.5q-22 -18 -100.5 -84t-122.5 -101z" />
<glyph unicode="&#xd8;" d="M-55 330q11 57 33 161t28 136q84 387 103 481q7 32 88 414q17 74 22 102q22 109 96 188q63 71 148 108t168 30q81 -7 140.5 -57.5t78.5 -125.5q15 -69 -6 -176q-19 -75 -23 -94q-17 -79 -48.5 -225.5t-43.5 -202.5q-16 -79 -49.5 -237.5t-50.5 -237.5q-9 -45 -29 -136 t-29 -136q-21 -100 -94 -185q-57 -64 -135 -100.5t-156 -36.5q-83 0 -147 43t-90 117q-26 77 -4 170zM-45 0q2 5 76 137q36 68 103 193.5t81 152.5q15 29 244 453q104 196 250 463q33 62 99 185t99 185q29 54 97 183q3 6 8 6h75q-25 -47 -75 -137q-38 -73 -187 -346 q-41 -76 -120.5 -226.5t-120.5 -226.5q-104 -196 -250 -463q-33 -61 -99.5 -185t-99.5 -186q-13 -24 -96 -182q-3 -6 -8 -6h-76zM12 283q-7 -89 49 -148t144 -59q15 0 47 4q87 17 155 83.5t87 151.5q3 13 8 37.5t8 36.5q61 293 82 385q18 81 51.5 243t50.5 243 q47 217 72 339q4 13 8 35q4 20 4 33q7 89 -48 149t-144 60q-96 0 -181.5 -71.5t-107.5 -168.5q-2 -10 -6 -30.5t-6 -30.5q-14 -61 -40 -185t-40 -186q-20 -96 -103 -487q-25 -117 -75 -355q-1 -6 -4.5 -19t-4.5 -19q-6 -21 -6 -41z" />
<glyph unicode="&#xd9;" horiz-adv-x="956" d="M-12 313q3 15 6 27q14 67 42.5 203.5t43.5 204.5q12 58 36.5 171.5t37.5 170.5q9 44 27.5 137.5t29.5 142.5q9 44 39 187.5t47 220.5q4 12 8 32q6 27 -12 45q-10 14 -29 17l-24 4q0 6 7.5 40t8.5 34h78h115h36h7q2 0 2 -6q-4 -18 -13 -54q-2 -6 -2 -14q-24 -2 -26 -2 q-41 -8 -60 -35q-7 -8 -16 -41v-8q-1 -3 -2.5 -8.5t-2.5 -9.5t-1 -5q-14 -65 -17 -81q-25 -110 -51 -238q-8 -41 -25.5 -123t-25.5 -123q-5 -23 -35.5 -163.5t-46.5 -215.5q-16 -72 -46.5 -218t-45.5 -218q-15 -70 -17 -88q-15 -102 52 -167.5t170 -53.5q91 12 165.5 80 t94.5 157q6 37 22 111q16 77 49 231.5t50 231.5q40 185 47 221q69 327 88 410q7 35 21.5 104.5t21.5 104.5q2 9 6 27.5t6 27.5q1 4 2 10.5t2 9.5q4 15 2 21q-7 34 -35 43q-12 4 -32 4q-1 0 -1 3t1 6.5t2 4.5q2 22 10 56q2 6 4 6h6h207h25q-7 -33 -9 -35l-8 -41 q-42 0 -69 -19q-23 -16 -31 -61q-6 -24 -12 -51q-14 -64 -29.5 -137.5t-34.5 -164t-29 -139.5q-8 -34 -22 -98.5t-19 -89.5q-50 -244 -96 -457q-11 -50 -35 -161.5t-37 -171.5q-22 -112 -102 -195q-59 -60 -132 -93.5t-146 -33.5q-84 0 -148 43t-92 117q-24 70 -8 153z M410 2206q7 14 22 39t19 32q34 -13 147 -59t176 -70q24 -11 55 -20q0 -2 -18.5 -34t-22.5 -38q-187 76 -323 127q-42 19 -55 23z" />
<glyph unicode="&#xda;" horiz-adv-x="956" d="M-12 313q3 15 6 27q14 67 42.5 203.5t43.5 204.5q12 58 36.5 171.5t37.5 170.5q9 44 27.5 137.5t29.5 142.5q9 44 39 187.5t47 220.5q4 12 8 32q6 27 -12 45q-10 14 -29 17l-24 4q0 6 7.5 40t8.5 34h78h115h36h7q2 0 2 -6q-4 -18 -13 -54q-2 -6 -2 -14q-24 -2 -26 -2 q-41 -8 -60 -35q-7 -8 -16 -41v-8q-1 -3 -2.5 -8.5t-2.5 -9.5t-1 -5q-14 -65 -17 -81q-25 -110 -51 -238q-8 -41 -25.5 -123t-25.5 -123q-5 -23 -35.5 -163.5t-46.5 -215.5q-16 -72 -46.5 -218t-45.5 -218q-15 -70 -17 -88q-15 -102 52 -167.5t170 -53.5q91 12 165.5 80 t94.5 157q6 37 22 111q16 77 49 231.5t50 231.5q40 185 47 221q69 327 88 410q7 35 21.5 104.5t21.5 104.5q2 9 6 27.5t6 27.5q1 4 2 10.5t2 9.5q4 15 2 21q-7 34 -35 43q-12 4 -32 4q-1 0 -1 3t1 6.5t2 4.5q2 22 10 56q2 6 4 6h6h207h25q-7 -33 -9 -35l-8 -41 q-42 0 -69 -19q-23 -16 -31 -61q-6 -24 -12 -51q-14 -64 -29.5 -137.5t-34.5 -164t-29 -139.5q-8 -34 -22 -98.5t-19 -89.5q-50 -244 -96 -457q-11 -50 -35 -161.5t-37 -171.5q-22 -112 -102 -195q-59 -60 -132 -93.5t-146 -33.5q-84 0 -148 43t-92 117q-24 70 -8 153z M518 2128q61 20 377 127q12 4 33.5 11t32.5 11l12 -71q-9 -2 -49 -17q-18 -6 -101 -32.5t-129 -42.5q-27 -9 -82.5 -29t-83.5 -29q-8 53 -10 72z" />
<glyph unicode="&#xdb;" horiz-adv-x="956" d="M-20 313q3 15 6 27q14 67 42.5 203.5t43.5 204.5q12 57 36 170.5t37 171.5q21 111 58 280q9 44 39 187.5t47 220.5q2 12 6 32q6 29 -10 45q-10 14 -29 17l-27 4l19 74h78h114h37h6q2 0 0 -6q-7 -33 -10 -54q-1 -2 -2 -7t-2 -7q-23 -2 -25 -2q-39 -8 -61 -35 q-4 -6 -14 -41q0 -4 -2 -8q-5 -20 -5 -23q-14 -68 -16 -81q-25 -110 -51 -238q-9 -41 -26.5 -123t-26.5 -123q-15 -71 -42.5 -201.5t-37.5 -177.5q-16 -72 -46.5 -218t-45.5 -218q-15 -70 -17 -88q-17 -102 50 -167.5t171 -53.5q91 12 165 80t93 157q4 18 12.5 55t12.5 56 q17 77 49.5 231.5t48.5 231.5q12 64 47 221q14 68 42.5 204.5t43.5 205.5q34 147 46 209q2 9 6 27.5t6 27.5q1 4 2 10.5t2 9.5q2 8 2 21q-7 34 -37 43q-10 4 -31 4v14q2 9 6.5 28t6.5 28q2 6 4 6h6h207h24q-8 -33 -8 -35l-8 -41q-43 0 -70 -19q-22 -15 -30 -61 q-1 -3 -6 -21.5t-7 -29.5q-17 -80 -48 -230t-44 -211q-8 -34 -21.5 -98.5t-19.5 -89.5q-46 -213 -96 -457q-47 -214 -72 -333q-22 -112 -102 -195q-59 -60 -132.5 -93.5t-146.5 -33.5q-84 0 -147.5 43t-91.5 117q-24 70 -8 153zM358 2091q48 44 144.5 132t144.5 132q2 4 6 4 h43h84q30 -44 89.5 -132t88.5 -132q1 0 5 -4h-93q-8 0 -12 4q-2 5 -16 23q-56 86 -111 168q-3 4 -11 15t-11 17q-12 -11 -64 -57.5t-78 -71.5q-34 -30 -86 -78q-16 -12 -20 -18q-2 -2 -10 -2h-11h-82z" />
<glyph unicode="&#xdc;" horiz-adv-x="956" d="M-10 313q3 15 6 27q15 67 43 203.5t43 204.5q45 207 72 342q7 35 27.5 131.5t31.5 148.5q9 44 39 187.5t47 220.5q2 12 6 32q6 26 -10 45q-10 13 -29 17l-26 4q0 1 4.5 21.5t8.5 36.5t5 16h78h115h36h7q2 0 0 -6q-10 -44 -11 -54q-4 -12 -4 -14q-22 -2 -24 -2 q-43 -7 -62 -35q-10 -16 -14 -41q0 -4 -2 -8q-4 -16 -4 -23q-3 -16 -10 -43t-9 -38q-9 -47 -27 -133.5t-22 -104.5q-9 -41 -26.5 -123t-26.5 -123q-15 -71 -42.5 -201.5t-37.5 -177.5q-16 -72 -46 -218t-46 -218q-1 -6 -9 -38.5t-10 -49.5q-15 -102 52.5 -167.5t169.5 -53.5 q92 12 166.5 80t93.5 157l24 111q17 77 50 231.5t49 231.5q12 64 47 221q14 68 42.5 204.5t43.5 205.5q7 35 22.5 104.5t22.5 104.5q8 35 10 55q2 8 6 20q0 4 1 11t1 10q-7 34 -37 43q-10 4 -30 4v14q2 9 6 28t6 28q0 6 2 6h6h207h25q-7 -33 -7 -35l-8 -41q-45 0 -69 -19 q-11 -7 -18 -19t-8.5 -18t-6.5 -24q-2 -14 -10 -51q-80 -374 -95 -441q-5 -27 -19 -90.5t-20 -97.5q-16 -76 -48.5 -228.5t-49.5 -228.5q-13 -62 -37 -174.5t-33 -158.5q-26 -116 -102 -195q-58 -60 -132 -93.5t-148 -33.5q-84 0 -148 43t-90 117q-27 70 -8 153zM373 2089 q36 169 37 176q2 2 8 2h8h49h107h4q4 0 2 -6q-1 -7 -4 -20.5t-4 -20.5q-5 -22 -13.5 -61t-11.5 -52l-4 -18h-33h-115h-30zM791 2089q6 29 36 176q2 2 9 2h6h51h106h5q4 0 2 -6q-1 -7 -4.5 -20.5t-4.5 -20.5q-8 -39 -24 -113q0 -2 -2.5 -10t-3.5 -8h-31h-115h-30z" />
<glyph unicode="&#xdd;" horiz-adv-x="921" d="M102 0q1 7 4.5 21.5t4.5 21.5q1 4 3 12.5t3 12.5q1 6 2.5 7t7.5 1q38 0 66 28q13 14 16 21q2 13 7 37t7 37q15 68 43 199t41 192q19 88 54 251.5t49 229.5q58 273 61 287q3 12 -14 51q-11 31 -34.5 92.5t-35.5 91.5q-17 44 -70 197q-4 9 -11 27.5t-11 27.5q-9 31 -53 31 q-1 1 -1 6t1.5 13.5t3.5 17.5l8 37h74h118h39h7q2 0 2 -6q-2 -9 -6.5 -28t-6.5 -28q0 -1 -1 -4.5t-1 -5.5v-2q-4 -2 -30 -2q-24 -3 -43 -16q-9 -7 -17 -31q0 -7 8 -19q36 -98 54 -149q58 -157 77 -207q41 54 254 322q27 32 31 38q7 14 8 17q4 28 -18 39q-20 8 -35 8 q-1 0 -5 -1t-5 -1v4q8 35 10 53q1 2 2 6.5t2 6.5q0 6 4 6h86h115h31q6 0 2 -13q0 -1 -1 -4t-1 -4q-9 -37 -11 -51q-2 -4 -12 -4h-8q-24 -4 -39 -16q-11 -9 -23 -29q-228 -286 -297 -373q-9 -12 -27.5 -34t-27.5 -33q0 -1 -7 -9t-7 -12q-7 -28 -14 -70q-17 -74 -82 -385 q-17 -81 -52 -241.5t-53 -241.5q-42 -209 -63 -303q0 -1 -1 -4t-1 -4v-10q13 -29 63 -33h8q4 0 2 -2q0 -9 -4 -21q-2 -8 -5 -25t-5 -26q0 -2 -6 -2h-8h-103h-123zM375 2128q61 20 377 127q11 4 32 11l33 11l12 -71q-9 -2 -49 -17q-12 -4 -97.5 -31.5t-131.5 -43.5 q-27 -9 -82.5 -29t-83.5 -29q-8 53 -10 72z" />
<glyph unicode="&#xdf;" d="M-147 -199q12 47 26 125q2 7 5 21.5t5 21.5q4 20 12.5 61t12.5 62q12 53 88 406q99 472 104 493q59 271 91 430q9 40 25.5 115.5t21.5 97.5q25 127 129 217q55 49 123 76t135 27q36 0 69 -8q75 -20 125 -80.5t56 -139.5q3 -25 -11 -110q-8 -37 -24 -115q-4 -12 -4 -18 q-8 -31 -19 -47q-3 -5 -43 -56q-68 -82 -135 -168h88q12 0 19 -22q1 -1 7 -8t11 -11q0 -1 1 -3.5t1 -4.5q-12 -53 -24 -108q-52 -250 -95 -447q-4 -19 -12 -59.5t-12 -59.5h-74l4 27q15 71 46 214t46 214q6 29 18.5 86.5t18.5 85.5q0 3 1 9t1 8q2 4 0 4h-4h-104q-7 0 -9.5 2 t-5.5 10q-5 19 -16 49v6q0 4 4 6l7 11q8 11 13 16q141 175 156 195q13 13 25 28q6 3 6 8q6 25 20 97q2 8 9.5 38.5t9.5 47.5q18 100 -49 170q-57 57 -140 57q-56 0 -113.5 -25.5t-101.5 -70.5q-62 -65 -82 -160q-8 -42 -53 -252q-18 -87 -52 -246t-42 -198l-105 -492 q-15 -69 -42 -201t-41 -194q-1 -6 -10.5 -49t-14.5 -66l-6 -30q-2 -12 4 -31q3 -14 16 -27q4 0 4 -8l-2 -2q-29 -5 -37 -8q-14 -3 -40 -8.5t-41 -8.5zM160 211q6 30 19.5 92t19.5 92q1 4 4.5 6.5t6.5 4t9 3.5t8 3q9 4 27.5 11.5t26.5 10.5q-6 -30 -19.5 -92.5t-19.5 -93.5 q-14 -66 -9 -86q7 -39 39 -62t74 -20q43 5 81.5 32.5t57.5 67.5q10 24 13 41q5 25 6 29q8 37 23.5 111.5t23.5 111.5q1 7 4 19l4 16v8q2 2 4 2h53h11q5 0 7 -0.5t1 -3.5q-10 -53 -41 -192q-3 -15 -9.5 -43t-9.5 -43q-10 -48 -16 -64q-29 -72 -97.5 -120t-142.5 -48 q-85 0 -131.5 61t-27.5 146z" />
<glyph unicode="&#xe0;" horiz-adv-x="960" d="M-160 4q11 44 13 53q0 3 1 8.5t1 8.5q4 4 26 4q57 14 64 37q0 6 4 18q3 8 6 18t6.5 22.5t5.5 19.5q18 59 50.5 169l45.5 154q81 260 144 473q28 89 141 469q16 52 47.5 157t48.5 157q7 27 15 49q6 21 -8.5 35.5t-36.5 17.5q-10 2 -31 2q-2 0 -2 4t2 6q2 22 10 56 q1 1 1.5 3t1 3.5t1.5 1.5h23h33h82h161h54h24h10h2q2 0 2 -4q0 -2 -2 -4q0 -3 -1 -11t-1 -12q-1 -10 -4 -29.5t-4 -29.5l-6 -60q-25 -225 -29 -270q-30 -252 -51 -453q-8 -68 -26.5 -231t-28.5 -252q-6 -62 -41 -369q-2 -33 -10 -94v-18q-1 -4 12 -23q10 -10 33 -14h24 l-16 -76h-66h-174q1 7 4.5 21.5t4.5 21.5q1 4 3 12.5t3 12.5q2 8 10 8q37 0 63 26q19 19 21 27q1 12 3 34.5t3 33.5q7 63 22.5 190t22.5 191q7 65 25 228.5t28 252.5q5 50 16.5 151.5t16.5 151.5l4 14h-67h-136h-43q-14 -41 -36 -115.5t-31 -103.5q-104 -344 -139 -465 q-67 -214 -132 -432q-7 -20 -18 -59.5t-16 -55.5q-4 -12 -6 -16q-3 -17 10 -31q14 -22 55 -22q8 0 6 -6q-3 -15 -6 -27q-1 -5 -3 -14.5t-3 -14.5q0 -6 -2 -10v-4h-6h-15h-47h-118h-41h-7q-6 0 -6 4zM424 1452h231q21 204 41 356q-3 6 0 15q-1 25 -21.5 39t-49.5 14 q-67 0 -90 -51q-2 -7 -6.5 -21.5t-6.5 -21.5q-5 -15 -14 -45.5t-14 -46.5q-11 -35 -23 -75.5t-25.5 -88t-21.5 -74.5zM436 2206q7 14 22 39t19 32q30 -12 145.5 -58.5t178.5 -70.5q24 -11 55 -20q0 -2 -18.5 -34t-22.5 -38q-187 76 -323 127q-39 17 -56 23z" />
<glyph unicode="&#xe1;" horiz-adv-x="960" d="M-160 4q11 44 13 53q0 3 1 8.5t1 8.5q4 4 26 4q57 14 64 37q0 6 4 18q3 8 6 18t6.5 22.5t5.5 19.5q18 59 50.5 169l45.5 154q81 260 144 473q28 89 141 469q16 52 47.5 157t48.5 157q7 27 15 49q6 21 -8.5 35.5t-36.5 17.5q-10 2 -31 2q-2 0 -2 4t2 6q2 22 10 56 q1 1 1.5 3t1 3.5t1.5 1.5h23h33h82h161h54h24h10h2q2 0 2 -4q0 -2 -2 -4q0 -3 -1 -11t-1 -12q-1 -10 -4 -29.5t-4 -29.5l-6 -60q-25 -225 -29 -270q-30 -252 -51 -453q-8 -68 -26.5 -231t-28.5 -252q-6 -62 -41 -369q-2 -33 -10 -94v-18q-1 -4 12 -23q10 -10 33 -14h24 l-16 -76h-66h-174q1 7 4.5 21.5t4.5 21.5q1 4 3 12.5t3 12.5q2 8 10 8q37 0 63 26q19 19 21 27q1 12 3 34.5t3 33.5q7 63 22.5 190t22.5 191q7 65 25 228.5t28 252.5q5 50 16.5 151.5t16.5 151.5l4 14h-67h-136h-43q-14 -41 -36 -115.5t-31 -103.5q-104 -344 -139 -465 q-67 -214 -132 -432q-7 -20 -18 -59.5t-16 -55.5q-4 -12 -6 -16q-3 -17 10 -31q14 -22 55 -22q8 0 6 -6q-3 -15 -6 -27q-1 -5 -3 -14.5t-3 -14.5q0 -6 -2 -10v-4h-6h-15h-47h-118h-41h-7q-6 0 -6 4zM397 2128q61 20 377 127q11 4 33 11t33 11l12 -71q-9 -2 -49 -17 q-18 -6 -101 -32.5t-129 -42.5q-27 -9 -82 -29t-83 -29q-10 66 -11 72zM424 1452h231q21 204 41 356q-3 6 0 15q-1 25 -21.5 39t-49.5 14q-67 0 -90 -51q-2 -7 -6.5 -21.5t-6.5 -21.5q-5 -15 -14 -45.5t-14 -46.5q-11 -35 -23 -75.5t-25.5 -88t-21.5 -74.5z" />
<glyph unicode="&#xe2;" horiz-adv-x="960" d="M-168 4q2 8 12 53q0 3 1 8.5t1 8.5q0 4 27 4q54 13 61 37q5 15 5 18l20 60q18 59 50.5 169l45.5 154q81 260 144 473q7 23 59.5 199t81.5 270q16 52 46.5 157t47.5 157q3 8 8.5 24.5t8.5 24.5q6 21 -8.5 35.5t-36.5 17.5q-12 2 -33 2q-4 0 0 4v6q2 9 6 28t6 28q0 8 4 8 h23h32h82h162h53h25h10h2q4 0 0 -4v-4q-2 -6 -2 -23q-1 -10 -4 -29.5t-4 -29.5q-3 -15 -8 -60q-4 -45 -29 -270q-8 -76 -25.5 -226.5t-25.5 -226.5q-6 -60 -53 -483q-35 -307 -41 -369q-10 -77 -11 -94q0 -12 -2 -18q-1 -4 2 -8t7.5 -8.5t5.5 -6.5q10 -10 30 -14h25l-14 -76 h-66h-174q1 7 4 21.5t4 21.5q1 4 3 12.5t3 12.5q0 6 1.5 7t7.5 1q36 0 65 26q19 19 21 27q0 10 1 21.5t2.5 25t2.5 21.5q21 191 45 381q8 84 25.5 244t25.5 237q28 235 35 303l2 14h-68h-135h-43q-39 -126 -65 -219q-21 -69 -45 -147.5t-52.5 -171.5t-44.5 -146 q-64 -214 -129 -432q-7 -21 -19.5 -62.5t-15.5 -52.5q-1 -2 -3.5 -8t-2.5 -8q-4 -20 11 -31q14 -22 53 -22q8 0 8 -6q-3 -15 -6 -27q-1 -5 -3 -14.5t-3 -14.5q0 -1 -1 -4.5t-1 -5.5v-4h-6h-15h-47h-119h-41h-6q-6 0 -6 4zM358 2091q48 44 144.5 132t144.5 132q2 4 6 4h43h84 q30 -44 89.5 -132t88.5 -132q1 0 5 -4h-93q-8 0 -12 4q-2 5 -16 23q-56 86 -111 168q-3 4 -11 15t-11 17q-12 -11 -64 -57.5t-78 -71.5q-34 -30 -86 -78q-16 -12 -20 -18q-2 -2 -10 -2h-11h-82zM414 1452h231q7 60 20.5 178t20.5 178q0 9 2 15q-3 25 -24 39t-50 14 q-65 0 -88 -51q-3 -7 -7 -21.5t-7 -21.5q-11 -42 -27 -92q-15 -47 -71 -238z" />
<glyph unicode="&#xe3;" horiz-adv-x="960" d="M-156 4q1 8 11 53q1 3 2 8.5t2 8.5q0 4 24 4q57 13 64 37q1 3 2 9t2 9q3 8 6 18t6.5 22.5t5.5 19.5q44 141 99 323q24 79 71.5 236.5t71.5 236.5q7 23 59.5 199t81.5 270q87 293 94 314q8 22 15 49q7 21 -7.5 35t-35.5 18q-12 2 -33 2q-2 0 -2 4q2 2 2 6q2 9 6 28t6 28 q0 8 4 8h23h33h82h161h54h24h10h3v-4v-4q-5 -15 -5 -23q-1 -10 -4 -29.5t-4 -29.5l-6 -60q-4 -45 -29 -270q-8 -76 -25.5 -226.5t-25.5 -226.5q-6 -60 -53 -483q-35 -307 -41 -369q-8 -61 -10 -94q-1 -3 -1 -9t-1 -9q-2 -7 14 -23q11 -11 31 -14h24l-16 -76h-66h-174 q2 7 5.5 21.5t5.5 21.5q1 4 2 12.5t2 12.5q1 6 2.5 7t7.5 1q36 0 65 26q19 19 21 27q0 33 6 68q7 63 21.5 190t21.5 191q49 441 53 481q6 50 17.5 151.5t17.5 151.5l2 14h-67h-136h-43q-14 -41 -36 -115.5t-31 -103.5q-19 -62 -66 -220.5t-73 -244.5q-96 -318 -131 -432 q-3 -10 -35 -115q0 -3 -2 -8.5t-2 -7.5q-4 -20 10 -31q14 -22 53 -22q8 0 8 -6q-2 -6 -4 -16t-2 -11q-1 -5 -3 -14.5t-3 -14.5q0 -1 -1 -4.5t-1 -5.5l-2 -4h-6h-15h-47h-118h-41h-7q-6 0 -4 4zM381 2150q95 68 172 88q37 11 61 11q15 0 35 -4q37 -12 72 -50q12 -12 18 -20 q24 -28 49 -47q15 -12 39 -12q21 0 52 14q57 23 102 82l18 -6q12 -4 15 -4l33 -17q-38 -53 -97 -96q-70 -49 -139 -49q-30 0 -56.5 13.5t-42 28.5t-40.5 44l-6 4q-1 1 -5 5.5t-5.5 6t-5 5.5t-6 6t-6.5 5.5t-7 5t-7.5 3.5t-8.5 3t-9 2t-10 1q-4 0 -8 -2q-42 -4 -105 -37 q-36 -19 -59 -39l-2 2q0 1 -1 2t-1 2zM426 1452h231q5 52 41 356v15q-1 25 -21.5 39t-49.5 14q-30 0 -54 -13t-34 -38q-8 -19 -15 -43q-4 -16 -13 -46.5t-13 -45.5q-32 -103 -72 -238z" />
<glyph unicode="&#xe4;" horiz-adv-x="960" d="M-158 4q1 8 11 53q1 3 2 8.5t2 8.5q0 4 24 4q57 13 64 37q4 12 4 18q3 8 6 18t6.5 22.5t5.5 19.5q44 141 99 323q23 79 71.5 236.5t71.5 236.5q7 23 59.5 199t81.5 270q87 293 94 314q8 22 15 49q7 21 -7.5 35t-35.5 18q-12 2 -33 2q-2 0 -2 4q2 2 2 6q2 9 6 28t6 28 q0 8 4 8h23h33h82h161h54h24h10h2v-4v-4q-4 -13 -2 -23q-8 -41 -10 -59l-6 -60q-4 -45 -29 -270q-8 -76 -25.5 -226.5t-25.5 -226.5q-6 -60 -53 -483q-35 -307 -41 -369q-8 -61 -10 -94q-1 -3 -1 -9t-1 -9q-2 -7 14 -23q11 -11 31 -14h24l-16 -76h-66h-174q2 7 5.5 21.5 t5.5 21.5q4 16 4 25q2 8 10 8q36 0 65 26q19 19 21 27q0 33 6 68q7 63 21.5 190t21.5 191q49 441 53 481q6 50 17.5 151.5t17.5 151.5l2 14h-67h-136h-43q-9 -29 -31.5 -104t-35.5 -115q-19 -62 -66 -220.5t-73 -244.5q-65 -214 -132 -432q-10 -37 -34 -115q0 -3 -2 -8.5 t-2 -7.5q-4 -20 10 -31q14 -22 53 -22q8 0 8 -6q-3 -15 -6 -27q-1 -5 -3 -14.5t-3 -14.5q0 -1 -1 -4.5t-1 -5.5l-2 -4h-6h-15h-47h-118h-41h-7q-6 0 -4 4zM285 2089q35 169 37 176q2 2 8 2h8h49h107h4q4 0 2 -6q-1 -7 -4 -20.5t-4 -20.5q-5 -22 -13.5 -61t-11.5 -52l-4 -18 h-33h-115h-30zM424 1452h231q5 52 41 356q-2 4 2 15q-3 25 -23.5 39t-49.5 14q-30 0 -54 -13t-34 -38q-8 -19 -15 -43q-4 -16 -13 -46.5t-13 -45.5q-32 -103 -72 -238zM702 2089q36 169 37 176q2 2 9 2h6h51h106h4q5 0 3 -6q-1 -7 -4.5 -20.5t-4.5 -20.5q-8 -39 -24 -113 q0 -2 -2.5 -10t-3.5 -8h-31h-115h-31z" />
<glyph unicode="&#xe5;" horiz-adv-x="960" d="M-162 4q2 8 12 53q0 3 1.5 8.5t1.5 8.5q4 4 26 4q57 14 64 37q0 6 4 18q2 8 5 18t7 22.5t6 19.5q18 59 50.5 169l45.5 154q81 260 144 473q28 89 141 469q17 52 48.5 157t47.5 157q7 27 15 49q6 21 -8.5 35.5t-36.5 17.5q-12 2 -33 2v4q0 4 2 6q2 22 10 56q0 8 4 8h23h33 h81h162h54h24h10h2q2 0 2 -4q-2 -2 -2 -4q0 -3 -1 -11t-1 -12q-1 -10 -4 -29.5t-4 -29.5l-6 -60q-25 -225 -29 -270q-30 -252 -51 -453q-8 -68 -26.5 -231t-28.5 -252q-6 -62 -20.5 -185t-20.5 -184q-2 -33 -10 -94q0 -12 -2 -18q0 -4 2.5 -8t6.5 -8.5t5 -6.5q10 -10 33 -14 h24l-16 -76h-66h-174q1 7 4 21.5t4 21.5q1 4 3.5 12.5t3.5 12.5q1 6 2.5 7t7.5 1q37 0 63 26q19 19 21 27q0 10 1 21.5t2.5 25t2.5 21.5q7 63 22.5 190t22.5 191q7 65 25 228.5t28 252.5q5 50 16.5 151.5t16.5 151.5l4 14h-67h-136h-43q-35 -103 -67 -219 q-104 -344 -139 -465q-67 -214 -132 -432q-7 -20 -18 -59.5t-16 -55.5q-2 -6 -7 -16q-3 -17 11 -31q14 -22 55 -22q8 0 6 -6q-3 -15 -6 -27q-1 -5 -3 -14.5t-3 -14.5q0 -6 -2 -10v-4h-6h-15h-47h-119h-41h-6q-6 0 -6 4zM420 1452h231q7 60 20.5 178t20.5 178q0 9 2 15 q-1 25 -22.5 39t-50.5 14q-66 0 -89 -51q-2 -7 -6 -21.5t-6 -21.5q-5 -15 -14 -45.5t-14 -46.5q-11 -36 -35 -116t-37 -122zM492 2130q6 32 24 61q30 50 81 78.5t103 28.5q68 0 105 -43q42 -51 29 -127q-10 -34 -27 -62q-29 -49 -79 -78.5t-103 -29.5q-70 0 -109 52t-24 120 zM567 2128q-9 -38 13.5 -66t60.5 -28q39 0 73.5 27.5t43.5 66.5q8 40 -14 68t-62 28q-39 0 -73.5 -28.5t-41.5 -67.5z" />
<glyph unicode="&#xe6;" horiz-adv-x="1320" d="M-125 0l16 80h5q26 0 45 8q35 15 45 49l503 1671l3 2q0 7 2 11v20q-8 33 -68 33h-2h-6l-2 -2l12 61q2 2 2 4v13h1h1h1h1h1h1h1h1h1h1h1h1h1h1h1h1h1h1h1h1h1h1h1h1h1h1h1h1h1h1h1h1h1h1h1h1h1h1h1h1h1h1h1h1h1h1h1h1h1h1h1h1h1h1h1h1h1h1h1h1h1h2h1h1h1h1h1h2h1h1h1h1h1 h2h1h1h1h2h1h1h1h2h1h1h1h2h1h1h2h1h1h2h1h1h2h1h1h2h1h1h2h1h2h1h1h2h1h2h1h1h2h1h2h1h2h1h2h1h2h1h2h1h2h1h2h1h2h1h2h1h2h1h2h2h1h2h1h2h1h2h2h1h2h1h2h2h1h2h2h1h2h2h1h2h2h1h2h2h1h2h2h2h1h2h2h1h2h2h2h1h2h2h2h2h1h2h2h2h2h1h2h2h2h2h2h1h2h2h2h2h2h2h2h1h2h2h2h2h2h2 h2h2h2h2h2h2h2h2h2h9l713 2q-1 -3 -3.5 -16.5t-4.5 -22.5l-2 -8l-9 -43q-4 -4 -4 -11l-26 -122h-74h-4l16 79q4 19 0 31q-14 35 -73 35h-17h-12h-330h-2h-24q-3 -9 -5 -23l-86 -399h21h2h10h17h116q28 0 49.5 23.5t28.5 62.5l17 72h75l-82 -387h-77q0 6 4 22v4q1 2 2 7.5 t2 7.5q4 16 4 24q16 68 -27 84q-4 4 -18 4h-8h-7h-120h-23q-4 -18 -6 -22l-264 -1250l-6 -26h30h4h322h14h17q7 0 17 1t13 1q57 14 68 53q0 8 2 12q4 16 4 25q1 3 2 8t2 8l8 37h29h45h4l-24 -117q-2 -6 -2 -12v-8l-15 -68q-2 -2 -2 -6q0 -2 -1 -6t-1 -6h-710q13 72 14 78v2 h10q24 0 48 13t32 36q0 1 1 3t1 3q0 2 1 6.5t1 5.5v7l254 1196l8 26h-33h-6h-24h-115h-41h-35l-6 -18l-369 -1221q0 -4 -2 -6q-3 -16 7 -29q16 -22 57 -22h8l-12 -62l-2 -2q0 -3 -1 -8.5t-1 -7.5h-242zM459 1452h215h2h29q2 11 6 25l71 333q6 30 -13 47t-60 17h-19h-20 q-36 0 -60 -12q-33 -15 -43 -60q0 -1 -2 -3t-2 -3z" />
<glyph unicode="&#xe7;" horiz-adv-x="829" d="M-12 330q10 49 30.5 148.5t30.5 148.5q84 387 103 481q7 32 88 414q4 18 11 51t11 51q22 107 94 188q65 71 150 108t168 30q81 -6 140.5 -56.5t78.5 -126.5q13 -59 4 -116q-1 -4 -3 -11.5t-3 -11.5q-4 -22 -2 -33q4 -16 8 -24q1 -1 5 -4.5t7.5 -6.5t3.5 -4l-1.5 -4.5 t-2 -2.5t-2.5 -1.5t-3.5 -1t-4.5 -0.5q-8 -1 -22 -4t-19 -4q-10 -2 -31.5 -7t-31.5 -7q8 46 14 71q19 101 4 154q-18 59 -69 92t-117 33q-68 0 -131 -35q-62 -35 -103 -91t-55 -122q-9 -46 -21 -96q-17 -77 -47 -220.5t-39 -187.5q-49 -223 -102 -481q-11 -51 -33 -153.5 t-33 -153.5q-1 -3 -2 -10t-2 -11q-18 -84 21 -151q53 -86 168 -86q95 0 176 63q68 55 94 119q14 33 25 88q4 13 8 35q1 3 2 4.5t2.5 2t4.5 0.5t5 1q5 1 30 9t38 12q-2 -11 -9 -41t-10 -47q-16 -76 -61 -142q-53 -77 -133 -125.5t-166 -54.5h-25q-83 0 -147 43t-90 117 q-27 75 -4 170zM78 -141q0 2 7 11.5t7 10.5q14 19 39 56.5t39 56.5l2 6h23h55q-31 -45 -80 -113q64 -5 82 -12q57 -20 70 -84q3 -22 -3 -43q-12 -59 -69.5 -102t-118.5 -43q-19 0 -27 2q6 9 21 39q6 8 14 24q5 8 11 9q2 1 4 1q48 3 79 46q7 10 11 24q6 31 -19 49 q-21 15 -47 15q-7 0 -15.5 -1t-17.5 -3t-14 -3q-4 -2 -8 -2q-2 0 -6 4q-12 18 -15 21q-4 5 -12 15.5t-12 15.5z" />
<glyph unicode="&#xe8;" horiz-adv-x="882" d="M-147 0q1 7 4 21.5t4 21.5q1 4 3 12.5t3 12.5v6q2 2 8 2q42 0 72 33q12 12 12 22q11 48 14 59q11 55 34 163t34 163q21 95 100 473q30 137 101 471q10 47 32.5 152t34.5 160q2 18 10 49q3 23 -22 43q-17 10 -37 10t-18 2q2 18 10 49v17q4 8 6 8h344h313h54h4v-2 q-4 -16 -4 -23q-3 -12 -8.5 -35.5t-8.5 -36.5q-4 -19 -11 -55t-11 -55q-2 -4 -2 -10q-4 -4 -8 -4h-54h-14v2q2 4 2 10q2 9 6 27.5t6 27.5q7 20 4 35q-6 30 -43 41q-24 4 -34 4q-7 0 -25 -1t-25 -1h-92h-162h-83q-1 -4 -3 -8q-5 -28 -6 -29q-14 -65 -40 -192.5t-40 -192.5 q-1 -1 0.5 -1.5t6 -0.5h7.5h9h31h112h13q8 0 12 2q35 16 49 59q1 5 3 15.5t3 15.5q2 10 6 31t6 31q0 2 13 2h18h45q-8 -43 -8 -45q-8 -38 -24.5 -114t-24.5 -114q-3 -15 -9.5 -44.5t-9.5 -45.5q-1 -3 -2 -9t-2 -9h-6h-22h-47q6 33 8 37q1 4 2 11t2 11q12 59 -12 80 q-12 12 -41 12h-15h-110h-29l-2 -4q-5 -25 -6 -29q-13 -62 -37 -174.5t-33 -158.5q-21 -95 -59 -274.5t-45 -213.5q-15 -71 -42.5 -201.5t-37.5 -177.5q-7 -27 -14 -67h141h192h68q27 0 54.5 16.5t33.5 42.5q0 12 14 66l4 20h50l6 1q6 1 10 1q8 0 8 -4q-6 -28 -18.5 -84.5 t-18.5 -85.5q-2 -7 -5 -23.5t-5 -23.5q0 -2 -14 -2h-17h-73h-150h-362h-90zM391 2206q7 14 22 39t19 32q30 -12 145.5 -58.5t178.5 -70.5q24 -11 55 -20q0 -2 -18.5 -34t-22.5 -38q-174 70 -324 127q-42 19 -55 23z" />
<glyph unicode="&#xe9;" horiz-adv-x="882" d="M-147 0q1 7 4 21.5t4 21.5q1 4 3 12.5t3 12.5v6q2 2 8 2q42 0 72 33q12 12 12 22q11 48 14 59q11 55 34 163t34 163q21 95 100 473q30 137 101 471q10 47 32.5 152t34.5 160q2 18 10 49q3 23 -22 43q-17 10 -37 10t-18 2q2 18 10 49v17q4 8 6 8h344h313h54h4v-2 q-4 -16 -4 -23q-3 -12 -8.5 -35.5t-8.5 -36.5q-4 -19 -11 -55t-11 -55q-2 -4 -2 -10q-4 -4 -8 -4h-54h-14v2q2 4 2 10q2 9 6 27.5t6 27.5q7 20 4 35q-6 30 -43 41q-24 4 -34 4q-7 0 -25 -1t-25 -1h-92h-162h-83q-1 -4 -3 -8q-5 -28 -6 -29q-14 -65 -40 -192.5t-40 -192.5 q-1 -1 0.5 -1.5t6 -0.5h7.5h9h31h112h13q8 0 12 2q35 16 49 59q1 5 3 15.5t3 15.5q2 10 6 31t6 31q0 2 13 2h18h45q-8 -43 -8 -45q-8 -38 -24.5 -114t-24.5 -114q-3 -15 -9.5 -44.5t-9.5 -45.5q-1 -3 -2 -9t-2 -9h-6h-22h-47q6 33 8 37q1 4 2 11t2 11q12 59 -12 80 q-12 12 -41 12h-15h-110h-29l-2 -4q-5 -25 -6 -29q-13 -62 -37 -174.5t-33 -158.5q-21 -95 -59 -274.5t-45 -213.5q-15 -71 -42.5 -201.5t-37.5 -177.5q-7 -27 -14 -67h141h192h68q27 0 54.5 16.5t33.5 42.5q0 12 14 66l4 20h50l6 1q6 1 10 1q8 0 8 -4q-6 -28 -18.5 -84.5 t-18.5 -85.5q-2 -7 -5 -23.5t-5 -23.5q0 -2 -14 -2h-17h-73h-150h-362h-90zM430 2128q61 20 377 127q11 4 32.5 11t32.5 11l13 -71q-9 -2 -49 -17q-18 -6 -101 -32.5t-129 -42.5q-27 -9 -82.5 -29t-83.5 -29q-8 53 -10 72z" />
<glyph unicode="&#xea;" horiz-adv-x="882" d="M-156 0q1 7 4.5 21.5t4.5 21.5q1 4 3 12.5t3 12.5v6q0 2 6 2q44 0 74 33q9 9 12 22q2 9 12 59q15 66 70 326q16 79 50 236.5t50 236.5q8 37 100 471q43 192 66 312q2 8 6 24.5t6 24.5q3 23 -22 43q-17 10 -37 10q-21 0 -21 2q10 39 11 49q1 2 1 8t1 9q0 8 6 8h344h313h54 h4v-2q-1 -4 -3.5 -11.5t-3.5 -11.5q-2 -13 -7 -36.5t-7 -35.5q-4 -18 -12 -54.5t-12 -55.5q0 -6 -2 -10q0 -4 -7 -4h-53h-14v2q2 4 2 10q2 9 6 27.5t6 27.5q5 29 4 35q-6 30 -43 41q-24 4 -37 4q-7 0 -23.5 -1t-23.5 -1h-92h-162h-84q0 -4 -2 -8q-1 -5 -2.5 -12t-2.5 -11.5 t-1 -5.5q-61 -293 -82 -385q0 -2 25 -2h30h113h12q9 0 11 2q39 16 49 59q4 9 8 31q2 10 6 31t6 31q0 2 13 2h18h45q-8 -43 -8 -45q-8 -38 -24.5 -114t-24.5 -114q-3 -15 -9.5 -44.5t-9.5 -45.5q-4 -12 -4 -18h-6h-22h-48q7 33 9 37q0 6 4 22q12 58 -13 80q-14 12 -43 12h-14 h-111h-28v-4q-5 -25 -6 -29q-11 -50 -35 -161.5t-37 -171.5q-45 -221 -102 -488q-79 -368 -82 -379q-5 -29 -15 -67h142h192h68q28 0 56 16.5t34 42.5q0 3 2 14t5 27t5 25l6 20h49q1 0 7 1t10 1q6 -1 6 -4q-6 -29 -17.5 -85.5t-17.5 -84.5q-8 -31 -10 -47q0 -2 -14 -2h-17 h-74h-149h-363h-90zM358 2091q48 44 144.5 132t144.5 132q2 4 6 4h43h84q30 -44 89.5 -132t88.5 -132q1 0 5 -4h-93q-8 0 -12 4q-2 5 -16 23q-56 86 -111 168q-3 4 -11 15t-11 17q-12 -11 -64 -57.5t-78 -71.5q-34 -30 -86 -78q-16 -12 -20 -18q-2 -2 -10 -2h-11h-82z" />
<glyph unicode="&#xeb;" horiz-adv-x="882" d="M-147 0q2 7 5 21.5t5 21.5q4 16 4 25q2 2 2 6q0 2 6 2q44 0 74 33q10 16 12 22q2 9 12 59q11 55 34.5 163.5t35.5 162.5q16 79 50 236.5t50 236.5q18 86 52.5 245t48.5 226q34 152 65 312q8 31 10 49q3 11 -4 23.5t-16 19.5q-20 10 -37 10q-20 0 -20 2q2 8 5 24.5t5 24.5 q1 2 1 8t1 9q0 8 6 8h344h314h53h4l-2 -2q0 -7 -4 -23q-2 -13 -7.5 -36.5t-7.5 -35.5q-4 -18 -12 -54.5t-12 -55.5q0 -6 -2 -10q0 -4 -6 -4h-54h-14v2q0 2 1 5.5t1 4.5q2 9 6 27.5t6 27.5q4 23 2 35q-1 14 -13 25t-28 16q-24 4 -36 4q-7 0 -24 -1t-24 -1h-92h-161h-84 q-2 -4 -2 -8q-1 -5 -2.5 -12t-3 -11.5t-1.5 -5.5q-14 -64 -41.5 -192.5t-40.5 -192.5q0 -2 25 -2h31h112h13q8 0 10 2q39 17 49 59q2 6 4 18t2 13q8 26 15 62q0 2 12 2h18h45q-8 -43 -10 -45q-8 -38 -23.5 -114t-23.5 -114q-7 -35 -21 -90q0 -6 -4 -18h-6h-22h-47q8 33 8 37 q1 4 3 11t3 11q12 59 -12 80q-14 12 -43 12h-15h-110h-29v-4q-5 -25 -6 -29q-11 -50 -35 -161.5t-37 -171.5q-19 -86 -52.5 -249.5t-49.5 -238.5q-5 -23 -35.5 -163.5t-46.5 -215.5q-7 -40 -14 -67h141h192h68q28 0 56 16.5t32 42.5q5 16 14 66l4 20h50l7 1q7 1 11 1 q6 0 6 -4q-6 -28 -18.5 -84.5t-18.5 -85.5q-1 -9 -4 -25t-4 -22q-2 -2 -16 -2h-17h-73h-150h-362h-90zM340 2089q36 169 37 176q2 2 8 2h8h49h107h4q4 0 2 -6q-1 -7 -4 -20.5t-4 -20.5q-5 -22 -13.5 -61t-11.5 -52l-4 -18h-33h-114h-31zM758 2089q36 169 37 176q2 2 8 2h6 h51h107h4q4 0 2 -6q-1 -7 -4 -20.5t-4 -20.5q-5 -22 -13.5 -61t-11.5 -52q0 -2 -2.5 -10t-3.5 -8h-31h-115h-30z" />
<glyph unicode="&#xec;" horiz-adv-x="405" d="M-160 0q1 7 4 21.5t4 21.5q1 4 3.5 12.5t3.5 12.5q1 6 2.5 7t7.5 1q42 0 72 33q12 18 12 22q3 10 7 29.5t7 29.5q60 285 70 328q19 92 54.5 259.5t45.5 217.5q79 372 100 467q32 159 64 299q4 16 8 56q6 26 -14 43q-15 11 -33 14q-18 0 -18 2q3 22 10 51q0 1 1 5.5t1 6.5 l4 11h201h32q7 0 7 -6q-3 -3 -7 -11q-2 -16 -10 -53q-2 -6 -6 -6h-4q-22 0 -37 -6q-35 -14 -47 -43q-1 -3 -8 -29q0 -2 -1 -7t-1 -7q-3 -15 -10.5 -46.5t-10.5 -47.5q-13 -62 -39.5 -186t-40.5 -187q-45 -210 -102 -488q-6 -27 -94 -444q-9 -40 -26.5 -121t-26.5 -121 q-6 -32 14 -48.5t53 -16.5q4 0 2 -2v-6q-1 -4 -3 -13.5t-3 -13.5l-8 -41h-68h-172zM391 2206q7 14 22 39t19 32q30 -12 145.5 -58.5t178.5 -70.5q24 -11 55 -20q0 -2 -18.5 -34t-22.5 -38q-174 70 -324 127q-42 19 -55 23z" />
<glyph unicode="&#xed;" horiz-adv-x="405" d="M-160 0q1 7 4 21.5t4 21.5q1 4 3.5 12.5t3.5 12.5q1 6 2.5 7t7.5 1q42 0 72 33q12 18 12 22q3 10 7 29.5t7 29.5q60 285 70 328q19 92 54.5 259.5t45.5 217.5q79 372 100 467q32 159 64 299q4 16 8 56q6 26 -14 43q-15 11 -33 14q-18 0 -18 2q3 22 10 51q0 1 1 5.5t1 6.5 l4 11h201h32q7 0 7 -6q-3 -3 -7 -11q-2 -16 -10 -53q-2 -6 -6 -6h-4q-22 0 -37 -6q-35 -14 -47 -43q-1 -3 -8 -29q0 -2 -1 -7t-1 -7q-3 -15 -10.5 -46.5t-10.5 -47.5q-13 -62 -39.5 -186t-40.5 -187q-45 -210 -102 -488q-6 -27 -94 -444q-9 -40 -26.5 -121t-26.5 -121 q-6 -32 14 -48.5t53 -16.5q4 0 2 -2v-6q-1 -4 -3 -13.5t-3 -13.5l-8 -41h-68h-172zM375 2128q61 20 377 127q11 4 32 11l33 11l12 -71q-9 -2 -49 -17q-12 -4 -97.5 -31.5t-131.5 -43.5q-27 -9 -82.5 -29t-83.5 -29q-8 53 -10 72z" />
<glyph unicode="&#xee;" horiz-adv-x="405" d="M-168 0q1 7 4 21.5t4 21.5q1 4 3 12.5t3 12.5q0 6 1.5 7t7.5 1q43 0 73 33q1 3 6.5 10.5t6.5 11.5q2 10 6 29.5t6 29.5q10 43 70 328q53 240 102 477q16 78 49 233.5t49 233.5q32 140 64 299q8 34 10 56q6 26 -14 43q-20 12 -33 14q-21 0 -21 2q2 8 6.5 25.5t6.5 25.5 q0 8 2 12q0 11 4 11h201h32q7 0 4 -6q0 -3 -4 -11q-2 -9 -5 -26.5t-5 -26.5q-2 -6 -6 -6h-4q-21 0 -39 -6q-34 -15 -45 -43q-1 -3 -8 -29q0 -6 -4 -14q-3 -15 -9.5 -46.5t-9.5 -47.5q-14 -62 -40.5 -186t-39.5 -187q-17 -81 -52 -244t-52 -244q-88 -417 -94 -444 q-20 -98 -52 -242q-6 -32 13.5 -48.5t52.5 -16.5q4 0 4 -2v-6q-1 -4 -3 -13.5t-3 -13.5l-8 -41h-68h-172zM358 2091q48 44 144.5 132t144.5 132q2 4 6 4h43h84q30 -44 89.5 -132t88.5 -132q1 0 5 -4h-93q-8 0 -12 4q-2 5 -16 23q-56 86 -111 168q-3 4 -11 15t-11 17 q-12 -11 -64 -57.5t-78 -71.5q-34 -30 -86 -78q-16 -12 -20 -18q-2 -2 -10 -2h-11h-82z" />
<glyph unicode="&#xef;" horiz-adv-x="405" d="M-160 0q2 7 5 21.5t5 21.5q5 20 5 25q1 6 2.5 7t7.5 1q41 0 74 33q1 3 6 10.5t6 11.5q2 10 6 29.5t6 29.5q12 55 35 164.5t35 163.5q16 73 49.5 233t52.5 244q16 78 49 233.5t49 233.5q32 140 64 299q8 34 10 56q6 25 -16 43q-15 11 -31 14q-20 0 -20 2q7 29 10 51 q1 1 2 5.5t2 6.5q0 11 4 11h201h33q4 0 4 -6q0 -1 -2 -5t-2 -6q-2 -9 -6.5 -26.5t-6.5 -26.5q0 -6 -4 -6h-4q-21 0 -39 -6q-33 -13 -45 -43q-1 -3 -8 -29q-1 -2 -2 -7t-2 -7q-10 -50 -21 -94q-32 -160 -78 -373q-18 -81 -52.5 -244t-51.5 -244q-16 -74 -47.5 -222 t-46.5 -222q-8 -40 -25.5 -121t-25.5 -121q-7 -32 12.5 -48.5t52.5 -16.5q4 0 4 -2q0 -4 -2 -6q0 -4 -2 -13.5t-2 -13.5l-10 -41h-68h-172zM285 2089q35 169 37 176q2 2 8 2h8h49h107h4q4 0 2 -6q-1 -7 -4 -20.5t-4 -20.5q-5 -22 -13.5 -61t-11.5 -52l-4 -18h-33h-115h-30z M702 2089q36 169 37 176q2 2 9 2h6h51h106h4q5 0 3 -6q-1 -7 -4.5 -20.5t-4.5 -20.5q-8 -39 -24 -113q0 -2 -2.5 -10t-3.5 -8h-31h-115h-31z" />
<glyph unicode="&#xf1;" horiz-adv-x="1003" d="M-141 0q2 7 5 21.5t5 21.5q1 4 2 12.5t2 12.5q2 2 2 6q0 2 6 2q40 0 68 28q11 10 12 15q2 9 12 59q13 62 37.5 178t30.5 146q17 79 51 237.5t51 237.5q55 263 101 471q10 48 32.5 154.5t34.5 162.5q1 13 11 56q2 12 -11 30q-19 25 -63 25h-4q-2 0 0 6q0 7 4 27q1 4 3 13 t3 13q0 1 2 8.5t2 8.5h10h25h57q5 0 14.5 -1t14.5 -1h22q2 -9 2 -11q1 -14 4.5 -44t4.5 -46q3 -27 8 -75.5t9 -88t7 -75.5q6 -63 47 -428q8 -77 24.5 -231.5t24.5 -231.5q6 -64 19 -182t18 -170q2 -17 5.5 -51t5.5 -52q7 35 21.5 103.5t21.5 103.5q16 75 46.5 215.5 t35.5 163.5q53 246 102 489q61 288 82 379q4 28 16 76q0 8 2 14q4 25 -2 37q-17 31 -57 31h-4q-2 0 0 6q0 7 4 27q1 4 3 13t3 13q0 1 1 5.5t1 5.5l2 4h6h13h108h100q2 0 5.5 1t5.5 1q2 -2 0 -4q-2 -18 -11 -54q-1 -3 -2 -9t-2 -9q0 -2 -20 -2q-41 -4 -66 -35q-8 -10 -12 -29 q0 -3 -1 -8t-1 -8q-6 -21 -14 -65q-40 -181 -72 -338q-19 -84 -52.5 -244t-49.5 -234q-33 -156 -99 -464q-21 -92 -63 -297q-1 -5 -3 -15.5t-3 -15.5q-2 -15 10 -27q16 -13 37 -16l24 -2q-2 -8 -5 -24.5t-5 -24.5q0 -1 -1 -6t-1 -9q-4 -12 -6 -12h-25h-219h-31q-2 0 -2 4 q0 2 1 5.5t1 4.5q2 9 6.5 28t6.5 28q0 6 6 6q11 0 35 4q40 13 55 53q0 2 2 4q-4 8 -4 23q-2 19 -6 54t-6 54q-7 64 -20.5 192.5t-20.5 192.5q-8 78 -24.5 233.5t-24.5 233.5q-7 64 -20.5 189.5t-20.5 189.5q-2 16 -6.5 57t-6.5 64q-24 -105 -45 -207q-13 -64 -41 -192.5 t-41 -192.5q-17 -81 -52 -243.5t-52 -243.5q-13 -60 -38 -182.5t-38 -182.5q-7 -24 -14 -63q-1 -7 9 -16t19 -13q28 -8 41 -8h7q4 0 4 -4q-9 -36 -13 -54v-12q0 -6 -6 -6h-235zM381 2150q95 68 172 88q37 11 61 11q15 0 35 -4q37 -12 72 -50q12 -12 18 -20q24 -28 49 -47 q15 -12 39 -12q21 0 52 14q57 23 102 82l18 -6q12 -4 15 -4l33 -17q-38 -53 -97 -96q-70 -49 -139 -49q-30 0 -56.5 13.5t-42 28.5t-40.5 44l-6 4q-1 1 -5 5.5t-5.5 6t-5 5.5t-6 6t-6.5 5.5t-7 5t-7.5 3.5t-8.5 3t-9 2t-10 1q-4 0 -8 -2q-42 -4 -105 -37q-36 -19 -59 -39 l-2 2q0 1 -1 2t-1 2z" />
<glyph unicode="&#xf2;" d="M-90 330q11 53 32.5 152.5t30.5 144.5q14 66 49 229.5t54 251.5q17 80 48 225.5t40 188.5q3 19 10 53.5t10 48.5q22 107 97 188q63 71 147.5 108t167.5 30q81 -7 140.5 -57.5t78.5 -125.5q16 -63 -6 -176q-3 -16 -11.5 -47.5t-11.5 -46.5q-52 -251 -90 -428 q-18 -79 -51 -237.5t-51 -237.5q-31 -155 -57 -272q-22 -103 -95 -185q-57 -64 -133.5 -100.5t-154.5 -36.5q-83 0 -148.5 43.5t-91.5 116.5q-24 71 -4 170zM-23 283q-7 -88 49.5 -147.5t145.5 -59.5q17 0 45 4q88 17 156.5 83.5t87.5 151.5q2 13 7 37t7 37q21 92 82 385 l105 486q38 188 71 339q1 6 3 17.5t3 17.5q2 6 4 19t2 14q7 89 -48 149t-144 60q-97 0 -183 -71.5t-106 -168.5q-2 -10 -7 -30.5t-7 -30.5q-43 -211 -78 -371q-6 -25 -104 -487q-74 -344 -76 -355q-5 -28 -8 -38q-1 -7 -3.5 -20.5t-3.5 -20.5zM391 2206q7 14 22 39t19 32 q30 -12 145.5 -58.5t178.5 -70.5q24 -11 55 -20q0 -2 -18.5 -34t-22.5 -38q-174 70 -324 127q-42 19 -55 23z" />
<glyph unicode="&#xf3;" d="M-90 330q11 53 32.5 152.5t30.5 144.5q14 66 49 229.5t54 251.5q17 80 48 225.5t40 188.5q3 19 10 53.5t10 48.5q22 107 97 188q63 71 147.5 108t167.5 30q81 -7 140.5 -57.5t78.5 -125.5q16 -63 -6 -176q-3 -16 -11.5 -47.5t-11.5 -46.5q-52 -251 -90 -428 q-18 -79 -51 -237.5t-51 -237.5q-31 -155 -57 -272q-22 -103 -95 -185q-57 -64 -133.5 -100.5t-154.5 -36.5q-83 0 -148.5 43.5t-91.5 116.5q-24 71 -4 170zM-23 283q-7 -88 49.5 -147.5t145.5 -59.5q17 0 45 4q88 17 156.5 83.5t87.5 151.5q2 13 7 37t7 37q21 92 82 385 l105 486q38 188 71 339q1 6 3 17.5t3 17.5q2 6 4 19t2 14q7 89 -48 149t-144 60q-97 0 -183 -71.5t-106 -168.5q-2 -10 -7 -30.5t-7 -30.5q-43 -211 -78 -371q-6 -25 -104 -487q-74 -344 -76 -355q-5 -28 -8 -38q-1 -7 -3.5 -20.5t-3.5 -20.5zM375 2128q61 20 377 127 q11 4 32 11l33 11l12 -71q-9 -2 -49 -17q-12 -4 -97.5 -31.5t-131.5 -43.5q-27 -9 -82.5 -29t-83.5 -29q-8 53 -10 72z" />
<glyph unicode="&#xf4;" d="M-98 330q39 193 63 297q30 147 103 481q9 45 39 190t47 224q17 74 22 102q22 109 96 188q63 71 148 108t168 30q81 -7 140.5 -57.5t78.5 -125.5q16 -63 -6 -176q-3 -16 -11.5 -47.5t-11.5 -46.5q-41 -188 -90 -428q-17 -79 -51 -237.5t-51 -237.5q-9 -45 -29 -136 t-29 -136q-22 -104 -94 -185q-57 -64 -134 -100.5t-155 -36.5q-83 0 -148 43.5t-91 116.5q-24 71 -4 170zM-31 283q-7 -89 49 -148t144 -59q19 0 47 4q88 17 156.5 83.5t85.5 151.5q3 13 8 37.5t8 36.5q13 64 40.5 192.5t41.5 192.5q18 81 51.5 243t50.5 243q57 260 74 339 q1 6 3 17.5t3 17.5q1 5 3 16.5t3 16.5q7 89 -48.5 149t-145.5 60q-96 0 -181.5 -71.5t-107.5 -168.5q-2 -10 -6 -30.5t-6 -30.5q-35 -159 -78 -371q-88 -405 -105 -487q-6 -30 -32.5 -158t-42.5 -197q-1 -6 -4.5 -19t-4.5 -19q-1 -7 -3 -20.5t-3 -20.5zM358 2091 q48 44 144.5 132t144.5 132q2 4 6 4h43h84q30 -44 89.5 -132t88.5 -132q1 0 5 -4h-93q-8 0 -12 4q-2 5 -16 23q-56 86 -111 168q-3 4 -11 15t-11 17q-12 -11 -64 -57.5t-78 -71.5q-34 -30 -86 -78q-16 -12 -20 -18q-2 -2 -10 -2h-11h-82z" />
<glyph unicode="&#xf5;" d="M-86 330q11 57 33 161t28 136q84 387 103 481q7 32 88 414q3 15 10.5 49.5t11.5 52.5q22 106 95 188q63 71 148.5 108t168.5 30q81 -7 140.5 -57.5t78.5 -125.5q16 -72 -8 -176q-3 -16 -10 -47.5t-10 -46.5q-15 -70 -93 -428q-16 -79 -49.5 -237.5t-50.5 -237.5 q-9 -45 -28.5 -136t-28.5 -136q-21 -98 -95 -185q-57 -64 -134.5 -100.5t-155.5 -36.5q-83 0 -147.5 43t-90.5 117q-26 77 -4 170zM-18 283q-9 -88 47 -147.5t145 -59.5q15 0 47 4q87 17 155 83.5t87 151.5q3 13 8 37.5t8 36.5q61 293 82 385q33 162 103 486q31 144 71 339 q4 13 8 35q5 25 5 33q7 89 -48.5 149t-144.5 60q-96 0 -181.5 -71.5t-107.5 -168.5q-2 -10 -6 -30.5t-6 -30.5q-13 -61 -39.5 -185t-40.5 -186q-19 -87 -52.5 -250t-49.5 -237q-5 -23 -33 -154t-43 -201q-1 -6 -4 -19t-4 -19q-6 -21 -6 -41zM381 2150q95 68 172 88 q37 11 61 11q15 0 35 -4q37 -12 72 -50q12 -12 18 -20q24 -28 49 -47q15 -12 39 -12q21 0 52 14q57 23 102 82l18 -6q12 -4 15 -4l33 -17q-38 -53 -97 -96q-70 -49 -139 -49q-30 0 -56.5 13.5t-42 28.5t-40.5 44l-6 4q-1 1 -5 5.5t-5.5 6t-5 5.5t-6 6t-6.5 5.5t-7 5 t-7.5 3.5t-8.5 3t-9 2t-10 1q-4 0 -8 -2q-42 -4 -105 -37q-36 -19 -59 -39l-2 2q0 1 -1 2t-1 2z" />
<glyph unicode="&#xf6;" d="M-88 330q11 57 33 161t28 136q84 387 103 481q7 32 88 414q17 74 22 102q22 106 95 188q65 71 149.5 108t167.5 30q81 -7 140.5 -57.5t78.5 -125.5q15 -69 -6 -176q-19 -75 -23 -94q-17 -79 -48.5 -225.5t-43.5 -202.5q-17 -79 -50.5 -237.5t-49.5 -237.5 q-9 -45 -28.5 -136t-28.5 -136q-21 -98 -95 -185q-57 -64 -134.5 -100.5t-155.5 -36.5q-83 0 -147.5 43t-90.5 117q-26 77 -4 170zM-20 283q-9 -88 47 -147.5t145 -59.5q15 0 47 4q87 17 155 83.5t87 151.5q3 13 8 37.5t8 36.5q61 293 82 385q33 162 103 486q31 144 71 339 q4 13 8 35q4 20 4 33q7 89 -48 149t-144 60q-96 0 -181.5 -71.5t-107.5 -168.5q-2 -10 -6 -30.5t-6 -30.5q-14 -61 -40 -185t-40 -186q-41 -199 -102 -487q-5 -23 -33 -154t-43 -201q-1 -6 -4 -19t-4 -19q-6 -21 -6 -41zM285 2089q35 169 37 176q2 2 8 2h8h49h107h4 q4 0 2 -6q-1 -7 -4 -20.5t-4 -20.5q-5 -22 -13.5 -61t-11.5 -52l-4 -18h-33h-115h-30zM702 2089q36 169 37 176q2 2 9 2h6h51h106h4q5 0 3 -6q-1 -7 -4.5 -20.5t-4.5 -20.5q-8 -39 -24 -113q0 -2 -2.5 -10t-3.5 -8h-31h-115h-31z" />
<glyph unicode="&#xf7;" horiz-adv-x="757" d="M74 813l16 76h37h199h358l-16 -76h-33h-197h-364zM279 551q1 7 4 19l4 16q1 5 2 13.5t2 12.5q2 2 2 11l2 2h2h8h27h24h11h2l-2 -2v-9q-1 -4 -3.5 -12t-3.5 -12q-3 -15 -6 -27q0 -6 -2 -10v-2h-2h-8h-27h-36zM389 1073q1 6 4 18.5t4 18.5q1 4 3 12.5t3 12.5q0 4 3 10v4h10 h26h25h12v-4q-2 -2 -2 -8q-1 -4 -3 -12.5t-3 -12.5q0 -2 -2 -11.5t-4 -15.5v-8l-2 -4h-2h-8h-27h-37z" />
<glyph unicode="&#xf8;" d="M-55 330q11 57 33 161t28 136q84 387 103 481q7 32 88 414q17 74 22 102q22 109 96 188q63 71 148 108t168 30q81 -7 140.5 -57.5t78.5 -125.5q15 -69 -6 -176q-19 -75 -23 -94q-17 -79 -48.5 -225.5t-43.5 -202.5q-16 -79 -49.5 -237.5t-50.5 -237.5q-9 -45 -29 -136 t-29 -136q-21 -100 -94 -185q-57 -64 -135 -100.5t-156 -36.5q-83 0 -147 43t-90 117q-26 77 -4 170zM-45 0q2 5 76 137q36 68 103 193.5t81 152.5q15 29 244 453q104 196 250 463q33 62 99 185t99 185q29 54 97 183q3 6 8 6h75q-25 -47 -75 -137q-38 -73 -187 -346 q-41 -76 -120.5 -226.5t-120.5 -226.5q-104 -196 -250 -463q-33 -61 -99.5 -185t-99.5 -186q-13 -24 -96 -182q-3 -6 -8 -6h-76zM12 283q-7 -89 49 -148t144 -59q15 0 47 4q87 17 155 83.5t87 151.5q3 13 8 37.5t8 36.5q61 293 82 385q18 81 51.5 243t50.5 243 q47 217 72 339q4 13 8 35q4 20 4 33q7 89 -48 149t-144 60q-96 0 -181.5 -71.5t-107.5 -168.5q-2 -10 -6 -30.5t-6 -30.5q-14 -61 -40 -185t-40 -186q-20 -96 -103 -487q-25 -117 -75 -355q-1 -6 -4.5 -19t-4.5 -19q-6 -21 -6 -41z" />
<glyph unicode="&#xf9;" horiz-adv-x="956" d="M-12 313q3 15 6 27q14 67 42.5 203.5t43.5 204.5q12 58 36.5 171.5t37.5 170.5q9 44 27.5 137.5t29.5 142.5q9 44 39 187.5t47 220.5q4 12 8 32q6 27 -12 45q-10 14 -29 17l-24 4q0 6 7.5 40t8.5 34h78h115h36h7q2 0 2 -6q-4 -18 -13 -54q-2 -6 -2 -14q-24 -2 -26 -2 q-41 -8 -60 -35q-7 -8 -16 -41v-8q-1 -3 -2.5 -8.5t-2.5 -9.5t-1 -5q-14 -65 -17 -81q-25 -110 -51 -238q-8 -41 -25.5 -123t-25.5 -123q-5 -23 -35.5 -163.5t-46.5 -215.5q-16 -72 -46.5 -218t-45.5 -218q-15 -70 -17 -88q-15 -102 52 -167.5t170 -53.5q91 12 165.5 80 t94.5 157q6 37 22 111q16 77 49 231.5t50 231.5q40 185 47 221q69 327 88 410q7 35 21.5 104.5t21.5 104.5q2 9 6 27.5t6 27.5q1 4 2 10.5t2 9.5q4 15 2 21q-7 34 -35 43q-12 4 -32 4q-1 0 -1 3t1 6.5t2 4.5q2 22 10 56q2 6 4 6h6h207h25q-7 -33 -9 -35l-8 -41 q-42 0 -69 -19q-23 -16 -31 -61q-6 -24 -12 -51q-14 -64 -29.5 -137.5t-34.5 -164t-29 -139.5q-8 -34 -22 -98.5t-19 -89.5q-50 -244 -96 -457q-11 -50 -35 -161.5t-37 -171.5q-22 -112 -102 -195q-59 -60 -132 -93.5t-146 -33.5q-84 0 -148 43t-92 117q-24 70 -8 153z M410 2206q7 14 22 39t19 32q34 -13 147 -59t176 -70q24 -11 55 -20q0 -2 -18.5 -34t-22.5 -38q-187 76 -323 127q-42 19 -55 23z" />
<glyph unicode="&#xfa;" horiz-adv-x="956" d="M-12 313q3 15 6 27q14 67 42.5 203.5t43.5 204.5q12 58 36.5 171.5t37.5 170.5q9 44 27.5 137.5t29.5 142.5q9 44 39 187.5t47 220.5q4 12 8 32q6 27 -12 45q-10 14 -29 17l-24 4q0 6 7.5 40t8.5 34h78h115h36h7q2 0 2 -6q-4 -18 -13 -54q-2 -6 -2 -14q-24 -2 -26 -2 q-41 -8 -60 -35q-7 -8 -16 -41v-8q-1 -3 -2.5 -8.5t-2.5 -9.5t-1 -5q-14 -65 -17 -81q-25 -110 -51 -238q-8 -41 -25.5 -123t-25.5 -123q-5 -23 -35.5 -163.5t-46.5 -215.5q-16 -72 -46.5 -218t-45.5 -218q-15 -70 -17 -88q-15 -102 52 -167.5t170 -53.5q91 12 165.5 80 t94.5 157q6 37 22 111q16 77 49 231.5t50 231.5q40 185 47 221q69 327 88 410q7 35 21.5 104.5t21.5 104.5q2 9 6 27.5t6 27.5q1 4 2 10.5t2 9.5q4 15 2 21q-7 34 -35 43q-12 4 -32 4q-1 0 -1 3t1 6.5t2 4.5q2 22 10 56q2 6 4 6h6h207h25q-7 -33 -9 -35l-8 -41 q-42 0 -69 -19q-23 -16 -31 -61q-6 -24 -12 -51q-14 -64 -29.5 -137.5t-34.5 -164t-29 -139.5q-8 -34 -22 -98.5t-19 -89.5q-50 -244 -96 -457q-11 -50 -35 -161.5t-37 -171.5q-22 -112 -102 -195q-59 -60 -132 -93.5t-146 -33.5q-84 0 -148 43t-92 117q-24 70 -8 153z M520 2128q61 20 377 127q11 4 33 11t33 11l12 -71q-9 -2 -49 -17q-18 -6 -101 -32.5t-129 -42.5q-27 -9 -83 -29t-83 -29q-8 53 -10 72z" />
<glyph unicode="&#xfb;" horiz-adv-x="956" d="M-20 313q3 15 6 27q14 67 42.5 203.5t43.5 204.5q12 57 36 170.5t37 171.5q21 111 58 280q9 44 39 187.5t47 220.5q2 12 6 32q6 29 -10 45q-10 14 -29 17l-27 4l19 74h78h114h37h6q2 0 0 -6q-7 -33 -10 -54q-1 -2 -2 -7t-2 -7q-23 -2 -25 -2q-39 -8 -61 -35 q-4 -6 -14 -41q0 -4 -2 -8q-5 -20 -5 -23q-14 -68 -16 -81q-25 -110 -51 -238q-9 -41 -26.5 -123t-26.5 -123q-15 -71 -42.5 -201.5t-37.5 -177.5q-16 -72 -46.5 -218t-45.5 -218q-15 -70 -17 -88q-17 -102 50 -167.5t171 -53.5q91 12 165 80t93 157q4 18 12.5 55t12.5 56 q17 77 49.5 231.5t48.5 231.5q12 64 47 221q14 68 42.5 204.5t43.5 205.5q34 147 46 209q2 9 6 27.5t6 27.5q1 4 2 10.5t2 9.5q2 8 2 21q-7 34 -37 43q-10 4 -31 4v14q2 9 6.5 28t6.5 28q2 6 4 6h6h207h24q-8 -33 -8 -35l-8 -41q-43 0 -70 -19q-22 -15 -30 -61 q-1 -3 -6 -21.5t-7 -29.5q-17 -80 -48 -230t-44 -211q-8 -34 -21.5 -98.5t-19.5 -89.5q-46 -213 -96 -457q-47 -214 -72 -333q-22 -112 -102 -195q-59 -60 -132.5 -93.5t-146.5 -33.5q-84 0 -147.5 43t-91.5 117q-24 70 -8 153zM358 2091q48 44 144.5 132t144.5 132q2 4 6 4 h43h84q30 -44 89.5 -132t88.5 -132q1 0 5 -4h-93q-8 0 -12 4q-2 5 -16 23q-56 86 -111 168q-3 4 -11 15t-11 17q-12 -11 -64 -57.5t-78 -71.5q-34 -30 -86 -78q-16 -12 -20 -18q-2 -2 -10 -2h-11h-82z" />
<glyph unicode="&#xfc;" horiz-adv-x="956" d="M-10 313q3 15 6 27q15 67 43 203.5t43 204.5q45 207 72 342q7 35 27.5 131.5t31.5 148.5q9 44 39 187.5t47 220.5q2 12 6 32q6 26 -10 45q-10 13 -29 17l-26 4q0 1 4.5 21.5t8.5 36.5t5 16h78h115h36h7q2 0 0 -6q-10 -44 -11 -54q-4 -12 -4 -14q-22 -2 -24 -2 q-43 -7 -62 -35q-10 -16 -14 -41q0 -4 -2 -8q-4 -16 -4 -23q-3 -16 -10 -43t-9 -38q-9 -47 -27 -133.5t-22 -104.5q-9 -41 -26.5 -123t-26.5 -123q-15 -71 -42.5 -201.5t-37.5 -177.5q-16 -72 -46 -218t-46 -218q-1 -6 -9 -38.5t-10 -49.5q-15 -102 52.5 -167.5t169.5 -53.5 q92 12 166.5 80t93.5 157l24 111q17 77 50 231.5t49 231.5q12 64 47 221q14 68 42.5 204.5t43.5 205.5q7 35 22.5 104.5t22.5 104.5q8 35 10 55q2 8 6 20q0 4 1 11t1 10q-7 34 -37 43q-10 4 -30 4v14q2 9 6 28t6 28q0 6 2 6h6h207h25q-7 -33 -7 -35l-8 -41q-45 0 -69 -19 q-11 -7 -18 -19t-8.5 -18t-6.5 -24q-2 -14 -10 -51q-80 -374 -95 -441q-5 -27 -19 -90.5t-20 -97.5q-16 -76 -48.5 -228.5t-49.5 -228.5q-13 -62 -37 -174.5t-33 -158.5q-26 -116 -102 -195q-58 -60 -132 -93.5t-148 -33.5q-84 0 -148 43t-90 117q-27 70 -8 153zM348 2089 q35 169 37 176q2 2 8 2h8h50h106h4q4 0 2 -6q-1 -7 -4 -20.5t-4 -20.5q-5 -22 -13.5 -61t-11.5 -52l-4 -18h-32h-115h-31zM766 2089q35 169 37 176q2 2 8 2h6h51h107h4q4 0 2 -6q-1 -7 -4 -20.5t-4 -20.5q-5 -22 -13.5 -61t-11.5 -52q0 -2 -2.5 -10t-3.5 -8h-31h-114h-31z " />
<glyph unicode="&#xfd;" horiz-adv-x="921" d="M102 0q1 7 4.5 21.5t4.5 21.5q1 4 3 12.5t3 12.5q1 6 2.5 7t7.5 1q38 0 66 28q13 14 16 21q2 13 7 37t7 37q15 68 43 199t41 192q19 88 54 251.5t49 229.5q58 273 61 287q3 12 -14 51q-11 31 -34.5 92.5t-35.5 91.5q-17 44 -70 197q-4 9 -11 27.5t-11 27.5q-9 31 -53 31 q-1 1 -1 6t1.5 13.5t3.5 17.5l8 37h74h118h39h7q2 0 2 -6q-2 -9 -6.5 -28t-6.5 -28q0 -1 -1 -4.5t-1 -5.5v-2q-4 -2 -30 -2q-24 -3 -43 -16q-9 -7 -17 -31q0 -7 8 -19q36 -98 54 -149q58 -157 77 -207q41 54 254 322q27 32 31 38q7 14 8 17q4 28 -18 39q-20 8 -35 8 q-1 0 -5 -1t-5 -1v4q8 35 10 53q1 2 2 6.5t2 6.5q0 6 4 6h86h115h31q6 0 2 -13q0 -1 -1 -4t-1 -4q-9 -37 -11 -51q-2 -4 -12 -4h-8q-24 -4 -39 -16q-11 -9 -23 -29q-228 -286 -297 -373q-9 -12 -27.5 -34t-27.5 -33q0 -1 -7 -9t-7 -12q-7 -28 -14 -70q-17 -74 -82 -385 q-17 -81 -52 -241.5t-53 -241.5q-42 -209 -63 -303q0 -1 -1 -4t-1 -4v-10q13 -29 63 -33h8q4 0 2 -2q0 -9 -4 -21q-2 -8 -5 -25t-5 -26q0 -2 -6 -2h-8h-103h-123zM528 2128q61 20 377 127l33 11l33 11l12 -71q-9 -2 -49 -17q-12 -4 -97.5 -31.5t-131.5 -43.5 q-28 -9 -83.5 -29t-82.5 -29q-10 66 -11 72z" />
<glyph unicode="&#xff;" horiz-adv-x="921" d="M102 0q2 7 5.5 21.5t5.5 21.5q4 16 4 25q1 6 2.5 7t7.5 1q38 0 66 28q16 11 16 21q3 13 8 37t8 37q44 212 84 391q19 94 103 481q9 47 59 287q2 8 0 17t-6.5 20t-5.5 14q-8 19 -70 184q-13 33 -36.5 98.5t-35.5 98.5q-3 9 -10 27.5t-10 27.5q-12 31 -55 31q-1 0 0.5 10 t5.5 27l8 37h74h119h38h7q2 0 0 -6q-2 -9 -6.5 -28t-6.5 -28q0 -6 -2 -10v-2q-2 -2 -28 -2q-23 -3 -45 -16q-11 -9 -15 -31q0 -1 6 -19q36 -98 56 -149q8 -21 33.5 -94t41.5 -113q41 54 254 322q27 32 31 38q8 8 8 17q3 12 -2 23t-16 16q-16 8 -35 8q-1 0 -4 -1t-4 -1 q-2 2 -2 4q10 45 12 53q0 2 1 6.5t1 6.5q0 6 6 6h86h115h31q4 0 0 -13v-8q-2 -8 -6.5 -25.5t-6.5 -25.5q0 -4 -10 -4h-8q-23 -4 -41 -16q-11 -9 -23 -29q-50 -63 -148.5 -187t-148.5 -186q-13 -19 -55 -67q-1 -1 -7 -9.5t-7 -11.5q-7 -42 -14 -70q-79 -373 -82 -385 q-17 -81 -51.5 -241.5t-51.5 -241.5q-9 -46 -30.5 -147.5t-32.5 -155.5q-2 -2 -2 -8q-3 -5 0 -10q10 -29 61 -33h8q4 0 4 -2q-1 -3 -2 -10.5t-2 -10.5q-8 -37 -10 -51q-2 -2 -8 -2h-8h-103h-123zM362 2089q36 169 37 176q2 2 9 2h8h49h106h4q5 0 3 -6q-1 -7 -4.5 -20.5 t-4.5 -20.5q-8 -39 -24 -113l-4 -18h-33h-115h-31zM780 2089q36 169 37 176q2 2 8 2h6h52h106h4q4 0 2 -6q-1 -7 -4 -20.5t-4 -20.5q-8 -39 -24 -113q0 -2 -3 -10t-4 -8h-30h-115h-31z" />
<glyph unicode="&#x152;" horiz-adv-x="1347" d="M-57 319l272 1287q24 104 59 159q55 86 147.5 139.5t184.5 53.5q66 0 115 -25l24 -12l7 31h721l-48 -223h-71h-4l16 81q4 14 -2 31q-14 35 -74 35h-14h-14h-330h-27q-2 -11 -4 -23l-86 -399h19h4h10h14h121q12 0 24 4.5t28.5 24.5t23.5 55l14 72h78l-80 -385h-78 q0 2 4 22v2q1 3 2 8.5t2 8.5q0 2 5 22q13 70 -29 84q-12 4 -19 4q-8 0 -12 -2h-8h-119h-20l-4 -16l-273 -1280q15 -2 25 -2h6h4h322h12h12q84 0 107 55q1 5 3 16.5t3 16.5q1 2 2 6t2 6l10 47h6h70l-49 -223h-707h-4l10 43l-28 -12q-68 -27 -138 -27q-91 0 -153 45 q-62 41 -87.5 114t-6.5 156zM18 317q-12 -61 7 -115.5t63 -86.5q50 -35 119 -35q61 0 121 31q63 31 108 86.5t58 119.5l280 1319q22 98 -31 170q-55 74 -153 74t-183.5 -72t-107.5 -172z" />
<glyph unicode="&#x153;" horiz-adv-x="1347" d="M-57 319l272 1287q24 104 59 159q55 86 147.5 139.5t184.5 53.5q66 0 115 -25l24 -12l7 31h721l-48 -223h-71h-4l16 81q4 14 -2 31q-14 35 -74 35h-14h-14h-330h-27q-2 -11 -4 -23l-86 -399h19h4h10h14h121q12 0 24 4.5t28.5 24.5t23.5 55l14 72h78l-80 -385h-78 q0 2 4 22v2q1 3 2 8.5t2 8.5q0 2 5 22q13 70 -29 84q-12 4 -19 4q-8 0 -12 -2h-8h-119h-20l-4 -16l-273 -1280q15 -2 25 -2h6h4h322h12h12q84 0 107 55q1 5 3 16.5t3 16.5q1 2 2 6t2 6l10 47h6h70l-49 -223h-707h-4l10 43l-28 -12q-68 -27 -138 -27q-91 0 -153 45 q-62 41 -87.5 114t-6.5 156zM18 317q-12 -61 7 -115.5t63 -86.5q50 -35 119 -35q61 0 121 31q63 31 108 86.5t58 119.5l280 1319q22 98 -31 170q-55 74 -153 74t-183.5 -72t-107.5 -172z" />
<glyph unicode="&#x178;" horiz-adv-x="921" d="M102 0q2 7 5.5 21.5t5.5 21.5q4 16 4 25q1 6 2.5 7t7.5 1q38 0 66 28q16 11 16 21q3 13 8 37t8 37q44 212 84 391q19 94 103 481q9 47 59 287q2 8 0 17t-6.5 20t-5.5 14q-8 19 -70 184q-13 33 -36.5 98.5t-35.5 98.5q-3 9 -10 27.5t-10 27.5q-12 31 -55 31q-1 0 0.5 10 t5.5 27l8 37h74h119h38h7q2 0 0 -6q-2 -9 -6.5 -28t-6.5 -28q0 -6 -2 -10v-2q-2 -2 -28 -2q-23 -3 -45 -16q-11 -9 -15 -31q0 -1 6 -19q36 -98 56 -149q8 -21 33.5 -94t41.5 -113q41 54 254 322q27 32 31 38q8 8 8 17q3 12 -2 23t-16 16q-16 8 -35 8q-1 0 -4 -1t-4 -1 q-2 2 -2 4q10 45 12 53q0 2 1 6.5t1 6.5q0 6 6 6h86h115h31q4 0 0 -13v-8q-2 -8 -6.5 -25.5t-6.5 -25.5q0 -4 -10 -4h-8q-23 -4 -41 -16q-11 -9 -23 -29q-50 -63 -148.5 -187t-148.5 -186q-13 -19 -55 -67q-1 -1 -7 -9.5t-7 -11.5q-7 -42 -14 -70q-79 -373 -82 -385 q-17 -81 -51.5 -241.5t-51.5 -241.5q-9 -46 -30.5 -147.5t-32.5 -155.5q-2 -2 -2 -8q-3 -5 0 -10q10 -29 61 -33h8q4 0 4 -2q-1 -3 -2 -10.5t-2 -10.5q-8 -37 -10 -51q-2 -2 -8 -2h-8h-103h-123zM285 2089q35 169 37 176q2 2 8 2h8h49h107h4q4 0 2 -6q-1 -7 -4 -20.5 t-4 -20.5q-5 -22 -13.5 -61t-11.5 -52l-4 -18h-33h-115h-30zM702 2089q36 169 37 176q2 2 9 2h6h51h106h4q5 0 3 -6q-1 -7 -4.5 -20.5t-4.5 -20.5q-8 -39 -24 -113q0 -2 -2.5 -10t-3.5 -8h-31h-115h-31z" />
<glyph unicode="&#x2c6;" horiz-adv-x="768" d="M53 2091q48 44 144.5 132t144.5 132q4 4 8 4h43h84q30 -44 89 -132t89 -132q1 0 1 -1.5t1 -2.5h-92q-8 0 -10 4q-3 4 -8 11.5t-8 11.5q-17 25 -36 53.5t-42 62.5t-35 52q-8 12 -20 32q-74 -64 -144 -129q-15 -13 -43.5 -38.5t-42.5 -39.5q-3 -3 -10 -9t-10 -9 q-2 -2 -11 -2h-10h-82z" />
<glyph unicode="&#x2dc;" horiz-adv-x="821" d="M84 2150q91 68 170 88q37 11 61 11q19 0 35 -4q35 -10 72 -50q12 -12 18 -20q24 -28 49 -47q18 -12 39 -12q19 0 54 14q55 24 100 82q12 -3 18 -6q12 -4 15 -4l33 -17q-32 -48 -97 -96q-70 -49 -139 -49q-30 0 -56.5 13.5t-42 28.5t-40.5 44l-4 4q-2 2 -9 9.5t-10 10 t-10.5 8.5t-12.5 8.5t-13.5 4.5t-16.5 2q-4 0 -8 -2q-42 -4 -105 -37q-46 -28 -59 -39l-2 2v4z" />
<glyph unicode="&#x2000;" horiz-adv-x="1179" />
<glyph unicode="&#x2001;" horiz-adv-x="2359" />
<glyph unicode="&#x2002;" horiz-adv-x="1179" />
<glyph unicode="&#x2003;" horiz-adv-x="2359" />
<glyph unicode="&#x2004;" horiz-adv-x="786" />
<glyph unicode="&#x2005;" horiz-adv-x="589" />
<glyph unicode="&#x2006;" horiz-adv-x="393" />
<glyph unicode="&#x2007;" horiz-adv-x="393" />
<glyph unicode="&#x2008;" horiz-adv-x="294" />
<glyph unicode="&#x2009;" horiz-adv-x="471" />
<glyph unicode="&#x200a;" horiz-adv-x="131" />
<glyph unicode="&#x2010;" horiz-adv-x="585" d="M74 813l16 76h49h230h100h33h8h2v-4q-2 -2 -2 -8q-4 -22 -8 -31l-6 -33h-50h-372z" />
<glyph unicode="&#x2011;" horiz-adv-x="585" d="M74 813l16 76h49h230h100h33h8h2v-4q-2 -2 -2 -8q-4 -22 -8 -31l-6 -33h-50h-372z" />
<glyph unicode="&#x2012;" horiz-adv-x="585" d="M74 813l16 76h49h230h100h33h8h2v-4q-2 -2 -2 -8q-4 -22 -8 -31l-6 -33h-50h-372z" />
<glyph unicode="&#x2013;" horiz-adv-x="757" d="M74 813l16 76h37h199h358l-16 -76h-33h-197h-364z" />
<glyph unicode="&#x2014;" horiz-adv-x="1120" d="M74 813l16 76h25h145h471h313q3 0 3 -2q-10 -39 -11 -49q-4 -4 -4 -19l-2 -6h-8h-121h-461h-352h-14z" />
<glyph unicode="&#x2018;" horiz-adv-x="342" d="M41 1559v4q2 8 5 23.5t5 23.5q14 65 40 185.5t34 156.5h39h26h11q-2 -2 -2 -6q0 -2 -1 -7t-1 -6l-6 -24t-5 -21q-4 -20 -12 -58t-12 -58q-4 -22 -8 -35q0 -4 8 -4h6h88q-15 -72 -18 -88q-3 -15 -9.5 -44.5t-9.5 -44.5q-2 -2 -72 -2h-102q-7 0 -4 5z" />
<glyph unicode="&#x2019;" horiz-adv-x="344" d="M88 1776q12 46 21 96q2 9 6 27.5t6 27.5q0 11 2 17q0 6 4 8h6h19h55h94q2 0 2 -4q0 -2 -2 -6t-2 -5q-2 -8 -5 -24.5t-5 -24.5q-4 -17 -11.5 -53t-11.5 -53q-30 -138 -35 -164q-2 -7 -5 -22t-5 -23q0 -1 -1 -5.5t-1 -6.5l-2 -7h-10h-27h-39q7 31 20.5 94t20.5 95 q1 5 3 14.5t3 14.5q0 2 -10 2h-12h-57q-1 0 -6 -1t-9 -1q-6 0 -6 4z" />
<glyph unicode="&#x201a;" horiz-adv-x="344" d="M88 0q12 50 21 96q2 9 6 28t6 28q0 12 2 18q0 6 2 6q2 2 8 2q3 0 10 -1l7 -1h55h94q4 0 4 -4q0 -1 -2 -4t-2 -4q-2 -9 -5 -26t-5 -25q-4 -18 -11.5 -53t-11.5 -52q-29 -132 -35 -166q-2 -7 -5 -21.5t-5 -21.5q0 -1 -1 -5.5t-1 -6.5l-2 -6h-2h-8h-27h-39q7 31 20.5 93 t20.5 93q1 5 3 15.5t3 15.5h-4h-18h-57h-13q-8 0 -8 2z" />
<glyph unicode="&#x201c;" horiz-adv-x="669" d="M123 1559v4q2 8 5 23.5t5 23.5q14 65 40 185.5t34 156.5h39h26h11q-2 -2 -2 -6q0 -2 -1 -7t-1 -6l-6 -24t-5 -21q-4 -20 -12 -58t-12 -58q-4 -22 -8 -35q0 -4 8 -4h6h88q-2 -11 -9 -41t-10 -47q-3 -14 -9 -44.5t-9 -44.5q-2 -2 -72 -2h-102q-7 0 -4 5zM369 1559v4 q2 8 5 23.5t5 23.5q14 65 40 185.5t34 156.5h39h26h10q-2 -2 -2 -6q0 -2 -1 -7t-1 -6q-2 -8 -5 -23t-5 -22q-4 -20 -12.5 -58t-12.5 -58q-4 -22 -8 -35q0 -4 8 -4h7h88q-2 -11 -9 -41t-10 -47q-3 -14 -9 -44.5t-9 -44.5q-2 -2 -72 -2h-102q-7 0 -4 5z" />
<glyph unicode="&#x201d;" horiz-adv-x="679" d="M170 1776q9 33 20 96q2 9 6.5 27.5t6.5 27.5q0 11 2 17q0 6 4 8h6h18h56h94q2 0 2 -4q0 -2 -2 -6t-2 -5q-2 -8 -5 -24.5t-5 -24.5q-4 -17 -11.5 -53t-11.5 -53q-30 -138 -35 -164q-2 -7 -5 -22t-5 -23q0 -1 -1 -5.5t-1 -6.5l-2 -7h-10h-27h-39q7 31 20.5 94t20.5 95 q1 5 3 14.5t3 14.5q0 2 -10 2h-12h-58q-1 0 -6 -1t-8 -1q-6 0 -6 4zM424 1776q9 33 20 96q2 9 6.5 27.5t6.5 27.5q0 11 2 17q0 6 4 8h6h18h56h94q2 0 2 -4q0 -2 -2 -6t-2 -5q-2 -8 -5 -24.5t-5 -24.5q-4 -17 -11.5 -53t-11.5 -53q-30 -138 -35 -164q-2 -7 -5 -22t-5 -23 q0 -1 -1 -5.5t-1 -6.5l-2 -7h-10h-27h-39q7 31 20.5 94t20.5 95q1 5 3 14.5t3 14.5q0 2 -10 2h-12h-58l-5 -1q-5 -1 -9 -1q-6 0 -6 4z" />
<glyph unicode="&#x201e;" horiz-adv-x="344" d="M88 0q12 50 21 96q2 9 6 28t6 28q0 12 2 18q0 6 2 6q2 2 8 2q3 0 10 -1l7 -1h55h94q4 0 4 -4q0 -1 -2 -4t-2 -4q-2 -9 -5 -26t-5 -25q-4 -18 -11.5 -53t-11.5 -52q-29 -132 -35 -166q-2 -7 -5 -21.5t-5 -21.5q0 -1 -1 -5.5t-1 -6.5l-2 -6h-2h-8h-27h-39q7 31 20.5 93 t20.5 93q1 5 3 15.5t3 15.5h-4h-18h-57h-13q-8 0 -8 2zM88 0q12 50 21 96q2 9 6 28t6 28q0 12 2 18q0 6 2 6q2 2 8 2q3 0 10 -1l7 -1h55h94q4 0 4 -4q0 -1 -2 -4t-2 -4q-2 -9 -5 -26t-5 -25q-4 -18 -11.5 -53t-11.5 -52q-29 -132 -35 -166q-2 -7 -5 -21.5t-5 -21.5 q0 -1 -1 -5.5t-1 -6.5l-2 -6h-2h-8h-27h-39q7 31 20.5 93t20.5 93q1 5 3 15.5t3 15.5h-4h-18h-57h-13q-8 0 -8 2z" />
<glyph unicode="&#x2022;" horiz-adv-x="526" d="M82 999q17 75 81.5 128t137.5 53q75 0 117.5 -53t25.5 -128q-15 -75 -80.5 -128.5t-140.5 -53.5q-73 0 -114.5 53.5t-26.5 128.5z" />
<glyph unicode="&#x2026;" horiz-adv-x="423" d="M145 4q6 29 18.5 87.5t18.5 88.5q0 2 6 2h9h49h106h4q4 0 4 -6q-2 -6 -5 -20.5t-5 -20.5q-3 -18 -11 -56t-11 -56l-4 -19h-33h-115h-31zM145 4q6 29 18.5 87.5t18.5 88.5q0 2 6 2h9h49h106h4q4 0 4 -6q-2 -6 -5 -20.5t-5 -20.5q-3 -18 -11 -56t-11 -56l-4 -19h-33h-115 h-31zM145 4q6 29 18.5 87.5t18.5 88.5q0 2 6 2h9h49h106h4q4 0 4 -6q-2 -6 -5 -20.5t-5 -20.5q-3 -18 -11 -56t-11 -56l-4 -19h-33h-115h-31z" />
<glyph unicode="&#x202f;" horiz-adv-x="471" />
<glyph unicode="&#x2039;" horiz-adv-x="501" d="M82 532l410 338l-25 -122l-264 -216l170 -223l-25 -123z" />
<glyph unicode="&#x203a;" horiz-adv-x="501" d="M10 186l25 123l264 223l-170 216l25 122l266 -338z" />
<glyph unicode="&#x205f;" horiz-adv-x="589" />
<glyph unicode="&#x20ac;" horiz-adv-x="886" d="M33 315q2 8 5 23t5 22q14 66 41.5 197t42.5 197q0 2 -2 2h-8h-58h-14q-10 0 -10 4q2 8 12 53q1 3 2 8.5t2 7.5q0 2 8 2h56h22h6q3 16 9 35q6 37 22 111q0 2 2 4.5t2 3.5q0 4 -6 4h-53h-35q8 31 10 47q0 1 1 6t1 7q4 16 8 16h52h24h10h3v2l2 6q2 10 6 31t6 31 q8 37 24.5 111.5t24.5 111.5q7 39 23 112.5t22 106.5q25 114 51 162q43 79 118 135.5t161 73.5q34 6 65 6q68 0 125 -28.5t90 -80.5q56 -83 37 -198h-43h-24h-9v8q4 8 0 8q13 104 -55 168q-53 47 -133 47q-60 0 -120 -27t-103 -77q-54 -60 -70 -136q-8 -31 -10 -49 q-8 -36 -23.5 -107.5t-23.5 -107.5q-8 -38 -23.5 -113.5t-23.5 -113.5q-10 -37 -15 -68q-2 -4 -2 -8q-3 -6 4 -6h396h22q4 0 4 -4q0 -1 -2 -4t-2 -4q-2 -9 -6 -28t-6 -28l-2 -6q0 -2 -4 -2h-178h-215h-25q-4 0 -4 -4q-4 -17 -11.5 -51.5t-11.5 -52.5q-1 -7 -4 -21.5 t-4 -21.5q-2 -7 2 -7h64h233h94h27q4 0 4 -2q-2 -2 -2 -4q-8 -35 -10 -55q-1 -1 -1 -4.5t-1 -5.5q0 -4 -4 -4h-60h-364q-13 -64 -41 -192.5t-41 -192.5q-8 -36 -10 -54q-19 -87 18 -151q24 -43 69.5 -66.5t100.5 -23.5q95 0 174 61q90 71 115 174q0 5 4 21t6 16h49h23 q4 0 0 -4q0 -6 -2 -8q-6 -34 -17 -66q-30 -83 -98 -151q-56 -56 -127 -87.5t-143 -31.5q-84 0 -150 44t-92 116q-24 70 -8 155z" />
<glyph unicode="&#x25fc;" horiz-adv-x="1945" d="M0 0v1946h1946v-1946h-1946z" />
</font>
</defs>
</svg>
